<?xml version="1.0" encoding="utf-8"?>
<!-- Generator: Adobe Illustrator 16.2.0, SVG Export Plug-In . SVG Version: 6.00 Build 0)  -->
<!DOCTYPE svg PUBLIC "-//W3C//DTD SVG 1.1//EN" "http://www.w3.org/Graphics/SVG/1.1/DTD/svg11.dtd">
<svg version="1.1" xmlns="http://www.w3.org/2000/svg" xmlns:xlink="http://www.w3.org/1999/xlink" x="0px" y="0px" width="45px"
	 height="433px" viewBox="0 0 45 433" enable-background="new 0 0 45 433" xml:space="preserve">
<g id="BG">
</g>
<g id="Layer_26">
</g>
<g id="Layer_29">
</g>
<g id="Gracias" display="none">
</g>
<g id="Layer_27" display="none">
</g>
<g id="Layer_28" display="none">
</g>
<g id="Layer_25">
</g>
<g id="Layer_24">
</g>
<g id="_x35__BG">
</g>
<g id="Layer_23">
</g>
<g id="Text_5" display="none">
</g>
<g id="_x34__dotted" display="none">
</g>
<g id="_x34__BG">
</g>
<g id="Text_4" display="none">
</g>
<g id="Layer_18">
</g>
<g id="_x33__dotted" display="none">
</g>
<g id="_x33__BG">
</g>
<g id="Layer_14">
</g>
<g id="Text_3" display="none">
</g>
<g id="_x32__dotted" display="none">
</g>
<g id="_x32__BG_1_">
</g>
<g id="_x32__BG">
</g>
<g id="Text_2" display="none">
</g>
<g id="_x31__dotted">
	<g>
		<g>
			<rect x="20" fill="#6DCFF6" width="4" height="6"/>
			<path fill="#6DCFF6" d="M24,406h-4v-4h4V406z M24,390h-4v-12h4V390z M24,366h-4v-12h4V366z M24,342h-4v-12h4V342z M24,318h-4v-12
				h4V318z M24,294h-4v-12h4V294z M24,270h-4v-12h4V270z M24,246h-4v-12h4V246z M24,222h-4v-12h4V222z M24,198h-4v-12h4V198z
				 M24,174h-4v-12h4V174z M24,150h-4v-12h4V150z M24,126h-4v-12h4V126z M24,102h-4V90h4V102z M24,78h-4V66h4V78z M24,54h-4V42h4V54
				z M24,30h-4V18h4V30z"/>
			<rect x="20" y="412" fill="#6DCFF6" width="4" height="6"/>
		</g>
		<polygon fill="#6DCFF6" points="27,433 17,433 0,399 10,399 		"/>
		<polyline fill="#6DCFF6" points="35,399 18,433 28,433 45,399 		"/>
	</g>
</g>
<g id="_x31__BG">
</g>
<g id="Layer_7">
</g>
<g id="TEAMS">
</g>
<g id="FIFA">
</g>
<g id="LOGO">
</g>
<g id="Layer_31">
</g>
<g id="Layer_6">
</g>
</svg>
