<?xml version="1.0" encoding="utf-8"?>
<!-- Generator: Adobe Illustrator 16.2.0, SVG Export Plug-In . SVG Version: 6.00 Build 0)  -->
<!DOCTYPE svg PUBLIC "-//W3C//DTD SVG 1.1//EN" "http://www.w3.org/Graphics/SVG/1.1/DTD/svg11.dtd">
<svg version="1.1" xmlns="http://www.w3.org/2000/svg" xmlns:xlink="http://www.w3.org/1999/xlink" x="0px" y="0px" width="1493px"
	 height="992px" viewBox="0 0 1493 992" enable-background="new 0 0 1493 992" xml:space="preserve">
<g id="BG">
</g>
<g id="Layer_26">
</g>
<g id="Layer_29">
</g>
<g id="Gracias" display="none">
</g>
<g id="Layer_27" display="none">
</g>
<g id="Layer_28" display="none">
</g>
<g id="Layer_25">
</g>
<g id="Layer_24">
</g>
<g id="_x35__BG">
</g>
<g id="Layer_23">
</g>
<g id="Text_5" display="none">
</g>
<g id="_x34__dotted" display="none">
</g>
<g id="_x34__BG">
</g>
<g id="Text_4" display="none">
</g>
<g id="Layer_18">
</g>
<g id="_x33__dotted" display="none">
</g>
<g id="_x33__BG">
</g>
<g id="Layer_14">
</g>
<g id="Text_3" display="none">
</g>
<g id="_x32__dotted" display="none">
</g>
<g id="_x32__BG_1_">
</g>
<g id="_x32__BG">
</g>
<g id="Text_2" display="none">
</g>
<g id="_x31__dotted">
</g>
<g id="_x31__BG">
</g>
<g id="Layer_7">
</g>
<g id="TEAMS">
</g>
<g id="FIFA">
</g>
<g id="LOGO">
</g>
<g id="Layer_31">
</g>
<g id="Layer_6">
	<g>
		<polygon fill="#6DCFF6" points="1493,738.46 0,992 0,0 975.64,0 1493,82.87 		"/>
		<g>
			<defs>
				<polygon id="SVGID_19_" points="1493,738.46 0,992 0,0 975.64,0 1493,82.87 				"/>
			</defs>
			<clipPath id="SVGID_2_">
				<use xlink:href="#SVGID_19_"  overflow="visible"/>
			</clipPath>
			<g opacity="0.3" clip-path="url(#SVGID_2_)">
				<path fill="#FFFFFF" d="M94.38,548.04c0,0,3.47-2.63,10.21-7.22c6.75-4.59,16.75-11.17,29.86-18.96
					c13.12-7.75,29.26-16.84,48.22-26.41c18.93-9.64,40.7-19.72,64.92-29.59c24.25-9.79,50.88-19.55,79.58-28.27
					c14.32-4.45,29.18-8.52,44.44-12.44c7.64-1.89,15.36-3.84,23.22-5.52c7.83-1.81,15.79-3.38,23.82-5c4-0.85,8.06-1.51,12.11-2.27
					c4.06-0.71,8.12-1.53,12.23-2.17c8.21-1.3,16.46-2.71,24.82-3.79c16.67-2.45,33.65-4.15,50.77-5.66
					c34.28-2.7,69.25-3.54,104.17-2.36c34.92,1.29,69.73,4.75,103.71,9.98c33.99,5.21,67.09,12.47,98.68,21.02
					c31.61,8.52,61.63,18.6,89.65,29.26c28.07,10.56,53.94,22.19,77.56,33.39c5.88,2.86,11.63,5.67,17.25,8.4
					c5.6,2.79,10.99,5.67,16.27,8.43c2.64,1.39,5.24,2.75,7.8,4.1c1.29,0.68,2.56,1.35,3.83,2.01c1.25,0.7,2.49,1.39,3.72,2.08
					c4.92,2.76,9.7,5.43,14.33,8.03c2.32,1.3,4.59,2.57,6.83,3.83c2.24,1.25,4.39,2.59,6.53,3.84c4.26,2.53,8.37,4.98,12.32,7.33
					c7.94,4.62,15.03,9.18,21.48,13.24c6.42,4.1,12.25,7.6,17.12,10.97c4.91,3.3,9.08,6.11,12.47,8.39
					c6.77,4.55,10.38,6.98,10.38,6.98s-3.68-2.32-10.59-6.66c-3.45-2.17-7.71-4.85-12.71-8c-1.25-0.79-2.55-1.6-3.9-2.45
					c-1.36-0.81-2.77-1.65-4.23-2.52c-2.91-1.74-6-3.59-9.26-5.55c-6.53-3.91-13.71-8.3-21.74-12.73c-3.99-2.25-8.15-4.6-12.45-7.03
					c-2.16-1.2-4.33-2.49-6.6-3.68c-2.26-1.2-4.56-2.42-6.9-3.66c-4.67-2.48-9.5-5.04-14.47-7.68c-1.24-0.66-2.49-1.32-3.75-1.99
					c-1.28-0.64-2.56-1.27-3.86-1.92c-2.59-1.29-5.22-2.59-7.87-3.91c-5.33-2.61-10.73-5.44-16.35-8.13
					c-5.64-2.65-11.41-5.36-17.31-8.14c-23.69-10.83-49.6-22.05-77.67-32.17c-28.02-10.23-58.01-19.77-89.45-28.09
					c-31.44-8.32-64.38-15.13-98.11-20.29c-33.74-5.12-68.3-8.46-102.94-9.67c-34.64-1.25-69.35-0.49-103.38,2.1
					c-34.01,2.8-67.37,7.12-99.31,13.19c-31.94,6.1-62.56,13.39-91.18,21.79c-28.66,8.28-55.3,17.63-79.58,27.05
					c-24.22,9.57-46.14,19.1-65.23,28.27c-19.12,9.12-35.42,17.81-48.68,25.26c-13.23,7.51-23.47,13.69-30.33,18.1
					C97.92,545.52,94.38,548.04,94.38,548.04z"/>
				<path fill="#FFFFFF" d="M240.06,506.06c0,0,11.76-2.51,32.48-6.19c10.36-1.82,22.95-3.99,37.43-6.22
					c7.23-1.17,14.96-2.24,23.09-3.47c8.14-1.13,16.7-2.32,25.65-3.45c8.95-1.11,18.27-2.32,27.93-3.38
					c4.83-0.55,9.74-1.1,14.73-1.66c4.99-0.51,10.07-1.04,15.21-1.57c2.57-0.26,5.16-0.53,7.76-0.8c2.61-0.24,5.23-0.48,7.87-0.72
					c5.28-0.48,10.63-0.97,16.03-1.46c5.4-0.47,10.88-0.87,16.4-1.29c5.52-0.39,11.09-0.89,16.72-1.21
					c11.26-0.67,22.69-1.5,34.29-1.97c5.8-0.28,11.63-0.55,17.49-0.83c5.86-0.19,11.76-0.39,17.68-0.58
					c23.67-0.82,47.73-0.98,71.79-0.87c6.01,0.05,12.02,0.25,18.03,0.36c6.01,0.16,12.01,0.22,18,0.45
					c5.99,0.25,11.96,0.51,17.92,0.76c5.96,0.26,11.9,0.46,17.81,0.9c5.91,0.38,11.79,0.76,17.65,1.13c2.93,0.2,5.85,0.39,8.76,0.58
					c2.91,0.26,5.81,0.51,8.7,0.76c11.56,1.04,23,1.9,34.19,3.29c5.61,0.63,11.17,1.26,16.67,1.88c5.51,0.56,10.93,1.48,16.31,2.21
					c5.37,0.77,10.69,1.53,15.94,2.28c2.63,0.35,5.23,0.78,7.81,1.25c2.58,0.45,5.15,0.89,7.69,1.33
					c10.18,1.79,20.12,3.35,29.62,5.45c4.76,0.98,9.45,1.95,14.04,2.9c2.3,0.48,4.58,0.94,6.83,1.41c2.25,0.48,4.46,1.06,6.65,1.58
					c8.77,2.13,17.17,4.17,25.16,6.11c7.9,2.26,15.41,4.4,22.45,6.42c1.76,0.5,3.49,1,5.2,1.49c1.71,0.48,3.38,0.96,5,1.52
					c3.25,1.08,6.39,2.11,9.4,3.11c6.02,1.99,11.55,3.82,16.54,5.47c1.25,0.4,2.46,0.83,3.62,1.29c1.16,0.44,2.29,0.87,3.39,1.29
					c2.19,0.83,4.24,1.62,6.15,2.34c3.82,1.45,7.07,2.69,9.7,3.7c5.26,2.01,8.07,3.08,8.07,3.08s-2.82-1.03-8.12-2.96
					c-2.65-0.96-5.91-2.16-9.75-3.56c-1.92-0.7-3.98-1.45-6.18-2.25c-1.1-0.4-2.24-0.82-3.4-1.24c-1.16-0.44-2.37-0.85-3.63-1.23
					c-5.02-1.58-10.56-3.33-16.61-5.23c-3.02-0.95-6.17-1.94-9.43-2.97c-1.62-0.54-3.3-0.99-5.01-1.45
					c-1.71-0.46-3.45-0.93-5.21-1.41c-7.07-1.91-14.58-3.95-22.51-6.09c-8-1.87-16.4-3.83-25.17-5.88c-2.2-0.5-4.4-1.06-6.65-1.53
					c-2.26-0.45-4.53-0.9-6.83-1.35c-4.6-0.91-9.28-1.84-14.04-2.78c-9.5-2.02-19.44-3.5-29.62-5.21c-2.54-0.42-5.11-0.84-7.69-1.27
					c-2.58-0.44-5.18-0.85-7.8-1.18c-5.25-0.71-10.56-1.43-15.93-2.15c-2.69-0.36-5.38-0.73-8.1-1.09
					c-1.35-0.19-2.72-0.37-4.08-0.56c-1.37-0.15-2.74-0.31-4.11-0.46c-5.5-0.61-11.05-1.22-16.64-1.83
					c-11.18-1.36-22.6-2.19-34.14-3.19c-2.89-0.24-5.78-0.49-8.68-0.74c-2.91-0.18-5.82-0.37-8.75-0.56
					c-5.85-0.36-11.72-0.72-17.62-1.08c-5.89-0.42-11.83-0.61-17.78-0.85c-5.95-0.24-11.91-0.48-17.89-0.71
					c-5.98-0.22-11.97-0.27-17.97-0.41c-6-0.1-12-0.28-18.01-0.32c-24.02-0.17-48.04-0.08-71.68,0.68
					c-5.91,0.18-11.79,0.36-17.65,0.54c-5.85,0.27-11.68,0.53-17.47,0.79c-11.58,0.45-23.01,1.24-34.25,1.88
					c-11.24,0.71-22.28,1.59-33.09,2.35c-5.4,0.45-10.75,0.89-16.03,1.33c-2.64,0.22-5.26,0.44-7.87,0.65
					c-2.6,0.25-5.19,0.49-7.76,0.73c-5.14,0.49-10.21,0.97-15.21,1.44c-4.99,0.52-9.9,1.04-14.73,1.54
					c-9.67,0.98-18.99,2.12-27.94,3.16c-17.89,2.18-34.28,4.3-48.78,6.36c-14.51,2.02-27.12,4.01-37.5,5.68
					C251.85,503.71,240.06,506.06,240.06,506.06z"/>
				<path fill="#FFFFFF" d="M1121.66,594.36c-21.3-4.42-42.62-8.67-64.04-12.45c-21.41-3.8-42.86-7.36-64.37-10.52
					c-21.5-3.24-43.05-6.1-64.62-8.81c-21.57-2.75-43.19-5.06-64.81-7.27c-21.63-2.14-43.29-4.04-64.96-5.72
					c-21.68-1.63-43.36-3.08-65.07-4.3c-21.7-1.21-43.41-2.31-65.14-3.08c-21.72-0.79-43.45-1.45-65.19-1.82
					c-43.47-0.81-86.95-0.79-130.42-0.06c-21.73,0.39-43.47,0.87-65.2,1.57c-21.73,0.69-43.45,1.56-65.16,2.62
					c-43.43,2.11-86.82,4.95-130.15,8.53c-21.66,1.81-43.31,3.81-64.94,5.97c-21.62,2.19-43.25,4.55-64.77,7.39l-0.35,0.05
					l-0.32-0.11C59.28,558.69,36.31,551.27,13.3,544c-23.02-7.27-46.09-14.33-69.22-21.24c-23.13-6.87-46.34-13.5-69.72-19.5
					c-11.69-2.99-23.42-5.82-35.24-8.25c-5.91-1.21-11.84-2.32-17.81-3.2c-2.99-0.42-5.98-0.82-8.99-1.07
					c-3-0.25-6.02-0.43-9.04-0.26c3.01-0.21,6.04-0.06,9.05,0.15c3.01,0.21,6.01,0.57,9.01,0.96c5.98,0.81,11.93,1.85,17.86,2.99
					c11.86,2.29,23.63,4.98,35.37,7.83c23.47,5.72,46.77,12.07,70,18.66c23.24,6.57,46.36,13.53,69.44,20.64
					c23.08,7.12,46.1,14.38,69.06,21.87l-0.66-0.06c21.58-3.01,43.19-5.51,64.83-7.85c21.64-2.35,43.3-4.37,64.98-6.23
					c43.36-3.69,86.79-6.63,130.26-8.84c21.73-1.1,43.47-2.03,65.22-2.77c21.75-0.72,43.5-1.35,65.26-1.65
					c43.52-0.63,87.05-0.55,130.56,0.35c21.76,0.42,43.51,1.13,65.25,1.97c21.75,0.83,43.48,1.97,65.2,3.24
					c21.73,1.28,43.42,2.95,65.11,4.71c21.68,1.84,43.35,3.88,64.99,6.18c21.63,2.37,43.25,4.83,64.82,7.73
					c5.4,0.68,10.79,1.43,16.17,2.19l16.16,2.29c10.75,1.64,21.52,3.22,32.25,5.01c21.48,3.43,42.9,7.25,64.28,11.32
					C1079.14,585.17,1100.42,589.68,1121.66,594.36z"/>
				<polygon fill="#FFFFFF" points="122.37,553.64 139.3,519.74 139.38,519.57 139.51,519.7 174.83,553.42 174.35,553.48 
					218.91,479.46 219.41,478.62 219.96,479.43 261.65,541.02 260.14,541.07 316.55,442.55 317.58,440.74 318.62,442.55 
					370.82,534.06 368.31,534.21 417.52,415.85 418.95,412.41 420.55,415.78 476.67,533.97 473.35,534.04 526.44,407.36 
					528.15,403.28 529.95,407.32 587.89,536.93 584.2,536.97 641.03,400.47 643.07,395.57 644.92,400.54 697.07,540.75 
					693.38,540.66 747.58,415.74 749.45,411.44 751.09,415.83 800.46,547.34 797.17,547.16 852.05,439.84 853.85,436.32 
					855.04,440.08 891.78,556.39 889.29,556.11 940.27,471.09 941.49,469.05 942.36,471.25 980.73,568.19 979.19,567.99 
					1023.25,509.2 1023.86,508.4 1024.3,509.29 1059.37,579.52 1058.85,579.4 1096.31,550.05 1096.49,549.92 1096.57,550.12 
					1113.04,592.51 1096.26,550.24 1096.52,550.31 1059.27,579.93 1058.95,580.19 1058.76,579.82 1023.19,509.85 1024.25,509.94 
					980.62,569.05 979.68,570.32 979.08,568.85 940.19,472.12 942.28,472.29 891.65,557.51 890.1,560.13 889.16,557.23 
					851.95,441.06 854.94,441.31 800.38,548.8 798.53,552.44 797.08,548.61 747.54,417.16 751.06,417.25 697.04,542.24 
					695.08,546.77 693.35,542.14 641,402 644.89,402.08 587.9,538.52 586.11,542.82 584.22,538.56 526.46,408.88 529.97,408.84 
					476.71,535.45 475.12,539.22 473.38,535.53 417.55,417.21 420.58,417.14 370.9,535.29 369.79,537.93 368.38,535.44 
					316.55,443.73 318.61,443.74 261.68,541.96 260.96,543.2 260.17,542.01 218.92,480.13 219.97,480.1 174.88,553.8 174.67,554.14 
					174.4,553.87 139.32,519.9 139.54,519.86 				"/>
				<path fill="#FFFFFF" d="M934.68,467.59c0,0,27.28-22.55,69.26-54.96c10.49-8.11,21.9-16.84,34.03-25.98
					c12.12-9.16,24.99-18.71,38.34-28.52c13.38-9.78,27.25-19.82,41.46-29.87c7.11-5.01,14.26-10.09,21.51-15.08
					c3.62-2.51,7.25-5.02,10.87-7.53c3.65-2.48,7.31-4.97,10.96-7.46c7.29-5,14.65-9.89,21.99-14.76
					c7.31-4.91,14.71-9.63,21.99-14.38c7.29-4.76,14.64-9.29,21.83-13.87c7.23-4.52,14.45-8.88,21.5-13.22
					c7.13-4.22,14.15-8.37,21.01-12.43c6.95-3.92,13.71-7.82,20.35-11.51c6.69-3.6,13.15-7.18,19.49-10.49
					c6.37-3.24,12.48-6.46,18.44-9.38c5.98-2.85,11.69-5.63,17.17-8.18c5.53-2.44,10.77-4.75,15.7-6.92
					c9.99-4.03,18.68-7.58,26.05-9.96c1.83-0.63,3.56-1.23,5.18-1.79c1.63-0.57,3.15-1.1,4.6-1.48c2.89-0.83,5.34-1.53,7.34-2.1
					c3.98-1.14,6.1-1.74,6.1-1.74s-2.12,0.63-6.09,1.8c-1.99,0.59-4.43,1.31-7.31,2.17c-1.45,0.39-2.97,0.94-4.59,1.52
					c-1.62,0.58-3.34,1.19-5.16,1.84c-7.33,2.45-15.99,6.09-25.92,10.21c-4.9,2.22-10.12,4.58-15.62,7.07
					c-5.45,2.6-11.13,5.44-17.07,8.35c-5.91,2.98-11.98,6.25-18.32,9.55c-6.29,3.37-12.71,7.01-19.35,10.67
					c-6.6,3.75-13.31,7.71-20.21,11.7c-6.82,4.12-13.78,8.33-20.86,12.62c-7.01,4.41-14.17,8.82-21.35,13.41
					c-7.14,4.64-14.43,9.24-21.66,14.07c-7.23,4.82-14.57,9.6-21.82,14.58c-7.28,4.93-14.58,9.89-21.82,14.96
					c-3.62,2.52-7.25,5.04-10.87,7.55c-3.6,2.55-7.2,5.09-10.78,7.63c-7.2,5.05-14.29,10.2-21.34,15.28
					c-14.09,10.17-27.85,20.35-41.11,30.24c-13.24,9.94-26,19.6-38.01,28.87c-12.03,9.25-23.34,18.08-33.74,26.28
					c-20.8,16.39-37.95,30.28-49.9,40.07c-11.95,9.79-18.69,15.47-18.69,15.47L934.68,467.59z"/>
				<path fill="#FFFFFF" d="M963.44,471.52l7.01-115.53l0.28-4.56l3.77,2.55l89.64,60.5l-3.61,1.14l80.21-206.71l1.01-2.61
					l2.18,1.75l124.91,100.4l-2.64,0.48l130.13-219.06l1.14,1.6c-12.95,2.64-25.79,5.78-38.51,9.38
					c-12.69,3.67-25.25,7.83-37.67,12.36c-12.4,4.58-24.64,9.61-36.75,14.92c-12.09,5.37-24,11.13-35.78,17.14
					c-47.06,24.22-91.5,53.36-133.66,85.35c-42.15,32.05-82.1,66.95-120.03,103.91c-18.97,18.48-37.43,37.47-55.38,56.95
					c-8.96,9.75-17.8,19.61-26.47,29.62c-8.67,10.01-17.22,20.12-25.44,30.5c8.19-10.41,16.71-20.55,25.34-30.59
					c8.64-10.04,17.45-19.93,26.38-29.71c17.88-19.54,36.29-38.6,55.2-57.15c37.82-37.1,77.68-72.16,119.76-104.38
					c42.09-32.17,86.49-61.5,133.58-85.93c11.79-6.06,23.71-11.88,35.81-17.3c12.12-5.37,24.38-10.46,36.8-15.09
					c12.45-4.58,25.03-8.8,37.77-12.53c12.75-3.66,25.64-6.86,38.64-9.56l2.36-0.49l-1.23,2.09l-128.93,219.77l-1.04,1.76l-1.6-1.28
					l-125.25-99.98l3.19-0.86l-79.51,206.99l-1.09,2.83l-2.52-1.69l-89.84-60.2l4.05-2.01l-6.63,115.55L963.44,471.52z"/>
				<path fill="#FFFFFF" d="M924.14,496.79l4.53-95.61l0.17-3.59l2.94,2.05l81.41,56.87l-2.89,1.22l27.79-165.61l0.44-2.64
					l2.16,1.58l102.86,75.24l-2.19,0.49l127.59-233.47l0.6-1.1l1.04,0.68l176.06,113.64l1.45,0.94l-1.69,0.37
					c-11.77,2.58-23.46,5.49-35.08,8.67c-11.61,3.19-23.13,6.74-34.59,10.47c-11.46,3.73-22.81,7.8-34.11,11.99
					c-11.29,4.2-22.48,8.69-33.63,13.28c-44.53,18.51-87.84,39.87-130.15,62.99c-42.31,23.16-83.64,48.09-124.06,74.39
					c-20.22,13.15-40.2,26.66-59.95,40.5c-9.87,6.93-19.68,13.94-29.42,21.05c-9.73,7.12-19.41,14.31-28.94,21.71
					c9.5-7.42,19.17-14.64,28.89-21.78c9.72-7.14,19.52-14.17,29.37-21.12c19.72-13.9,39.67-27.45,59.86-40.66
					c40.37-26.41,81.64-51.45,123.91-74.72c42.27-23.24,85.56-44.72,130.08-63.36c11.14-4.63,22.33-9.15,33.63-13.38
					c11.3-4.23,22.66-8.32,34.12-12.09c11.46-3.77,22.99-7.35,34.62-10.58c11.64-3.22,23.34-6.17,35.13-8.78l-0.24,1.31
					l-176.53-112.9l1.64-0.42l-127.01,233.78l-0.81,1.49l-1.37-1l-103.05-74.99l2.59-1.06l-27.38,165.68l-0.48,2.9l-2.42-1.68
					l-81.55-56.67l3.11-1.53l-4.29,95.62L924.14,496.79z"/>
				<path fill="#FFFFFF" d="M934.88,513.56c0,0,7.4-5.09,20.45-13.76c13.06-8.68,31.79-20.93,54.51-35.28
					c11.35-7.19,23.7-14.87,36.82-22.92c13.12-8.05,27.03-16.4,41.47-24.96c14.48-8.5,29.47-17.23,44.84-25.86
					c7.68-4.33,15.43-8.68,23.26-12.94c3.91-2.14,7.83-4.29,11.75-6.44c3.94-2.11,7.89-4.22,11.84-6.33
					c15.78-8.45,31.73-16.61,47.5-24.49c7.89-3.92,15.79-7.68,23.55-11.47c7.84-3.63,15.58-7.23,23.2-10.76
					c7.69-3.37,15.19-6.8,22.64-9.95c3.73-1.56,7.41-3.1,11.06-4.63c3.64-1.52,7.23-3.05,10.83-4.42
					c14.29-5.7,27.95-10.74,40.67-15.03c3.19-1.04,6.32-2.06,9.37-3.06c3.06-0.98,6.02-2.02,8.98-2.82
					c5.88-1.68,11.47-3.27,16.71-4.77c5.31-1.28,10.27-2.48,14.85-3.59c1.15-0.27,2.27-0.57,3.38-0.79c1.11-0.21,2.2-0.42,3.27-0.62
					c2.12-0.4,4.15-0.79,6.07-1.15c7.67-1.62,13.81-2.21,17.96-2.76c4.16-0.53,6.38-0.81,6.38-0.81s-2.22,0.3-6.37,0.88
					c-4.15,0.59-10.27,1.24-17.92,2.94c-1.92,0.38-3.94,0.79-6.06,1.21c-1.06,0.21-2.15,0.43-3.26,0.65
					c-1.11,0.23-2.22,0.55-3.36,0.82c-4.57,1.15-9.52,2.4-14.8,3.73c-5.23,1.55-10.79,3.19-16.65,4.93
					c-2.94,0.82-5.89,1.89-8.94,2.9c-3.04,1.02-6.15,2.07-9.33,3.14c-12.67,4.41-26.25,9.58-40.47,15.41
					c-3.58,1.4-7.15,2.96-10.77,4.52c-3.62,1.56-7.29,3.13-10.99,4.73c-7.4,3.21-14.87,6.71-22.51,10.16
					c-7.57,3.6-15.26,7.26-23.06,10.97c-7.72,3.86-15.56,7.69-23.41,11.68c-15.67,8.02-31.51,16.33-47.19,24.92
					c-3.92,2.15-7.84,4.29-11.76,6.44c-3.9,2.18-7.79,4.36-11.68,6.54c-7.78,4.33-15.47,8.75-23.1,13.15
					c-15.26,8.77-30.15,17.63-44.53,26.26c-14.34,8.68-28.15,17.16-41.17,25.33c-13.02,8.16-25.29,15.95-36.54,23.24
					c-22.54,14.55-41.13,26.96-54.07,35.75c-12.95,8.78-20.24,13.91-20.24,13.91L934.88,513.56z"/>
				<g>
					<path fill="#FFFFFF" d="M1003.05,471.63c0,0,11.46,6.12,28.52,15.53c8.54,4.7,18.46,10.23,29.06,16.22
						c10.59,6.01,21.86,12.47,33.07,19.04c5.59,3.3,11.22,6.55,16.69,9.86c5.5,3.27,10.88,6.54,16.04,9.78
						c5.18,3.21,10.19,6.3,14.84,9.4c2.34,1.53,4.61,3.01,6.81,4.45c2.17,1.48,4.27,2.91,6.29,4.28c2.01,1.38,3.93,2.7,5.77,3.96
						c1.8,1.31,3.5,2.55,5.1,3.71c3.19,2.35,6.03,4.32,8.2,6.16c4.43,3.56,6.96,5.6,6.96,5.6l-0.09,0.11c0,0-2.6-1.94-7.16-5.32
						c-2.24-1.74-5.14-3.62-8.38-5.89c-1.63-1.12-3.36-2.31-5.19-3.57c-1.86-1.22-3.8-2.49-5.84-3.83
						c-2.03-1.34-4.15-2.74-6.34-4.18c-2.22-1.4-4.51-2.85-6.87-4.34c-2.35-1.5-4.77-3.04-7.24-4.61c-2.49-1.55-5.02-3.13-7.61-4.74
						c-5.15-3.24-10.54-6.48-15.98-9.83c-5.43-3.37-11.02-6.67-16.58-10.03c-11.15-6.66-22.37-13.2-32.9-19.3
						c-10.58-6.04-20.44-11.67-28.9-16.5c-16.96-9.59-28.35-15.83-28.35-15.83L1003.05,471.63z"/>
					<path fill="#FFFFFF" d="M1064.02,433.4c0,0,12.39,8.09,30.98,20.23c9.27,6.09,20.1,13.2,31.69,20.81
						c11.57,7.65,23.92,15.82,36.26,23.98c6.17,4.09,12.33,8.18,18.4,12.21c6.08,4,12.01,8.04,17.75,11.93
						c5.73,3.91,11.32,7.62,16.54,11.25c5.25,3.59,10.14,7.1,14.68,10.29c4.53,3.2,8.69,6.14,12.38,8.74
						c3.72,2.54,6.79,5.03,9.38,6.98c5.14,3.93,8.08,6.18,8.08,6.18l-0.09,0.11c0,0-3.01-2.15-8.28-5.91
						c-1.32-0.94-2.77-1.98-4.36-3.11c-1.56-1.16-3.29-2.37-5.17-3.62c-3.72-2.54-7.93-5.4-12.51-8.52
						c-18.38-12.43-42.9-29.01-67.41-45.59c-24.58-16.48-49.17-32.96-67.6-45.32c-18.47-12.31-30.78-20.52-30.78-20.52
						L1064.02,433.4z"/>
					<path fill="#FFFFFF" d="M1150.36,382.81c0,0,49.21,41.8,97.79,84.33c12.16,10.61,24.31,21.25,35.56,31.36
						c5.65,5.04,11.09,9.92,16.19,14.62c5.13,4.67,9.89,9.19,14.32,13.31c4.45,4.11,8.4,8.01,11.97,11.39
						c3.59,3.37,6.54,6.49,9.03,8.99c2.52,2.47,4.28,4.64,5.57,6.02c1.26,1.41,1.93,2.16,1.93,2.16l-0.1,0.09c0,0-0.7-0.73-2-2.1
						c-1.33-1.34-3.14-3.44-5.74-5.84c-1.27-1.22-2.68-2.57-4.22-4.04c-1.51-1.49-3.17-3.08-4.99-4.74
						c-3.62-3.33-7.63-7.16-12.14-11.19c-4.5-4.05-9.32-8.48-14.52-13.08c-5.16-4.63-10.6-9.52-16.23-14.57
						c-11.29-10.07-23.33-20.81-35.38-31.56c-24.15-21.41-48.46-42.65-66.69-58.58c-18.27-15.89-30.44-26.48-30.44-26.48
						L1150.36,382.81z"/>
					<path fill="#FFFFFF" d="M1246.55,332.31c0,0,12.52,11.28,31.06,28.46c18.54,17.17,43.04,40.32,67.07,63.96
						c6.01,5.9,11.99,11.85,17.84,17.72c5.86,5.88,11.54,11.74,17.01,17.44c5.44,5.73,10.72,11.25,15.57,16.63
						c4.86,5.38,9.4,10.51,13.51,15.32c4.11,4.8,7.8,9.28,10.98,13.31c1.57,2.04,3.09,3.9,4.39,5.7c1.3,1.81,2.49,3.47,3.57,4.96
						c2.04,3.08,3.67,5.48,4.62,7.22c1,1.7,1.53,2.61,1.53,2.61l-0.12,0.07c0,0-0.56-0.89-1.61-2.56c-1-1.7-2.69-4.05-4.81-7.05
						c-2.23-2.93-4.92-6.5-8.17-10.47c-3.24-3.98-6.98-8.39-11.16-13.12c-4.17-4.74-8.78-9.79-13.71-15.09
						c-4.95-5.28-10.14-10.87-15.6-16.57c-5.46-5.7-11.16-11.54-16.94-17.48c-5.81-5.92-11.73-11.9-17.7-17.85
						c-23.86-23.78-48.24-47.05-66.62-64.39c-18.39-17.34-30.81-28.71-30.81-28.71L1246.55,332.31z"/>
					<path fill="#FFFFFF" d="M1365.05,282.65c0,0,13.18,11.93,32.67,30.13c9.75,9.1,21.07,19.76,33.05,31.36
						c11.99,11.58,24.7,24.02,37.26,36.61c6.3,6.28,12.54,12.62,18.7,18.85c6.16,6.24,12.08,12.5,17.79,18.59
						c5.64,6.16,11.02,12.18,15.96,18.04c4.97,5.83,9.56,11.43,13.68,16.72c2.06,2.64,4.03,5.16,5.82,7.64
						c1.79,2.47,3.57,4.76,5.07,7.03c1.52,2.26,3.03,4.31,4.27,6.32c1.25,2,2.42,3.83,3.42,5.51c1.94,3.41,3.49,6.05,4.33,7.99
						c0.9,1.89,1.38,2.9,1.38,2.9l-0.5,0.26c0,0-0.6-0.93-1.74-2.67c-0.6-0.85-1.2-1.97-2.11-3.18c-0.87-1.22-1.88-2.63-3-4.2
						c-2.37-3.07-5.22-6.8-8.66-10.95c-3.41-4.17-7.37-8.79-11.74-13.8c-2.15-2.53-4.49-5.08-6.87-7.75
						c-2.35-2.7-4.87-5.42-7.42-8.25c-5.14-5.62-10.57-11.54-16.18-17.67c-5.61-6.14-11.41-12.48-17.3-18.93
						c-5.91-6.43-11.99-12.9-18.1-19.34c-12.25-12.86-24.64-25.58-36.34-37.43c-5.87-5.91-11.54-11.62-16.92-17.04
						c-5.4-5.4-10.5-10.51-15.21-15.22c-18.9-18.79-31.69-31.13-31.69-31.13L1365.05,282.65z"/>
				</g>
				<g>
					<path fill="#FFFFFF" d="M323.81,477.55c0,0-12.3,4.16-30.67,10.65c-9.17,3.28-19.87,7.11-31.33,11.21
						c-11.44,4.16-23.62,8.66-35.76,13.27c-6.06,2.33-12.14,4.62-18.07,6.98c-5.94,2.35-11.81,4.6-17.45,6.9
						c-2.82,1.13-5.6,2.25-8.32,3.34c-2.71,1.12-5.35,2.21-7.93,3.28c-2.58,1.06-5.09,2.08-7.52,3.08
						c-2.41,1.04-4.73,2.05-6.97,3.01c-2.23,0.96-4.38,1.88-6.42,2.75c-2.01,0.92-3.93,1.79-5.73,2.61
						c-3.58,1.68-6.76,3.02-9.27,4.34c-5.08,2.54-7.98,3.99-7.98,3.99l-0.07-0.12c0,0,2.85-1.56,7.83-4.3
						c2.46-1.43,5.6-2.87,9.15-4.63c1.78-0.87,3.68-1.79,5.67-2.76c2.02-0.92,4.15-1.89,6.37-2.89c2.22-1,4.54-2.04,6.94-3.12
						c2.41-1.03,4.91-2.1,7.48-3.2c5.12-2.24,10.59-4.41,16.25-6.67c5.64-2.29,11.51-4.57,17.49-6.83
						c5.96-2.31,12.07-4.53,18.16-6.8c12.18-4.51,24.41-8.91,35.88-12.98c11.48-4.05,22.22-7.77,31.45-10.91
						c18.44-6.28,30.79-10.31,30.79-10.31L323.81,477.55z"/>
					<path fill="#FFFFFF" d="M270.44,429.27c0,0-13.56,5.93-33.89,14.84c-20.31,8.96-47.39,20.9-74.47,32.84
						c-27.03,12.05-54.05,24.1-74.33,33.14c-5.06,2.27-9.7,4.36-13.81,6.21c-2.07,0.91-3.98,1.8-5.72,2.67
						c-1.76,0.84-3.38,1.61-4.83,2.3c-5.85,2.78-9.19,4.37-9.19,4.37l-0.07-0.12c0,0,3.29-1.7,9.04-4.68
						c2.89-1.46,6.34-3.38,10.45-5.23c4.08-1.92,8.69-4.08,13.71-6.45c5.03-2.35,10.45-4.95,16.25-7.57
						c5.77-2.66,11.92-5.35,18.25-8.19c6.33-2.83,12.87-5.77,19.56-8.66c6.68-2.91,13.46-5.86,20.25-8.81
						c13.58-5.89,27.15-11.77,39.88-17.29c12.75-5.48,24.64-10.59,34.84-14.97c20.42-8.71,34.03-14.52,34.03-14.52L270.44,429.27z"
						/>
					<path fill="#FFFFFF" d="M194.25,364.4c0,0-13.84,8.31-34.59,20.77c-20.73,12.51-48.37,29.18-75.88,46.05
						c-13.73,8.48-27.46,16.96-40.34,24.9c-6.42,4-12.63,7.86-18.52,11.52c-5.92,3.61-11.44,7.14-16.58,10.34
						c-5.14,3.19-9.76,6.26-13.9,8.9c-2.08,1.32-3.99,2.6-5.74,3.8c-1.77,1.18-3.4,2.26-4.86,3.24c-2.98,1.9-5.12,3.65-6.67,4.74
						c-1.53,1.12-2.34,1.72-2.34,1.72l-0.09-0.11c0,0,0.79-0.62,2.28-1.79c1.51-1.14,3.62-2.97,6.53-4.96
						c2.89-2.03,6.34-4.59,10.46-7.28c4.1-2.71,8.68-5.86,13.78-9.13c5.09-3.29,10.56-6.9,16.42-10.61
						c5.84-3.74,12.06-7.6,18.5-11.58c12.85-8,26.66-16.35,40.49-24.68c55.25-33.4,110.99-65.99,110.99-65.99L194.25,364.4z"/>
					<path fill="#FFFFFF" d="M108.35,297.9c0,0-14.22,9.04-35.35,22.9c-21.12,13.88-49.18,32.54-76.83,51.79
						c-6.91,4.82-13.79,9.68-20.53,14.5c-6.73,4.83-13.36,9.59-19.73,14.25c-6.37,4.66-12.46,9.26-18.25,13.6
						c-5.78,4.35-11.2,8.53-16.13,12.47c-4.94,3.93-9.4,7.62-13.27,10.97c-3.89,3.34-7.16,6.38-9.87,8.88
						c-2.62,2.59-4.7,4.6-5.97,6.11c-1.32,1.46-2.03,2.24-2.03,2.24l-0.11-0.09c0,0,0.68-0.8,1.97-2.31
						c1.24-1.55,3.26-3.63,5.81-6.3c1.32-1.29,2.78-2.71,4.38-4.27c1.6-1.55,3.42-3.11,5.32-4.85c3.84-3.42,8.25-7.18,13.14-11.19
						c4.88-4.02,10.25-8.28,15.97-12.73c5.71-4.46,11.87-8.98,18.23-13.67c6.38-4.66,13-9.44,19.79-14.21
						c6.79-4.77,13.71-9.58,20.66-14.34c27.78-19.08,55.94-37.6,77.2-51.28c21.25-13.69,35.54-22.61,35.54-22.61L108.35,297.9z"/>
					<path fill="#FFFFFF" d="M0.56,228.68c0,0-14.75,9.91-36.64,25.13c-5.46,3.82-11.37,7.96-17.63,12.33
						c-6.24,4.4-12.82,9.03-19.63,13.83c-13.59,9.63-28.01,19.99-42.31,30.52c-7.14,5.28-14.25,10.59-21.2,15.89
						c-6.92,5.32-13.74,10.55-20.33,15.62c-6.6,5.05-12.97,9.94-19.01,14.57c-3,2.34-5.96,4.58-8.74,6.83
						c-2.81,2.22-5.56,4.32-8.12,6.43c-5.17,4.16-9.88,8.02-13.96,11.54c-4.12,3.49-7.57,6.66-10.44,9.27
						c-1.38,1.35-2.62,2.56-3.69,3.61c-1.1,1.03-1.89,2.03-2.63,2.76c-1.42,1.52-2.18,2.33-2.18,2.33l-0.45-0.34
						c0,0,0.65-0.91,1.86-2.61c1.17-1.76,3.16-4.09,5.66-7.12c1.28-1.48,2.75-3.07,4.33-4.83c1.58-1.76,3.41-3.52,5.31-5.48
						c1.88-1.98,4.02-3.92,6.22-6.04c2.19-2.13,4.58-4.27,7.07-6.51c4.97-4.49,10.47-9.2,16.38-14.08
						c5.89-4.9,12.23-9.9,18.86-14.98c6.68-5.01,13.61-10.14,20.76-15.21c7.15-5.07,14.4-10.22,21.7-15.31
						c14.57-10.21,29.25-20.24,43.08-29.55c13.81-9.33,26.83-17.86,38.01-25.12c22.37-14.52,37.43-23.97,37.43-23.97L0.56,228.68z"
						/>
				</g>
				<path fill="#FFFFFF" d="M1022.69,507.76c0,0,26.97-15.7,68.29-37.59c10.32-5.49,21.56-11.33,33.47-17.45
					c5.97-3.03,12.1-6.15,18.37-9.33c6.3-3.13,12.73-6.32,19.27-9.58c13.12-6.43,26.71-13.01,40.62-19.49
					c3.47-1.62,6.96-3.25,10.46-4.88c3.51-1.6,7.04-3.21,10.57-4.82c7.05-3.25,14.19-6.37,21.31-9.53
					c7.12-3.18,14.31-6.18,21.43-9.27c7.17-2.98,14.31-5.95,21.39-8.9c7.13-2.82,14.19-5.68,21.19-8.4
					c7.04-2.64,13.95-5.37,20.83-7.84c13.73-5,27.08-9.63,39.85-13.66c6.4-1.98,12.58-4.03,18.66-5.69
					c6.07-1.7,11.89-3.49,17.57-4.86c11.3-3.01,21.77-5.28,31.07-7.19c4.67-0.84,9.05-1.62,13.09-2.34
					c4.05-0.7,7.81-1.07,11.18-1.55c6.74-1.03,12.1-1.23,15.74-1.55c3.64-0.28,5.58-0.43,5.58-0.43s-1.94,0.16-5.58,0.47
					c-3.64,0.35-8.99,0.6-15.72,1.69c-3.37,0.51-7.12,0.92-11.16,1.65c-4.03,0.76-8.4,1.58-13.06,2.45
					c-9.28,1.99-19.72,4.34-30.98,7.44c-5.67,1.41-11.46,3.25-17.51,5c-6.06,1.71-12.22,3.81-18.59,5.84
					c-12.72,4.14-26.01,8.87-39.68,13.98c-6.85,2.52-13.72,5.31-20.73,8c-6.98,2.78-14,5.69-21.1,8.57
					c-7.05,3-14.15,6.03-21.29,9.06c-7.09,3.14-14.25,6.19-21.33,9.43c-7.08,3.22-14.19,6.4-21.21,9.7
					c-3.51,1.64-7.02,3.27-10.52,4.9c-3.48,1.66-6.95,3.32-10.41,4.97c-13.84,6.58-27.35,13.28-40.4,19.81
					c-6.51,3.3-12.91,6.55-19.17,9.73c-6.23,3.23-12.33,6.4-18.27,9.48c-11.85,6.21-23.02,12.14-33.28,17.71
					c-20.54,11.11-37.51,20.63-49.33,27.38c-11.83,6.75-18.5,10.71-18.51,10.71L1022.69,507.76z"/>
				<path fill="#FFFFFF" d="M316.6,434.7c-0.53-0.72-53.62-73.11-126.17-150.58C69.31,154.8-11.93,110.98-58.76,96.99l1.2-4.02
					c85.75,25.62,183.87,116.55,251.08,188.32c72.72,77.65,125.94,150.21,126.46,150.94L316.6,434.7z"/>
				<path fill="#FFFFFF" d="M336.31,429.14c0,0-16.02-21.41-40.75-52.98c-6.22-7.86-12.95-16.38-20.07-25.4
					c-7.17-8.97-14.71-18.46-22.6-28.18c-7.87-9.75-16.08-19.76-24.47-29.89c-8.39-10.13-16.99-20.35-25.65-30.53
					c-4.36-5.06-8.73-10.12-13.07-15.15c-4.39-5-8.77-9.98-13.11-14.91c-8.75-9.81-17.37-19.46-25.87-28.64
					c-8.4-9.28-16.7-18.08-24.6-26.39c-1.98-2.08-3.93-4.12-5.85-6.14c-1.95-1.98-3.88-3.94-5.77-5.86c-1.9-1.92-3.76-3.8-5.59-5.66
					c-1.86-1.81-3.69-3.59-5.49-5.33c-1.79-1.74-3.55-3.45-5.26-5.12c-1.75-1.64-3.45-3.24-5.11-4.79
					c-1.66-1.56-3.28-3.08-4.86-4.56c-1.62-1.43-3.19-2.81-4.71-4.15c-1.52-1.34-3-2.64-4.42-3.9c-1.43-1.25-2.87-2.36-4.23-3.48
					c-1.36-1.12-2.66-2.19-3.9-3.22c-0.62-0.51-1.23-1.01-1.82-1.5c-0.62-0.46-1.21-0.91-1.8-1.34c-2.34-1.75-4.42-3.3-6.24-4.66
					c-1.84-1.32-3.5-2.3-4.79-3.19c-2.61-1.72-4.01-2.64-4.01-2.64l0.2-0.37c0,0,1.46,0.83,4.19,2.38c1.36,0.79,3.08,1.7,5,2.93
					c1.9,1.27,4.07,2.72,6.52,4.35c0.61,0.41,1.24,0.83,1.88,1.26c0.62,0.46,1.26,0.93,1.91,1.41c1.3,0.97,2.66,1.98,4.08,3.04
					c1.4,1.08,2.9,2.15,4.39,3.35c1.48,1.21,3.01,2.46,4.59,3.75c1.58,1.29,3.22,2.63,4.9,4c1.64,1.42,3.32,2.89,5.05,4.39
					c1.73,1.5,3.5,3.05,5.32,4.63c1.79,1.61,3.57,3.31,5.42,5.01c1.84,1.71,3.72,3.46,5.63,5.24c1.88,1.82,3.79,3.67,5.73,5.56
					c1.94,1.89,3.92,3.81,5.92,5.76c1.97,1.98,3.97,4,6,6.04c2.02,2.05,4.1,4.09,6.15,6.23c2.03,2.14,4.09,4.31,6.17,6.5
					c4.18,4.36,8.35,8.91,12.62,13.52c8.44,9.29,17.02,19.01,25.62,28.99c4.27,5.01,8.58,10.06,12.91,15.13
					c4.28,5.11,8.57,10.24,12.86,15.37c8.55,10.29,17.04,20.63,25.31,30.87c8.28,10.24,16.37,20.36,24.14,30.2
					c7.77,9.83,15.24,19.38,22.26,28.48c6.98,9.13,13.58,17.75,19.68,25.72c24.24,31.96,39.92,53.62,39.92,53.62L336.31,429.14z"/>
				<path fill="#FFFFFF" d="M351.71,422.22c0,0-15.16-20.78-37.9-51.96c-11.43-15.54-24.76-33.68-39.04-53.1
					c-14.31-19.41-29.63-40.07-45.04-60.66c-15.44-20.57-31.01-41.04-45.62-60.21c-7.27-9.61-14.3-18.9-20.97-27.71
					c-6.65-8.82-13-17.12-18.91-24.72c-5.93-7.6-11.3-14.61-16.21-20.7c-4.91-6.1-9.25-11.36-12.91-15.62
					c-3.66-4.25-6.7-7.45-8.89-9.5c-0.53-0.53-1.04-0.95-1.47-1.31c-0.43-0.37-0.79-0.69-1.12-0.89c-0.63-0.43-0.96-0.66-0.96-0.66
					l0.2-0.37c0,0,0.35,0.21,1.03,0.61c0.35,0.19,0.74,0.49,1.21,0.83c0.47,0.34,1.02,0.74,1.59,1.23c2.37,1.91,5.57,4.99,9.49,9.05
					c3.93,4.05,8.53,9.13,13.66,15.07c5.13,5.94,10.89,12.67,16.98,20.17c6.1,7.49,12.63,15.65,19.49,24.33
					c6.88,8.66,13.93,17.96,21.26,27.53c14.51,19.27,29.7,40.05,44.84,60.85c30.31,41.58,60.31,83.39,82.58,114.91
					c22.22,31.55,37.04,52.58,37.04,52.58L351.71,422.22z"/>
				<path fill="#FFFFFF" d="M371.29,416.6c0,0-12.02-19.65-30.05-49.13c-9.06-14.71-19.64-31.87-30.97-50.25
					c-11.34-18.38-23.51-37.93-35.73-57.46c-6.15-9.73-12.3-19.47-18.36-29.05c-6.08-9.56-12.07-18.98-17.86-28.08
					c-5.74-9.14-11.3-17.97-16.56-26.34c-5.28-8.36-10.2-16.32-14.88-23.57c-4.71-7.23-8.81-14.01-12.67-19.86
					c-3.83-5.87-7.17-11-9.92-15.21c-5.7-8.29-8.91-13.08-8.91-13.08l0.33-0.26c0,0,3.59,4.5,9.78,12.49
					c3.03,4.03,6.6,9.01,10.71,14.72c2.08,2.84,4.18,5.93,6.43,9.16c2.25,3.24,4.62,6.64,7.04,10.22
					c4.87,7.15,9.99,14.99,15.49,23.23c2.77,4.11,5.49,8.41,8.29,12.79c2.8,4.38,5.67,8.85,8.58,13.4
					c5.68,9.19,11.55,18.68,17.52,28.33c5.89,9.69,11.88,19.54,17.86,29.38c11.95,19.7,23.85,39.43,34.95,57.96
					c5.53,9.27,10.88,18.24,15.95,26.74c5.04,8.52,9.8,16.58,14.2,24.01c17.49,29.8,29.15,49.67,29.15,49.67L371.29,416.6z"/>
				<path fill="#FFFFFF" d="M827.55,623.44c-96.27,0-200.09-2.73-291.69-6.11c-222.55-8.21-422.88-21.89-424.88-22.03l0.38-5.58
					c7.98,0.55,800.75,54.37,1001.1,11.57l1.17,5.48C1055.33,619.22,947.28,623.44,827.55,623.44z"/>
				<path fill="#FFFFFF" d="M864.19,647.95c-34.94,0-59.91-0.48-63.15-0.55l-0.44-0.04c-108.97-19.31-349.61-7.08-352.03-6.96
					c-5.08,0.03-10.14,0.04-15.09,0.04c-230.27,0-322.31-30.87-323.23-31.19l1.83-5.29c0.93,0.32,96.35,32.23,336.34,30.85
					c2.29-0.12,243.24-12.37,352.95,7c8.9,0.17,266.51,4.8,319.15-18.76l2.29,5.11C1084.57,645.27,946.66,647.95,864.19,647.95z"/>
				<path fill="#FFFFFF" d="M271.52,447.85c-3.44-3.48-344.44-347.81-422.29-354.64l0.49-5.58
					c79.87,7.01,411.69,342.02,425.78,356.28L271.52,447.85z"/>
				<path fill="#FFFFFF" d="M199.66,490.2c-2.84-2.11-285.82-211.6-416.8-252.97l1.69-5.34c131.87,41.64,415.6,251.69,418.45,253.81
					L199.66,490.2z"/>
				<path fill="#FFFFFF" d="M93.26,540.31c-2.16-0.94-217.45-94.35-309.48-91.63l-0.17-5.59c39.23-1.19,103.67,13.98,191.52,45.04
					c65.29,23.08,119.82,46.82,120.36,47.05L93.26,540.31z"/>
				<path fill="#FFFFFF" d="M1130.17,595.03l-0.4-1.34c3.49-1.05,347.43-103.94,460.9-103.94c0.86,0,1.7,0.01,2.53,0.02l-0.02,1.4
					C1482.57,489.58,1133.68,593.98,1130.17,595.03z"/>
				<path fill="#FFFFFF" d="M1521.81,620.71l-18.11,0.8c-6.04,0.26-12.06,0.69-18.09,1.03c-6.03,0.33-12.05,0.79-18.08,1.23
					c-6.02,0.45-12.05,0.83-18.07,1.37l-18.05,1.52l-18.04,1.7c-6.01,0.55-12.01,1.23-18.02,1.84c-6.01,0.6-12.01,1.23-18.01,1.92
					c-12.01,1.29-24,2.72-35.99,4.17c-11.98,1.5-23.97,2.96-35.93,4.59l-17.95,2.4l-17.95,2.47c-11.96,1.7-23.91,3.37-35.86,5.17
					c-11.95,1.76-23.88,3.6-35.81,5.44l-35.77,5.7l-35.75,5.86l-35.71,6.09l-35.67,6.32l-35.63,6.53l-35.6,6.67
					c-11.85,2.27-23.72,4.57-35.51,6.95l-0.43,0.08l-0.45,0.02c-15.1,0.63-30.01,0.67-44.96,0.76c-14.94,0.04-29.87,0-44.8-0.1
					c-14.93-0.07-29.85-0.31-44.77-0.51l-44.75-0.72l-89.48-1.77l-44.73-1.02l-44.73-1.17l-89.45-2.48l-44.72-1.3l-44.72-1.42
					l-89.43-2.99l-44.71-1.54l-44.71-1.66l-0.54-0.02l-0.47-0.12c-37.8-9.18-75.73-18.04-113.68-26.68
					c-37.94-8.72-75.94-17.2-114.02-25.28c-19.04-4.05-38.08-8.06-57.17-11.9c-19.08-3.86-38.19-7.52-57.33-11.04
					c-19.14-3.52-38.32-6.81-57.58-9.6c-9.62-1.41-19.27-2.71-28.94-3.75c-9.67-1.04-19.38-1.84-29.12-1.94
					c9.74-0.24,19.49,0.22,29.21,0.93c9.72,0.71,19.43,1.67,29.11,2.76c19.37,2.25,38.67,4.99,57.93,7.96
					c19.27,2.96,38.48,6.26,57.67,9.64c19.19,3.41,38.36,6.92,57.49,10.6c38.27,7.38,76.46,15.16,114.59,23.18
					c38.12,8.14,76.16,16.49,114.18,25.19l-1.01-0.14l357.75,9.12l89.43,2.15l89.43,2.01c29.81,0.62,59.61,1.1,89.41,1.52
					c14.9,0.23,29.79,0.39,44.68,0.46c14.86,0.02,29.79,0.11,44.5-0.39l-0.87,0.1c11.92-2.31,23.79-4.51,35.7-6.69l35.72-6.4
					c23.83-4.15,47.7-8.1,71.58-11.94l35.85-5.63l35.88-5.39c11.96-1.79,23.95-3.42,35.92-5.1c11.99-1.63,23.97-3.25,35.97-4.79
					c11.99-1.58,24-3.04,36-4.52c12.01-1.43,24.02-2.88,36.05-4.16c12.02-1.35,24.06-2.54,36.09-3.75
					c12.04-1.16,24.08-2.31,36.14-3.32c12.04-1.09,24.11-1.95,36.17-2.82l18.1-1.19l18.12-1.01c6.03-0.36,12.08-0.6,18.12-0.84
					s12.08-0.49,18.13-0.61c6.05-0.13,12.09-0.36,18.13-0.41L1521.81,620.71z"/>
				<path fill="#FFFFFF" d="M1521.81,664.1l-18.11,0.8c-6.04,0.26-12.06,0.69-18.09,1.03c-6.03,0.33-12.05,0.79-18.08,1.24
					c-6.02,0.44-12.05,0.83-18.07,1.37l-18.05,1.52l-18.04,1.7c-6.01,0.56-12.01,1.23-18.02,1.84c-6.01,0.6-12.01,1.23-18.01,1.92
					c-12.01,1.29-24,2.72-35.99,4.17c-11.98,1.5-23.97,2.97-35.93,4.59l-17.95,2.39l-17.95,2.47c-11.96,1.7-23.91,3.37-35.86,5.17
					c-11.95,1.76-23.88,3.6-35.81,5.44l-35.77,5.7l-35.75,5.86l-35.71,6.09l-35.67,6.32l-35.63,6.53l-35.6,6.67
					c-11.85,2.27-23.72,4.57-35.51,6.95l-0.43,0.09l-0.45,0.02c-15.1,0.63-30.01,0.67-44.96,0.77c-14.94,0.04-29.87,0-44.8-0.1
					c-14.93-0.07-29.85-0.31-44.77-0.5l-44.75-0.72l-89.48-1.77l-44.73-1.02l-44.73-1.17l-89.45-2.49l-44.72-1.3l-44.72-1.42
					l-89.43-2.99l-44.71-1.54l-44.71-1.66l-0.54-0.02l-0.47-0.12c-37.8-9.18-75.73-18.04-113.68-26.68
					c-37.94-8.72-75.94-17.2-114.02-25.28c-19.04-4.05-38.08-8.07-57.17-11.9c-19.08-3.85-38.19-7.52-57.33-11.04
					c-19.14-3.51-38.32-6.8-57.58-9.6c-9.62-1.41-19.27-2.71-28.94-3.75c-9.67-1.04-19.38-1.84-29.12-1.94
					c9.74-0.24,19.49,0.22,29.21,0.93c9.72,0.71,19.43,1.67,29.11,2.77c19.37,2.25,38.67,4.99,57.93,7.96
					c19.27,2.96,38.48,6.26,57.67,9.64c19.19,3.4,38.36,6.91,57.49,10.6c38.27,7.38,76.46,15.16,114.59,23.19
					c38.12,8.14,76.16,16.49,114.18,25.19l-1.01-0.13l357.75,9.12l89.43,2.15l89.43,2.01c29.81,0.62,59.61,1.1,89.41,1.52
					c14.9,0.23,29.79,0.38,44.68,0.46c14.86,0.02,29.79,0.1,44.5-0.4l-0.87,0.11c11.92-2.31,23.79-4.51,35.7-6.69l35.72-6.4
					c23.83-4.15,47.7-8.1,71.58-11.94l35.85-5.63l35.88-5.4c11.96-1.79,23.95-3.42,35.92-5.1c11.99-1.63,23.97-3.25,35.97-4.79
					c11.99-1.58,24-3.04,36-4.52c12.01-1.43,24.02-2.89,36.05-4.16c12.02-1.35,24.06-2.53,36.09-3.75
					c12.04-1.16,24.08-2.31,36.14-3.32c12.04-1.09,24.11-1.95,36.17-2.82l18.1-1.19l18.12-1.01c6.03-0.36,12.08-0.6,18.12-0.84
					c6.04-0.24,12.08-0.5,18.13-0.62c6.05-0.13,12.09-0.36,18.13-0.41L1521.81,664.1z"/>
				<polygon fill="#FFFFFF" points="294.75,446.61 297.97,413.45 301.3,380.29 304.62,347.13 308.11,314 310.41,315.7 
					251.11,341.71 221.45,354.68 191.76,367.57 188.65,368.92 188.26,365.54 180.95,302.45 173.75,239.35 166.71,176.23 
					159.77,113.1 162.29,115.35 129.13,115.22 95.98,115 29.67,114.47 -3.48,114.21 -36.64,113.78 -69.79,113.36 -102.94,112.82 
					-69.79,112.28 -36.64,111.85 -3.48,111.42 29.67,111.16 95.98,110.64 129.13,110.41 162.29,110.28 164.54,110.27 164.81,112.53 
					172.11,175.62 179.3,238.72 186.33,301.84 193.27,364.97 189.77,362.94 219.57,350.29 249.41,337.73 309.1,312.66 
					311.74,311.55 311.4,314.37 307.39,347.45 303.21,380.51 299.04,413.57 				"/>
				<path fill="#FFFFFF" d="M360.26,422.3l-120.27-8.93l-0.81-0.06l0.04-0.82l10.29-184.13l1.13,1.62l-82.95-25l-41.46-12.54
					c-13.83-4.17-27.6-8.49-41.41-12.73c-13.81-4.23-27.56-8.63-41.34-12.93L2.16,153.77l-41.26-13.2l-20.6-6.69l-20.59-6.75
					l0.12-0.4l20.83,5.94l20.81,6l41.57,12.18l41.52,12.37c13.83,4.15,27.69,8.21,41.49,12.45c13.81,4.22,27.64,8.36,41.43,12.65
					l41.37,12.84l82.71,25.77l1.21,0.38l-0.08,1.25l-11.83,184.04l-0.76-0.88l120.17,10.18L360.26,422.3z"/>
				<path fill="#FFFFFF" d="M1090.35,536.12c0,0,0.42-0.33,1.23-0.98c0.82-0.66,2.04-1.58,3.63-2.79c3.19-2.4,7.94-5.8,14.08-9.97
					c6.15-4.16,13.74-9.01,22.57-14.37c8.85-5.31,18.97-11.08,30.17-17.07c2.82-1.47,5.69-2.96,8.62-4.49
					c2.92-1.53,5.92-3.07,9-4.56c3.07-1.51,6.19-3.05,9.36-4.62c3.2-1.5,6.45-3.02,9.74-4.56c1.65-0.77,3.31-1.54,4.97-2.32
					c1.68-0.75,3.38-1.5,5.08-2.26c3.41-1.51,6.86-3.04,10.35-4.59c3.52-1.48,7.08-2.97,10.67-4.47c1.79-0.75,3.6-1.51,5.41-2.27
					c1.83-0.72,3.67-1.45,5.51-2.18c3.69-1.45,7.41-2.92,11.15-4.4c3.76-1.45,7.57-2.82,11.4-4.24c7.63-2.9,15.46-5.53,23.33-8.25
					c3.92-1.39,7.91-2.64,11.9-3.92c3.99-1.28,7.99-2.56,12.01-3.84c8.07-2.41,16.17-4.84,24.3-7.15c4.08-1.1,8.16-2.21,12.24-3.31
					c4.08-1.09,8.14-2.25,12.24-3.21c4.09-1,8.17-2.01,12.24-3.01c4.07-1,8.12-2.01,12.19-2.87c4.06-0.9,8.11-1.79,12.13-2.68
					c4.03-0.89,8.03-1.8,12.04-2.54c8.01-1.53,15.89-3.18,23.69-4.56c7.81-1.33,15.49-2.65,23-3.93c7.54-1.1,14.92-2.18,22.11-3.23
					c1.8-0.26,3.58-0.52,5.35-0.78c1.77-0.22,3.54-0.43,5.29-0.65c3.5-0.42,6.95-0.84,10.34-1.25c6.78-0.81,13.33-1.67,19.64-2.21
					c6.31-0.6,12.35-1.18,18.1-1.73c5.74-0.62,11.22-0.87,16.35-1.27c10.27-0.71,19.21-1.44,26.6-1.68
					c14.77-0.67,23.2-1.06,23.2-1.06s-8.43,0.45-23.19,1.24c-7.39,0.3-16.33,1.09-26.59,1.89c-5.12,0.44-10.59,0.73-16.33,1.4
					c-5.74,0.59-11.78,1.22-18.08,1.87c-6.3,0.58-12.84,1.5-19.61,2.36c-3.38,0.44-6.83,0.88-10.32,1.33
					c-1.74,0.23-3.51,0.46-5.28,0.69c-1.77,0.27-3.55,0.55-5.34,0.82c-7.17,1.11-14.53,2.24-22.06,3.4
					c-7.5,1.34-15.16,2.71-22.95,4.1c-7.78,1.44-15.64,3.15-23.63,4.74c-4,0.77-7.99,1.71-12,2.63c-4.01,0.92-8.05,1.84-12.09,2.77
					c-4.06,0.89-8.09,1.92-12.15,2.96c-4.05,1.03-8.12,2.06-12.19,3.09c-4.08,0.99-8.13,2.18-12.19,3.3
					c-4.06,1.13-8.12,2.26-12.19,3.4c-8.09,2.38-16.15,4.86-24.19,7.32c-3.99,1.31-7.97,2.62-11.94,3.93
					c-3.97,1.31-7.94,2.58-11.84,4c-7.83,2.78-15.62,5.45-23.2,8.41c-3.8,1.45-7.6,2.85-11.33,4.32c-3.72,1.5-7.42,2.99-11.08,4.47
					c-1.83,0.74-3.65,1.48-5.47,2.22c-1.8,0.77-3.59,1.54-5.38,2.3c-3.57,1.53-7.1,3.04-10.6,4.54c-3.46,1.57-6.89,3.12-10.28,4.66
					c-1.69,0.77-3.37,1.53-5.05,2.29c-1.65,0.79-3.3,1.57-4.94,2.35c-3.27,1.56-6.49,3.1-9.66,4.62c-3.15,1.58-6.24,3.14-9.28,4.67
					c-3.05,1.51-6.02,3.06-8.93,4.61c-2.9,1.54-5.75,3.05-8.54,4.53c-11.09,6.05-21.11,11.86-29.87,17.21
					c-8.73,5.39-16.23,10.26-22.29,14.43c-6.05,4.18-10.72,7.58-13.84,9.96c-1.55,1.19-2.75,2.12-3.52,2.74
					c-0.79,0.63-1.19,0.96-1.19,0.96L1090.35,536.12z"/>
				
					<rect x="129.5" y="593.78" transform="matrix(0.9998 0.0223 -0.0223 0.9998 13.4225 -2.7553)" fill="#FFFFFF" width="1.4" height="12.83"/>
				<rect x="158" y="594" fill="#FFFFFF" width="2" height="24"/>
				<polygon fill="#FFFFFF" points="256.46,681.2 209.81,675.13 195,618.02 195,599.88 195,599.88 195,617.92 210.25,673.86 
					253.75,679.48 228,626.57 228,601 230,601 230,626.25 				"/>
				<rect x="265" y="602.5" fill="#FFFFFF" width="0" height="28.77"/>
				<rect x="295" y="604" fill="#FFFFFF" width="5" height="27"/>
				<rect x="335" y="607.73" fill="#FFFFFF" width="0" height="28.77"/>
				<polygon fill="#FFFFFF" points="407,684.29 377.46,675.11 367,636.21 367,609 369,609 369,636.02 379.25,672.88 404,680.5 
					404,610 407,610 				"/>
				<rect x="446" y="612.96" fill="#FFFFFF" width="0" height="23.54"/>
				<rect x="482" y="612" fill="#FFFFFF" width="2" height="26"/>
				<rect x="517" y="612.96" fill="#FFFFFF" width="0" height="20.92"/>
				<rect x="554" y="617" fill="#FFFFFF" width="2" height="17"/>
				<rect x="586" y="618.19" fill="#FFFFFF" width="0" height="13.08"/>
				<rect x="618" y="620" fill="#FFFFFF" width="3" height="11"/>
				<rect x="632" y="618.19" fill="#FFFFFF" width="0" height="13.08"/>
				<rect x="659" y="620.81" fill="#FFFFFF" width="0" height="10.46"/>
				<rect x="696" y="618.19" fill="#FFFFFF" width="0" height="15.69"/>
				<rect x="730" y="618.19" fill="#FFFFFF" width="0" height="15.69"/>
				<rect x="802" y="620.81" fill="#FFFFFF" width="0" height="23.54"/>
				<polygon fill="#FFFFFF" points="859.91,689.05 835,688.68 835,623 838,623 838,687.3 859.56,687.64 867.71,644.47 
					868.75,644.74 				"/>
				<rect x="875" y="620.81" fill="#FFFFFF" width="0" height="23.54"/>
				<rect x="905" y="620" fill="#FFFFFF" width="4" height="25"/>
				<rect x="939" y="618" fill="#FFFFFF" width="5" height="27"/>
				<rect x="974" y="618.19" fill="#FFFFFF" width="0" height="26.16"/>
				<rect x="1004" y="617" fill="#FFFFFF" width="4" height="21"/>
				<rect x="1040" y="612" fill="#FFFFFF" width="1" height="26"/>
				<rect x="1068" y="610" fill="#FFFFFF" width="3" height="24"/>
				<rect x="1100" y="607.73" fill="#FFFFFF" width="0" height="23.54"/>
				<rect x="57" y="558" fill="#FFFFFF" width="5" height="32"/>
				<rect x="27" y="548" fill="#FFFFFF" width="2" height="26"/>
				<path fill="#FFFFFF" d="M103.36,604.15c0,0-17.49-6.29-43.93-15.17c-13.22-4.44-28.67-9.52-45.26-14.84
					c-16.6-5.31-34.35-10.82-52.18-16.05c-8.92-2.6-17.85-5.16-26.67-7.57c-4.41-1.22-8.78-2.4-13.11-3.55
					c-4.32-1.18-8.61-2.28-12.82-3.36c-8.41-2.25-16.59-4.23-24.33-6.14c-7.75-1.89-15.1-3.55-21.92-4.97
					c-6.81-1.4-13.07-2.66-18.65-3.58c-2.78-0.52-5.4-0.86-7.82-1.21c-2.42-0.37-4.64-0.7-6.66-0.89c-2.02-0.22-3.82-0.42-5.39-0.6
					c-1.57-0.1-2.55-0.19-3.64-0.26c-2.17-0.15-2.98-0.23-2.98-0.23v-0.28c0,0,0.81,0.01,2.99,0.02c1.09,0.01,2.26,0.03,3.85,0.04
					c1.58,0.1,3.31,0.21,5.34,0.33c2.04,0.1,4.24,0.3,6.69,0.56c2.44,0.27,5.07,0.51,7.88,0.93c5.63,0.74,11.96,1.7,18.83,2.98
					c6.87,1.28,14.28,2.8,22.09,4.54c7.82,1.72,16,3.77,24.45,5.94c4.22,1.11,8.5,2.26,12.82,3.47c4.33,1.18,8.7,2.44,13.1,3.72
					c8.8,2.54,17.71,5.23,26.6,7.96c35.58,10.89,70.82,22.81,97.12,32.11c26.31,9.28,43.71,15.84,43.71,15.84L103.36,604.15z"/>
				<path fill="#FFFFFF" d="M130.06,588.63l71.04-29.24l0.26-0.1l0.25,0.13l76.63,40.82l-1.11,0.02l86.56-51.44l0.85-0.5l0.82,0.57
					l40.35,28.17l40.28,28.27l-2-0.07l92.99-56.8l1.05-0.64l1.04,0.66l50.07,31.77l50.03,31.83l-2.17-0.03l101.54-60.79l1-0.6
					l0.99,0.61l50.69,31.58l50.65,31.64l-1.65-0.06l89.06-45.81l0.62-0.32l0.59,0.35l69.85,41.64l-0.9,0.04l22.96-15.76
					c3.84-2.61,7.69-5.2,11.57-7.76c1.95-1.27,3.87-2.55,5.91-3.74c0.26-0.15,0.51-0.29,0.83-0.44c0.12-0.04,0.26-0.08,0.39-0.1
					c0.23,0.01,0.18,0.04,0.29,0.05l0.42,0.11l1.68,0.46c1.12,0.3,2.24,0.68,3.36,1.01l13.32,4.18l13.25,4.26l26.47,8.61
					l-26.62-8.13l-13.32-4.04l-13.29-3.98c-1.11-0.32-2.19-0.67-3.31-0.96l-1.68-0.44c-0.27-0.05-0.64-0.22-0.58-0.12
					c-0.21,0.1-0.46,0.24-0.7,0.39c-1.95,1.18-3.88,2.5-5.8,3.79c-3.84,2.6-7.65,5.25-11.45,7.9l-22.73,16.06l-0.44,0.31l-0.47-0.27
					l-70.28-40.92l1.22,0.03l-88.68,46.55l-0.83,0.44l-0.82-0.5l-50.81-31.38l-50.77-31.44l1.98,0.02l-101.38,61.07l-1.09,0.66
					l-1.08-0.69l-50.02-31.84l-49.99-31.9l2.09,0.02l-93.14,56.55l-1.03,0.62l-0.98-0.69l-40.19-28.41l-40.12-28.5l1.67,0.07
					l-86.98,50.72l-0.55,0.32l-0.55-0.3l-76.13-41.75l0.51,0.03L130.06,588.63z"/>
				<rect x="1166" y="583" fill="#FFFFFF" width="1" height="27"/>
				<rect x="1199" y="574" fill="#FFFFFF" width="5" height="28"/>
				<rect x="1238" y="564" fill="#FFFFFF" width="3" height="29"/>
				<rect x="1281" y="553" fill="#FFFFFF" width="1" height="27"/>
				<rect x="1319" y="543" fill="#FFFFFF" width="3" height="31"/>
				<rect x="1364" y="529" fill="#FFFFFF" width="1" height="35"/>
				<rect x="1408" y="519" fill="#FFFFFF" width="2" height="39"/>
				<rect x="1453" y="511" fill="#FFFFFF" width="2" height="47"/>
				<path fill="#FFFFFF" d="M331.23,685h-22.17l-0.42,0.24c-0.29-0.39-29.27-38.41-36.12-45.25l1.98-1.68
					c6.61,6.61,32.21,38.69,35.96,45.69h17.29l-10.83-49.48l2.74-1.45L331.23,685z"/>
				<polygon fill="#FFFFFF" points="495.8,686.84 481,683.51 481,645 484,645 484,681.27 493.91,683.53 507.41,634.44 
					510.13,635.19 				"/>
				<polygon fill="#FFFFFF" points="586.81,690 562,690 562,638 564,638 564,685 584.36,685 591.19,635.23 593.97,636.31 				"/>
				<polygon fill="#FFFFFF" points="692.03,689.58 667.12,686.47 645.84,626.88 648.48,625.94 669.18,683.91 689.05,686.39 
					686.24,634.89 689.04,634.73 				"/>
				<polygon fill="#FFFFFF" points="779.21,688.79 753.61,685.84 730.08,644.95 731.17,644.26 754.01,684.54 776.48,687.18 
					767.54,637.02 767.51,618 771,618 771,637.61 				"/>
				<polygon fill="#FFFFFF" points="926.45,696.37 905.83,685.49 925.6,644.3 926.86,644.91 907.68,684.89 926.02,694.56 
					967.06,637.32 968.2,638.14 				"/>
				<polygon fill="#FFFFFF" points="696.84,788.71 690.54,746 785.7,746 801.8,788.35 				"/>
				<polygon fill="#FFFFFF" points="562,791 562,753.76 471.28,746.49 454.04,791 				"/>
				<polygon fill="#FFFFFF" points="399.46,746.07 412.05,788.4 367.27,790.15 298,745.37 				"/>
				<polyline fill="#FFFFFF" points="576,746 677.95,746 690.54,789 577.19,789 569.6,747.21 				"/>
				<polygon fill="#FFFFFF" points="218.93,746 286.1,746 342.08,791 270.71,791 				"/>
				<path fill="#FFFFFF" d="M201.03,739.38l54.3,51.62h-54.6l-70.67-51.4C130.06,739.6,135.55,707.79,201.03,739.38z"/>
				<polygon fill="#FFFFFF" points="794.1,746 809.5,789 846,789 846,746 				"/>
				<path fill="#FFFFFF" d="M862,790.15v-37.78l94.8-5.6c0,0-46,41.98-47.4,43.38C908,791.55,862,790.15,862,790.15z"/>
				<polygon fill="#FFFFFF" points="926.23,788.4 967.63,745.37 1041.1,738.96 983.67,790.77 				"/>
				<path fill="#FFFFFF" d="M999.92,791l56.58-58.12c0,0,35.69-9.74,62.27-7.64L1069.09,791H999.92z"/>
				<path fill="#FFFFFF" d="M1079.59,790.77l62.94-72.69c0,0,130.89-23.53,177.77-22.61l-147.13,98.18L1079.59,790.77z"/>
				<path fill="#FFFFFF" d="M1209.74,790.15l136.9-94.71c0,0,148.59-27.04,182.88-20.74l-186.83,118.95L1209.74,790.15z"/>
				<path fill="#FFFFFF" d="M88.78,711.08l90.96,79.07l-90.96,4.2L-88.25,677.49C-88.25,677.49,63.59,699.88,88.78,711.08z"/>
				<path fill="#FFFFFF" d="M-142.13,810.44l196.29-16.09L-127.43,667c0,0-106.36-25.89-134.35-9.8"/>
			</g>
		</g>
	</g>
</g>
</svg>
