<?xml version="1.0" encoding="utf-8"?>
<!-- Generator: Adobe Illustrator 16.2.0, SVG Export Plug-In . SVG Version: 6.00 Build 0)  -->
<!DOCTYPE svg PUBLIC "-//W3C//DTD SVG 1.1//EN" "http://www.w3.org/Graphics/SVG/1.1/DTD/svg11.dtd">
<svg version="1.1" xmlns="http://www.w3.org/2000/svg" xmlns:xlink="http://www.w3.org/1999/xlink" x="0px" y="0px"
	 width="416.75px" height="252.53px" viewBox="0 0 416.75 252.53" enable-background="new 0 0 416.75 252.53" xml:space="preserve">
<g id="BG">
</g>
<g id="Layer_26">
</g>
<g id="Layer_29">
</g>
<g id="Gracias" display="none">
</g>
<g id="Layer_27" display="none">
</g>
<g id="Layer_28" display="none">
</g>
<g id="Layer_25">
</g>
<g id="Layer_24">
</g>
<g id="_x35__BG">
</g>
<g id="Layer_23">
</g>
<g id="Text_5" display="none">
</g>
<g id="_x34__dotted" display="none">
</g>
<g id="_x34__BG">
</g>
<g id="Text_4" display="none">
</g>
<g id="Layer_18">
</g>
<g id="_x33__dotted" display="none">
</g>
<g id="_x33__BG">
</g>
<g id="Layer_14">
</g>
<g id="Text_3" display="none">
</g>
<g id="_x32__dotted" display="none">
</g>
<g id="_x32__BG_1_">
</g>
<g id="_x32__BG">
</g>
<g id="Text_2" display="none">
</g>
<g id="_x31__dotted">
</g>
<g id="_x31__BG">
</g>
<g id="Layer_7">
</g>
<g id="TEAMS">
</g>
<g id="FIFA">
</g>
<g id="LOGO">
</g>
<g id="Layer_31">
</g>
<g id="Layer_6">
	<g>
		<g>
			<g>
				<polygon fill="#262C62" points="324.43,48.54 409.75,77.3 409.75,183.65 324.43,214.69 237.75,185.94 237.75,80.49 				"/>
				<path fill="#FFFFFF" d="M324.53,221.94l-93.79-31.06V75.72l93.58-34.44l92.42,31.1v116.07L324.53,221.94z M244.75,180.99
					l79.58,26.45l78.42-28.59V82.22L324.53,55.8l-79.79,29.47V180.99z"/>
			</g>
			<g>
				<polygon fill="#6DCFF6" points="327.52,31.54 331.63,42.46 347.14,42.46 334.82,49.61 337.33,61.63 327.52,54.4 316.56,61.06 
					319.3,51.11 308.8,43.46 322.95,43.46 				"/>
				<path fill="#FFFFFF" d="M342.18,69.21l-14.84-10.95l-16,9.71l4.29-15.47l-16.66-12.04h21.79l6.8-17.72l6.29,16.72h25.29
					l-20.71,11.86L342.18,69.21z M318.63,46.46l4.34,3.28l-1.19,4.35l5.91-3.55l4.79,3.56l-1.27-5.71l3.94-1.93h-5.75l-1.93-5.61
					l-2.33,5.61H318.63z"/>
			</g>
			<g>
				<polygon fill="#262C62" points="324.93,48.08 409.75,76.84 409.75,183.2 324.93,214.24 238.75,185.48 238.75,80.04 				"/>
				<path fill="#6DCFF6" d="M324.96,216.41l-89.22-29.45V78.6l89.15-32.7l87.85,29.46v109.27L324.96,216.41z M240.75,184
					l84.65,28.07l83.35-30.3V78.32l-83.29-28.05l-84.71,31.21V184z"/>
			</g>
			<polygon fill="#6DCFF6" points="327.52,32.04 331.63,43.46 347.14,43.46 334.82,51.93 337.33,64.62 327.52,57.72 316.56,64.54 
				319.3,52.86 308.8,43.46 322.95,43.46 			"/>
			<g>
				<path fill="#6DCFF6" d="M360.38,99.21c3.2,9.59-2.74,21.91-2.74,21.91c-1.47,0.73-3.6,0.33-5.81-0.55
					c5.89-14.43-8.34-28.67-8.34-28.67c3.92,6.8,2.3,16.74,0.2,23.99c-0.97-0.69-1.57-1.17-1.57-1.17c-2.57-2.57-5.3-4.6-8.08-6.21
					c-0.09-9.17-4.1-20.39-21.59-24.67c0,0-18.11-1.98-35.6,18.56c0,0-11.87,18.87,2.43,33.32c0,0-4.33-32.87,23.86-39.94
					c0,0,14.18-2.36,13.88,5.4c0,0,0.78,0.18,1.3,2.02c-8.27-1.17-14.53,0.11-14.53,0.11c-36.06,13.24-13.24,47.93-13.24,47.93
					c-6.38-32.7,20.34-34.39,27.19-34.3c-0.43,2.38-1.01,5.12-1.78,8.28c0,0-5.33,33.02,7.46,40.02c0,0-7.34-18.73,6.98-41.33
					c2.27,1.3,4.36,2.42,6.28,3.37c-6.3,4.76-8.32,13.39-8.92,17.13c1.84-3.27,8.9-9.15,8.9-9.15c2.9-1.53,5.33-3.13,7.37-4.77
					c11.99,4.39,14.08,0.2,14.08,0.2C374.99,112.9,360.38,99.21,360.38,99.21z"/>
				<path fill="#6DCFF6" d="M327.52,146.22c0,0,0.05-0.69,0.23-1.8C327.3,145.22,327.16,145.86,327.52,146.22z"/>
				<path fill="#6DCFF6" d="M353.75,88.1c-1,10.19,7.57,7.3,7.57,7.3c3.96-7-7.57-7.91-7.57-7.91V88.1z"/>
				<path fill="#6DCFF6" d="M359.17,85.51c-6.85-2.43-4.11-9.43-4.11-9.43C345.17,85.51,359.17,85.51,359.17,85.51z"/>
				<circle fill="#6DCFF6" cx="349.64" cy="80.85" r="1.43"/>
				<path fill="#6DCFF6" d="M332.23,84.6c-0.91,0.46,0,3.96,0,3.96c1.22,2.28,8.06-1.06,8.06-1.06c-3.2-4.41,3.81-8.06,3.81-8.06
					c7,0,7.42-2.28,7.42-2.28c-0.02-4.23-8.33-5.93-8.33-5.93c-0.91-1.83-3.96-2.59-3.96-2.59c-1.52,1.06-0.76,5.48-0.76,5.48
					c-0.61,1.07-4.26,0.76-4.26,0.76c-2.28,1.07-0.91,5.93-0.91,5.93c-1.98-1.06-3.04,1.49-3.04,1.49
					C329.49,84.07,332.23,84.6,332.23,84.6z"/>
				<path fill="#6DCFF6" d="M298,130.1c-13.24,14.46,6.08,21.15,6.08,21.15C298.15,146.99,298,130.1,298,130.1z"/>
			</g>
			<g>
				<polygon fill="#6DCFF6" points="275.75,170.46 275.75,175.58 275.75,179.46 271.75,179.46 271.75,183.46 275.75,183.46 
					275.75,189.46 281.75,189.46 281.75,183.46 298.75,183.46 298.75,179.46 281.75,179.46 281.75,175.46 304.75,175.46 
					304.75,170.46 281.3,170.46 				"/>
				<polygon fill="#6DCFF6" points="313.75,170.46 313.75,175.58 313.75,179.46 310.75,179.46 310.75,183.46 313.75,183.46 
					313.75,189.46 319.75,189.46 319.75,183.46 336.75,183.46 336.75,179.46 319.75,179.46 319.75,175.46 343.75,175.46 
					343.75,170.46 319.27,170.46 				"/>
				<polygon fill="#6DCFF6" points="381.75,175.46 381.75,170.46 357.62,170.46 352.75,170.46 352.75,175.58 352.75,179.46 
					348.75,179.46 348.75,183.46 352.75,183.46 352.75,189.46 357.75,189.46 357.75,183.46 375.75,183.46 375.75,179.46 
					357.75,179.46 357.75,175.46 				"/>
			</g>
		</g>
		<g>
			<g>
				<g>
					<polygon fill="#6DCFF6" points="24.49,6.78 27.42,12.71 33.97,13.67 29.23,18.29 30.35,24.81 24.49,21.73 18.63,24.81 
						19.75,18.29 15.01,13.67 21.56,12.71 					"/>
					<path fill="#FFFFFF" d="M24.49,6.78l2.93,5.94l6.55,0.95l-4.74,4.62l1.12,6.52l-5.86-3.08l-5.86,3.08l1.12-6.52l-4.74-4.62
						l6.55-0.95L24.49,6.78 M24.49,0L21.8,5.45l-2.23,4.52l-4.99,0.73l-6.01,0.87l4.35,4.24l3.61,3.52l-0.85,4.97l-1.03,5.99
						l5.38-2.83l4.46-2.35l4.46,2.35l5.38,2.83L33.3,24.3l-0.85-4.97l3.61-3.52l4.35-4.24L34.4,10.7l-4.99-0.73l-2.23-4.52L24.49,0
						L24.49,0z"/>
				</g>
				<g>
					<polygon fill="#6DCFF6" points="50.92,6.78 53.85,12.71 60.4,13.67 55.66,18.29 56.78,24.81 50.92,21.73 45.06,24.81 
						46.18,18.29 41.44,13.67 47.99,12.71 					"/>
					<path fill="#FFFFFF" d="M50.92,6.78l2.93,5.94l6.55,0.95l-4.74,4.62l1.12,6.52l-5.86-3.08l-5.86,3.08l1.12-6.52l-4.74-4.62
						l6.55-0.95L50.92,6.78 M50.92,0l-2.69,5.45L46,9.97l-4.99,0.73l-6.01,0.88l4.35,4.24l3.61,3.52L42.1,24.3l-1.03,5.99l5.38-2.83
						l4.46-2.35l4.46,2.35l5.38,2.83l-1.03-5.99l-0.85-4.97l3.61-3.52l4.35-4.24l-6.01-0.87l-4.99-0.73l-2.23-4.52L50.92,0L50.92,0z
						"/>
				</g>
				<g>
					<polygon fill="#6DCFF6" points="77.72,6.78 80.65,12.71 87.2,13.67 82.46,18.29 83.58,24.81 77.72,21.73 71.86,24.81 
						72.98,18.29 68.24,13.67 74.79,12.71 					"/>
					<path fill="#FFFFFF" d="M77.72,6.78l2.93,5.94l6.55,0.95l-4.74,4.62l1.12,6.52l-5.86-3.08l-5.86,3.08l1.12-6.52l-4.74-4.62
						l6.55-0.95L77.72,6.78 M77.72,0l-2.69,5.45L72.8,9.97l-4.99,0.73l-6.01,0.88l4.35,4.24l3.61,3.52l-0.85,4.97l-1.03,5.99
						l5.38-2.83l4.46-2.35l4.46,2.35l5.38,2.83l-1.03-5.99l-0.85-4.97l3.61-3.52l4.35-4.24l-6.01-0.87l-4.99-0.73l-2.23-4.52
						L77.72,0L77.72,0z"/>
				</g>
				<g>
					<polygon fill="#6DCFF6" points="103.77,6.78 106.7,12.71 113.25,13.67 108.51,18.29 109.63,24.81 103.77,21.73 97.91,24.81 
						99.03,18.29 94.29,13.67 100.84,12.71 					"/>
					<path fill="#FFFFFF" d="M103.77,6.78l2.93,5.94l6.55,0.95l-4.74,4.62l1.12,6.52l-5.86-3.08l-5.86,3.08l1.12-6.52l-4.74-4.62
						l6.55-0.95L103.77,6.78 M103.77,0l-2.69,5.45l-2.23,4.52l-4.99,0.73l-6.01,0.88l4.35,4.24l3.61,3.52l-0.85,4.97l-1.03,5.99
						l5.38-2.83l4.46-2.35l4.46,2.35l5.38,2.83l-1.03-5.99l-0.85-4.97l3.61-3.52l4.35-4.24l-6.01-0.87l-4.99-0.73l-2.23-4.52
						L103.77,0L103.77,0z"/>
				</g>
				<g>
					<g>
						<g>
							<path fill="#262C62" d="M116.23,64.32c0,0-0.38-7.93,11.71-9.44C127.94,54.88,126.42,69.6,116.23,64.32z"/>
							<path fill="#FFFFFF" d="M127.94,54.88c0,0-1.09,10.58-7.63,10.58c-1.17,0-2.52-0.34-4.08-1.15
								C116.23,64.32,115.85,56.39,127.94,54.88 M131.3,51.44l-3.74,0.47c-7.38,0.92-10.89,4.11-12.53,6.62
								c-1.89,2.9-1.82,5.63-1.8,5.94l0.08,1.73l1.53,0.79c1.9,0.98,3.73,1.48,5.46,1.48c7.3,0,10.11-8.35,10.61-13.28L131.3,51.44
								L131.3,51.44z"/>
						</g>
						<g>
							<path fill="#262C62" d="M104.91,54.88c0,0,2.64,14.72,12.84,9.44C117.74,64.32,116.99,56.39,104.91,54.88"/>
							<path fill="#FFFFFF" d="M113.6,66.96L113.6,66.96c-7.95,0-10.08-11.34-10.17-11.82l-0.36-2.01l2.02,0.25
								c13.12,1.64,14.11,10.41,14.14,10.78l0.1,1.01l-0.9,0.47C116.75,66.52,115.12,66.96,113.6,66.96z M106.94,56.75
								c0.88,2.76,2.87,7.22,6.65,7.22c0,0,0,0,0,0c0.74,0,1.55-0.17,2.4-0.5C115.4,61.72,113.4,58.17,106.94,56.75z"/>
						</g>
					</g>
					<g>
						<g>
							<path fill="#262C62" d="M116.23,83.29c0,0-0.38-7.93,11.71-9.44C127.94,73.85,126.42,88.57,116.23,83.29z"/>
							<path fill="#FFFFFF" d="M127.94,73.85c0,0-1.09,10.58-7.63,10.58c-1.17,0-2.52-0.34-4.08-1.15
								C116.23,83.29,115.85,75.36,127.94,73.85 M131.3,70.41l-3.74,0.47c-7.38,0.92-10.89,4.11-12.53,6.62
								c-1.89,2.9-1.82,5.63-1.8,5.94l0.08,1.73l1.53,0.79c1.9,0.98,3.73,1.48,5.46,1.48c7.3,0,10.11-8.35,10.61-13.28L131.3,70.41
								L131.3,70.41z"/>
						</g>
						<g>
							<path fill="#262C62" d="M104.91,73.85c0,0,2.64,14.72,12.84,9.44C117.74,83.29,116.99,75.36,104.91,73.85"/>
							<path fill="#FFFFFF" d="M113.6,85.93C113.6,85.93,113.6,85.93,113.6,85.93c-7.95,0-10.08-11.33-10.17-11.82l-0.36-2.01
								l2.02,0.25c13.12,1.64,14.11,10.41,14.14,10.78l0.1,1.01l-0.9,0.47C116.75,85.49,115.12,85.93,113.6,85.93z M106.94,75.72
								c0.88,2.76,2.87,7.21,6.65,7.22h0c0.74,0,1.55-0.17,2.4-0.5C115.4,80.69,113.4,77.14,106.94,75.72z"/>
						</g>
					</g>
					<g>
						<g>
							<path fill="#262C62" d="M116.23,102.26c0,0-0.38-7.93,11.71-9.44C127.94,92.82,126.42,107.54,116.23,102.26z"/>
							<path fill="#FFFFFF" d="M127.94,92.82c0,0-1.09,10.58-7.63,10.58c-1.17,0-2.52-0.34-4.08-1.15
								C116.23,102.26,115.85,94.33,127.94,92.82 M131.3,89.38l-3.74,0.47c-7.38,0.92-10.89,4.11-12.53,6.62
								c-1.89,2.9-1.82,5.63-1.8,5.94l0.08,1.73l1.53,0.79c1.9,0.98,3.73,1.48,5.46,1.48c7.3,0,10.11-8.35,10.61-13.28L131.3,89.38
								L131.3,89.38z"/>
						</g>
						<g>
							<path fill="#262C62" d="M104.91,92.82c0,0,2.64,14.72,12.84,9.44C117.74,102.26,116.99,94.33,104.91,92.82"/>
							<path fill="#FFFFFF" d="M113.6,104.9L113.6,104.9c-7.95,0-10.08-11.34-10.17-11.82l-0.36-2.01l2.02,0.25
								c13.12,1.64,14.11,10.41,14.14,10.78l0.1,1.01l-0.9,0.47C116.75,104.46,115.12,104.9,113.6,104.9z M106.94,94.69
								c0.88,2.76,2.87,7.22,6.65,7.22c0,0,0,0,0,0c0.74,0,1.55-0.17,2.4-0.5C115.4,99.66,113.4,96.11,106.94,94.69z"/>
						</g>
					</g>
					<g>
						<g>
							<path fill="#262C62" d="M116.23,121.23c0,0-0.38-7.93,11.71-9.44C127.94,111.79,126.42,126.52,116.23,121.23z"/>
							<path fill="#FFFFFF" d="M127.94,111.79c0,0-1.09,10.58-7.63,10.58c-1.17,0-2.52-0.34-4.08-1.15
								C116.23,121.23,115.85,113.3,127.94,111.79 M131.3,108.35l-3.74,0.47c-7.38,0.92-10.88,4.11-12.52,6.62
								c-1.89,2.9-1.82,5.63-1.8,5.93l0.08,1.73l1.53,0.79c1.9,0.98,3.73,1.48,5.46,1.48c7.3,0,10.11-8.35,10.61-13.28L131.3,108.35
								L131.3,108.35z"/>
						</g>
						<g>
							<path fill="#262C62" d="M104.91,111.79c0,0,2.64,14.72,12.84,9.44C117.74,121.23,116.99,113.3,104.91,111.79"/>
							<path fill="#FFFFFF" d="M113.6,123.88C113.6,123.88,113.6,123.88,113.6,123.88c-7.95,0-10.08-11.34-10.17-11.82l-0.36-2.01
								l2.02,0.25c13.12,1.64,14.11,10.41,14.14,10.78l0.1,1.01l-0.9,0.47C116.75,123.43,115.12,123.88,113.6,123.88z
								 M106.94,113.66c0.88,2.76,2.87,7.22,6.65,7.22c0,0,0,0,0,0c0.74,0,1.55-0.17,2.4-0.5
								C115.4,118.63,113.4,115.09,106.94,113.66z"/>
						</g>
					</g>
					<g>
						<g>
							<path fill="#262C62" d="M116.23,140.2c0,0-0.38-7.93,11.71-9.44C127.94,130.76,126.42,145.49,116.23,140.2z"/>
							<path fill="#FFFFFF" d="M127.94,130.76c0,0-1.09,10.58-7.63,10.58c-1.17,0-2.52-0.34-4.08-1.15
								C116.23,140.2,115.85,132.27,127.94,130.76 M131.3,127.32l-3.74,0.47c-7.38,0.92-10.89,4.11-12.53,6.62
								c-1.89,2.9-1.82,5.63-1.8,5.94l0.08,1.73l1.53,0.79c1.9,0.98,3.73,1.48,5.46,1.48c7.3,0,10.11-8.35,10.61-13.28L131.3,127.32
								L131.3,127.32z"/>
						</g>
						<g>
							<path fill="#262C62" d="M104.91,130.76c0,0,2.64,14.72,12.84,9.44C117.74,140.2,116.99,132.27,104.91,130.76"/>
							<path fill="#FFFFFF" d="M113.6,142.46C113.6,142.46,113.6,142.46,113.6,142.46c-7.95,0-10.08-11.14-10.17-11.62l-0.36-1.91
								l2.02,0.3c13.12,1.64,14.11,10.44,14.14,10.81l0.1,1.02l-0.9,0.28C116.75,142.2,115.12,142.46,113.6,142.46z M106.94,132.63
								c0.88,2.76,2.87,7.22,6.66,7.22c0,0,0,0,0,0c0.74,0,1.55-0.17,2.4-0.5C115.4,137.6,113.4,134.06,106.94,132.63z"/>
						</g>
					</g>
					<g>
						<g>
							<path fill="#262C62" d="M115.54,34.11c0,0,9.44,8.31,0,15.86C115.54,49.97,109.5,39.78,115.54,34.11z"/>
							<path fill="#FFFFFF" d="M115.54,34.11c0,0,9.44,8.31,0,15.86C115.54,49.97,109.5,39.78,115.54,34.11 M115.48,30.06
								l-1.99,1.86c-3.29,3.09-4.38,7.56-3.14,12.92c0.85,3.67,2.54,6.54,2.61,6.66l1.76,2.97l2.7-2.16
								c3.44-2.76,5.23-5.97,5.32-9.55c0.14-6.01-4.66-10.42-5.21-10.9L115.48,30.06L115.48,30.06z"/>
						</g>
						<g>
							<rect x="113.75" y="47.46" fill="#262C62" width="1" height="121"/>
							<path fill="#FFFFFF" d="M114.75,47.46v121h-1v-121H114.75 M117.75,44.46h-2.59h-1.87h-2.54v2.69v121.32v2.99h2.54h1.87h2.59
								v-2.99V47.15V44.46L117.75,44.46z"/>
						</g>
					</g>
				</g>
				<g>
					<g>
						<g>
							<path fill="#262C62" d="M13.16,64.32c0,0-0.38-7.93,11.7-9.44C24.87,54.88,23.36,69.6,13.16,64.32z"/>
							<path fill="#FFFFFF" d="M24.87,54.88c0,0-1.09,10.58-7.63,10.58c-1.17,0-2.52-0.34-4.08-1.15
								C13.16,64.32,12.79,56.39,24.87,54.88 M28.24,51.44L24.5,51.9c-7.38,0.92-10.88,4.11-12.52,6.62
								c-1.89,2.9-1.82,5.63-1.81,5.94l0.08,1.73l1.53,0.79c1.9,0.98,3.73,1.48,5.46,1.48c7.3,0,10.11-8.35,10.61-13.28L28.24,51.44
								L28.24,51.44z"/>
						</g>
						<g>
							<path fill="#262C62" d="M1.84,54.88c0,0,2.64,14.72,12.84,9.44C14.67,64.32,13.92,56.39,1.84,54.88"/>
							<path fill="#FFFFFF" d="M10.53,66.96L10.53,66.96c-7.95,0-10.08-11.34-10.17-11.82L0,53.14l2.02,0.25
								c13.12,1.64,14.11,10.41,14.14,10.78l0.1,1.01l-0.9,0.47C13.68,66.52,12.06,66.96,10.53,66.96z M3.87,56.75
								c0.88,2.76,2.88,7.22,6.66,7.22h0c0.74,0,1.55-0.17,2.4-0.5C12.33,61.72,10.33,58.17,3.87,56.75z"/>
						</g>
					</g>
					<g>
						<g>
							<path fill="#262C62" d="M13.16,83.29c0,0-0.38-7.93,11.7-9.44C24.87,73.85,23.36,88.57,13.16,83.29z"/>
							<path fill="#FFFFFF" d="M24.87,73.85c0,0-1.09,10.58-7.63,10.58c-1.17,0-2.52-0.34-4.08-1.15
								C13.16,83.29,12.79,75.36,24.87,73.85 M28.24,70.41l-3.74,0.47c-7.38,0.92-10.89,4.11-12.52,6.62
								c-1.89,2.9-1.82,5.63-1.81,5.93l0.08,1.73l1.53,0.79c1.9,0.98,3.73,1.48,5.46,1.48c7.3,0,10.11-8.35,10.61-13.28L28.24,70.41
								L28.24,70.41z"/>
						</g>
						<g>
							<path fill="#262C62" d="M1.84,73.85c0,0,2.64,14.72,12.84,9.44C14.67,83.29,13.92,75.36,1.84,73.85"/>
							<path fill="#FFFFFF" d="M10.53,85.93C10.53,85.93,10.53,85.93,10.53,85.93c-7.95,0-10.08-11.33-10.17-11.82L0,72.11
								l2.02,0.25C15.15,74,16.13,82.77,16.17,83.15l0.1,1.01l-0.9,0.47C13.68,85.49,12.06,85.93,10.53,85.93z M3.87,75.72
								c0.88,2.76,2.87,7.21,6.66,7.22c0,0,0,0,0,0c0.74,0,1.55-0.17,2.4-0.5C12.33,80.69,10.33,77.14,3.87,75.72z"/>
						</g>
					</g>
					<g>
						<g>
							<path fill="#262C62" d="M13.16,102.26c0,0-0.38-7.93,11.7-9.44C24.87,92.82,23.36,107.54,13.16,102.26z"/>
							<path fill="#FFFFFF" d="M24.87,92.82c0,0-1.09,10.58-7.63,10.58c-1.17,0-2.52-0.34-4.08-1.15
								C13.16,102.26,12.79,94.33,24.87,92.82 M28.24,89.38l-3.74,0.47c-7.38,0.92-10.88,4.11-12.52,6.62
								c-1.89,2.9-1.82,5.63-1.81,5.94l0.08,1.73l1.53,0.79c1.9,0.98,3.73,1.48,5.46,1.48c7.3,0,10.11-8.35,10.61-13.28L28.24,89.38
								L28.24,89.38z"/>
						</g>
						<g>
							<path fill="#262C62" d="M1.84,92.82c0,0,2.64,14.72,12.84,9.44C14.67,102.26,13.92,94.33,1.84,92.82"/>
							<path fill="#FFFFFF" d="M10.53,104.9L10.53,104.9c-7.95,0-10.08-11.34-10.17-11.82L0,91.08l2.02,0.25
								c13.12,1.64,14.11,10.41,14.14,10.78l0.1,1.01l-0.9,0.47C13.68,104.46,12.06,104.9,10.53,104.9z M3.87,94.69
								c0.88,2.76,2.88,7.22,6.66,7.22h0c0.74,0,1.55-0.17,2.4-0.5C12.33,99.66,10.33,96.11,3.87,94.69z"/>
						</g>
					</g>
					<g>
						<g>
							<path fill="#262C62" d="M13.16,121.23c0,0-0.38-7.93,11.7-9.44C24.87,111.79,23.36,126.52,13.16,121.23z"/>
							<path fill="#FFFFFF" d="M24.87,111.79c0,0-1.09,10.58-7.63,10.58c-1.17,0-2.52-0.34-4.08-1.15
								C13.16,121.23,12.79,113.3,24.87,111.79 M28.24,108.35l-3.74,0.47c-7.38,0.92-10.88,4.11-12.52,6.62
								c-1.89,2.9-1.82,5.63-1.81,5.93l0.08,1.73l1.53,0.79c1.9,0.98,3.73,1.48,5.46,1.48c7.3,0,10.11-8.35,10.61-13.28
								L28.24,108.35L28.24,108.35z"/>
						</g>
						<g>
							<path fill="#262C62" d="M1.84,111.79c0,0,2.64,14.72,12.84,9.44C14.67,121.23,13.92,113.3,1.84,111.79"/>
							<path fill="#FFFFFF" d="M10.53,123.88L10.53,123.88c-7.95,0-10.08-11.34-10.17-11.82L0,110.05l2.02,0.25
								c13.12,1.64,14.11,10.41,14.14,10.78l0.1,1.01l-0.9,0.47C13.68,123.43,12.06,123.88,10.53,123.88z M3.87,113.66
								c0.88,2.76,2.87,7.22,6.66,7.22c0,0,0,0,0,0c0.74,0,1.55-0.17,2.4-0.5C12.33,118.63,10.33,115.09,3.87,113.66z"/>
						</g>
					</g>
					<g>
						<g>
							<path fill="#262C62" d="M13.16,140.2c0,0-0.38-7.93,11.7-9.44C24.87,130.76,23.36,145.49,13.16,140.2z"/>
							<path fill="#FFFFFF" d="M24.87,130.76c0,0-1.09,10.58-7.63,10.58c-1.17,0-2.52-0.34-4.08-1.15
								C13.16,140.2,12.79,132.27,24.87,130.76 M28.24,127.32l-3.74,0.47c-7.38,0.92-10.88,4.11-12.52,6.62
								c-1.89,2.9-1.82,5.63-1.81,5.94l0.08,1.73l1.53,0.79c1.9,0.98,3.73,1.48,5.46,1.48c7.3,0,10.11-8.35,10.61-13.28
								L28.24,127.32L28.24,127.32z"/>
						</g>
						<g>
							<path fill="#262C62" d="M1.84,130.76c0,0,2.64,14.72,12.84,9.44C14.67,140.2,13.92,132.27,1.84,130.76"/>
							<path fill="#FFFFFF" d="M10.53,142.85C10.53,142.85,10.53,142.85,10.53,142.85c-7.95,0-10.08-11.34-10.17-11.82L0,129.02
								l2.02,0.25c13.12,1.64,14.11,10.41,14.14,10.79l0.1,1.01l-0.9,0.47C13.68,142.41,12.06,142.85,10.53,142.85z M3.87,132.63
								c0.88,2.76,2.87,7.22,6.66,7.22l0,0c0.74,0,1.55-0.17,2.4-0.5C12.33,137.6,10.33,134.06,3.87,132.63z"/>
						</g>
					</g>
					<g>
						<g>
							<path fill="#262C62" d="M12.47,34.11c0,0,9.44,8.31,0,15.86C12.47,49.97,6.43,39.78,12.47,34.11z"/>
							<path fill="#FFFFFF" d="M12.47,34.11c0,0,9.44,8.31,0,15.86C12.47,49.97,6.43,39.78,12.47,34.11 M12.41,30.06l-1.99,1.86
								c-3.3,3.09-4.38,7.56-3.14,12.92c0.85,3.67,2.54,6.54,2.61,6.66l1.76,2.97l2.7-2.16c3.44-2.76,5.23-5.97,5.32-9.55
								c0.14-6.01-4.66-10.42-5.21-10.9L12.41,30.06L12.41,30.06z"/>
						</g>
						<g>
							<rect x="10.75" y="47.46" fill="#262C62" width="2" height="121"/>
							<path fill="#FFFFFF" d="M12.75,47.46v121h-2v-121H12.75 M15.75,44.46h-3.25h-1.87H7.75v2.69v121.32v2.99h2.88h1.87h3.25
								v-2.99V47.15V44.46L15.75,44.46z"/>
						</g>
					</g>
				</g>
				<g>
					<polygon fill="#262C62" points="62.76,46.76 95.75,31.47 95.75,246.67 64.27,224.02 31.73,246.67 30.07,31.47 					"/>
					<path fill="#FFFFFF" d="M95.75,31.46v215.21l-31.47-22.65l-32.54,22.65l-1.71-215.2l32.75,15.29l32.97-15.29 M26.96,26.73
						L27,31.49l1.69,215.2l0.04,5.69l4.67-3.26l30.75-21.43l29.75,21.41l4.85,3.43v-5.87V31.47v-4.7l-4.36,1.98l-31.67,14.7
						l-31.42-14.7L26.96,26.73L26.96,26.73z"/>
				</g>
				<g>
					<polygon fill="#6DCFF6" points="64.7,58.61 64.51,58.96 64.7,58.61 					"/>
					<path fill="#FFFFFF" d="M64.7,58.61L64.7,58.61l-0.19,0.36L64.7,58.61 M64.13,53.23l-2.09,3.98l-0.19,0.36l5.29,2.83l0.19-0.35
						l0.98-1.79l-1.3-1.57L64.13,53.23L64.13,53.23z"/>
				</g>
				<g>
					<path fill="#6DCFF6" d="M54.63,79.46h20.14l2.96,6h5.66l-13.59-26h-4.53h-1.13H59.6l-13.59,26h5.66L54.63,79.46z M64.7,58.61
						L64.7,58.61l-0.19,0.36L64.7,58.61z M61.72,65.46h3.21h2.75l4.73,10H56.99L61.72,65.46z"/>
					<path fill="#FFFFFF" d="M64.7,58.61L64.7,58.61l-0.19,0.36L64.7,58.61 M69.79,59.28l13.59,26.13h-5.66l-2.96-5.6H54.63
						l-2.96,5.6h-5.66L59.6,59.28h4.53h1.13H69.79 M56.99,75.14H72.4l-4.73-9.33h-2.75h-3.21L56.99,75.14 M64.12,53.24l-1.59,3.04
						H59.6h-1.82l-0.84,1.62L43.35,84.03l-2.28,4.38h4.94h5.66h1.81l0.84-1.6l2.11-4h16.52l2.11,4l0.84,1.6h1.81h5.66h4.94
						l-2.28-4.38L72.45,57.89l-0.84-1.62h-1.82h-3.13L64.12,53.24L64.12,53.24z M63.56,68.81h1.37h0.91l1.69,3.33h-5.65L63.56,68.81
						L63.56,68.81z"/>
				</g>
				<g>
					<polygon fill="#6DCFF6" points="74.75,94.46 74.75,113.46 52.75,113.46 52.75,94.46 43.75,94.46 43.75,118.46 48.27,118.46 
						53.94,118.46 76.59,118.46 81.12,118.46 82.75,118.46 82.75,94.46 					"/>
					<path fill="#FFFFFF" d="M82.75,94.46v24h-1.62h-4.53H53.94h-5.66h-4.53v-24h9v19h22v-19H82.75 M85.75,91.46h-3.26h-7.46h-3.28
						v3.29v15.71h-16V94.74v-3.29h-3.12h-8.4h-3.48v3.29v23.33v3.38h3.48h4.05h5.66h22.65h4.53h1.37h3.26v-3.38V94.74V91.46
						L85.75,91.46z"/>
				</g>
				<g>
					<polygon fill="#6DCFF6" points="50.54,129.46 43.75,129.46 43.75,151.46 52.75,151.46 52.75,142.46 81.75,142.46 81.75,137.46 
						52.75,137.46 52.75,133.46 81.75,133.46 81.75,129.46 55.07,129.46 					"/>
					<path fill="#FFFFFF" d="M81.75,129.46v4h-29v4h29v5h-29v9h-9v-22h6.79h4.53H81.75 M84.75,126.46h-3.19H55.07h-4.53h-7.25h-2.54
						v2.82v22.4v2.78h2.54h9.33h3.12v-2.78v-6.22h25.81h3.19v-3.12v-4.67v-0.73v-3v-4.67V126.46L84.75,126.46z"/>
				</g>
				<g>
					<g>
						<rect x="3.75" y="165.46" fill="#6DCFF6" width="119" height="8"/>
						<path fill="#FFFFFF" d="M122.75,165.46v8h-119v-8H122.75 M125.75,162.46h-3.13H4.09H0.75v3.22v7.47v3.32h3.35h118.53h3.13
							v-3.32v-7.47V162.46L125.75,162.46z"/>
					</g>
					<g>
						<rect x="3.75" y="179.46" fill="#6DCFF6" width="119" height="7"/>
						<path fill="#FFFFFF" d="M122.75,179.46v7h-119v-7H122.75 M125.75,176.46h-3.13H4.09H0.75v3.21v6.53v3.25h3.35h118.53h3.13
							v-3.25v-6.53V176.46L125.75,176.46z"/>
					</g>
					<g>
						<rect x="3.75" y="192.46" fill="#6DCFF6" width="119" height="8"/>
						<path fill="#FFFFFF" d="M122.75,192.46v8h-119v-8H122.75 M125.75,189.46h-3.13H4.09H0.75v3.28v7.47v3.25h3.35h118.53h3.13
							v-3.25v-7.47V189.46L125.75,189.46z"/>
					</g>
					<g>
						<rect x="3.75" y="206.46" fill="#6DCFF6" width="119" height="7"/>
						<path fill="#FFFFFF" d="M122.75,206.46v7h-119v-7H122.75 M125.75,203.46h-3.13H4.09H0.75v3.28v6.53v3.19h3.35h118.53h3.13
							v-3.19v-6.53V203.46L125.75,203.46z"/>
					</g>
				</g>
				<g>
					<g>
						<ellipse fill="#262C62" cx="63.73" cy="187.17" rx="23.47" ry="23.9"/>
						<path fill="#FFFFFF" d="M63.73,163.28c12.96,0,23.47,10.7,23.47,23.9s-10.51,23.9-23.47,23.9c-12.96,0-23.47-10.7-23.47-23.9
							S50.77,163.28,63.73,163.28 M63.73,160.28c-14.6,0-26.47,12.07-26.47,26.9c0,14.83,11.88,26.9,26.47,26.9
							s26.47-12.07,26.47-26.9C90.2,172.34,78.33,160.28,63.73,160.28L63.73,160.28z"/>
					</g>
					<g>
						<defs>
							<circle id="SVGID_19_" cx="63.49" cy="186.99" r="24"/>
						</defs>
						<clipPath id="SVGID_2_">
							<use xlink:href="#SVGID_19_"  overflow="visible"/>
						</clipPath>
						<g clip-path="url(#SVGID_2_)">
							<path fill="#6DCFF6" d="M79.17,190.41l0.06,0.18l-4.64-0.84l-1.14-11.35l3.24-2.35l11.51,3.84c0,0-1.45-11.45-13.45-16.24
								v11.07L71,178.12l-11.17-1.74l-1.4-2.48l3.29-11.3c0,0-16.9,6.86-17.98,12.86h13.75l1.98,2.37l-5.37,8.72l0.04-0.12
								l-4.21,1.5l-8.83-5.83c-2.79,12.22,3.56,19.16,3.56,19.16l6.28-12.57l4.03-1.52l8.27,8.82l-0.46,3.06l-10,9.77
								c12.45,5.41,20.19-0.62,20.19-0.62l-9.12-8.69l0.59-3.89l9.92-4.75l5.29,0.95l4.14,11.74c6.96-2.01,7.27-15.78,7.27-15.78
								L79.17,190.41z"/>
							<path fill="#FFFFFF" d="M61.74,162.6l-3.27,11.18l1.43,2.54l11.1,1.77l3.74-3.36v-11.07c12,4.79,13.45,16.24,13.45,16.24
								l-11.58-3.84l-3.2,2.35l1.15,11.35l4.65,0.84l-0.06-0.18l11.91-2.63c0,0-0.31,13.77-7.27,15.78l-4.14-11.74l-5.29-0.95
								l-9.92,4.75l-0.59,3.89l9.12,8.69c0,0-3.68,2.88-10.06,2.88c-2.86,0-6.27-0.58-10.12-2.25l10-9.77l0.46-3.06l-8.27-8.82
								l-4.03,1.52l-6.28,12.57c0,0-6.34-6.93-3.56-19.15l8.83,5.85l4.21-1.47l-0.04,0.18l5.37-8.84l-1.98-2.37H43.74
								C44.83,169.46,61.74,162.6,61.74,162.6 M66.35,157.83l-5.69,2.21c-3.09,1.2-18.58,7.58-19.88,15.41l-0.42,2.56l-1.21-0.8
								l-0.96,4.23c-3.1,13.6,3.97,21.51,4.27,21.85l2.95,3.22l1.95-3.91l5.75-11.52l1.06-0.4l5.9,6.29l-0.09,0.62l-9.28,9.07
								l-3.19,3.12l4.09,1.78c3.82,1.66,7.63,2.5,11.32,2.5c7.33,0,11.73-3.37,11.91-3.51l2.74-2.14l-2.52-2.4l-7.98-7.61l0.12-0.78
								l7.61-3.65l2.62,0.47l3.56,10.09l0.94,2.67l2.72-0.79c8.82-2.55,9.4-16.96,9.44-18.59l0.09-3.82l-3.73,0.82l-11.75,2.59
								l-1.33-0.24l-0.74-7.38l0.6-0.44l10.19,3.36l4.4,1.45l-0.48-4.61c-0.06-0.54-1.67-13.32-15.33-18.72l-4.24-1.62v4.41v9.71
								l-1.67,1.58l-8.37-1.3l-0.03-0.12l2.92-9.83L66.35,157.83L66.35,157.83z M41.76,178.46h1.99H55.4l-3.14,5.28l-1.9,0.78
								l-7.58-5.21L41.76,178.46L41.76,178.46z"/>
						</g>
					</g>
				</g>
			</g>
			<g>
				<g>
					<polygon fill="#6DCFF6" points="24.49,6.78 27.42,12.71 33.97,13.67 29.23,18.29 30.35,24.81 24.49,21.73 18.63,24.81 
						19.75,18.29 15.01,13.67 21.56,12.71 					"/>
				</g>
				<g>
					<polygon fill="#6DCFF6" points="50.92,6.78 53.85,12.71 60.4,13.67 55.66,18.29 56.78,24.81 50.92,21.73 45.06,24.81 
						46.18,18.29 41.44,13.67 47.99,12.71 					"/>
				</g>
				<g>
					<polygon fill="#6DCFF6" points="77.72,6.78 80.65,12.71 87.2,13.67 82.46,18.29 83.58,24.81 77.72,21.73 71.86,24.81 
						72.98,18.29 68.24,13.67 74.79,12.71 					"/>
				</g>
				<g>
					<polygon fill="#6DCFF6" points="103.77,6.78 106.7,12.71 113.25,13.67 108.51,18.29 109.63,24.81 103.77,21.73 97.91,24.81 
						99.03,18.29 94.29,13.67 100.84,12.71 					"/>
				</g>
				<g>
					<g>
						<g>
							<path fill="#262C62" d="M116.23,64.32c0,0-0.38-7.93,11.71-9.44C127.94,54.88,126.42,69.6,116.23,64.32z"/>
						</g>
						<path fill="#262C62" d="M104.91,54.88c0,0,2.64,14.72,12.84,9.44C117.74,64.32,116.99,56.39,104.91,54.88"/>
					</g>
					<g>
						<g>
							<path fill="#262C62" d="M116.23,83.29c0,0-0.38-7.93,11.71-9.44C127.94,73.85,126.42,88.57,116.23,83.29z"/>
						</g>
						<path fill="#262C62" d="M104.91,73.85c0,0,2.64,14.72,12.84,9.44C117.74,83.29,116.99,75.36,104.91,73.85"/>
					</g>
					<g>
						<g>
							<path fill="#262C62" d="M116.23,102.26c0,0-0.38-7.93,11.71-9.44C127.94,92.82,126.42,107.54,116.23,102.26z"/>
						</g>
						<path fill="#262C62" d="M104.91,92.82c0,0,2.64,14.72,12.84,9.44C117.74,102.26,116.99,94.33,104.91,92.82"/>
					</g>
					<g>
						<g>
							<path fill="#262C62" d="M116.23,121.23c0,0-0.38-7.93,11.71-9.44C127.94,111.79,126.42,126.52,116.23,121.23z"/>
						</g>
						<path fill="#262C62" d="M104.91,111.79c0,0,2.64,14.72,12.84,9.44C117.74,121.23,116.99,113.3,104.91,111.79"/>
					</g>
					<g>
						<g>
							<path fill="#262C62" d="M116.23,140.2c0,0-0.38-7.93,11.71-9.44C127.94,130.76,126.42,145.49,116.23,140.2z"/>
						</g>
						<path fill="#262C62" d="M104.91,130.76c0,0,2.64,14.72,12.84,9.44C117.74,140.2,116.99,132.27,104.91,130.76"/>
					</g>
					<g>
						<g>
							<path fill="#262C62" d="M115.54,34.11c0,0,9.44,8.31,0,15.86C115.54,49.97,109.5,39.78,115.54,34.11z"/>
						</g>
						<g>
							<rect x="113.75" y="47.46" fill="#262C62" width="1" height="121"/>
						</g>
					</g>
				</g>
				<g>
					<g>
						<g>
							<path fill="#262C62" d="M13.16,64.32c0,0-0.38-7.93,11.7-9.44C24.87,54.88,23.36,69.6,13.16,64.32z"/>
						</g>
						<path fill="#262C62" d="M1.84,54.88c0,0,2.64,14.72,12.84,9.44C14.67,64.32,13.92,56.39,1.84,54.88"/>
					</g>
					<g>
						<g>
							<path fill="#262C62" d="M13.16,83.29c0,0-0.38-7.93,11.7-9.44C24.87,73.85,23.36,88.57,13.16,83.29z"/>
						</g>
						<path fill="#262C62" d="M1.84,73.85c0,0,2.64,14.72,12.84,9.44C14.67,83.29,13.92,75.36,1.84,73.85"/>
					</g>
					<g>
						<g>
							<path fill="#262C62" d="M13.16,102.26c0,0-0.38-7.93,11.7-9.44C24.87,92.82,23.36,107.54,13.16,102.26z"/>
						</g>
						<path fill="#262C62" d="M1.84,92.82c0,0,2.64,14.72,12.84,9.44C14.67,102.26,13.92,94.33,1.84,92.82"/>
					</g>
					<g>
						<g>
							<path fill="#262C62" d="M13.16,121.23c0,0-0.38-7.93,11.7-9.44C24.87,111.79,23.36,126.52,13.16,121.23z"/>
						</g>
						<path fill="#262C62" d="M1.84,111.79c0,0,2.64,14.72,12.84,9.44C14.67,121.23,13.92,113.3,1.84,111.79"/>
					</g>
					<g>
						<g>
							<path fill="#262C62" d="M13.16,140.2c0,0-0.38-7.93,11.7-9.44C24.87,130.76,23.36,145.49,13.16,140.2z"/>
						</g>
						<path fill="#262C62" d="M1.84,130.76c0,0,2.64,14.72,12.84,9.44C14.67,140.2,13.92,132.27,1.84,130.76"/>
					</g>
					<g>
						<g>
							<path fill="#262C62" d="M12.47,34.11c0,0,9.44,8.31,0,15.86C12.47,49.97,6.43,39.78,12.47,34.11z"/>
						</g>
						<g>
							<rect x="10.75" y="47.46" fill="#262C62" width="2" height="121"/>
						</g>
					</g>
				</g>
				<g>
					<polygon fill="#262C62" points="62.76,46.76 95.75,31.47 95.75,246.67 64.27,224.02 31.73,246.67 30.07,31.47 					"/>
				</g>
				<g>
					<polygon fill="#6DCFF6" points="64.7,58.61 64.51,58.96 64.7,58.61 					"/>
				</g>
				<g>
					<path fill="#6DCFF6" d="M54.63,79.81h20.14l2.96,5.6h5.66L69.79,59.28h-4.53h-1.13H59.6L46.01,85.41h5.66L54.63,79.81z
						 M64.7,58.61L64.7,58.61l-0.19,0.36L64.7,58.61z M61.72,65.81h3.21h2.75l4.73,9.33H56.99L61.72,65.81z"/>
				</g>
				<g>
					<polygon fill="#6DCFF6" points="74.75,94.46 74.75,113.46 52.75,113.46 52.75,94.46 43.75,94.46 43.75,118.46 48.27,118.46 
						53.94,118.46 76.59,118.46 81.12,118.46 82.75,118.46 82.75,94.46 					"/>
				</g>
				<g>
					<polygon fill="#6DCFF6" points="50.54,129.46 43.75,129.46 43.75,151.46 52.75,151.46 52.75,142.46 81.75,142.46 81.75,137.46 
						52.75,137.46 52.75,133.46 81.75,133.46 81.75,129.46 55.07,129.46 					"/>
				</g>
				<g>
					<g>
						<rect x="3.75" y="165.46" fill="#6DCFF6" width="119" height="8"/>
					</g>
					<g>
						<rect x="3.75" y="179.46" fill="#6DCFF6" width="119" height="7"/>
					</g>
					<g>
						<rect x="3.75" y="192.46" fill="#6DCFF6" width="119" height="8"/>
					</g>
					<g>
						<rect x="3.75" y="206.46" fill="#6DCFF6" width="119" height="7"/>
					</g>
				</g>
				<g>
					<g>
						<ellipse fill="#262C62" cx="63.73" cy="187.17" rx="23.47" ry="23.9"/>
					</g>
					<g>
						<defs>
							<circle id="SVGID_21_" cx="63.49" cy="186.99" r="24"/>
						</defs>
						<clipPath id="SVGID_4_">
							<use xlink:href="#SVGID_21_"  overflow="visible"/>
						</clipPath>
						<g clip-path="url(#SVGID_4_)">
							<path fill="#6DCFF6" d="M79.17,190.41l0.06,0.18l-4.64-0.84l-1.14-11.35l3.24-2.35l11.51,3.84c0,0-1.45-11.45-13.45-16.24
								v11.07L71,178.12l-11.17-1.74l-1.4-2.48l3.29-11.3c0,0-16.9,6.86-17.98,12.86h13.75l1.98,2.37l-5.37,8.72l0.04-0.12
								l-4.21,1.5l-8.83-5.83c-2.79,12.22,3.56,19.16,3.56,19.16l6.28-12.57l4.03-1.52l8.27,8.82l-0.46,3.06l-10,9.77
								c12.45,5.41,20.19-0.62,20.19-0.62l-9.12-8.69l0.59-3.89l9.92-4.75l5.29,0.95l4.14,11.74c6.96-2.01,7.27-15.78,7.27-15.78
								L79.17,190.41z"/>
						</g>
					</g>
				</g>
			</g>
		</g>
		<text transform="matrix(1 0 0 1 159.7461 139.3643)" fill="#FFFFFF" font-family="'Peralta-Regular'" font-size="37">vs</text>
	</g>
</g>
</svg>
