<?xml version="1.0" encoding="utf-8"?>
<!-- Generator: Adobe Illustrator 16.2.0, SVG Export Plug-In . SVG Version: 6.00 Build 0)  -->
<!DOCTYPE svg PUBLIC "-//W3C//DTD SVG 1.1//EN" "http://www.w3.org/Graphics/SVG/1.1/DTD/svg11.dtd">
<svg version="1.1" xmlns="http://www.w3.org/2000/svg" xmlns:xlink="http://www.w3.org/1999/xlink" x="0px" y="0px" width="267px"
	 height="248.69px" viewBox="0 0 267 248.69" enable-background="new 0 0 267 248.69" xml:space="preserve">
<g id="BG">
</g>
<g id="Layer_26">
</g>
<g id="Layer_29">
	<g>
		<g>
			<polygon fill="#6DCFF6" points="6,6 261,6 261,128.35 133.5,227.44 6,128.35 			"/>
			<path fill="#262C62" d="M261,6v122.35l-127.5,99.09L6,128.35V6H261 M267,0h-5.7H5.55H0v5.82v122.53v2.79l2.13,1.71l127.84,99.09
				l3.47,2.7l3.48-2.7l127.87-99.09l2.2-1.71v-2.79V5.82V0L267,0z"/>
		</g>
		<g>
			<polygon fill="#262C62" points="167.82,167.03 210.76,165.98 167.85,167.98 			"/>
			<polygon fill="#262C62" points="157.43,191.72 190.86,221.63 156.81,192.44 			"/>
			<polygon fill="#262C62" points="132.89,200.86 131.37,241.13 131.94,200.84 			"/>
			<polygon fill="#262C62" points="111.36,190.69 82.96,224.21 110.63,190.09 			"/>
			<polygon fill="#262C62" points="102.11,167.98 58.79,165.98 102.15,167.03 			"/>
			<polygon fill="#262C62" points="110.67,146.57 78.85,115.11 111.32,145.88 			"/>
			<g>
				<path fill="#262C62" d="M134.9,201.8c-18.47,0-33.49-15.03-33.49-33.49c0-18.47,15.03-33.49,33.49-33.49
					c18.47,0,33.49,15.03,33.49,33.49C168.39,186.77,153.37,201.8,134.9,201.8z M134.9,136.71c-17.42,0-31.6,14.17-31.6,31.6
					c0,17.42,14.17,31.6,31.6,31.6c17.42,0,31.6-14.17,31.6-31.6C166.5,150.88,152.33,136.71,134.9,136.71z"/>
				<path fill="#262C62" d="M120.57,139.86l0.44-2.2l10.04-49.55l12.39,48.7l-1.32-0.1c-2.2-0.17-4.32-0.26-6.28-0.26
					c-9.88,0-13.34,2.17-13.38,2.19L120.57,139.86z M131.26,96.62l-8.02,39.61c2.04-0.73,5.97-1.67,12.6-1.67
					c1.62,0,3.33,0.06,5.11,0.17L131.26,96.62z"/>
				<path fill="#262C62" d="M131.02,248.69l-10.03-51.58l1.76,0.94c0.02,0.01,3.23,1.6,12.25,1.6l0,0c2.3,0,4.81-0.1,7.46-0.31
					l1.32-0.1L131.02,248.69z M123.55,200.32l7.73,39.77l10.01-38.78c-2.22,0.15-4.33,0.22-6.29,0.22l0,0
					C129,201.54,125.42,200.86,123.55,200.32z"/>
				<path fill="#262C62" d="M164.35,179.8l0.6-1.7c0.04-0.12,4.11-11.87,0.4-19.48l-0.79-1.63l53.73,8.3L164.35,179.8z
					 M167.72,159.4c2.24,6.38,0.5,14.25-0.46,17.65l41.86-11.26L167.72,159.4z"/>
				<path fill="#262C62" d="M105.31,179.78l-53.89-14.5l54.09-8.28l-0.79,1.63c-3.72,7.62,0.01,19.38,0.05,19.49L105.31,179.78z
					 M60.62,165.79l41.89,11.27c-0.87-3.38-2.43-11.27-0.16-17.66L60.62,165.79z"/>
				<polygon fill="#262C62" points="103.15,158.71 73.99,110.83 121.66,137.97 120.72,139.61 79.42,116.11 104.77,157.72 				"/>
				<polygon fill="#262C62" points="165.44,155.47 163.77,154.56 184.68,115.89 145.09,138.07 144.16,136.42 189.45,111.05 				"/>
				<polygon fill="#262C62" points="196.09,226.71 144.19,200.22 145.05,198.53 190.47,221.71 163.89,181.96 165.47,180.9 				"/>
				<polygon fill="#262C62" points="78.44,230.03 103.12,178.01 104.83,178.82 83.34,224.13 120.63,197.05 121.75,198.59 				"/>
				<path fill="#262C62" d="M139.35,123.78c2.39-0.04,3.91-6.23,4.18-7.47c0.9-4.81,3.03-8.35,6.34-10.55
					c3.7-2.46,8.11-2.72,10.85-2.57c-6.48,2.84-6.23,11.2-6.23,11.29c1.5,17.04-2.74,18.05-2.78,18.06l0.15,1.07
					c0.54-0.06,5.29-1.14,3.7-19.19c-0.01-0.37-0.27-9.59,7.96-10.93l2.81-0.46l-2.79-0.6c-0.33-0.07-8.08-1.69-14.27,2.42
					c-3.56,2.36-5.85,6.14-6.8,11.22c-0.71,3.16-2.12,6.6-3.15,6.62L139.35,123.78z"/>
				<path fill="#262C62" d="M170.74,143.93c1.78,1.6,7.1-1.92,8.15-2.64c3.92-2.92,7.9-4.07,11.82-3.43
					c4.39,0.71,7.8,3.52,9.71,5.49c-6.69-2.32-12.18,3.98-12.24,4.05c-10.48,13.52-14.27,11.38-14.31,11.36l-0.62,0.88
					c0.44,0.33,4.66,2.76,15.76-11.56c0.24-0.28,6.32-7.22,13.27-2.61l2.37,1.58l-1.64-2.34c-0.19-0.28-4.79-6.73-12.12-7.92
					c-4.22-0.68-8.46,0.53-12.61,3.62c-2.67,1.83-6.04,3.4-6.81,2.71L170.74,143.93z"/>
				<path fill="#262C62" d="M175.65,175.58c0.81,2.25,7.16,1.67,8.43,1.53c4.84-0.71,8.88,0.15,12.03,2.57
					c3.53,2.7,5.2,6.79,5.96,9.43c-4.8-5.21-12.61-2.26-12.7-2.22c-15.63,6.95-17.96,3.28-17.98,3.24l-0.96,0.49
					c0.24,0.5,2.8,4.63,19.35-2.73c0.34-0.13,8.99-3.38,12.92,3.97l1.34,2.51l-0.34-2.83c-0.04-0.33-1.03-8.19-6.93-12.71
					c-3.39-2.6-7.71-3.54-12.82-2.78c-3.22,0.35-6.93,0.14-7.28-0.83L175.65,175.58z"/>
				<path fill="#262C62" d="M152.74,203.69c-0.83,2.24,4.38,5.9,5.44,6.61c4.15,2.58,6.68,5.86,7.52,9.74
					c0.95,4.35-0.42,8.54-1.55,11.04c-0.29-7.08-8.17-9.88-8.26-9.91c-16.42-4.8-15.82-9.11-15.81-9.15l-1.05-0.25
					c-0.14,0.53-0.86,5.34,16.53,10.42c0.35,0.12,9.04,3.24,7.29,11.39l-0.6,2.78l1.58-2.38c0.18-0.28,4.51-6.92,2.93-14.18
					c-0.91-4.18-3.59-7.68-7.98-10.41c-2.68-1.81-5.38-4.38-5.02-5.34L152.74,203.69z"/>
				<path fill="#262C62" d="M124.66,211.61c-2.3,0.65-2.18,7.02-2.13,8.29c0.36,4.88-0.79,8.85-3.43,11.82
					c-2.95,3.33-7.15,4.7-9.83,5.26c5.54-4.41,3.16-12.42,3.13-12.51c-5.81-16.09-1.97-18.15-1.93-18.17l-0.42-1
					c-0.51,0.2-4.82,2.46,1.33,19.5c0.11,0.35,2.72,9.21-4.9,12.6l-2.6,1.16l2.85-0.13c0.33-0.02,8.25-0.44,13.18-6
					c2.84-3.2,4.08-7.43,3.7-12.59c-0.12-3.23,0.36-6.92,1.35-7.2L124.66,211.61z"/>
				<path fill="#262C62" d="M98.69,190.47c-1.99-1.33-6.76,2.9-7.7,3.75c-3.48,3.44-7.24,5.14-11.22,5.06
					c-4.45-0.09-8.21-2.39-10.38-4.07c6.95,1.36,11.5-5.66,11.55-5.74c8.47-14.86,12.53-13.28,12.57-13.26l0.49-0.96
					c-0.48-0.26-5-2.08-13.98,13.66c-0.2,0.31-5.24,8.04-12.77,4.45l-2.57-1.23l1.95,2.09c0.23,0.24,5.68,5.99,13.11,6.14
					c4.28,0.08,8.31-1.72,11.98-5.35c2.38-2.19,5.51-4.21,6.36-3.64L98.69,190.47z"/>
				<path fill="#262C62" d="M90.78,160.21c-0.69-2.29-7.07-2.04-8.33-1.97c-4.87,0.46-8.86-0.61-11.89-3.19
					c-3.38-2.88-4.84-7.05-5.46-9.72c4.52,5.45,12.48,2.91,12.57,2.88c15.97-6.13,18.1-2.34,18.12-2.31l0.99-0.43
					c-0.21-0.51-2.55-4.77-19.47,1.72c-0.35,0.11-9.15,2.9-12.7-4.64l-1.21-2.57l0.19,2.85c0.02,0.33,0.6,8.24,6.26,13.05
					c3.26,2.77,7.51,3.93,12.66,3.44c3.23-0.19,6.93,0.22,7.23,1.21L90.78,160.21z"/>
				<path fill="#262C62" d="M108.84,132.12c1.46-1.9-2.46-6.93-3.25-7.92c-3.21-3.69-4.66-7.56-4.33-11.52
					c0.38-4.43,2.92-8.04,4.73-10.1c-1.8,6.85,4.9,11.84,4.98,11.9c14.28,9.41,12.44,13.36,12.42,13.4l0.93,0.55
					c0.29-0.47,2.39-4.85-12.73-14.83c-0.29-0.21-7.69-5.75-3.62-13.03l1.39-2.48l-2.21,1.81c-0.26,0.21-6.35,5.29-6.97,12.69
					c-0.36,4.26,1.18,8.4,4.57,12.3c2.03,2.52,3.85,5.77,3.22,6.58L108.84,132.12z"/>
			</g>
			<polygon fill="#262C62" points="131.97,134.99 131.37,96.11 132.92,134.96 			"/>
			<polygon fill="#262C62" points="156.08,143.55 185.33,115.54 156.75,144.23 			"/>
			<g>
				<path fill="#262C62" d="M151.29,177.79c0,0,0.21,0.02,0.48,0.19c0.12,0.09,0.29,0.19,0.41,0.35c0.13,0.15,0.25,0.32,0.33,0.52
					c0.1,0.19,0.15,0.39,0.17,0.59c0.04,0.19,0.04,0.37,0.02,0.53c-0.03,0.31-0.09,0.5-0.09,0.5s-0.09-0.2-0.17-0.47
					c-0.02-0.14-0.09-0.29-0.16-0.45c-0.06-0.16-0.11-0.33-0.2-0.49c-0.13-0.33-0.33-0.63-0.49-0.87
					C151.44,177.95,151.29,177.79,151.29,177.79z"/>
				<path fill="#262C62" d="M142.65,162.79c0,0,0.76,0.09,1.91,0.22c1.14,0.12,2.64,0.29,4.14,0.35c0.37,0.01,0.75,0.04,1.12,0.04
					c0.37-0.02,0.73,0.02,1.08-0.01c0.35-0.02,0.69-0.01,1.01-0.04c0.32-0.04,0.63-0.03,0.91-0.07c0.56-0.07,1.04-0.12,1.36-0.19
					c0.34-0.05,0.53-0.08,0.53-0.08s-0.17,0.09-0.47,0.26c-0.3,0.17-0.75,0.36-1.31,0.54c-0.28,0.1-0.59,0.16-0.92,0.24
					c-0.33,0.09-0.68,0.13-1.05,0.17c-0.73,0.1-1.52,0.11-2.3,0.09c-0.78-0.05-1.56-0.13-2.28-0.28c-0.72-0.13-1.38-0.32-1.93-0.5
					C143.33,163.18,142.65,162.79,142.65,162.79z"/>
				<g>
					<path fill="#262C62" d="M138.98,154.05c0,0,0.26-0.19,0.76-0.46c0.5-0.27,1.23-0.61,2.16-0.89c0.46-0.15,0.97-0.29,1.52-0.39
						c0.54-0.13,1.13-0.19,1.74-0.26c0.61-0.01,1.25-0.1,1.89-0.05c0.65,0.03,1.3,0.07,1.95,0.19c0.65,0.09,1.29,0.25,1.91,0.44
						c0.63,0.15,1.21,0.45,1.78,0.68c0.58,0.21,1.07,0.56,1.56,0.84c0.24,0.15,0.48,0.27,0.69,0.44c0.21,0.17,0.4,0.33,0.59,0.48
						c0.38,0.31,0.73,0.58,0.99,0.88c0.27,0.29,0.49,0.55,0.68,0.77c0.36,0.43,0.55,0.69,0.55,0.69s-0.3-0.14-0.79-0.39
						c-0.25-0.13-0.54-0.28-0.87-0.47c-0.33-0.19-0.74-0.33-1.14-0.54c-0.41-0.2-0.86-0.41-1.35-0.58c-0.49-0.17-0.98-0.4-1.52-0.55
						c-0.54-0.16-1.08-0.35-1.66-0.46c-0.57-0.14-1.14-0.28-1.74-0.35c-0.58-0.12-1.18-0.17-1.76-0.23
						c-0.58-0.07-1.17-0.08-1.73-0.12c-0.56,0.02-1.11-0.04-1.64,0c-0.52,0.02-1.02,0.02-1.48,0.05c-0.92,0.05-1.7,0.12-2.25,0.18
						C139.3,154,138.98,154.05,138.98,154.05z"/>
					<path fill="#262C62" d="M113.03,157.02c0,0,0.19-0.27,0.58-0.67c0.39-0.41,0.99-0.96,1.78-1.52c0.39-0.29,0.83-0.58,1.32-0.84
						c0.48-0.29,1.02-0.53,1.58-0.79c0.58-0.2,1.16-0.48,1.78-0.63c0.62-0.18,1.26-0.34,1.92-0.42c0.65-0.12,1.31-0.16,1.96-0.17
						c0.65-0.06,1.29,0.05,1.9,0.09c0.62,0.02,1.2,0.2,1.75,0.32c0.27,0.07,0.54,0.11,0.79,0.2c0.25,0.09,0.49,0.19,0.71,0.28
						c0.46,0.18,0.87,0.32,1.22,0.52c0.35,0.19,0.64,0.37,0.88,0.52c0.48,0.3,0.74,0.48,0.74,0.48s-0.33-0.04-0.87-0.13
						c-0.27-0.05-0.6-0.1-0.97-0.18c-0.37-0.08-0.8-0.08-1.25-0.16c-0.46-0.06-0.94-0.12-1.46-0.13c-0.52-0.01-1.06-0.08-1.62-0.05
						c-0.56,0.01-1.13,0.01-1.72,0.08c-0.58,0.05-1.17,0.09-1.76,0.21c-0.59,0.06-1.17,0.21-1.75,0.33
						c-0.58,0.12-1.13,0.28-1.68,0.42c-0.53,0.2-1.07,0.31-1.56,0.5c-0.49,0.18-0.96,0.34-1.39,0.51c-0.86,0.33-1.58,0.64-2.08,0.87
						C113.32,156.87,113.03,157.02,113.03,157.02z"/>
					<g>
						
							<ellipse transform="matrix(0.9545 0.2981 -0.2981 0.9545 54.867 -36.739)" fill="#262C62" cx="147.89" cy="161.52" rx="4.21" ry="2.76"/>
						<path fill="#262C62" d="M142.19,159.31c0,0,0.76-0.35,1.98-0.63c0.6-0.15,1.32-0.28,2.1-0.37c0.78-0.09,1.62-0.12,2.46-0.08
							c0.42,0.03,0.84,0.06,1.26,0.13c0.42,0.05,0.82,0.15,1.2,0.27c0.39,0.09,0.75,0.27,1.08,0.41c0.35,0.12,0.62,0.37,0.9,0.54
							c0.28,0.16,0.46,0.43,0.65,0.6c0.2,0.17,0.3,0.38,0.39,0.54c0.18,0.33,0.27,0.51,0.27,0.51s-0.15-0.14-0.42-0.39
							c-0.12-0.13-0.27-0.27-0.49-0.39c-0.22-0.11-0.41-0.31-0.69-0.41c-0.28-0.1-0.54-0.27-0.88-0.34
							c-0.32-0.09-0.65-0.2-1.02-0.26c-0.18-0.04-0.36-0.07-0.55-0.11c-0.19-0.02-0.38-0.04-0.57-0.07
							c-0.38-0.06-0.78-0.07-1.18-0.09c-0.4-0.04-0.8-0.02-1.19-0.04c-0.4,0-0.79,0-1.16,0.01c-0.75,0.02-1.47,0.05-2.08,0.08
							C143.01,159.27,142.19,159.31,142.19,159.31z"/>
					</g>
					<g>
						
							<ellipse transform="matrix(-0.9545 0.2981 -0.2981 -0.9545 287.5142 279.1957)" fill="#262C62" cx="122.47" cy="161.52" rx="4.21" ry="2.76"/>
						<path fill="#262C62" d="M128.17,159.31c0,0-0.82-0.04-2.05-0.1c-0.61-0.03-1.32-0.05-2.08-0.08c-0.38,0-0.77,0-1.16-0.01
							c-0.39,0.02-0.8,0-1.19,0.04c-0.4,0.02-0.8,0.03-1.18,0.09c-0.19,0.02-0.38,0.04-0.57,0.07c-0.19,0.04-0.37,0.07-0.55,0.11
							c-0.37,0.06-0.7,0.17-1.02,0.26c-0.33,0.08-0.6,0.24-0.88,0.34c-0.29,0.1-0.47,0.29-0.69,0.41c-0.22,0.12-0.37,0.26-0.49,0.39
							c-0.27,0.25-0.42,0.39-0.42,0.39s0.09-0.18,0.27-0.51c0.09-0.16,0.2-0.37,0.39-0.54c0.19-0.17,0.37-0.44,0.65-0.6
							c0.27-0.17,0.55-0.41,0.9-0.54c0.34-0.15,0.69-0.33,1.08-0.41c0.38-0.12,0.79-0.22,1.2-0.27c0.41-0.08,0.83-0.1,1.26-0.13
							c0.84-0.04,1.68,0,2.46,0.08c0.78,0.09,1.49,0.22,2.1,0.37C127.4,158.96,128.17,159.31,128.17,159.31z"/>
						<path fill="#262C62" d="M127.71,162.79c0,0-0.68,0.39-1.79,0.75c-0.55,0.18-1.21,0.36-1.93,0.5c-0.72,0.15-1.5,0.22-2.28,0.28
							c-0.78,0.02-1.57,0.01-2.3-0.09c-0.37-0.05-0.72-0.09-1.05-0.17c-0.33-0.08-0.64-0.14-0.92-0.24
							c-0.56-0.18-1.01-0.37-1.31-0.54c-0.3-0.16-0.47-0.26-0.47-0.26s0.19,0.03,0.53,0.08c0.33,0.07,0.8,0.12,1.36,0.19
							c0.28,0.04,0.59,0.04,0.91,0.07c0.32,0.04,0.66,0.02,1.01,0.04c0.35,0.03,0.71-0.01,1.08,0.01c0.37,0.01,0.74-0.03,1.12-0.04
							c1.5-0.06,3-0.23,4.14-0.35C126.94,162.87,127.71,162.79,127.71,162.79z"/>
					</g>
					<g>
						<path fill="#262C62" d="M144.62,172.64c-0.22-0.18-0.44-0.38-0.68-0.51c-0.22-0.15-0.49-0.25-0.74-0.33
							c-0.26-0.08-0.52-0.11-0.79-0.13c-0.26-0.01-0.53,0-0.79,0.04c-0.52,0.08-1.04,0.24-1.53,0.46c-0.26,0.12-0.44,0.22-0.73,0.37
							c-0.25,0.13-0.49,0.27-0.76,0.39c-0.28,0.12-0.57,0.24-0.85,0.33c-0.29,0.08-0.57,0.18-0.87,0.23
							c-0.59,0.13-1.2,0.17-1.8,0.14c-0.3-0.03-0.61-0.05-0.9-0.12c-0.3-0.05-0.59-0.15-0.88-0.24c-0.29-0.11-0.56-0.23-0.83-0.37
							c-0.28-0.14-0.51-0.3-0.78-0.52l-0.11-0.09l0.04,0c0.01,0-0.07-0.07-0.1-0.11l-0.17-0.12c-0.15-0.04-0.28-0.13-0.45-0.13
							c-0.17-0.01-0.33-0.07-0.51-0.03l-0.54,0.05l-0.54,0.13c-0.18,0.05-0.37,0.07-0.54,0.15c-0.35,0.14-0.71,0.28-1.07,0.41
							c0.31-0.22,0.64-0.43,0.97-0.64c0.16-0.12,0.35-0.17,0.52-0.26l0.54-0.25l0.59-0.14c0.2-0.07,0.42-0.04,0.63-0.05
							c0.21-0.03,0.44,0.08,0.66,0.12l0.32,0.17c0.11,0.09,0.19,0.13,0.31,0.29l-0.08-0.09c0.19,0.12,0.43,0.26,0.67,0.37
							c0.24,0.11,0.49,0.2,0.74,0.28c0.25,0.07,0.51,0.13,0.77,0.17c0.26,0.05,0.52,0.06,0.78,0.08c0.53,0.01,1.05-0.03,1.58-0.13
							c0.53-0.09,1.03-0.27,1.52-0.45c0.25-0.1,0.51-0.23,0.77-0.34c0.22-0.1,0.54-0.26,0.81-0.35c0.57-0.19,1.16-0.33,1.77-0.34
							c0.6-0.01,1.22,0.09,1.76,0.38c0.26,0.14,0.52,0.3,0.73,0.51C144.31,172.17,144.45,172.42,144.62,172.64z"/>
						<path fill="#262C62" d="M140.47,171.31c0.04-0.17,0.06-0.25,0.07-0.4c0.01-0.14,0.02-0.28,0.01-0.42
							c0-0.14-0.01-0.28-0.05-0.42c-0.04-0.13-0.04-0.28-0.11-0.4c-0.06-0.12-0.11-0.26-0.18-0.38l-0.27-0.33
							c-0.05-0.05-0.08-0.12-0.15-0.16l-0.18-0.13l-0.36-0.27l-0.05-0.03c-0.16-0.19-0.28-0.38-0.35-0.6
							c-0.04-0.11-0.08-0.21-0.09-0.33c-0.01-0.11-0.04-0.22-0.02-0.34c0.02-0.11,0.02-0.23,0.05-0.33l0.13-0.3
							c0.03-0.11,0.13-0.17,0.19-0.26l0.21-0.24l-0.17,0.27c-0.05,0.09-0.13,0.17-0.14,0.27l-0.08,0.29c-0.02,0.1,0,0.2,0,0.3
							c-0.01,0.1,0.03,0.19,0.06,0.28c0.02,0.09,0.07,0.18,0.12,0.26c0.08,0.17,0.23,0.32,0.35,0.44l-0.05-0.04l0.45,0.24l0.23,0.12
							c0.08,0.03,0.13,0.11,0.2,0.16l0.39,0.36c0.1,0.14,0.2,0.29,0.3,0.44c0.11,0.15,0.15,0.32,0.22,0.49
							c0.08,0.17,0.11,0.34,0.14,0.52c0.04,0.18,0.06,0.35,0.07,0.53c0.02,0.17,0,0.4-0.01,0.55L140.47,171.31z"/>
						<path fill="#262C62" d="M129.87,171.47c-0.01-0.15-0.03-0.38-0.01-0.55c0.01-0.18,0.03-0.36,0.07-0.53
							c0.03-0.18,0.07-0.35,0.15-0.52c0.07-0.17,0.11-0.34,0.22-0.49c0.1-0.15,0.19-0.3,0.3-0.44l0.39-0.36
							c0.07-0.05,0.12-0.13,0.2-0.16l0.23-0.12l0.45-0.24l-0.05,0.04c0.13-0.12,0.27-0.27,0.35-0.44c0.05-0.08,0.1-0.17,0.12-0.26
							c0.03-0.09,0.07-0.19,0.06-0.28c0-0.1,0.02-0.2,0-0.3l-0.08-0.29c-0.01-0.11-0.09-0.18-0.14-0.27l-0.17-0.27l0.21,0.24
							c0.06,0.08,0.16,0.15,0.19,0.26l0.13,0.3c0.04,0.1,0.04,0.22,0.05,0.33c0.02,0.11,0,0.22-0.02,0.34
							c-0.01,0.12-0.05,0.22-0.09,0.33c-0.08,0.22-0.19,0.41-0.35,0.6l-0.05,0.03l-0.36,0.27l-0.18,0.13
							c-0.06,0.04-0.1,0.11-0.15,0.16l-0.27,0.33c-0.06,0.13-0.12,0.26-0.18,0.38c-0.07,0.12-0.08,0.27-0.11,0.4
							c-0.04,0.13-0.05,0.28-0.05,0.42c-0.02,0.14-0.01,0.28,0.01,0.42c0.01,0.15,0.03,0.24,0.07,0.4L129.87,171.47z"/>
					</g>
					<g>
						<g>
							<path fill="#262C62" d="M135.98,178.86c0,0-1.12-0.13-2.71-0.21c-0.39-0.01-0.82-0.02-1.28-0.04
								c-0.45-0.01-0.92,0.02-1.4,0.03c-0.48,0.01-0.97,0.09-1.46,0.14c-0.24,0.04-0.49,0.08-0.73,0.12l-0.72,0.17
								c-0.47,0.13-0.94,0.27-1.38,0.46c-0.37,0.16-1.1,0.43-1.6,0.54c-0.55,0.12-1.09,0.18-1.6,0.17
								c-0.51,0.04-0.99-0.07-1.42-0.14c-0.43-0.06-0.81-0.25-1.14-0.36c-0.34-0.1-0.58-0.31-0.8-0.43
								c-0.42-0.28-0.63-0.44-0.63-0.44s0.29,0.03,0.76,0.09c0.24,0.02,0.51,0.1,0.83,0.08c0.32-0.02,0.67,0.03,1.05-0.02
								c0.38-0.06,0.78-0.07,1.2-0.19c0.42-0.08,0.84-0.23,1.28-0.37c0.21-0.09,0.44-0.17,0.62-0.26c0.16-0.08,0.43-0.23,0.7-0.35
								c0.52-0.28,1.1-0.45,1.67-0.62l0.87-0.18c0.29-0.03,0.58-0.06,0.87-0.1c0.57-0.04,1.14-0.02,1.68,0.02
								c0.54,0.03,1.06,0.13,1.53,0.24c0.48,0.09,0.92,0.24,1.32,0.38C135.09,178.13,135.98,178.86,135.98,178.86z"/>
							<path fill="#262C62" d="M135.22,178.86c0,0,0.89-0.73,2.5-1.29c0.4-0.14,0.84-0.28,1.32-0.38c0.48-0.11,0.99-0.21,1.53-0.24
								c0.54-0.04,1.1-0.06,1.68-0.02c0.29,0.03,0.58,0.06,0.87,0.1l0.87,0.18c0.57,0.17,1.14,0.34,1.67,0.62
								c0.27,0.12,0.54,0.27,0.7,0.35c0.17,0.1,0.41,0.18,0.62,0.26c0.43,0.14,0.86,0.29,1.28,0.37c0.42,0.11,0.82,0.13,1.2,0.19
								c0.38,0.05,0.73,0,1.05,0.02c0.33,0.02,0.6-0.05,0.83-0.08c0.47-0.06,0.76-0.09,0.76-0.09s-0.21,0.17-0.63,0.44
								c-0.21,0.13-0.46,0.34-0.8,0.43c-0.33,0.11-0.71,0.3-1.14,0.36c-0.43,0.06-0.92,0.18-1.42,0.14
								c-0.51,0.01-1.05-0.05-1.6-0.17c-0.5-0.1-1.23-0.38-1.6-0.54c-0.44-0.19-0.91-0.33-1.38-0.46l-0.72-0.17
								c-0.25-0.04-0.49-0.08-0.73-0.12c-0.49-0.05-0.98-0.13-1.46-0.14c-0.48-0.02-0.95-0.04-1.39-0.03
								c-0.45,0.01-0.88,0.03-1.27,0.04C136.34,178.73,135.22,178.86,135.22,178.86z"/>
						</g>
						<path fill="#262C62" d="M123.56,179.37c0,0,1.5,0.3,3.71,0.61c1.1,0.16,2.39,0.3,3.76,0.42c0.69,0.05,1.4,0.1,2.12,0.13
							c0.72,0.05,1.45,0.07,2.18,0.05c1.46,0.04,2.92-0.06,4.29-0.15c0.69-0.03,1.34-0.14,1.98-0.2c0.63-0.06,1.22-0.15,1.77-0.24
							c0.55-0.1,1.07-0.14,1.51-0.23c0.44-0.1,0.84-0.17,1.17-0.23c0.65-0.11,1.04-0.17,1.04-0.17s-0.33,0.2-0.91,0.52
							c-0.29,0.16-0.65,0.36-1.08,0.56c-0.42,0.21-0.91,0.39-1.46,0.59c-0.54,0.21-1.13,0.43-1.77,0.58
							c-0.64,0.16-1.32,0.38-2.03,0.47c-0.72,0.1-1.45,0.28-2.21,0.29c-0.76,0.05-1.53,0.11-2.31,0.1c-0.78,0-1.55-0.05-2.3-0.12
							c-0.76-0.04-1.5-0.2-2.21-0.3c-0.71-0.12-1.39-0.29-2.03-0.46c-0.64-0.17-1.24-0.36-1.78-0.56c-1.09-0.38-1.95-0.81-2.54-1.12
							C123.87,179.59,123.56,179.37,123.56,179.37z"/>
						<path fill="#262C62" d="M120.39,177.79c0,0-0.14,0.16-0.3,0.38c-0.16,0.24-0.36,0.53-0.49,0.87c-0.09,0.16-0.14,0.33-0.2,0.49
							c-0.06,0.16-0.14,0.31-0.16,0.45c-0.08,0.28-0.17,0.47-0.17,0.47s-0.06-0.19-0.09-0.5c-0.02-0.15-0.02-0.33,0.02-0.53
							c0.02-0.19,0.08-0.4,0.17-0.59c0.08-0.19,0.2-0.37,0.33-0.52c0.12-0.16,0.29-0.25,0.41-0.35
							C120.18,177.81,120.39,177.79,120.39,177.79z"/>
						<path fill="#262C62" d="M132.45,185.53c0,0,0.33-0.29,0.91-0.55c0.29-0.13,0.64-0.26,1.03-0.36c0.39-0.11,0.81-0.15,1.24-0.19
							c0.43,0,0.86,0.01,1.27,0.1c0.4,0.08,0.77,0.21,1.06,0.35c0.29,0.15,0.52,0.3,0.65,0.44c0.14,0.13,0.21,0.21,0.21,0.21
							s-0.11-0.01-0.29-0.04c-0.18-0.04-0.44-0.05-0.73-0.09c-0.59-0.05-1.36-0.07-2.13-0.03c-0.78,0.03-1.56,0.09-2.18,0.12
							C132.88,185.53,132.45,185.53,132.45,185.53z"/>
					</g>
				</g>
			</g>
		</g>
		<g>
			<path fill="#262C62" d="M79.18,29.35c-1.54-5.78-12.05-5.26-12.05-5.26c-10.48,0.53-13.11,7.1-13.11,11.27
				c0,4.21,3.15,13.41,11,13.41c0,0,12.09,0,14.16-3.94l-5.22,0.26v-3.42l10.48,0.26l-2.37,12.58l-2.1-0.26l0.26-6.01
				c-2.59,6.27-14.42,6.8-14.42,6.8c-11,0.49-18.36-6.53-18.1-19.94c0.26-13.37,10.25-17.88,18.62-17.58c0,0,13.11,0.53,17.05,7.89
				L79.18,29.35z"/>
			<path fill="#262C62" d="M101.15,17.53l18.1,37.03l-5.59,0.53l-7.1-13.71l-12.84-1.5l-4.43,15.21h-5.82l10.67-36.8L101.15,17.53z
				 M95.07,35.44l10.14,1.39l-6.42-12.54L95.07,35.44z"/>
			<path fill="#262C62" d="M140.8,34.5c2.37,1.43,4.32,3,4.81,4.62c0,0,1.46,4.81,3.04,15.96l-4.84-0.49
				c-0.71-10.48-3.04-13.71-3.04-13.71c-1.16-1.65-4.92-3.83-8.3-5.59c0,0-3.08,0.04-5.37-0.23l0.53,19.75l-5.82-0.49l-0.26-35.98
				c27.68-4.24,27.34,9.13,27.34,9.13C148.8,31.53,145.12,33.52,140.8,34.5z M127.62,30.52c15.7,3.04,15.43-3.79,15.43-3.79
				s-0.26-6.83-15.17-3.3L127.62,30.52z"/>
			<path fill="#262C62" d="M171.87,34.5c2.37,1.43,4.32,3,4.81,4.62c0,0,1.46,4.81,3.04,15.96l-4.84-0.49
				c-0.71-10.48-3.04-13.71-3.04-13.71c-1.16-1.65-4.92-3.83-8.3-5.59c0,0-3.08,0.04-5.37-0.23l0.53,19.75l-5.82-0.49l-0.26-35.98
				c27.68-4.24,27.34,9.13,27.34,9.13C179.87,31.53,176.19,33.52,171.87,34.5z M158.69,30.52c15.7,3.04,15.43-3.79,15.43-3.79
				s-0.26-6.83-15.17-3.3L158.69,30.52z"/>
			<path fill="#262C62" d="M199.92,17.53l18.1,37.03l-5.6,0.53l-7.1-13.71l-12.84-1.5l-4.43,15.21h-5.82l10.67-36.8L199.92,17.53z
				 M193.83,35.44l10.14,1.39l-6.42-12.54L193.83,35.44z"/>
			<path fill="#262C62" d="M33.54,62.58c0,0,10.48,0,14.8,5.6l-3.3,4.84c-7.02-4.17-12.99-3.79-12.99-3.79
				C23.62,69.72,19.27,76.1,19,80.42c-0.23,4.36,2.07,13.03,11.98,13.52c0,0,9.95,0.53,12.24-5.11l5.11,4.62
				c-5.59,5.59-17.57,6.61-17.57,6.61c-11.98,1.01-18.63-9.69-18.63-19.38S23.1,62.58,33.54,62.58z"/>
			<path fill="#262C62" d="M50,62.58l31.32,0.53l1.05,5.71h-24.6v11.64l20.47,0.26l-0.26,5.18l-19.19,0.75v6.76l23.32,0.26
				l-0.53,6.46H50V62.58z"/>
			<path fill="#262C62" d="M84.28,62.58l6.27,0.26l0.26,30.49h19.26v6.8l-26.06-0.53L84.28,62.58z"/>
			<path fill="#262C62" d="M111.29,62.58l31.32,0.53l1.05,5.71h-24.6v11.64l20.47,0.26l-0.26,5.18l-19.19,0.75v6.76l23.32,0.26
				l-0.53,6.46h-31.58V62.58z"/>
			<path fill="#262C62" d="M173.83,74.23c-3.46-6.05-10.06-6.27-10.06-6.27c-6.61-0.26-11.6-1.46-11.34,3.38
				c0.26,4.84,12.39,6.05,19.53,7.74c7.13,1.69,7.74,8.75,7.74,11.04c0,2.29,0,10.03-16.19,10.03c0,0-16.22,0-19.6-13.18l6.53-0.26
				c3.38,8.3,12.02,8.3,12.02,8.3c3.12,0,9.91,0,9.91-5.18c0-7.74-8.07-6.38-16.79-8.79c-8.71-2.44-10.85-5.97-11.9-10.18
				c-0.3-1.35,4.39-8.79,19.83-8.22c0,0,17.69,0.64,16.64,11.6H173.83z"/>
			<path fill="#262C62" d="M219.78,62.58v5.71h-15.81l0.26,31.84h-5.44l-0.53-31.58h-19.15l-0.53-5.45L219.78,62.58z"/>
			<path fill="#262C62" d="M221.52,62.58l31.32,0.53l1.05,5.71h-24.6v11.64l20.47,0.26l-0.26,5.18l-19.19,0.75v6.76l23.32,0.26
				l-0.53,6.46h-31.58V62.58z"/>
		</g>
	</g>
</g>
<g id="Gracias" display="none">
</g>
<g id="Layer_27" display="none">
</g>
<g id="Layer_28" display="none">
</g>
<g id="Layer_25">
</g>
<g id="Layer_24">
</g>
<g id="_x35__BG">
</g>
<g id="Layer_23">
</g>
<g id="Text_5" display="none">
</g>
<g id="_x34__dotted" display="none">
</g>
<g id="_x34__BG">
</g>
<g id="Text_4" display="none">
</g>
<g id="Layer_18">
</g>
<g id="_x33__dotted" display="none">
</g>
<g id="_x33__BG">
</g>
<g id="Layer_14">
</g>
<g id="Text_3" display="none">
</g>
<g id="_x32__dotted" display="none">
</g>
<g id="_x32__BG_1_">
</g>
<g id="_x32__BG">
</g>
<g id="Text_2" display="none">
</g>
<g id="_x31__dotted">
</g>
<g id="_x31__BG">
</g>
<g id="Layer_7">
</g>
<g id="TEAMS">
</g>
<g id="FIFA">
</g>
<g id="LOGO">
</g>
<g id="Layer_31">
</g>
<g id="Layer_6">
</g>
</svg>
