<?xml version="1.0" encoding="utf-8"?>
<!-- Generator: Adobe Illustrator 16.2.0, SVG Export Plug-In . SVG Version: 6.00 Build 0)  -->
<!DOCTYPE svg PUBLIC "-//W3C//DTD SVG 1.1//EN" "http://www.w3.org/Graphics/SVG/1.1/DTD/svg11.dtd">
<svg version="1.1" xmlns="http://www.w3.org/2000/svg" xmlns:xlink="http://www.w3.org/1999/xlink" x="0px" y="0px" width="138px"
	 height="127px" viewBox="0 0 138 127" enable-background="new 0 0 138 127" xml:space="preserve">
<g id="BG">
</g>
<g id="Layer_26">
</g>
<g id="Layer_29">
</g>
<g id="Gracias" display="none">
</g>
<g id="Layer_27" display="none">
</g>
<g id="Layer_28" display="none">
</g>
<g id="Layer_25">
</g>
<g id="Layer_24">
</g>
<g id="_x35__BG">
</g>
<g id="Layer_23">
</g>
<g id="Text_5" display="none">
</g>
<g id="_x34__dotted" display="none">
</g>
<g id="_x34__BG">
</g>
<g id="Text_4" display="none">
</g>
<g id="Layer_18">
</g>
<g id="_x33__dotted" display="none">
</g>
<g id="_x33__BG">
</g>
<g id="Layer_14">
</g>
<g id="Text_3" display="none">
</g>
<g id="_x32__dotted" display="none">
</g>
<g id="_x32__BG_1_">
</g>
<g id="_x32__BG">
</g>
<g id="Text_2" display="none">
</g>
<g id="_x31__dotted">
</g>
<g id="_x31__BG">
</g>
<g id="Layer_7">
</g>
<g id="TEAMS">
</g>
<g id="FIFA">
</g>
<g id="LOGO">
	<g>
		<g>
			<polygon fill="#FFFFFF" points="4,2 134,2 134,65.15 69,116.08 4,65.15 			"/>
			<path fill="#FFFFFF" d="M134,2v63.15l-65,50.92L4,65.15V2H134 M138,0h-2.84H3.73H0v2.18v62.97v1.44l1.53,0.88l65.92,50.92
				l1.89,1.39l1.84-1.39l65.7-50.92l1.11-0.88v-1.44V2.18V0L138,0z"/>
		</g>
		<g>
			<polygon fill="#262C62" points="87.12,85.04 109.19,84.49 87.14,85.52 			"/>
			<polygon fill="#262C62" points="81.78,97.73 98.96,113.1 81.46,98.09 			"/>
			<polygon fill="#262C62" points="69.17,102.42 68.39,123.12 68.68,102.41 			"/>
			<polygon fill="#262C62" points="58.11,97.2 43.51,114.42 57.73,96.89 			"/>
			<polygon fill="#262C62" points="53.35,85.52 31.09,84.49 53.37,85.04 			"/>
			<polygon fill="#262C62" points="57.75,74.52 41.4,58.35 58.09,74.17 			"/>
			<g>
				<path fill="#262C62" d="M70.21,102.9c-9.49,0-17.21-7.72-17.21-17.21c0-9.49,7.72-17.21,17.21-17.21
					c9.49,0,17.21,7.72,17.21,17.21C87.42,95.18,79.7,102.9,70.21,102.9z M70.21,69.45c-8.96,0-16.24,7.28-16.24,16.24
					c0,8.95,7.28,16.24,16.24,16.24c8.95,0,16.24-7.28,16.24-16.24C86.44,76.74,79.16,69.45,70.21,69.45z"/>
				<path fill="#262C62" d="M62.84,71.07l0.22-1.13l5.16-25.46l6.37,25.03l-0.68-0.05c-1.13-0.09-2.22-0.13-3.23-0.13
					c-5.08,0-6.86,1.11-6.88,1.12L62.84,71.07z M68.33,48.85l-4.12,20.36c1.05-0.38,3.07-0.86,6.48-0.86c0.83,0,1.71,0.03,2.63,0.09
					L68.33,48.85z"/>
				<path fill="#262C62" d="M68.21,127l-5.16-26.51l0.9,0.48c0.01,0.01,1.66,0.82,6.3,0.82h0c1.18,0,2.47-0.05,3.84-0.16l0.68-0.05
					L68.21,127z M64.37,102.15l3.98,20.44l5.14-19.93c-1.14,0.07-2.22,0.11-3.23,0.11c0,0,0,0,0,0
					C67.17,102.77,65.33,102.42,64.37,102.15z"/>
				<path fill="#262C62" d="M85.34,91.6l0.31-0.87c0.02-0.06,2.11-6.1,0.21-10.01l-0.41-0.84l27.61,4.26L85.34,91.6z M87.07,81.11
					c1.15,3.28,0.26,7.33-0.24,9.07l21.51-5.79L87.07,81.11z"/>
				<path fill="#262C62" d="M55,91.59L27.3,84.14l27.8-4.26l-0.41,0.84c-1.91,3.92,0.01,9.96,0.03,10.02L55,91.59z M32.03,84.4
					l21.53,5.79c-0.45-1.74-1.25-5.79-0.08-9.08L32.03,84.4z"/>
				<polygon fill="#262C62" points="53.89,80.76 38.9,56.16 63.4,70.1 62.92,70.95 41.69,58.86 54.72,80.25 				"/>
				<polygon fill="#262C62" points="85.9,79.09 85.04,78.63 95.79,58.76 75.44,70.15 74.96,69.3 98.24,56.26 				"/>
				<polygon fill="#262C62" points="101.65,115.71 74.98,102.09 75.42,101.22 98.76,113.14 85.11,92.71 85.91,92.17 				"/>
				<polygon fill="#262C62" points="41.19,117.41 53.87,90.68 54.75,91.1 43.71,114.38 62.87,100.46 63.44,101.25 				"/>
				<path fill="#262C62" d="M72.49,62.81c1.23-0.02,2.01-3.2,2.15-3.84c0.46-2.47,1.56-4.29,3.26-5.42c1.9-1.26,4.17-1.4,5.58-1.32
					c-3.33,1.46-3.2,5.76-3.2,5.8c0.77,8.76-1.41,9.28-1.43,9.28l0.08,0.55c0.28-0.03,2.72-0.59,1.9-9.86
					c-0.01-0.19-0.14-4.93,4.09-5.62l1.45-0.23l-1.43-0.31c-0.17-0.04-4.15-0.87-7.34,1.25c-1.83,1.22-3.01,3.16-3.49,5.77
					c-0.37,1.62-1.09,3.39-1.62,3.4L72.49,62.81z"/>
				<path fill="#262C62" d="M88.62,73.17c0.91,0.82,3.65-0.98,4.19-1.35c2.02-1.5,4.06-2.09,6.07-1.76
					c2.26,0.37,4.01,1.81,4.99,2.82c-3.44-1.19-6.26,2.05-6.29,2.08c-5.39,6.95-7.34,5.85-7.35,5.84l-0.32,0.46
					c0.23,0.17,2.39,1.42,8.1-5.94c0.12-0.14,3.25-3.71,6.82-1.34l1.22,0.81l-0.84-1.2c-0.1-0.14-2.46-3.46-6.23-4.07
					c-2.17-0.35-4.35,0.27-6.48,1.86c-1.37,0.94-3.11,1.75-3.5,1.39L88.62,73.17z"/>
				<path fill="#262C62" d="M91.15,89.43c0.42,1.16,3.68,0.86,4.33,0.79c2.48-0.37,4.56,0.08,6.18,1.32
					c1.81,1.39,2.67,3.49,3.06,4.84c-2.46-2.68-6.48-1.16-6.53-1.14c-8.03,3.57-9.23,1.68-9.24,1.66l-0.5,0.25
					c0.12,0.26,1.44,2.38,9.95-1.4c0.18-0.07,4.62-1.73,6.64,2.04l0.69,1.29l-0.17-1.46c-0.02-0.17-0.53-4.21-3.56-6.53
					c-1.74-1.34-3.96-1.82-6.59-1.43c-1.65,0.18-3.56,0.07-3.74-0.43L91.15,89.43z"/>
				<path fill="#262C62" d="M79.37,103.88c-0.43,1.15,2.25,3.03,2.79,3.4c2.13,1.33,3.43,3.01,3.86,5.01
					c0.49,2.23-0.22,4.39-0.79,5.67c-0.15-3.64-4.2-5.08-4.24-5.09c-8.44-2.47-8.13-4.68-8.13-4.7l-0.54-0.13
					c-0.07,0.27-0.44,2.75,8.49,5.36c0.18,0.06,4.65,1.66,3.75,5.85l-0.31,1.43l0.81-1.22c0.09-0.14,2.32-3.56,1.51-7.29
					c-0.47-2.15-1.85-3.95-4.1-5.35c-1.38-0.93-2.76-2.25-2.58-2.75L79.37,103.88z"/>
				<path fill="#262C62" d="M64.94,107.95c-1.18,0.33-1.12,3.61-1.1,4.26c0.19,2.51-0.41,4.55-1.76,6.07
					c-1.52,1.71-3.67,2.42-5.05,2.7c2.85-2.26,1.62-6.38,1.61-6.43c-2.98-8.27-1.01-9.33-0.99-9.34l-0.21-0.51
					c-0.27,0.1-2.48,1.26,0.68,10.02c0.05,0.18,1.4,4.73-2.52,6.48l-1.34,0.6l1.47-0.07c0.17-0.01,4.24-0.23,6.77-3.08
					c1.46-1.64,2.1-3.82,1.9-6.47c-0.06-1.66,0.19-3.56,0.7-3.7L64.94,107.95z"/>
				<path fill="#262C62" d="M51.59,97.08c-1.02-0.68-3.48,1.49-3.96,1.93c-1.79,1.77-3.72,2.64-5.77,2.6
					c-2.28-0.04-4.22-1.23-5.33-2.09c3.57,0.7,5.91-2.91,5.94-2.95c4.36-7.64,6.44-6.82,6.46-6.81l0.25-0.5
					c-0.25-0.13-2.57-1.07-7.18,7.02c-0.1,0.16-2.69,4.13-6.56,2.29l-1.32-0.63l1,1.07c0.12,0.12,2.92,3.08,6.74,3.15
					c2.2,0.04,4.27-0.88,6.16-2.75c1.23-1.12,2.83-2.17,3.27-1.87L51.59,97.08z"/>
				<path fill="#262C62" d="M47.53,81.53c-0.36-1.18-3.63-1.05-4.28-1.01c-2.5,0.24-4.55-0.31-6.11-1.64
					c-1.74-1.48-2.49-3.62-2.81-5c2.32,2.8,6.41,1.49,6.46,1.48c8.21-3.15,9.3-1.2,9.31-1.19l0.51-0.22
					c-0.11-0.26-1.31-2.45-10,0.89c-0.18,0.06-4.7,1.49-6.53-2.38l-0.62-1.32l0.1,1.46c0.01,0.17,0.31,4.23,3.22,6.71
					c1.67,1.43,3.86,2.02,6.51,1.77c1.66-0.1,3.56,0.11,3.72,0.62L47.53,81.53z"/>
				<path fill="#262C62" d="M56.81,67.1c0.75-0.97-1.26-3.56-1.67-4.07c-1.65-1.9-2.39-3.88-2.22-5.92c0.19-2.28,1.5-4.13,2.43-5.19
					c-0.93,3.52,2.52,6.09,2.56,6.11c7.34,4.84,6.39,6.87,6.38,6.88l0.48,0.28c0.15-0.24,1.23-2.5-6.54-7.62
					c-0.15-0.11-3.95-2.95-1.86-6.7l0.71-1.28l-1.13,0.93c-0.13,0.11-3.26,2.72-3.58,6.52c-0.18,2.19,0.61,4.32,2.35,6.32
					c1.04,1.29,1.98,2.96,1.66,3.38L56.81,67.1z"/>
			</g>
			<polygon fill="#262C62" points="68.7,68.57 68.39,48.59 69.19,68.55 			"/>
			<polygon fill="#262C62" points="81.09,72.97 96.12,58.57 81.43,73.32 			"/>
			<g>
				<path fill="#262C62" d="M78.63,90.56c0,0,0.11,0.01,0.25,0.1c0.06,0.05,0.15,0.1,0.21,0.18c0.07,0.08,0.13,0.17,0.17,0.27
					c0.05,0.1,0.08,0.2,0.09,0.3c0.02,0.1,0.02,0.19,0.01,0.27c-0.02,0.16-0.05,0.26-0.05,0.26s-0.05-0.1-0.09-0.24
					c-0.01-0.07-0.05-0.15-0.08-0.23c-0.03-0.08-0.06-0.17-0.1-0.25c-0.07-0.17-0.17-0.33-0.25-0.45
					C78.7,90.65,78.63,90.56,78.63,90.56z"/>
				<path fill="#262C62" d="M74.19,82.85c0,0,0.39,0.05,0.98,0.11c0.58,0.06,1.36,0.15,2.12,0.18c0.19,0,0.38,0.02,0.57,0.02
					c0.19-0.01,0.38,0.01,0.55,0c0.18-0.01,0.36,0,0.52-0.02c0.16-0.02,0.32-0.02,0.47-0.04c0.29-0.04,0.53-0.06,0.7-0.1
					c0.17-0.03,0.27-0.04,0.27-0.04s-0.09,0.05-0.24,0.13c-0.15,0.09-0.39,0.19-0.68,0.28c-0.14,0.05-0.3,0.08-0.47,0.12
					c-0.17,0.04-0.35,0.07-0.54,0.09c-0.38,0.05-0.78,0.05-1.18,0.04c-0.4-0.03-0.8-0.07-1.17-0.14c-0.37-0.07-0.71-0.16-0.99-0.25
					C74.54,83.06,74.19,82.85,74.19,82.85z"/>
				<g>
					<path fill="#262C62" d="M72.3,78.36c0,0,0.13-0.1,0.39-0.23c0.26-0.14,0.63-0.31,1.11-0.46c0.24-0.08,0.5-0.15,0.78-0.2
						c0.28-0.07,0.58-0.1,0.89-0.13c0.31-0.01,0.64-0.05,0.97-0.02c0.33,0.01,0.67,0.04,1,0.1c0.34,0.05,0.67,0.13,0.98,0.23
						c0.33,0.08,0.62,0.23,0.92,0.35c0.3,0.11,0.55,0.29,0.8,0.43c0.12,0.08,0.25,0.14,0.36,0.22c0.11,0.09,0.21,0.17,0.3,0.25
						c0.19,0.16,0.38,0.3,0.51,0.45c0.14,0.15,0.25,0.28,0.35,0.39c0.19,0.22,0.28,0.35,0.28,0.35s-0.15-0.07-0.41-0.2
						c-0.12-0.07-0.28-0.14-0.44-0.24c-0.17-0.1-0.38-0.17-0.59-0.28c-0.21-0.1-0.44-0.21-0.69-0.3c-0.25-0.09-0.5-0.21-0.78-0.28
						c-0.28-0.08-0.55-0.18-0.85-0.23c-0.29-0.07-0.59-0.14-0.89-0.18c-0.3-0.06-0.6-0.08-0.9-0.12c-0.3-0.04-0.6-0.04-0.89-0.06
						c-0.29,0.01-0.57-0.02-0.84,0c-0.27,0.01-0.52,0.01-0.76,0.03c-0.47,0.03-0.87,0.06-1.16,0.09
						C72.46,78.34,72.3,78.36,72.3,78.36z"/>
					<path fill="#262C62" d="M58.96,79.89c0,0,0.1-0.14,0.3-0.34c0.2-0.21,0.51-0.49,0.92-0.78c0.2-0.15,0.43-0.3,0.68-0.43
						c0.25-0.15,0.52-0.27,0.81-0.4c0.29-0.1,0.59-0.25,0.92-0.32c0.32-0.09,0.65-0.17,0.98-0.22c0.33-0.06,0.67-0.08,1.01-0.09
						c0.33-0.03,0.66,0.02,0.98,0.05c0.32,0.01,0.62,0.1,0.9,0.16c0.14,0.04,0.28,0.06,0.41,0.1c0.13,0.05,0.25,0.1,0.37,0.14
						c0.23,0.09,0.45,0.17,0.63,0.27c0.18,0.1,0.33,0.19,0.45,0.27c0.25,0.15,0.38,0.25,0.38,0.25s-0.17-0.02-0.45-0.07
						c-0.14-0.02-0.31-0.05-0.5-0.09c-0.19-0.04-0.41-0.04-0.65-0.08c-0.23-0.03-0.48-0.06-0.75-0.07
						c-0.27-0.01-0.54-0.04-0.83-0.02c-0.29,0.01-0.58,0-0.88,0.04c-0.3,0.02-0.6,0.05-0.9,0.11c-0.3,0.03-0.6,0.11-0.9,0.17
						c-0.3,0.06-0.58,0.15-0.86,0.22c-0.27,0.1-0.55,0.16-0.8,0.26c-0.25,0.09-0.49,0.17-0.71,0.26c-0.44,0.17-0.81,0.33-1.07,0.45
						C59.11,79.82,58.96,79.89,58.96,79.89z"/>
					<g>
						
							<ellipse transform="matrix(0.9546 0.298 -0.298 0.9546 27.9916 -19.176)" fill="#262C62" cx="76.88" cy="82.2" rx="2.16" ry="1.42"/>
						<path fill="#262C62" d="M73.95,81.07c0,0,0.39-0.18,1.02-0.33c0.31-0.08,0.68-0.14,1.08-0.19c0.4-0.04,0.83-0.06,1.26-0.04
							c0.22,0.02,0.43,0.03,0.64,0.07c0.21,0.02,0.42,0.08,0.62,0.14c0.2,0.04,0.38,0.14,0.56,0.21c0.18,0.06,0.32,0.19,0.46,0.28
							c0.14,0.08,0.24,0.22,0.33,0.31c0.1,0.09,0.16,0.19,0.2,0.28c0.09,0.17,0.14,0.26,0.14,0.26s-0.08-0.07-0.21-0.2
							c-0.06-0.07-0.14-0.14-0.25-0.2c-0.11-0.06-0.21-0.16-0.36-0.21c-0.14-0.05-0.28-0.14-0.45-0.18
							c-0.17-0.05-0.34-0.1-0.52-0.13c-0.09-0.02-0.19-0.04-0.28-0.05c-0.1-0.01-0.2-0.02-0.29-0.03c-0.2-0.03-0.4-0.04-0.61-0.05
							c-0.2-0.02-0.41-0.01-0.61-0.02c-0.2,0-0.4,0-0.6,0c-0.39,0.01-0.75,0.02-1.07,0.04C74.37,81.05,73.95,81.07,73.95,81.07z"/>
					</g>
					<g>
						
							<ellipse transform="matrix(-0.9546 0.298 -0.298 -0.9546 149.2275 141.655)" fill="#262C62" cx="63.81" cy="82.2" rx="2.16" ry="1.42"/>
						<path fill="#262C62" d="M66.74,81.07c0,0-0.42-0.02-1.06-0.05c-0.31-0.02-0.68-0.03-1.07-0.04c-0.19,0-0.39,0-0.6,0
							c-0.2,0.01-0.41,0-0.61,0.02C63.21,81,63,81.01,62.8,81.04c-0.1,0.01-0.2,0.02-0.29,0.03c-0.1,0.02-0.19,0.04-0.28,0.05
							c-0.19,0.03-0.36,0.09-0.53,0.13c-0.17,0.04-0.31,0.12-0.45,0.18c-0.15,0.05-0.24,0.15-0.36,0.21
							c-0.11,0.06-0.19,0.14-0.25,0.2c-0.14,0.13-0.21,0.2-0.21,0.2s0.04-0.09,0.14-0.26c0.04-0.08,0.1-0.19,0.2-0.28
							c0.1-0.09,0.19-0.23,0.33-0.31c0.14-0.09,0.28-0.21,0.46-0.28c0.17-0.08,0.36-0.17,0.56-0.21c0.2-0.06,0.4-0.12,0.62-0.14
							c0.21-0.04,0.43-0.05,0.65-0.07c0.43-0.02,0.86,0,1.26,0.04c0.4,0.05,0.77,0.11,1.08,0.19
							C66.35,80.89,66.74,81.07,66.74,81.07z"/>
						<path fill="#262C62" d="M66.51,82.85c0,0-0.35,0.2-0.92,0.38c-0.29,0.09-0.62,0.19-0.99,0.25c-0.37,0.07-0.77,0.11-1.17,0.14
							c-0.4,0.01-0.81,0.01-1.18-0.04c-0.19-0.02-0.37-0.05-0.54-0.09c-0.17-0.04-0.33-0.07-0.47-0.12
							c-0.29-0.09-0.52-0.19-0.67-0.28c-0.15-0.08-0.24-0.13-0.24-0.13s0.1,0.01,0.27,0.04c0.17,0.04,0.41,0.06,0.7,0.1
							c0.14,0.02,0.3,0.02,0.47,0.04s0.34,0.01,0.52,0.02c0.18,0.01,0.37,0,0.55,0c0.19,0,0.38-0.01,0.57-0.02
							c0.77-0.03,1.54-0.12,2.13-0.18C66.11,82.9,66.51,82.85,66.51,82.85z"/>
					</g>
					<g>
						<path fill="#262C62" d="M75.2,87.92c-0.11-0.09-0.22-0.19-0.35-0.26c-0.11-0.08-0.25-0.13-0.38-0.17
							c-0.13-0.04-0.27-0.05-0.4-0.07c-0.14-0.01-0.27,0-0.41,0.02c-0.27,0.04-0.53,0.12-0.78,0.24c-0.13,0.06-0.23,0.11-0.38,0.19
							c-0.13,0.07-0.25,0.14-0.39,0.2c-0.14,0.06-0.29,0.12-0.44,0.17c-0.15,0.04-0.29,0.1-0.45,0.12c-0.3,0.07-0.62,0.09-0.93,0.07
							c-0.16-0.01-0.31-0.02-0.46-0.06c-0.15-0.03-0.3-0.08-0.45-0.13c-0.15-0.05-0.29-0.12-0.43-0.19
							c-0.14-0.07-0.26-0.16-0.4-0.27l-0.06-0.05l0.02,0c0,0-0.03-0.04-0.05-0.06l-0.09-0.06c-0.08-0.02-0.14-0.07-0.23-0.07
							c-0.08,0-0.17-0.03-0.26-0.02l-0.28,0.02l-0.28,0.07c-0.09,0.03-0.19,0.04-0.28,0.08c-0.18,0.07-0.36,0.14-0.55,0.21
							c0.16-0.11,0.33-0.22,0.5-0.33c0.08-0.06,0.18-0.09,0.27-0.13l0.28-0.13l0.31-0.07c0.1-0.03,0.21-0.02,0.32-0.02
							c0.11-0.01,0.23,0.04,0.34,0.06l0.16,0.09c0.06,0.05,0.1,0.07,0.16,0.15l-0.04-0.05c0.1,0.06,0.22,0.13,0.34,0.19
							c0.12,0.06,0.25,0.1,0.38,0.14c0.13,0.04,0.26,0.07,0.39,0.09c0.13,0.03,0.27,0.03,0.4,0.04c0.27,0.01,0.54-0.02,0.81-0.07
							c0.27-0.05,0.53-0.14,0.78-0.23c0.13-0.05,0.27-0.12,0.4-0.18c0.11-0.05,0.28-0.13,0.42-0.18c0.29-0.1,0.6-0.17,0.91-0.17
							c0.31-0.01,0.63,0.05,0.9,0.19c0.14,0.07,0.27,0.15,0.38,0.26C75.04,87.68,75.11,87.8,75.2,87.92z"/>
						<path fill="#262C62" d="M73.06,87.24c0.02-0.09,0.03-0.13,0.04-0.21c0.01-0.07,0.01-0.14,0-0.22c0-0.07,0-0.15-0.03-0.21
							c-0.02-0.07-0.02-0.15-0.06-0.21c-0.03-0.06-0.06-0.13-0.09-0.2l-0.14-0.17c-0.03-0.03-0.04-0.06-0.08-0.08l-0.09-0.07
							l-0.19-0.14l-0.03-0.02c-0.08-0.1-0.14-0.19-0.18-0.31c-0.02-0.05-0.04-0.11-0.04-0.17c-0.01-0.06-0.02-0.12-0.01-0.17
							c0.01-0.06,0.01-0.12,0.03-0.17l0.07-0.15c0.02-0.05,0.07-0.09,0.1-0.13l0.11-0.12l-0.09,0.14c-0.03,0.05-0.07,0.09-0.07,0.14
							l-0.04,0.15c-0.01,0.05,0,0.1,0,0.15c0,0.05,0.02,0.1,0.03,0.15c0.01,0.05,0.03,0.09,0.06,0.14c0.04,0.09,0.12,0.17,0.18,0.23
							l-0.03-0.02l0.23,0.12l0.12,0.06c0.04,0.02,0.07,0.06,0.1,0.08l0.2,0.19c0.05,0.07,0.1,0.15,0.15,0.23
							c0.06,0.08,0.08,0.17,0.12,0.25c0.04,0.09,0.06,0.17,0.07,0.27c0.02,0.09,0.03,0.18,0.04,0.27c0.01,0.08,0,0.21,0,0.28
							L73.06,87.24z"/>
						<path fill="#262C62" d="M67.62,87.32c-0.01-0.08-0.01-0.2,0-0.28c0-0.09,0.01-0.18,0.04-0.27c0.02-0.09,0.04-0.18,0.07-0.27
							c0.04-0.09,0.06-0.18,0.11-0.25c0.05-0.08,0.1-0.15,0.15-0.23l0.2-0.19c0.04-0.03,0.06-0.07,0.1-0.08l0.12-0.06l0.23-0.12
							l-0.03,0.02c0.07-0.06,0.14-0.14,0.18-0.23c0.03-0.04,0.05-0.09,0.06-0.14c0.01-0.05,0.03-0.1,0.03-0.15
							c0-0.05,0.01-0.1,0-0.15l-0.04-0.15c-0.01-0.05-0.05-0.09-0.07-0.14l-0.09-0.14l0.11,0.12c0.03,0.04,0.08,0.08,0.1,0.13
							l0.07,0.15c0.02,0.05,0.02,0.11,0.03,0.17c0.01,0.06,0,0.11-0.01,0.17c-0.01,0.06-0.02,0.11-0.05,0.17
							c-0.04,0.11-0.1,0.21-0.18,0.31l-0.03,0.02l-0.19,0.14l-0.09,0.07c-0.03,0.02-0.05,0.06-0.08,0.08l-0.14,0.17
							c-0.03,0.07-0.06,0.13-0.09,0.2c-0.04,0.06-0.04,0.14-0.06,0.21c-0.02,0.07-0.02,0.14-0.03,0.21c-0.01,0.07,0,0.14,0,0.22
							c0,0.08,0.02,0.12,0.04,0.21L67.62,87.32z"/>
					</g>
					<g>
						<g>
							<path fill="#262C62" d="M70.76,91.11c0,0-0.58-0.07-1.39-0.11c-0.2-0.01-0.42-0.01-0.65-0.02c-0.23-0.01-0.47,0.01-0.72,0.02
								c-0.25,0.01-0.5,0.05-0.75,0.07c-0.12,0.02-0.25,0.04-0.38,0.06l-0.37,0.09c-0.24,0.07-0.49,0.14-0.71,0.24
								c-0.19,0.08-0.56,0.22-0.82,0.27c-0.28,0.06-0.56,0.09-0.82,0.09c-0.26,0.02-0.51-0.04-0.73-0.07
								c-0.22-0.03-0.42-0.13-0.59-0.19c-0.17-0.05-0.3-0.16-0.41-0.22c-0.21-0.14-0.32-0.23-0.32-0.23s0.15,0.01,0.39,0.04
								c0.12,0.01,0.26,0.05,0.43,0.04c0.17-0.01,0.35,0.01,0.54-0.01c0.2-0.03,0.4-0.04,0.62-0.1c0.22-0.04,0.43-0.12,0.66-0.19
								c0.1-0.04,0.23-0.09,0.32-0.14c0.08-0.04,0.22-0.12,0.36-0.18c0.27-0.14,0.57-0.23,0.86-0.32l0.45-0.09
								c0.15-0.02,0.3-0.03,0.45-0.05c0.3-0.02,0.59-0.01,0.86,0.01c0.28,0.02,0.54,0.06,0.79,0.12c0.25,0.05,0.47,0.12,0.68,0.19
								C70.3,90.74,70.76,91.11,70.76,91.11z"/>
							<path fill="#262C62" d="M70.37,91.11c0,0,0.46-0.37,1.28-0.66c0.21-0.07,0.43-0.15,0.68-0.19c0.25-0.06,0.51-0.11,0.79-0.12
								c0.28-0.02,0.57-0.03,0.86-0.01c0.15,0.02,0.3,0.03,0.45,0.05l0.45,0.09c0.29,0.09,0.59,0.18,0.86,0.32
								c0.14,0.06,0.28,0.14,0.36,0.18c0.09,0.05,0.21,0.09,0.32,0.14c0.22,0.07,0.44,0.15,0.66,0.19c0.21,0.06,0.42,0.07,0.62,0.1
								c0.2,0.02,0.38,0,0.54,0.01c0.17,0.01,0.31-0.03,0.43-0.04c0.24-0.03,0.39-0.04,0.39-0.04s-0.11,0.09-0.32,0.23
								c-0.11,0.06-0.24,0.17-0.41,0.22c-0.17,0.06-0.36,0.15-0.59,0.19c-0.22,0.03-0.47,0.09-0.73,0.07
								c-0.26,0.01-0.54-0.03-0.82-0.09c-0.26-0.05-0.63-0.19-0.82-0.27c-0.23-0.1-0.47-0.17-0.71-0.24l-0.37-0.09
								c-0.13-0.02-0.25-0.04-0.38-0.06c-0.25-0.03-0.5-0.07-0.75-0.07c-0.25-0.01-0.49-0.02-0.72-0.02
								C72.18,90.99,71.96,91,71.76,91C70.94,91.05,70.37,91.11,70.37,91.11z"/>
						</g>
						<path fill="#262C62" d="M64.38,91.38c0,0,0.77,0.16,1.91,0.31c0.57,0.08,1.23,0.15,1.93,0.22c0.35,0.02,0.72,0.05,1.09,0.07
							c0.37,0.02,0.75,0.03,1.12,0.03c0.75,0.02,1.5-0.03,2.21-0.08c0.35-0.02,0.69-0.07,1.02-0.1c0.33-0.03,0.63-0.08,0.91-0.12
							c0.28-0.05,0.55-0.07,0.78-0.12c0.23-0.05,0.43-0.08,0.6-0.12c0.34-0.06,0.54-0.09,0.54-0.09s-0.17,0.1-0.47,0.27
							c-0.15,0.08-0.33,0.18-0.55,0.29c-0.22,0.11-0.47,0.2-0.75,0.3c-0.28,0.11-0.58,0.22-0.91,0.3c-0.33,0.08-0.68,0.2-1.04,0.24
							c-0.37,0.05-0.75,0.14-1.14,0.15c-0.39,0.02-0.79,0.06-1.18,0.05c-0.4,0-0.79-0.02-1.18-0.06c-0.39-0.02-0.77-0.1-1.14-0.16
							c-0.37-0.06-0.71-0.15-1.04-0.24c-0.33-0.09-0.64-0.18-0.91-0.29c-0.56-0.19-1-0.41-1.31-0.58
							C64.54,91.49,64.38,91.38,64.38,91.38z"/>
						<path fill="#262C62" d="M62.75,90.56c0,0-0.07,0.08-0.16,0.2c-0.08,0.12-0.18,0.27-0.25,0.45c-0.05,0.08-0.07,0.17-0.1,0.25
							c-0.03,0.08-0.07,0.16-0.08,0.23c-0.04,0.14-0.09,0.24-0.09,0.24s-0.03-0.1-0.05-0.26c-0.01-0.08-0.01-0.17,0.01-0.27
							c0.01-0.1,0.04-0.2,0.09-0.3c0.04-0.1,0.1-0.19,0.17-0.27c0.06-0.08,0.15-0.13,0.21-0.18C62.64,90.58,62.75,90.56,62.75,90.56
							z"/>
						<path fill="#262C62" d="M68.94,94.54c0,0,0.17-0.15,0.47-0.29c0.15-0.07,0.33-0.14,0.53-0.18c0.2-0.05,0.42-0.08,0.64-0.1
							c0.22,0,0.45,0.01,0.65,0.05c0.21,0.04,0.39,0.11,0.54,0.18c0.15,0.08,0.26,0.16,0.34,0.23c0.07,0.07,0.11,0.11,0.11,0.11
							s-0.06,0-0.15-0.02c-0.09-0.02-0.22-0.03-0.38-0.05c-0.3-0.02-0.7-0.03-1.09-0.01c-0.4,0.02-0.8,0.05-1.12,0.06
							C69.17,94.55,68.94,94.54,68.94,94.54z"/>
					</g>
				</g>
			</g>
		</g>
		<g>
			<path fill="#262C62" d="M37.62,11.28c-0.79-2.97-6.2-2.7-6.2-2.7c-5.39,0.27-6.74,3.65-6.74,5.79c0,2.16,1.62,6.89,5.66,6.89
				c0,0,6.21,0,7.28-2.03l-2.68,0.14v-1.76l5.39,0.13l-1.22,6.47l-1.08-0.13l0.14-3.09c-1.33,3.22-7.41,3.49-7.41,3.49
				c-5.66,0.25-9.44-3.36-9.3-10.25c0.13-6.87,5.27-9.19,9.57-9.03c0,0,6.74,0.27,8.76,4.05L37.62,11.28z"/>
			<path fill="#262C62" d="M48.92,5.2l9.3,19.03l-2.88,0.27l-3.65-7.05l-6.6-0.77l-2.28,7.82h-2.99l5.48-18.92L48.92,5.2z
				 M45.79,14.4L51,15.12l-3.3-6.45L45.79,14.4z"/>
			<path fill="#262C62" d="M69.29,13.92c1.22,0.73,2.22,1.54,2.47,2.37c0,0,0.75,2.47,1.56,8.2l-2.49-0.25
				c-0.37-5.39-1.56-7.05-1.56-7.05c-0.6-0.85-2.53-1.97-4.27-2.88c0,0-1.58,0.02-2.76-0.12l0.27,10.15l-2.99-0.25L59.39,5.62
				c14.23-2.18,14.05,4.69,14.05,4.69C73.41,12.4,71.51,13.42,69.29,13.92z M62.52,11.87c8.07,1.56,7.93-1.95,7.93-1.95
				s-0.13-3.51-7.8-1.7L62.52,11.87z"/>
			<path fill="#262C62" d="M85.26,13.92c1.22,0.73,2.22,1.54,2.47,2.37c0,0,0.75,2.47,1.56,8.2l-2.49-0.25
				c-0.37-5.39-1.56-7.05-1.56-7.05c-0.6-0.85-2.53-1.97-4.27-2.88c0,0-1.58,0.02-2.76-0.12l0.27,10.15l-2.99-0.25L75.36,5.62
				c14.23-2.18,14.05,4.69,14.05,4.69C89.37,12.4,87.48,13.42,85.26,13.92z M78.48,11.87c8.07,1.56,7.93-1.95,7.93-1.95
				s-0.13-3.51-7.8-1.7L78.48,11.87z"/>
			<path fill="#262C62" d="M99.67,5.2l9.3,19.03l-2.88,0.27l-3.65-7.05l-6.6-0.77l-2.28,7.82h-2.99l5.48-18.92L99.67,5.2z
				 M96.55,14.4l5.21,0.71l-3.3-6.45L96.55,14.4z"/>
			<path fill="#262C62" d="M20.73,28.35c0,0,5.39,0,7.61,2.88l-1.7,2.49c-3.61-2.14-6.68-1.95-6.68-1.95
				c-4.32,0.25-6.56,3.53-6.7,5.75c-0.12,2.24,1.06,6.7,6.16,6.95c0,0,5.12,0.27,6.29-2.63l2.62,2.37c-2.88,2.88-9.03,3.4-9.03,3.4
				c-6.16,0.52-9.57-4.98-9.57-9.96S15.36,28.35,20.73,28.35z"/>
			<path fill="#262C62" d="M29.18,28.49l3.92-0.14l0.13,7.84L42,36.05v-7.7l3.65,0.14l-0.13,19.17H42v-8.38l-9.17-0.27l0.13,8.65
				h-3.78V28.49z"/>
			<path fill="#262C62" d="M56.16,28.35l9.3,19.03l-2.88,0.27l-3.65-7.05l-6.6-0.77l-2.28,7.82h-2.99l5.48-18.92L56.16,28.35z
				 M53.03,37.56l5.21,0.71l-3.3-6.45L53.03,37.56z"/>
			<path fill="#262C62" d="M76.54,37.08c1.22,0.73,2.22,1.54,2.47,2.37c0,0,0.75,2.47,1.56,8.2l-2.49-0.25
				c-0.37-5.39-1.56-7.05-1.56-7.05c-0.6-0.85-2.53-1.97-4.27-2.88c0,0-1.58,0.02-2.76-0.12l0.27,10.15l-2.99-0.25l-0.14-18.49
				c14.23-2.18,14.05,4.69,14.05,4.69C80.65,35.55,78.76,36.58,76.54,37.08z M69.76,35.03c8.07,1.56,7.93-1.95,7.93-1.95
				s-0.13-3.51-7.8-1.7L69.76,35.03z"/>
			<path fill="#262C62" d="M91.76,37.08c1.22,0.73,2.22,1.54,2.47,2.37c0,0,0.75,2.47,1.56,8.2l-2.49-0.25
				c-0.37-5.39-1.56-7.05-1.56-7.05c-0.6-0.85-2.53-1.97-4.27-2.88c0,0-1.58,0.02-2.76-0.12l0.27,10.15L82,47.27l-0.14-18.49
				c14.23-2.18,14.05,4.69,14.05,4.69C95.87,35.55,93.98,36.58,91.76,37.08z M84.99,35.03c8.07,1.56,7.93-1.95,7.93-1.95
				s-0.13-3.51-7.8-1.7L84.99,35.03z"/>
			<path fill="#262C62" d="M97.8,28.35h2.66c-1.33,16.75,3.9,17.02,3.9,17.02s5.23,0.27,4.02-16.75h2.41
				c1.35,19.17-6.43,19.03-6.43,19.03S96.58,47.52,97.8,28.35z"/>
			<path fill="#262C62" d="M119.29,28.35l9.3,19.03l-2.88,0.27l-3.65-7.05l-6.6-0.77l-2.28,7.82h-2.99l5.48-18.92L119.29,28.35z
				 M116.16,37.56l5.21,0.71l-3.3-6.45L116.16,37.56z"/>
		</g>
		<polygon fill="#262C62" points="108.33,28.41 106.49,27.85 108.25,24.11 111.05,24.83 		"/>
	</g>
</g>
<g id="Layer_31">
</g>
<g id="Layer_6">
</g>
</svg>
