<?xml version="1.0" encoding="utf-8"?>
<!-- Generator: Adobe Illustrator 16.2.0, SVG Export Plug-In . SVG Version: 6.00 Build 0)  -->
<!DOCTYPE svg PUBLIC "-//W3C//DTD SVG 1.1//EN" "http://www.w3.org/Graphics/SVG/1.1/DTD/svg11.dtd">
<svg version="1.1" xmlns="http://www.w3.org/2000/svg" xmlns:xlink="http://www.w3.org/1999/xlink" x="0px" y="0px"
	 width="258.44px" height="294.86px" viewBox="0 0 258.44 294.86" enable-background="new 0 0 258.44 294.86" xml:space="preserve">
<g id="BG">
</g>
<g id="Layer_26">
</g>
<g id="Layer_29">
</g>
<g id="Gracias" display="none">
</g>
<g id="Layer_27" display="none">
</g>
<g id="Layer_28" display="none">
</g>
<g id="Layer_25">
</g>
<g id="Layer_24">
</g>
<g id="_x35__BG">
</g>
<g id="Layer_23">
</g>
<g id="Text_5" display="none">
</g>
<g id="_x34__dotted" display="none">
</g>
<g id="_x34__BG">
</g>
<g id="Text_4" display="none">
</g>
<g id="Layer_18">
</g>
<g id="_x33__dotted" display="none">
</g>
<g id="_x33__BG">
</g>
<g id="Layer_14">
</g>
<g id="Text_3" display="none">
</g>
<g id="_x32__dotted" display="none">
</g>
<g id="_x32__BG_1_">
</g>
<g id="_x32__BG">
</g>
<g id="Text_2" display="none">
</g>
<g id="_x31__dotted">
</g>
<g id="_x31__BG">
</g>
<g id="Layer_7">
</g>
<g id="TEAMS">
</g>
<g id="FIFA">
	<g>
		<path fill="#262C62" d="M180.25,162.64c-21.34,0-38.64-18.18-38.64-40.61c0-22.43,9.34-39.74,30.68-39.74
			c6.05,0,11.72,1.81,16.76,4.92c-9.42-7.71-21.35-12.33-34.34-12.33c-30.38,0-55.01,25.22-55.01,56.32
			c0,31.11,24.63,56.32,55.01,56.32c26.64,0,48.86-19.39,53.92-45.13C205.14,155.41,196.21,162.64,180.25,162.64z"/>
		<path fill="#FFFFFF" d="M198.3,134.9c5.77-2.59,7.64-10.98,4.16-18.74c-3.48-7.76-10.98-11.95-16.75-9.36
			c-5.78,2.59-7.64,10.98-4.16,18.74C185.02,133.3,192.52,137.49,198.3,134.9z"/>
		<path fill="#262C62" d="M106.9,84.05c0,0-4.58-43.22,34.71-18.34C141.62,65.71,114.11,66.36,106.9,84.05z"/>
		<path fill="#262C62" d="M89.88,106.04c0,0-62.87,18.61-51.74,46.78c0,0,3.27,23.58,30.78,14.41c0,0,20.3-6.67,15.06-29.53
			C83.98,137.69,82.67,121.48,89.88,106.04z"/>
		<path fill="#262C62" d="M52.54,57.99c0,0,38.64-0.79,41.91,35.88C94.46,93.87,51.89,97.42,52.54,57.99z"/>
		<path fill="#262C62" d="M4.08,1.53c0,0,66.15-5.24,81.87,32.09c0,0,1.31-40.61,44.54-29.47c0,0,22.27,5.89,37.33,43.88
			c0,0,13.1,17.16,28.82,22.99c0,0-28.38,6.92-52.4-19.5c0,0-37.11-28.82-49.77,12.66c0,0-14.85-30.35-53.7-17.9
			c0,0-12.01,38.42,20.52,56.32c0,0-51.96,14.28-31,66.74c0,0,17.67,21.68,43.22,9.23c0,0,20.74-9.61,18.56-34.71
			c0,0,15.06,25.11-13.97,44.75c0,0-38.86,22.05-68.55-17.9c0,0-26.64-53.49,20.3-74.44C29.84,96.27-7.05,75.31,4.08,1.53z"/>
		<path fill="#FFFFFF" d="M0,78.15c0,0,6.46,13.05,14.1,15.8c0,0-11.45,11.05-14.1,17.38V78.15z"/>
		<path fill="#FFFFFF" d="M58.44,0.76h40.61c0,0-17.15,8.85-17.68,16.26C81.36,17.02,65.42,0.76,58.44,0.76z"/>
		<path fill="#FFFFFF" d="M0,177.48c0,0,23.59,27.51,51.54,26.2c0,0,32.16,1.75,52.25-29.91c0,0,15.53,23.14,49.59,21.83
			c0,0,30.9-0.65,45.97-18.56c0,0-32.36,72.7-112.27,83.18c0,0-61.85,4.8-87.07,2.84V177.48z"/>
		<path fill="#262C62" d="M1.93,268.73c0,0-7.68,28.03,24.85,26.03H256V106.31c0,0-28.87,148.22-187.58,162.41L1.93,268.73z"/>
		<path fill="#262C62" d="M198.38,201.06c0,0,42.35-61.56,30.35-135.13c0,0,20.96-2.62,29.14-17.03
			C257.86,48.9,255.35,158.49,198.38,201.06z"/>
		<g>
			<g id="XMLID_1_">
				<g>
					<path d="M255.59,22.8c0.03,0.11,0.06,0.22,0.08,0.33C255.65,23.02,255.61,22.91,255.59,22.8z"/>
					<path d="M255.59,22.8c-0.05-0.2-0.1-0.39-0.14-0.58C255.49,22.41,255.54,22.6,255.59,22.8z"/>
					<path d="M255.12,22.99c0.01,0.04,0.02,0.08,0.03,0.12C255.14,23.07,255.14,23.03,255.12,22.99z"/>
					<path d="M254.92,22.2c0.07,0.26,0.14,0.52,0.2,0.79C255.06,22.72,254.99,22.46,254.92,22.2z"/>
					<path d="M254.77,19.98c0.04,0.1,0.07,0.2,0.1,0.31C254.84,20.18,254.81,20.08,254.77,19.98z"/>
					<path d="M254.76,35.79c-0.01,0.01-0.03,0.01-0.04,0.01C254.74,35.8,254.75,35.8,254.76,35.79z"/>
					<path d="M254.67,35.82c0.02-0.01,0.03-0.01,0.05-0.02C254.7,35.82,254.68,35.82,254.67,35.82z"/>
					<path d="M254.19,18.34c-0.03-0.06-0.05-0.11-0.07-0.17C254.15,18.23,254.17,18.29,254.19,18.34z"/>
					<path d="M252.89,14.85c0.02,0.03,0.04,0.06,0.06,0.09C252.93,14.91,252.91,14.88,252.89,14.85z"/>
					<path d="M252.89,14.85c-0.23-0.37-0.46-0.73-0.71-1.09C252.42,14.09,252.65,14.45,252.89,14.85z"/>
					<path d="M250.11,30.02c1.47,3.69,3.2,5.83,4.36,5.84c0.03,0,0.07,0,0.1-0.01c-0.04,0.01-0.08,0.01-0.12,0.01
						C253.14,35.86,251.47,33.51,250.11,30.02z"/>
					<path d="M250.4,37.9c0.01,0.01,0.01,0.01,0.01,0.01C250.41,37.91,250.4,37.9,250.4,37.9z"/>
					<path d="M250.25,37.52C250.25,37.52,250.26,37.52,250.25,37.52L250.25,37.52z"/>
					<path d="M250.18,12.88c1.3,0.86,2.93,3.52,4.22,7.56C253.12,16.46,251.48,13.77,250.18,12.88z"/>
					<path d="M250.15,39.27c0.01,0.08,0.01,0.16,0.01,0.24C250.16,39.43,250.16,39.35,250.15,39.27z"/>
					<path d="M254.12,18.17c-1.23-3.07-2.7-5.27-4.02-5.91C251.44,12.89,252.9,15.06,254.12,18.17z"/>
					<path d="M250.13,40.34L250.13,40.34C250.13,40.34,250.13,40.34,250.13,40.34z"/>
					<path d="M249.94,12.19c0.05,0.02,0.1,0.04,0.16,0.07C250.05,12.23,250,12.21,249.94,12.19z"/>
					<path d="M249.52,12.08c0.14,0.02,0.27,0.05,0.41,0.11C249.79,12.14,249.65,12.1,249.52,12.08z"/>
					<path d="M250.04,41.71c-0.04,0.18-0.09,0.36-0.16,0.55C249.94,42.08,250,41.9,250.04,41.71z"/>
					<path d="M249.88,37.93c0.01,0.01,0.01,0.01,0.01,0.02C249.89,37.95,249.88,37.94,249.88,37.93z"/>
					<path d="M249.86,37.88c0.01,0.01,0.01,0.03,0.02,0.05C249.88,37.91,249.87,37.89,249.86,37.88z"/>
					<path d="M249.86,37.87c0.01,0,0.01,0.01,0.01,0.01C249.86,37.87,249.86,37.87,249.86,37.87z"/>
					<path d="M249.86,37.87c-0.01-0.02-0.01-0.04-0.02-0.06C249.84,37.83,249.85,37.85,249.86,37.87z"/>
					<path d="M249.74,36.71c0.01,0.01,0.01,0.01,0.02,0.02C249.75,36.72,249.75,36.72,249.74,36.71z"/>
					<path d="M249.73,37.61c0.02,0.02,0.03,0.04,0.03,0.06C249.76,37.65,249.75,37.63,249.73,37.61z"/>
					<path d="M249.72,37.58c0.01,0.01,0.02,0.02,0.01,0.03C249.73,37.59,249.73,37.59,249.72,37.58z"/>
					<path d="M249.64,12.61c0.02,0.01,0.04,0.01,0.07,0.03C249.68,12.63,249.66,12.62,249.64,12.61z"/>
					<path d="M249.7,42.82C249.7,42.82,249.7,42.82,249.7,42.82C249.69,42.83,249.69,42.83,249.7,42.82z"/>
					<path d="M249.67,36.63c0.03,0.02,0.05,0.05,0.07,0.08C249.72,36.68,249.7,36.66,249.67,36.63z"/>
					<path d="M249.58,37.04c0.45,0.57,0.7,1.32,0.75,2.22c0.03,0.44,0,0.9-0.07,1.38c0.07-0.48,0.08-0.94,0.06-1.38
						C250.26,38.37,250.01,37.61,249.58,37.04z"/>
					<path d="M249.47,28.27c0.06,0.17,0.12,0.34,0.17,0.5C249.58,28.61,249.52,28.44,249.47,28.27z"/>
					<path d="M249.57,37.02c0.01,0.01,0.01,0.01,0.01,0.01C249.58,37.03,249.58,37.02,249.57,37.02z"/>
					<path d="M249.56,37.31c0.02,0.01,0.03,0.03,0.03,0.05C249.6,37.34,249.58,37.33,249.56,37.31z"/>
					<path d="M249.54,36.5c0.01,0,0.01,0,0.01,0.01C249.55,36.5,249.55,36.49,249.54,36.5z"/>
					<path d="M249.54,37.27c0.01,0.01,0.02,0.03,0.03,0.05C249.56,37.29,249.55,37.28,249.54,37.27z"/>
					<path d="M249.51,37.23c0.01,0.01,0.02,0.03,0.03,0.04C249.53,37.25,249.52,37.24,249.51,37.23z"/>
					<path d="M249.44,36.4c0.03,0.03,0.07,0.06,0.1,0.1C249.51,36.46,249.48,36.43,249.44,36.4z"/>
					<path d="M249.44,36.86c0.03,0.03,0.05,0.05,0.07,0.08C249.49,36.91,249.46,36.89,249.44,36.86z"/>
					<path d="M249.42,36.85c0,0,0.01,0.01,0.01,0.01C249.44,36.85,249.43,36.85,249.42,36.85z"/>
					<path d="M249.4,36.82c0.01,0,0.01,0.01,0.03,0.03C249.42,36.83,249.41,36.83,249.4,36.82z"/>
					<path d="M249.35,37.02c0.01,0.01,0.02,0.02,0.03,0.03C249.37,37.04,249.36,37.03,249.35,37.02z"/>
					<path d="M249.33,37c0.01,0.01,0.01,0.01,0.02,0.02C249.35,37.02,249.34,37.01,249.33,37z"/>
					<path d="M248.7,25.63c0.24,0.92,0.5,1.8,0.77,2.64C249.2,27.44,248.94,26.56,248.7,25.63z"/>
					<path d="M249.32,36.74c0.03,0.02,0.05,0.05,0.08,0.08C249.37,36.79,249.35,36.76,249.32,36.74z"/>
					<path d="M249.3,36.96L249.3,36.96L249.3,36.96z"/>
					<path d="M249.29,36.72c0.01,0,0.02,0.01,0.03,0.03C249.31,36.72,249.3,36.72,249.29,36.72z"/>
					<path d="M249.27,36.7c0.01,0,0.01,0,0.02,0.02C249.29,36.7,249.28,36.7,249.27,36.7z"/>
					<path d="M249.23,36.65c0.02,0.01,0.03,0.02,0.05,0.05C249.26,36.68,249.25,36.66,249.23,36.65z"/>
					<path d="M249.2,36.62L249.2,36.62L249.2,36.62z"/>
					<path d="M249.19,36.85c0.04,0.03,0.08,0.07,0.11,0.11C249.27,36.92,249.23,36.89,249.19,36.85z"/>
					<path d="M249.19,36.6l0.01,0.01C249.19,36.61,249.19,36.61,249.19,36.6L249.19,36.6z"/>
					<path d="M249.08,36.52c0.04,0.02,0.07,0.05,0.1,0.09C249.15,36.58,249.12,36.54,249.08,36.52z"/>
					<path d="M249.05,36.5c0.01,0,0.02,0.01,0.03,0.02C249.07,36.51,249.06,36.51,249.05,36.5z"/>
					<path d="M249.02,36.47C249.03,36.47,249.03,36.48,249.02,36.47C249.03,36.48,249.03,36.47,249.02,36.47z"/>
					<path d="M248.94,36.41c0.01,0.01,0.01,0.01,0.01,0.01C248.95,36.41,248.95,36.41,248.94,36.41z"/>
					<path d="M254.44,36.35c-1.88,0-4.17-3.62-5.75-8.88c1.58,5.19,3.91,8.87,5.77,8.87c0.1,0,0.21-0.01,0.31-0.04
						C254.68,36.34,254.57,36.35,254.44,36.35z"/>
					<path d="M248.88,36.37c0.02,0.01,0.04,0.03,0.06,0.04C248.91,36.39,248.89,36.37,248.88,36.37z"/>
					<path d="M248.84,36.34c0.01,0.01,0.03,0.01,0.04,0.03C248.86,36.35,248.85,36.34,248.84,36.34z"/>
					<path d="M248.54,36.17c0.03,0.01,0.07,0.03,0.1,0.05C248.61,36.2,248.57,36.18,248.54,36.17z"/>
					<path d="M248.29,26.01c0.07,0.29,0.16,0.58,0.24,0.87C248.44,26.6,248.36,26.3,248.29,26.01z"/>
					<path d="M248.29,26.01c-0.05-0.16-0.08-0.32-0.12-0.48C248.2,25.69,248.24,25.85,248.29,26.01z"/>
					<path d="M248.1,25.29c0.01,0.03,0.02,0.07,0.03,0.09C248.12,25.35,248.11,25.33,248.1,25.29z"/>
					<path d="M247.99,35.95c0.18,0.05,0.35,0.12,0.52,0.2C248.34,36.07,248.17,36,247.99,35.95z"/>
					<path d="M248.61,45.13c-0.29,0.51-0.62,1.03-0.98,1.53C248,46.16,248.32,45.64,248.61,45.13z"/>
					<path d="M247.85,46.65c-0.07,0.1-0.13,0.2-0.21,0.3C247.71,46.85,247.78,46.75,247.85,46.65z"/>
					<path d="M247.79,35.89c0.07,0.01,0.14,0.03,0.2,0.06C247.93,35.93,247.86,35.91,247.79,35.89z"/>
					<path d="M249.18,12.9c-1.4,0.34-1.84,5.56-0.31,12.04c1.52,6.33,4.11,10.58,5.58,10.58c0.06,0,0.08,0,0.1-0.01
						c0.24-0.07,0.44-0.23,0.61-0.5c1.03-1.66,0.92-6.61-0.24-11.52c-1.52-6.35-4.12-10.61-5.59-10.61
						C249.27,12.88,249.22,12.9,249.18,12.9z M248.35,13.23c0.22-0.35,0.47-0.57,0.77-0.64c0.06-0.02,0.13-0.03,0.2-0.03
						c0.1,0,0.21,0.01,0.32,0.05c0.02,0.01,0.04,0.02,0.07,0.03c0.15,0.05,0.31,0.13,0.48,0.25c1.3,0.89,2.93,3.58,4.22,7.56
						c0.18,0.56,0.35,1.15,0.52,1.76c0.07,0.26,0.14,0.52,0.2,0.79c0,0,0,0,0,0.01c0.01,0.04,0.02,0.08,0.03,0.12
						c0.03,0.1,0.05,0.2,0.08,0.31c1.22,5.13,1.3,9.97,0.2,11.77c-0.19,0.31-0.41,0.51-0.66,0.6c-0.01,0.01-0.03,0.01-0.04,0.01
						h-0.01c-0.02,0.01-0.03,0.01-0.05,0.02c-0.01,0-0.01,0-0.01,0c-0.03,0.01-0.05,0.01-0.08,0.02c-0.04,0.01-0.07,0.01-0.1,0.01
						c-1.15-0.01-2.88-2.14-4.36-5.84c-0.16-0.4-0.31-0.81-0.46-1.24c-0.05-0.16-0.11-0.33-0.17-0.5c-0.27-0.84-0.54-1.72-0.77-2.64
						c-0.05-0.2-0.1-0.41-0.15-0.62C247.32,19.88,247.24,15.04,248.35,13.23z"/>
					<path d="M247.64,46.96c-0.05,0.07-0.11,0.15-0.17,0.22C247.53,47.1,247.58,47.03,247.64,46.96z"/>
					<path d="M254.44,36.02c-2.15,0-4.77-5.57-6.07-10.96c-1.34-5.68-1.45-12.12,0.69-12.64c0.09-0.02,0.17-0.03,0.26-0.03
						c2.15,0,4.78,5.59,6.08,10.99c1.21,5.11,1.29,10.11,0.18,11.9c-0.24,0.39-0.54,0.64-0.88,0.71
						C254.62,36.02,254.53,36.02,254.44,36.02z M249.12,12.59c-0.3,0.07-0.56,0.28-0.77,0.64c-1.11,1.81-1.03,6.65,0.2,11.78
						c0.05,0.21,0.1,0.42,0.15,0.62c0.24,0.94,0.5,1.81,0.77,2.64c0.05,0.17,0.11,0.34,0.17,0.5c0.15,0.43,0.3,0.84,0.46,1.24
						c1.37,3.5,3.03,5.84,4.34,5.84c0.04,0,0.08-0.01,0.12-0.01c0.03-0.01,0.06-0.01,0.08-0.02c0.01,0,0.01,0,0.01,0
						c0.02-0.01,0.03-0.01,0.05-0.02h0.01c0.01,0,0.03-0.01,0.04-0.01c0.26-0.09,0.47-0.29,0.66-0.6c1.11-1.79,1.03-6.63-0.2-11.77
						c-0.03-0.1-0.05-0.21-0.08-0.31c-0.01-0.04-0.01-0.08-0.03-0.12c0-0.01,0-0.01,0-0.01c-0.07-0.27-0.14-0.54-0.2-0.79
						c-0.16-0.61-0.34-1.2-0.52-1.76c-1.29-4.03-2.91-6.69-4.22-7.56c-0.16-0.12-0.33-0.2-0.48-0.25c-0.03-0.01-0.05-0.02-0.07-0.03
						c-0.11-0.03-0.22-0.05-0.32-0.05C249.25,12.56,249.18,12.57,249.12,12.59z"/>
					<path d="M248.38,25.06c1.3,5.39,3.92,10.96,6.07,10.96c0.08,0,0.18,0,0.25-0.03c0.34-0.08,0.64-0.32,0.88-0.71
						c1.11-1.79,1.03-6.79-0.18-11.9c-1.3-5.4-3.92-10.99-6.08-10.99c-0.08,0-0.16,0.01-0.26,0.03
						C246.92,12.93,247.04,19.38,248.38,25.06z M254.44,36.18c-2.03,0-4.71-4.77-6.23-11.11c-1.58-6.69-1.22-12.32,0.82-12.81
						c0.09-0.02,0.19-0.03,0.29-0.03c2.03,0,4.72,4.77,6.24,11.11c1.58,6.69,1.22,12.32-0.81,12.81
						C254.64,36.17,254.55,36.18,254.44,36.18z"/>
					<path d="M247.93,12.97c0.29-0.47,0.65-0.76,1.07-0.86c0.09-0.03,0.22-0.05,0.33-0.05c0.07,0,0.14,0.01,0.2,0.01
						c0.13,0.02,0.27,0.06,0.41,0.11c0,0,0-0.01,0.01,0c0.05,0.03,0.1,0.05,0.16,0.07c1.32,0.65,2.79,2.84,4.02,5.91
						c0.02,0.06,0.04,0.11,0.07,0.17c0.21,0.52,0.4,1.06,0.58,1.63c0.04,0.1,0.07,0.2,0.1,0.31c0.2,0.62,0.39,1.27,0.57,1.94
						c0.05,0.19,0.1,0.38,0.14,0.58c0.03,0.11,0.06,0.22,0.08,0.33c0.01,0.05,0.03,0.11,0.04,0.17c1.28,5.34,1.33,10.22,0.14,12.15
						c-0.29,0.47-0.65,0.76-1.07,0.86h-0.01c-0.11,0.03-0.21,0.04-0.31,0.04c-1.86,0-4.19-3.68-5.77-8.87
						c-0.06-0.2-0.12-0.39-0.17-0.6c-0.08-0.29-0.16-0.58-0.24-0.87c-0.05-0.16-0.08-0.32-0.12-0.48c-0.01-0.05-0.03-0.09-0.03-0.14
						c-0.01-0.03-0.02-0.06-0.03-0.09c-0.01-0.05-0.03-0.11-0.04-0.17C246.78,19.8,246.73,14.91,247.93,12.97z M248.21,25.08
						c1.52,6.33,4.2,11.11,6.23,11.11c0.1,0,0.2-0.01,0.31-0.03c2.03-0.49,2.39-6.12,0.81-12.81c-1.53-6.33-4.21-11.11-6.24-11.11
						c-0.1,0-0.2,0.01-0.29,0.03C246.99,12.76,246.63,18.38,248.21,25.08z"/>
					<path d="M254.44,36.68c-2.33,0-5.09-4.72-6.71-11.49c-1.71-7.2-1.21-12.84,1.19-13.41c0.13-0.03,0.27-0.05,0.41-0.05
						c0.9,0,1.87,0.7,2.8,1.96c0.01,0.01,0.03,0.03,0.03,0.05c0.01,0.01,0.02,0.02,0.02,0.03c0.25,0.35,0.48,0.72,0.71,1.09
						c0.02,0.03,0.04,0.06,0.06,0.09c0.02,0.04,0.05,0.08,0.08,0.13c1.15,2.02,2.22,4.83,3.02,8.15c1.7,7.2,1.2,12.84-1.19,13.41
						C254.7,36.67,254.58,36.68,254.44,36.68z M248.99,12.11c-0.42,0.1-0.78,0.39-1.07,0.86c-1.2,1.95-1.15,6.83,0.14,12.16
						c0.01,0.06,0.03,0.12,0.04,0.17c0.01,0.03,0.02,0.06,0.03,0.09c0.01,0.05,0.02,0.09,0.03,0.14c0.04,0.16,0.08,0.33,0.12,0.48
						c0.07,0.29,0.15,0.59,0.24,0.87c0.05,0.2,0.11,0.4,0.17,0.6c1.58,5.27,3.87,8.88,5.75,8.88c0.12,0,0.24-0.01,0.33-0.05h0.01
						c0.42-0.1,0.78-0.39,1.07-0.86c1.19-1.93,1.14-6.81-0.14-12.15c-0.01-0.06-0.03-0.12-0.04-0.17c-0.03-0.11-0.05-0.22-0.08-0.33
						c-0.05-0.2-0.1-0.39-0.14-0.58c-0.18-0.67-0.37-1.32-0.57-1.94c-0.03-0.1-0.07-0.2-0.1-0.31c-0.18-0.57-0.37-1.11-0.58-1.63
						c-0.02-0.06-0.04-0.12-0.07-0.17c-1.22-3.11-2.69-5.29-4.02-5.91c-0.05-0.03-0.1-0.05-0.16-0.07c-0.01-0.01-0.01,0-0.01,0
						c-0.14-0.06-0.27-0.09-0.41-0.11c-0.07-0.01-0.14-0.01-0.2-0.01C249.21,12.06,249.08,12.08,248.99,12.11z"/>
					<path d="M246.49,48.39c0.19-0.21,0.37-0.43,0.54-0.64C246.86,47.97,246.68,48.18,246.49,48.39z"/>
					<path d="M246.29,48.39c0.49-0.56,0.94-1.14,1.35-1.72C247.23,47.25,246.78,47.82,246.29,48.39z"/>
					<path d="M245.76,48.96c-0.05,0.06-0.1,0.12-0.16,0.18C245.66,49.07,245.71,49.01,245.76,48.96z"/>
					<path d="M245.14,35.98c-0.06,0.01-0.12,0.03-0.18,0.05C245.02,36.01,245.08,35.99,245.14,35.98z"/>
					<path d="M244.83,49.89c0.08-0.07,0.15-0.14,0.22-0.21C244.98,49.75,244.91,49.82,244.83,49.89z"/>
					<path d="M244.26,36.25c-0.04,0.01-0.08,0.03-0.12,0.05C244.18,36.28,244.22,36.26,244.26,36.25z"/>
					<path d="M244.01,36.34c-0.04,0.02-0.08,0.03-0.12,0.05C243.93,36.37,243.97,36.35,244.01,36.34z"/>
					<path d="M243.89,36.39c-0.04,0.01-0.08,0.03-0.12,0.05C243.81,36.42,243.85,36.41,243.89,36.39z"/>
					<path d="M243.71,36.47c-0.09,0.04-0.18,0.08-0.27,0.12C243.53,36.54,243.62,36.5,243.71,36.47z"/>
					<path d="M243.43,36.58c-0.06,0.03-0.11,0.05-0.17,0.09C243.32,36.64,243.37,36.61,243.43,36.58z"/>
					<path d="M243.11,36.74c-0.09,0.04-0.17,0.08-0.26,0.12C242.93,36.82,243.02,36.78,243.11,36.74z"/>
					<path d="M246.73,35.6c1.04,0,1.91,0.29,2.57,0.88c0.71,0.64,1.11,1.56,1.19,2.76c0.12,2.15-0.86,4.85-2.64,7.41
						c1.78-2.57,2.76-5.27,2.63-7.41c-0.07-1.17-0.48-2.13-1.19-2.75c-0.64-0.58-1.5-0.88-2.55-0.88c-1.12,0-2.38,0.35-3.69,0.98
						C244.35,35.95,245.61,35.6,246.73,35.6z"/>
					<path d="M242.8,36.89c-0.07,0.04-0.14,0.08-0.22,0.12C242.65,36.97,242.73,36.93,242.8,36.89z"/>
					<path d="M243.05,36.59c-0.18,0.09-0.37,0.18-0.56,0.29C242.68,36.77,242.86,36.68,243.05,36.59z"/>
					<path d="M242.59,51.69c-0.01,0.01-0.02,0.03-0.03,0.03C242.57,51.71,242.57,51.7,242.59,51.69z"/>
					<path d="M242.54,37.04c0.01-0.01,0.03-0.02,0.05-0.03C242.57,37.02,242.55,37.03,242.54,37.04z"/>
					<path d="M242.54,37.04c-0.01,0.01-0.01,0.01-0.03,0.01C242.52,37.04,242.53,37.04,242.54,37.04z"/>
					<path d="M242.36,51.84c0.05-0.03,0.1-0.07,0.16-0.1C242.46,51.78,242.41,51.81,242.36,51.84z"/>
					<path d="M242.46,36.89c0.01-0.01,0.02-0.01,0.03-0.01C242.48,36.88,242.48,36.89,242.46,36.89z"/>
					<path d="M242.41,37.1c0.03-0.02,0.07-0.04,0.1-0.05C242.48,37.07,242.44,37.08,242.41,37.1z"/>
					<path d="M242.46,36.89c-0.07,0.03-0.13,0.07-0.2,0.11C242.33,36.96,242.4,36.92,242.46,36.89z"/>
					<path d="M242.41,37.1c-0.03,0.01-0.06,0.03-0.08,0.05C242.35,37.13,242.38,37.11,242.41,37.1z"/>
					<path d="M242.27,37.18c0.02-0.01,0.04-0.02,0.06-0.03C242.31,37.16,242.29,37.17,242.27,37.18z"/>
					<path d="M242.14,51.98c-0.02,0.02-0.05,0.03-0.07,0.05C242.1,52.01,242.12,52,242.14,51.98z"/>
					<path d="M242.07,52.03c-0.05,0.04-0.1,0.07-0.16,0.1C241.97,52.09,242.02,52.06,242.07,52.03z"/>
					<path d="M242.09,37.29c-0.07,0.04-0.13,0.08-0.2,0.12C241.96,37.36,242.02,37.32,242.09,37.29z"/>
					<path d="M241.86,52.16c-0.05,0.03-0.1,0.07-0.14,0.09C241.76,52.22,241.81,52.19,241.86,52.16z"/>
					<path d="M241.72,52.24c-0.05,0.04-0.1,0.07-0.16,0.1C241.61,52.31,241.66,52.28,241.72,52.24z"/>
					<path d="M241.55,52.34c-0.03,0.01-0.05,0.03-0.07,0.04C241.51,52.37,241.53,52.35,241.55,52.34z"/>
					<path d="M241.55,52.53c-0.07,0.05-0.13,0.08-0.2,0.11C241.42,52.6,241.48,52.56,241.55,52.53z"/>
					<path d="M241.48,52.38c-0.03,0.02-0.07,0.04-0.09,0.05C241.42,52.42,241.45,52.4,241.48,52.38z"/>
					<path d="M241.36,37.75c-0.05,0.03-0.09,0.06-0.14,0.09C241.27,37.8,241.32,37.78,241.36,37.75z"/>
					<path d="M240.76,52.94c0.1-0.05,0.2-0.1,0.31-0.15C240.96,52.85,240.87,52.89,240.76,52.94z"/>
					<path d="M241.03,37.97c-0.04,0.03-0.07,0.05-0.11,0.08C240.96,38.02,241,38,241.03,37.97z"/>
					<path d="M240.96,52.66c-0.09,0.05-0.17,0.09-0.26,0.12C240.79,52.75,240.88,52.71,240.96,52.66z"/>
					<path d="M240.94,37.83c-0.03,0.03-0.07,0.05-0.1,0.08C240.87,37.89,240.91,37.86,240.94,37.83z"/>
					<path d="M240.92,38.05c-0.03,0.03-0.07,0.05-0.11,0.08C240.85,38.1,240.88,38.08,240.92,38.05z"/>
					<path d="M240.84,37.91c-0.02,0.01-0.03,0.02-0.05,0.03C240.81,37.93,240.83,37.92,240.84,37.91z"/>
					<path d="M240.81,38.13c-0.05,0.03-0.09,0.07-0.14,0.1C240.72,38.2,240.77,38.16,240.81,38.13z"/>
					<path d="M240.76,52.94c-0.01,0.01-0.03,0.02-0.04,0.02C240.73,52.95,240.74,52.94,240.76,52.94z"/>
					<path d="M240.77,37.97c-0.07,0.05-0.14,0.1-0.2,0.15C240.63,38.06,240.7,38.01,240.77,37.97z"/>
					<path d="M240.24,38.36c0.05-0.05,0.1-0.08,0.16-0.12C240.35,38.27,240.3,38.31,240.24,38.36z"/>
					<path d="M240.02,53.27c0.02-0.01,0.04-0.01,0.07-0.03C240.06,53.26,240.04,53.27,240.02,53.27z"/>
					<path d="M240.02,53.27c-0.27,0.12-0.53,0.21-0.79,0.29C239.48,53.47,239.75,53.38,240.02,53.27z"/>
					<path d="M238.98,39.65c-0.07,0.07-0.14,0.13-0.22,0.2C238.83,39.78,238.91,39.71,238.98,39.65z"/>
					<path d="M238.76,39.85c-0.08,0.07-0.16,0.15-0.23,0.23C238.61,40,238.68,39.92,238.76,39.85z"/>
					<path d="M238.47,40.14c0.02-0.03,0.04-0.05,0.06-0.06C238.51,40.1,238.49,40.12,238.47,40.14z"/>
					<path d="M238.42,40.19c0.02-0.03,0.03-0.05,0.05-0.05C238.46,40.15,238.44,40.17,238.42,40.19z"/>
					<path d="M238.42,40.19c-0.07,0.07-0.14,0.14-0.21,0.21C238.29,40.32,238.35,40.25,238.42,40.19z"/>
					<path d="M238.09,40.3c-0.08,0.08-0.17,0.18-0.25,0.27C237.92,40.47,238.01,40.38,238.09,40.3z"/>
					<path d="M237.56,40.87c0.06-0.07,0.11-0.13,0.18-0.19C237.67,40.75,237.62,40.81,237.56,40.87z"/>
					<path d="M237.67,40.98c0.18-0.2,0.36-0.39,0.54-0.58C238.03,40.59,237.85,40.79,237.67,40.98c-0.08,0.1-0.16,0.2-0.24,0.29
						C237.5,41.17,237.58,41.07,237.67,40.98z"/>
					<path d="M237.43,41.02c-0.03,0.03-0.05,0.05-0.07,0.07C237.39,41.06,237.41,41.04,237.43,41.02z"/>
					<path d="M237.29,41.18c-0.01,0.01-0.01,0.01-0.02,0.02C237.28,41.19,237.28,41.19,237.29,41.18z"/>
					<path d="M237.2,41.29c-0.01,0.01-0.01,0.01-0.02,0.02C237.18,41.3,237.19,41.29,237.2,41.29z"/>
					<path d="M236.94,41.6c0-0.01,0.01-0.01,0.02-0.02C236.95,41.59,236.94,41.59,236.94,41.6z"/>
					<path d="M236.92,41.62c-0.12,0.14-0.24,0.29-0.35,0.44C236.68,41.91,236.8,41.76,236.92,41.62z"/>
					<path d="M235.73,43.54c0.49-0.77,1.05-1.54,1.7-2.27C236.79,42,236.22,42.77,235.73,43.54z"/>
					<path d="M239.23,53.55c-0.75,0.24-1.49,0.37-2.16,0.37c-0.58,0-1.09-0.09-1.55-0.27c0.46,0.18,0.98,0.27,1.55,0.27
						C237.74,53.91,238.47,53.79,239.23,53.55z"/>
					<path d="M235.45,43.98c-0.02,0.04-0.05,0.08-0.07,0.11C235.4,44.06,235.43,44.02,235.45,43.98z"/>
					<path d="M235.38,44.09c-0.01,0.01-0.01,0.03-0.02,0.03C235.37,44.12,235.38,44.1,235.38,44.09z"/>
					<path d="M235.34,53.58c0.06,0.02,0.12,0.05,0.18,0.07C235.46,53.63,235.4,53.61,235.34,53.58z"/>
					<path d="M235.23,53.52c0.03,0.01,0.07,0.03,0.1,0.05C235.29,53.56,235.26,53.55,235.23,53.52z"/>
					<path d="M234.68,52.75c0.01,0.02,0.04,0.04,0.06,0.06h-0.01C234.72,52.79,234.7,52.77,234.68,52.75z"/>
					<path d="M234.67,52.73c0,0.01,0.01,0.01,0.01,0.01C234.67,52.75,234.66,52.74,234.67,52.73z"/>
					<path d="M234.61,52.68c0.01,0.02,0.03,0.04,0.06,0.06C234.64,52.71,234.62,52.7,234.61,52.68z"/>
					<path d="M234.49,52.55c0.04,0.04,0.08,0.08,0.12,0.12C234.56,52.63,234.52,52.59,234.49,52.55z"/>
					<path d="M234.44,52.49c0.01,0.02,0.03,0.04,0.05,0.06C234.46,52.53,234.45,52.51,234.44,52.49z"/>
					<path d="M234.44,52.73c0.06,0.06,0.12,0.12,0.19,0.18c0.63,0.56,1.43,0.84,2.44,0.84c1.1,0,2.34-0.34,3.63-0.96
						c-1.28,0.63-2.53,0.97-3.63,0.97c-1,0-1.81-0.28-2.43-0.83C234.56,52.87,234.5,52.81,234.44,52.73z"/>
					<path d="M234.4,52.43c0.01,0.02,0.02,0.03,0.04,0.05C234.42,52.47,234.41,52.45,234.4,52.43z"/>
					<path d="M234.37,52.66c0.03,0.02,0.05,0.05,0.07,0.07C234.41,52.71,234.39,52.69,234.37,52.66z"/>
					<path d="M234.34,46.17C234.34,46.17,234.34,46.17,234.34,46.17L234.34,46.17z"/>
					<path d="M234.33,52.34c0.01,0.02,0.03,0.04,0.05,0.06C234.35,52.38,234.34,52.36,234.33,52.34z"/>
					<path d="M234.28,52.55c0.03,0.04,0.05,0.07,0.08,0.1C234.33,52.62,234.3,52.58,234.28,52.55z"/>
					<path d="M234.28,52.54L234.28,52.54C234.27,52.55,234.28,52.54,234.28,52.54z"/>
					<path d="M234.28,52.54c-0.03-0.03-0.05-0.05-0.06-0.08C234.24,52.49,234.26,52.53,234.28,52.54z"/>
					<path d="M234.21,52.17c0.03,0.06,0.07,0.12,0.12,0.18C234.28,52.28,234.24,52.22,234.21,52.17z"/>
					<path d="M234.01,47.04c0.03-0.1,0.07-0.21,0.11-0.31C234.09,46.83,234.05,46.94,234.01,47.04z"/>
					<path d="M234.2,52.44c-0.05-0.07-0.1-0.13-0.14-0.2C234.1,52.31,234.15,52.37,234.2,52.44z"/>
					<path d="M234.06,52.24c-0.03-0.03-0.05-0.07-0.07-0.11C234.01,52.17,234.03,52.2,234.06,52.24z"/>
					<path d="M234.01,47.04c-0.01,0.03-0.02,0.05-0.03,0.08C234,47.1,234,47.07,234.01,47.04z"/>
					<path d="M237.07,53.27c2.55,0,5.97-1.98,8.71-5.05c2.63-2.95,4.18-6.38,4.05-8.93c-0.06-1.01-0.38-1.78-0.97-2.29
						c-0.52-0.48-1.24-0.72-2.13-0.72c-2.55,0-5.96,1.98-8.68,5.04c-1.91,2.14-3.25,4.52-3.8,6.69c-0.53,2.05-0.27,3.67,0.72,4.56
						C235.49,53.03,236.2,53.27,237.07,53.27z M234.08,47.97c0.55-2.2,1.91-4.6,3.84-6.75c2.76-3.1,6.22-5.11,8.82-5.11
						c0.92,0,1.67,0.26,2.23,0.75c0.61,0.55,0.96,1.36,1.02,2.42c0.14,2.61-1.42,6.07-4.09,9.05c-2.76,3.1-6.23,5.1-8.83,5.1
						c-0.91,0-1.66-0.25-2.22-0.74C233.83,51.76,233.56,50.09,234.08,47.97z"/>
					<path d="M233.99,47.13c-0.01,0.01-0.01,0.03-0.02,0.05C233.97,47.16,233.98,47.15,233.99,47.13z"/>
					<path d="M235.23,53.52c-0.26-0.12-0.49-0.27-0.71-0.46c-0.24-0.21-0.44-0.46-0.6-0.73c0.16,0.27,0.36,0.5,0.59,0.71
						C234.73,53.23,234.96,53.39,235.23,53.52z"/>
					<path d="M233.94,52.03c0.01,0.02,0.03,0.05,0.04,0.07C233.96,52.07,233.95,52.05,233.94,52.03z"/>
					<path d="M233.86,52.21c0.01,0.04,0.04,0.07,0.07,0.11C233.89,52.29,233.87,52.25,233.86,52.21z"/>
					<path d="M233.9,51.51c-0.01-0.01-0.02-0.03-0.02-0.06C233.88,51.47,233.89,51.49,233.9,51.51z"/>
					<path d="M233.88,51.45c-0.07-0.2-0.12-0.41-0.16-0.63C233.76,51.04,233.81,51.25,233.88,51.45z"/>
					<path d="M233.86,51.86c0,0.01,0,0.02,0.01,0.03C233.86,51.88,233.86,51.87,233.86,51.86z"/>
					<path d="M233.85,47.59c-0.01,0.03-0.01,0.05-0.02,0.07C233.83,47.63,233.84,47.61,233.85,47.59z"/>
					<path d="M233.84,52.18c0.01,0.01,0.01,0.02,0.02,0.03C233.84,52.2,233.84,52.2,233.84,52.18z"/>
					<path d="M234.08,47.97c-0.52,2.12-0.25,3.79,0.77,4.72c0.56,0.49,1.31,0.74,2.22,0.74c2.61,0,6.07-2,8.83-5.1
						c2.67-2.98,4.23-6.44,4.09-9.05c-0.07-1.05-0.41-1.87-1.02-2.42c-0.56-0.5-1.32-0.75-2.23-0.75c-2.59,0-6.05,2.01-8.82,5.11
						C235.99,43.37,234.63,45.77,234.08,47.97z M234.8,52.75c-1.06-0.95-1.35-2.65-0.79-4.8c0.56-2.23,1.93-4.64,3.85-6.8
						c2.78-3.12,6.26-5.13,8.87-5.13c0.95,0,1.72,0.26,2.29,0.78c0.64,0.56,1,1.39,1.05,2.47c0.14,2.61-1.43,6.1-4.12,9.11
						c-2.78,3.12-6.27,5.13-8.89,5.13C236.13,53.51,235.36,53.25,234.8,52.75z"/>
					<path d="M233.79,52.11c0.02,0.03,0.03,0.05,0.05,0.08C233.82,52.16,233.8,52.13,233.79,52.11z"/>
					<path d="M234.01,47.95c-0.56,2.15-0.27,3.85,0.79,4.8c0.56,0.5,1.33,0.77,2.27,0.77c2.62,0,6.12-2.02,8.89-5.13
						c2.68-3.01,4.26-6.5,4.12-9.11c-0.06-1.08-0.42-1.91-1.05-2.47c-0.58-0.52-1.34-0.78-2.29-0.78c-2.61,0-6.1,2.01-8.87,5.13
						C235.93,43.31,234.56,45.71,234.01,47.95z M233.72,50.82c-0.14-0.83-0.07-1.8,0.21-2.89c0.54-2.23,1.91-4.66,3.87-6.84
						c2.8-3.13,6.31-5.15,8.93-5.15c0.98,0,1.75,0.26,2.34,0.8c0.04,0.03,0.07,0.07,0.11,0.11c0.04,0.03,0.08,0.07,0.11,0.11
						l0.01,0.01c0.01,0.01,0.02,0.02,0.03,0.03c0.01,0.01,0.01,0.01,0.02,0.02c0.01,0.01,0.02,0.02,0.03,0.03
						c0.05,0.05,0.09,0.11,0.13,0.17c0.01,0.01,0.02,0.03,0.03,0.04c0.01,0.01,0.02,0.03,0.03,0.05c0.02,0.02,0.03,0.03,0.03,0.05
						c0.05,0.07,0.09,0.14,0.12,0.22c0.01,0.01,0.01,0.01,0.01,0.03c0.01,0.02,0.03,0.04,0.03,0.06c0.03,0.05,0.05,0.1,0.07,0.14
						c0.01,0.02,0.01,0.04,0.02,0.06c0,0.01,0,0.01,0.01,0.01c0.01,0.01,0.01,0.03,0.02,0.05c0,0.01,0.01,0.01,0.01,0.02
						c0.15,0.39,0.24,0.83,0.26,1.32c0.01,0.08,0.01,0.16,0.01,0.24c0.01,0.27-0.01,0.54-0.03,0.83c0,0,0,0-0.01,0.01
						c-0.24,2.46-1.75,5.46-4.1,8.1c-2.79,3.12-6.3,5.15-8.95,5.15c-0.96,0-1.72-0.26-2.33-0.78c-0.02-0.02-0.05-0.04-0.06-0.06
						c-0.01-0.01-0.01-0.01-0.01-0.01c-0.03-0.02-0.05-0.04-0.06-0.06c-0.01,0-0.01,0-0.01-0.01c-0.04-0.04-0.08-0.08-0.12-0.12
						c-0.01-0.01,0-0.01,0-0.01c-0.01-0.02-0.03-0.04-0.05-0.06c-0.02-0.02-0.03-0.03-0.04-0.05c-0.02-0.01-0.03-0.02-0.03-0.03
						c-0.02-0.02-0.03-0.04-0.05-0.06c-0.05-0.06-0.08-0.12-0.12-0.18c-0.13-0.2-0.24-0.42-0.31-0.66
						c-0.01-0.02-0.02-0.04-0.02-0.06C233.81,51.25,233.76,51.04,233.72,50.82z"/>
					<path d="M233.66,51.81c0.01,0.02,0.01,0.03,0.03,0.05C233.67,51.84,233.66,51.83,233.66,51.81z"/>
					<path d="M233.65,51.79c0.01,0.01,0.01,0.02,0.01,0.03C233.65,51.8,233.65,51.79,233.65,51.79z"/>
					<path d="M233.56,48.95c0.02-0.16,0.04-0.33,0.08-0.51C233.61,48.62,233.58,48.79,233.56,48.95z"/>
					<path d="M234.63,52.92c-0.07-0.06-0.13-0.12-0.19-0.18c-0.03-0.03-0.05-0.05-0.07-0.07c-0.01,0-0.01-0.01-0.01-0.01
						c-0.03-0.03-0.05-0.06-0.08-0.1l-0.01-0.01c-0.02-0.02-0.04-0.05-0.06-0.08c-0.01-0.01-0.02-0.01-0.02-0.03
						c-0.05-0.07-0.1-0.13-0.14-0.2c-0.03-0.03-0.05-0.07-0.07-0.11c-0.01-0.01-0.02-0.02-0.02-0.03c-0.01-0.02-0.03-0.05-0.04-0.07
						c-0.03-0.05-0.05-0.09-0.06-0.14c-0.01-0.01-0.01-0.02-0.01-0.03c-0.28-0.6-0.41-1.33-0.37-2.15c0-0.08,0-0.16,0.01-0.24
						c0-0.11,0.01-0.22,0.03-0.33c0-0.01,0-0.02,0.01-0.03c-0.01-0.05,0-0.1,0.01-0.16c0.02-0.16,0.05-0.33,0.08-0.51
						c0.03-0.18,0.08-0.37,0.12-0.56c0.02-0.08,0.04-0.15,0.07-0.23c0.01-0.02,0.01-0.04,0.02-0.07c0.03-0.13,0.07-0.27,0.12-0.41
						c0.01-0.02,0.01-0.04,0.02-0.05c0.01-0.03,0.02-0.06,0.03-0.08c0.03-0.1,0.07-0.21,0.11-0.31c0.06-0.19,0.13-0.37,0.21-0.56
						c0,0,0-0.01,0.01-0.01c0.28-0.68,0.62-1.36,1.02-2.04c0.01-0.01,0.01-0.02,0.02-0.03c0.02-0.03,0.05-0.07,0.07-0.11
						c0.09-0.14,0.18-0.29,0.28-0.44c0.49-0.77,1.06-1.54,1.7-2.27c0.08-0.09,0.16-0.19,0.25-0.28c0.18-0.2,0.35-0.39,0.54-0.58
						c0.07-0.07,0.14-0.14,0.21-0.21c0.01-0.02,0.03-0.04,0.05-0.05c0.02-0.02,0.04-0.04,0.06-0.06c0.07-0.08,0.15-0.16,0.23-0.23
						c0.07-0.07,0.14-0.14,0.22-0.2c0.55-0.52,1.12-1,1.7-1.42c0.05-0.04,0.09-0.07,0.14-0.1c0.04-0.03,0.07-0.05,0.11-0.08
						c0.04-0.03,0.07-0.05,0.11-0.08c0.07-0.05,0.13-0.09,0.2-0.13c0.05-0.03,0.09-0.07,0.14-0.09c0.18-0.12,0.35-0.24,0.53-0.34
						c0.07-0.04,0.13-0.08,0.2-0.12c0.06-0.04,0.12-0.07,0.18-0.11c0.02-0.01,0.04-0.02,0.06-0.03c0.03-0.01,0.06-0.03,0.08-0.05
						c0.03-0.02,0.07-0.03,0.1-0.05c0.01-0.01,0.02-0.01,0.03-0.01c0.02-0.01,0.03-0.02,0.05-0.03c0.07-0.04,0.14-0.08,0.22-0.12
						c0.02-0.01,0.03-0.02,0.05-0.03c0.08-0.05,0.17-0.08,0.26-0.12c0.05-0.03,0.1-0.05,0.16-0.07c0.06-0.03,0.11-0.05,0.17-0.09
						c0,0,0,0,0.01,0c0.09-0.04,0.18-0.08,0.27-0.12c0.02-0.01,0.04-0.02,0.05-0.02c0.05-0.02,0.08-0.04,0.12-0.05
						c0.04-0.02,0.08-0.03,0.12-0.05c0.05-0.01,0.08-0.03,0.13-0.05c0.05-0.02,0.08-0.03,0.12-0.05c0.24-0.08,0.47-0.16,0.7-0.22
						c0.06-0.02,0.12-0.04,0.18-0.05c0.56-0.14,1.09-0.21,1.59-0.21c0.38,0,0.73,0.04,1.05,0.12c0.07,0.02,0.14,0.04,0.2,0.06
						c0.18,0.05,0.35,0.12,0.52,0.2c0.01,0,0.03,0.01,0.03,0.02c0.03,0.01,0.07,0.03,0.1,0.05c0.07,0.03,0.13,0.07,0.2,0.12
						c0.01,0,0.03,0.01,0.04,0.03c0.02,0.01,0.04,0.02,0.06,0.04c0.01,0,0.01,0,0.01,0c0.01,0.01,0.01,0.01,0.01,0.01
						c0.03,0.01,0.05,0.03,0.07,0.05c0.01,0,0.01,0.01,0.01,0.01c0.01,0,0.02,0.01,0.03,0.02c0.01,0.01,0.02,0.01,0.03,0.02
						c0.04,0.03,0.07,0.06,0.1,0.09c0.01,0.01,0.01,0.01,0.01,0.01l0.01,0.01c0.01,0.01,0.02,0.01,0.03,0.03
						c0.02,0.01,0.03,0.03,0.05,0.05c0.01,0,0.01,0.01,0.02,0.02c0.01,0,0.02,0.01,0.03,0.03c0.03,0.02,0.05,0.05,0.08,0.08
						c0.01,0.01,0.02,0.01,0.03,0.03c0.01,0,0.01,0.01,0.01,0.01c0.03,0.03,0.05,0.05,0.07,0.08c0.03,0.03,0.05,0.05,0.07,0.08
						c0.01,0,0.01,0.01,0.01,0.01c0.43,0.58,0.68,1.34,0.73,2.22c0.03,0.44,0.01,0.9-0.06,1.38c-0.05,0.35-0.12,0.71-0.22,1.07
						c-0.05,0.18-0.1,0.37-0.16,0.55c-0.05,0.18-0.12,0.37-0.18,0.56c-0.01,0.01-0.01,0.01-0.01,0.01
						c-0.27,0.75-0.63,1.53-1.08,2.31c-0.29,0.51-0.62,1.03-0.98,1.53c-0.41,0.58-0.86,1.16-1.35,1.72
						c-0.05,0.05-0.09,0.1-0.14,0.16c-0.12,0.14-0.25,0.28-0.39,0.41c-0.05,0.06-0.1,0.12-0.16,0.18c-0.18,0.19-0.36,0.37-0.54,0.54
						c-0.07,0.07-0.14,0.14-0.22,0.21c-0.73,0.68-1.49,1.29-2.25,1.8c-0.01,0.01-0.02,0.02-0.03,0.03
						c-0.01,0.01-0.03,0.02-0.04,0.03c-0.05,0.03-0.1,0.07-0.16,0.1c-0.07,0.05-0.14,0.1-0.22,0.14c-0.02,0.02-0.05,0.03-0.07,0.05
						c-0.05,0.03-0.1,0.07-0.16,0.1c-0.02,0.01-0.03,0.03-0.05,0.03c-0.05,0.03-0.1,0.06-0.14,0.09c-0.05,0.03-0.1,0.07-0.16,0.1
						h-0.01c-0.02,0.01-0.05,0.03-0.07,0.04h-0.01c-0.03,0.02-0.06,0.04-0.09,0.05c-0.14,0.08-0.28,0.16-0.43,0.23
						c-0.09,0.05-0.17,0.09-0.26,0.12c-0.01,0.01-0.01,0.01-0.01,0.01c-1.28,0.62-2.53,0.96-3.63,0.96
						C236.06,53.76,235.26,53.48,234.63,52.92z M234.74,52.81c0.6,0.52,1.36,0.78,2.33,0.78c2.65,0,6.16-2.02,8.95-5.15
						c2.35-2.63,3.86-5.63,4.1-8.1l0.01-0.01c0.03-0.29,0.04-0.56,0.03-0.83c0-0.08,0-0.16-0.01-0.24
						c-0.03-0.49-0.11-0.93-0.26-1.32c0-0.01,0-0.01-0.01-0.02c-0.01-0.02-0.01-0.04-0.02-0.05c0-0.01,0-0.01-0.01-0.01
						c-0.01-0.02-0.01-0.04-0.02-0.06c-0.02-0.05-0.05-0.1-0.07-0.14c-0.01-0.02-0.01-0.04-0.03-0.06c0.01-0.01,0-0.02-0.01-0.03
						c-0.03-0.07-0.07-0.14-0.12-0.22c-0.01-0.02-0.01-0.04-0.03-0.05c-0.01-0.02-0.01-0.03-0.03-0.05
						c-0.01-0.01-0.01-0.03-0.03-0.04c-0.04-0.06-0.09-0.12-0.13-0.17c-0.01-0.01-0.01-0.02-0.03-0.03
						c-0.01-0.01-0.01-0.01-0.02-0.02c-0.01-0.01-0.01-0.02-0.03-0.03l-0.01-0.01c-0.03-0.05-0.07-0.08-0.11-0.11
						c-0.04-0.05-0.07-0.08-0.11-0.11c-0.6-0.54-1.36-0.8-2.34-0.8c-2.63,0-6.14,2.02-8.93,5.15c-1.96,2.18-3.33,4.61-3.87,6.84
						c-0.28,1.09-0.35,2.06-0.21,2.89c0.04,0.22,0.09,0.43,0.16,0.63c0,0.03,0.01,0.05,0.02,0.06c0.07,0.24,0.18,0.46,0.31,0.66
						c0.03,0.06,0.07,0.12,0.12,0.18c0.01,0.02,0.02,0.04,0.05,0.06c0,0.01,0.01,0.03,0.03,0.03c0.01,0.02,0.02,0.04,0.04,0.05
						c0.01,0.02,0.02,0.04,0.05,0.06c0,0-0.01,0,0,0.01c0.03,0.04,0.07,0.08,0.12,0.12c-0.01,0.01-0.01,0.01,0.01,0.01
						c0.01,0.02,0.03,0.04,0.06,0.06c-0.01,0.01,0,0.01,0.01,0.01C234.7,52.77,234.72,52.79,234.74,52.81L234.74,52.81z"/>
					<path d="M233.55,51.5c0.02,0.08,0.05,0.15,0.07,0.22C233.6,51.65,233.57,51.58,233.55,51.5z"/>
					<path d="M233.54,49.13c-0.01-0.01-0.01-0.02,0.01-0.03C233.54,49.11,233.54,49.13,233.54,49.13z"/>
					<path d="M233.51,51.88c0,0.01,0.01,0.03,0.02,0.05C233.52,51.91,233.51,51.9,233.51,51.88z"/>
					<path d="M233.5,51.86c-0.01,0.01,0,0.01,0.01,0.01C233.5,51.88,233.5,51.87,233.5,51.86z"/>
					<path d="M233.5,49.47c-0.01,0.08-0.01,0.16-0.01,0.24C233.49,49.63,233.49,49.55,233.5,49.47z"/>
					<path d="M233.54,51.47c-0.06-0.16-0.1-0.34-0.12-0.52C233.45,51.14,233.48,51.31,233.54,51.47z"/>
					<path d="M234.44,52.73c0.06,0.07,0.12,0.14,0.2,0.2c0.62,0.55,1.43,0.83,2.43,0.83c1.1,0,2.34-0.34,3.63-0.97
						c0.01,0.01,0.01,0,0.01-0.01c0.08-0.04,0.17-0.08,0.26-0.12c0.14-0.07,0.28-0.14,0.43-0.23c0.03-0.01,0.06-0.03,0.09-0.05h0.01
						c0.02-0.01,0.04-0.03,0.07-0.04h0.01c0.05-0.03,0.1-0.06,0.16-0.1c0.05-0.02,0.1-0.05,0.14-0.09c0.02-0.01,0.03-0.02,0.05-0.03
						c0.05-0.03,0.1-0.06,0.16-0.1c0.03-0.01,0.05-0.03,0.07-0.05c0.07-0.04,0.14-0.08,0.22-0.14c0.05-0.03,0.1-0.07,0.16-0.1
						c0.01-0.01,0.03-0.01,0.04-0.03c0.01,0,0.02-0.01,0.03-0.03c0.76-0.51,1.52-1.12,2.25-1.8c0.07-0.07,0.15-0.14,0.22-0.21
						c0.18-0.18,0.37-0.35,0.54-0.54c0.06-0.05,0.11-0.12,0.16-0.18c0.14-0.14,0.26-0.27,0.39-0.41c0.05-0.05,0.09-0.1,0.14-0.16
						c0.49-0.56,0.94-1.14,1.35-1.72c0.36-0.5,0.69-1.02,0.98-1.53c0.45-0.77,0.81-1.55,1.08-2.31c0.01-0.01,0.01-0.01,0.01-0.01
						c0.07-0.19,0.13-0.37,0.18-0.56c0.07-0.19,0.12-0.37,0.16-0.55c0.1-0.37,0.17-0.73,0.22-1.07c0.07-0.48,0.1-0.94,0.07-1.38
						c-0.05-0.9-0.29-1.65-0.75-2.22c0-0.01,0-0.01-0.01-0.01c-0.01-0.03-0.03-0.05-0.07-0.08c-0.02-0.03-0.04-0.06-0.07-0.08
						c-0.01-0.01-0.01-0.01-0.01-0.01c-0.01-0.01-0.02-0.03-0.03-0.03c-0.03-0.03-0.05-0.06-0.08-0.08
						c-0.01-0.02-0.01-0.03-0.03-0.03c-0.01-0.02-0.01-0.02-0.02-0.02c-0.01-0.03-0.03-0.04-0.05-0.05
						c-0.01-0.01-0.02-0.02-0.03-0.03l-0.01-0.01l-0.01-0.01h-0.01c-0.03-0.03-0.07-0.07-0.1-0.09c-0.01-0.01-0.01-0.02-0.03-0.02
						c-0.01-0.01-0.01-0.02-0.03-0.02c0,0,0-0.01-0.01-0.01c-0.02-0.02-0.04-0.04-0.07-0.05c0-0.01-0.01-0.01-0.01-0.01
						c0,0,0,0-0.01,0c-0.02-0.01-0.04-0.03-0.06-0.04c-0.01-0.01-0.03-0.02-0.04-0.03c-0.07-0.05-0.12-0.08-0.2-0.12
						c-0.03-0.03-0.07-0.04-0.1-0.05c-0.01-0.01-0.02-0.02-0.03-0.02c-0.16-0.08-0.33-0.15-0.52-0.2c-0.07-0.03-0.13-0.05-0.2-0.06
						c-0.32-0.08-0.67-0.12-1.05-0.12c-0.5,0-1.04,0.07-1.59,0.21c-0.06,0.01-0.12,0.03-0.18,0.05c-0.23,0.06-0.46,0.13-0.7,0.22
						c-0.04,0.01-0.09,0.03-0.12,0.05c-0.05,0.01-0.08,0.03-0.13,0.05c-0.04,0.01-0.08,0.03-0.12,0.05
						c-0.04,0.01-0.08,0.03-0.12,0.05c-0.01,0-0.03,0.01-0.05,0.02c-0.09,0.03-0.18,0.07-0.27,0.12c-0.01,0-0.01,0-0.01,0
						c-0.06,0.03-0.11,0.05-0.17,0.09c-0.05,0.02-0.11,0.05-0.16,0.07c-0.09,0.04-0.17,0.08-0.26,0.12
						c-0.02,0.01-0.03,0.02-0.05,0.03c-0.07,0.04-0.14,0.08-0.22,0.12c-0.01,0.01-0.03,0.01-0.05,0.03c-0.01,0-0.02,0-0.03,0.01
						c-0.03,0.01-0.07,0.03-0.1,0.05c-0.03,0.01-0.06,0.03-0.08,0.05c-0.02,0.01-0.04,0.03-0.06,0.03
						c-0.06,0.04-0.12,0.07-0.18,0.11c-0.07,0.03-0.13,0.07-0.2,0.12c-0.18,0.1-0.35,0.22-0.53,0.34c-0.05,0.03-0.09,0.05-0.14,0.09
						c-0.07,0.04-0.13,0.08-0.2,0.13c-0.03,0.03-0.07,0.05-0.11,0.08c-0.03,0.03-0.07,0.05-0.11,0.08c-0.05,0.03-0.09,0.07-0.14,0.1
						c-0.58,0.42-1.15,0.9-1.7,1.42c-0.07,0.06-0.14,0.13-0.22,0.2c-0.08,0.07-0.16,0.14-0.23,0.23c-0.02,0.01-0.04,0.03-0.06,0.06
						c-0.02,0.01-0.03,0.03-0.05,0.05c-0.07,0.06-0.14,0.13-0.21,0.21c-0.18,0.18-0.37,0.37-0.54,0.58
						c-0.08,0.09-0.17,0.19-0.24,0.29c-0.64,0.73-1.21,1.5-1.7,2.27c-0.1,0.14-0.19,0.29-0.28,0.44c-0.02,0.04-0.05,0.08-0.07,0.11
						c-0.01,0.01-0.01,0.03-0.02,0.03c-0.4,0.68-0.75,1.36-1.02,2.04l-0.01,0.01c-0.08,0.18-0.15,0.37-0.21,0.56
						c-0.05,0.1-0.08,0.21-0.11,0.31c-0.01,0.03-0.02,0.06-0.03,0.08c-0.01,0.02-0.02,0.03-0.02,0.05
						c-0.05,0.14-0.08,0.27-0.12,0.41c-0.01,0.03-0.02,0.05-0.02,0.07c-0.03,0.08-0.05,0.15-0.07,0.23
						c-0.05,0.19-0.09,0.37-0.12,0.56c-0.04,0.18-0.07,0.35-0.08,0.51c-0.01,0.05-0.02,0.1-0.01,0.16
						c-0.01,0.01-0.01,0.01-0.01,0.03c-0.02,0.11-0.03,0.22-0.03,0.33c-0.01,0.08-0.01,0.16-0.01,0.24
						c-0.03,0.82,0.09,1.55,0.37,2.15c-0.01,0.01,0,0.03,0.01,0.03c0.01,0.05,0.03,0.09,0.06,0.14c0.01,0.02,0.03,0.05,0.04,0.07
						c0,0.01,0.01,0.02,0.02,0.03c0.02,0.04,0.04,0.08,0.07,0.11c0.04,0.07,0.08,0.14,0.14,0.2c0,0.01,0.01,0.02,0.02,0.03
						c0.01,0.03,0.03,0.05,0.06,0.08c0,0-0.01,0.01,0.01,0.01c0.02,0.03,0.05,0.07,0.08,0.1c0,0.01,0,0.01,0.01,0.01
						C234.39,52.69,234.41,52.71,234.44,52.73z M233.6,47.86c0.41-1.61,1.22-3.31,2.34-4.94c0.19-0.29,0.41-0.58,0.62-0.86
						c0.12-0.15,0.24-0.29,0.35-0.44c0-0.01,0.01-0.01,0.01-0.02c0.01-0.01,0.01-0.01,0.02-0.02c0.07-0.09,0.14-0.18,0.22-0.27
						c0.01-0.01,0.01-0.01,0.02-0.02c0.03-0.03,0.05-0.06,0.07-0.09c0.01-0.01,0.01-0.01,0.02-0.02c0.03-0.03,0.05-0.07,0.08-0.09
						c0.02-0.03,0.04-0.05,0.07-0.07c0.03-0.05,0.07-0.08,0.11-0.13c0.01-0.01,0.01-0.01,0.01-0.01c0.06-0.07,0.11-0.12,0.18-0.19
						c0.03-0.04,0.07-0.08,0.11-0.12c0.08-0.09,0.16-0.18,0.25-0.27c0.69-0.72,1.41-1.37,2.15-1.94c0.05-0.05,0.1-0.08,0.16-0.12
						c0.05-0.04,0.1-0.08,0.16-0.12c0.07-0.05,0.13-0.1,0.2-0.15c0.01-0.01,0.02-0.01,0.03-0.02c0.01-0.01,0.03-0.03,0.05-0.03
						c0.03-0.03,0.07-0.05,0.1-0.08c0.44-0.31,0.88-0.59,1.32-0.83c0.07-0.04,0.13-0.08,0.2-0.11c0.01-0.01,0.02-0.01,0.03-0.01
						c0.18-0.1,0.37-0.2,0.56-0.29c1.3-0.63,2.57-0.98,3.69-0.98c1.05,0,1.91,0.29,2.55,0.88c0.71,0.62,1.12,1.58,1.19,2.75
						c0.12,2.14-0.86,4.84-2.63,7.41c-0.07,0.1-0.14,0.2-0.21,0.3v0.01c-0.06,0.07-0.11,0.14-0.17,0.22
						c-0.14,0.19-0.28,0.38-0.44,0.57c-0.17,0.22-0.35,0.43-0.54,0.64c-0.07,0.09-0.14,0.18-0.22,0.26
						c-1.45,1.62-3.09,2.96-4.72,3.87c-0.07,0.04-0.13,0.08-0.2,0.11c-0.09,0.05-0.19,0.1-0.28,0.15c-0.1,0.05-0.21,0.1-0.31,0.15
						c-0.02,0.01-0.03,0.01-0.04,0.02c-0.22,0.1-0.42,0.2-0.63,0.28c-0.03,0.01-0.05,0.02-0.07,0.03c-0.27,0.11-0.54,0.2-0.79,0.29
						c-0.76,0.24-1.49,0.36-2.16,0.36c-0.58,0-1.09-0.09-1.55-0.27c-0.06-0.02-0.12-0.05-0.18-0.07c0,0-0.01,0-0.01-0.01
						c-0.03-0.02-0.07-0.04-0.1-0.05c-0.26-0.13-0.5-0.29-0.71-0.48c-0.23-0.21-0.43-0.45-0.59-0.71c-0.03-0.04-0.05-0.07-0.07-0.11
						c-0.01-0.01-0.01-0.01-0.02-0.03c-0.01-0.03-0.03-0.05-0.05-0.08c-0.04-0.08-0.08-0.16-0.1-0.24
						c-0.01-0.02-0.02-0.03-0.03-0.05c-0.01-0.01-0.01-0.02-0.01-0.03c-0.01-0.03-0.02-0.05-0.03-0.07
						c-0.03-0.07-0.05-0.14-0.07-0.22c-0.01-0.01-0.01-0.01-0.01-0.03c-0.06-0.16-0.1-0.33-0.12-0.52
						c-0.02-0.05-0.03-0.08-0.03-0.13C233.25,49.96,233.33,48.96,233.6,47.86z"/>
					<path d="M235.95,42.92c-1.13,1.63-1.94,3.33-2.34,4.94c-0.27,1.11-0.35,2.11-0.21,2.97c-0.14-0.86-0.07-1.87,0.2-2.97
						C234,46.24,234.81,44.55,235.95,42.92z"/>
					<path d="M233.29,51.21c0.01,0.06,0.03,0.11,0.04,0.16C233.32,51.32,233.31,51.26,233.29,51.21z"/>
					<path d="M233.66,51.81c0,0.02,0.01,0.03,0.03,0.05c0.03,0.08,0.07,0.16,0.1,0.24c0.01,0.03,0.03,0.05,0.05,0.08
						c0,0.01,0.01,0.02,0.02,0.03c0.01,0.04,0.03,0.08,0.07,0.11c0.16,0.27,0.36,0.52,0.6,0.73c0.22,0.19,0.45,0.35,0.71,0.46
						c0.03,0.03,0.07,0.04,0.1,0.05c0.01,0.01,0.01,0.01,0.01,0.01c0.06,0.03,0.12,0.05,0.18,0.07c0.46,0.18,0.98,0.27,1.55,0.27
						c0.67,0,1.41-0.12,2.16-0.37c0.26-0.08,0.52-0.17,0.79-0.29c0.02,0,0.04-0.01,0.07-0.03c0.21-0.08,0.42-0.18,0.63-0.28
						c0.01,0,0.03-0.01,0.04-0.02c0.1-0.05,0.2-0.09,0.31-0.15c0.09-0.05,0.19-0.1,0.28-0.15c0.07-0.03,0.13-0.07,0.2-0.11
						c1.63-0.91,3.28-2.25,4.72-3.87c0.08-0.08,0.16-0.17,0.22-0.26c0.19-0.21,0.37-0.43,0.54-0.64c0.16-0.19,0.3-0.38,0.44-0.57
						c0.06-0.07,0.12-0.15,0.17-0.22v-0.01c0.08-0.1,0.14-0.2,0.21-0.3c1.78-2.55,2.76-5.25,2.64-7.41
						c-0.08-1.2-0.47-2.12-1.19-2.76c-0.66-0.58-1.53-0.88-2.57-0.88c-1.12,0-2.38,0.35-3.69,0.99c-0.18,0.08-0.37,0.18-0.56,0.29
						c-0.01,0-0.01,0-0.03,0.01c-0.07,0.03-0.13,0.07-0.2,0.11c-0.44,0.24-0.88,0.52-1.32,0.83c-0.03,0.03-0.07,0.05-0.1,0.08
						c-0.01,0.01-0.03,0.02-0.05,0.03c-0.01,0.01-0.02,0.01-0.03,0.02c-0.07,0.05-0.14,0.09-0.2,0.15
						c-0.06,0.03-0.11,0.08-0.16,0.12c-0.05,0.04-0.1,0.08-0.16,0.12c-0.74,0.57-1.46,1.22-2.15,1.94
						c-0.08,0.08-0.17,0.18-0.25,0.27c-0.05,0.04-0.08,0.08-0.11,0.12c-0.07,0.06-0.12,0.12-0.18,0.19
						c-0.01,0.01-0.01,0.01-0.01,0.01c-0.04,0.05-0.08,0.08-0.11,0.13c-0.03,0.02-0.05,0.05-0.07,0.07
						c-0.03,0.03-0.05,0.06-0.08,0.09c-0.01,0.01-0.01,0.01-0.02,0.02c-0.03,0.03-0.05,0.05-0.07,0.09
						c-0.01,0.01-0.01,0.01-0.02,0.02c-0.08,0.09-0.15,0.18-0.22,0.27c-0.01,0.01-0.02,0.01-0.02,0.02
						c-0.01,0.01-0.01,0.01-0.01,0.02c-0.12,0.14-0.24,0.29-0.35,0.44c-0.22,0.28-0.43,0.57-0.62,0.86
						c-1.14,1.63-1.95,3.33-2.35,4.93c-0.28,1.11-0.34,2.12-0.2,2.97c0,0.05,0.01,0.09,0.03,0.13c0.03,0.18,0.07,0.35,0.12,0.52
						c-0.01,0.01,0,0.02,0.01,0.03c0.02,0.08,0.05,0.15,0.07,0.22c0.01,0.02,0.01,0.04,0.03,0.07
						C233.65,51.79,233.65,51.8,233.66,51.81z M234.41,53.18c-0.38-0.34-0.68-0.77-0.88-1.26c-0.01-0.01-0.02-0.03-0.02-0.05
						c-0.01-0.01-0.01-0.01-0.01-0.01c-0.07-0.16-0.12-0.32-0.17-0.49c-0.01-0.05-0.03-0.1-0.04-0.16
						c-0.15-0.62-0.18-1.34-0.08-2.11c-0.01-0.01,0-0.01,0.01-0.02c0.04-0.41,0.12-0.83,0.23-1.26c0.56-2.31,1.97-4.81,3.98-7.05
						c2.89-3.24,6.54-5.32,9.31-5.32c1.09,0,1.99,0.31,2.68,0.92c0.01,0.01,0.02,0.02,0.03,0.03c0.03,0.03,0.07,0.06,0.1,0.1
						c0.01-0.01,0.01,0,0.01,0.01c0.04,0.03,0.08,0.07,0.12,0.12c0.03,0.03,0.05,0.05,0.07,0.08c0.01,0.01,0.01,0.01,0.02,0.02
						c0.2,0.24,0.37,0.5,0.49,0.79l0.01,0.01c0.06,0.12,0.1,0.24,0.14,0.37c0,0,0.01,0.01,0.01,0.01c0.14,0.4,0.22,0.84,0.24,1.33
						c0.17,2.74-1.47,6.4-4.26,9.52c-2.88,3.24-6.54,5.32-9.33,5.32C235.99,54.08,235.09,53.78,234.41,53.18z"/>
					<path d="M233.22,49.08c-0.01,0.01-0.01,0.01-0.01,0.02C233.2,49.09,233.2,49.09,233.22,49.08z"/>
					<path d="M234.41,53.18c0.68,0.6,1.58,0.9,2.66,0.9c2.78,0,6.44-2.08,9.33-5.32c2.79-3.12,4.43-6.78,4.26-9.52
						c-0.03-0.48-0.1-0.93-0.24-1.33c0-0.01,0-0.01-0.01-0.01c-0.04-0.13-0.09-0.26-0.14-0.37c0-0.01-0.01-0.01-0.01-0.01
						c-0.12-0.29-0.29-0.56-0.49-0.79c-0.01-0.01-0.01-0.01-0.02-0.02c-0.02-0.03-0.04-0.06-0.07-0.08
						c-0.04-0.05-0.08-0.08-0.12-0.12c0-0.01-0.01-0.01-0.01-0.01c-0.03-0.04-0.07-0.07-0.1-0.1c-0.01-0.01-0.02-0.02-0.03-0.03
						c-0.69-0.62-1.58-0.92-2.68-0.92c-2.76,0-6.41,2.09-9.31,5.32c-2.01,2.24-3.42,4.74-3.98,7.05c-0.11,0.44-0.19,0.86-0.23,1.26
						c-0.01,0.01-0.01,0.01-0.01,0.02c-0.09,0.77-0.07,1.49,0.08,2.11c0.01,0.05,0.03,0.11,0.04,0.16c0.04,0.17,0.1,0.33,0.17,0.49
						c-0.01,0.01-0.01,0.01,0.01,0.01c0,0.02,0.01,0.03,0.02,0.05C233.73,52.41,234.03,52.84,234.41,53.18z M234.3,53.29
						c-1.28-1.13-1.64-3.09-1.02-5.51c0.58-2.33,2-4.86,4.01-7.13c2.93-3.27,6.63-5.38,9.44-5.38c1.11,0,2.06,0.32,2.79,0.96
						c0.78,0.7,1.22,1.74,1.29,3c0.16,2.79-1.48,6.49-4.3,9.65c-2.91,3.26-6.62,5.37-9.44,5.37
						C235.95,54.25,235.02,53.93,234.3,53.29z"/>
					<path d="M234.18,53.42c-1.31-1.17-1.69-3.18-1.07-5.68c0.6-2.38,2.05-4.94,4.07-7.19c2.93-3.3,6.68-5.43,9.55-5.43
						c1.18,0,2.15,0.33,2.89,1c0.81,0.71,1.28,1.78,1.36,3.1c0.17,2.84-1.49,6.58-4.34,9.77c-2.94,3.3-6.7,5.43-9.58,5.43
						C235.9,54.41,234.93,54.08,234.18,53.42z M233.28,47.78c-0.62,2.42-0.26,4.39,1.02,5.51c0.71,0.64,1.64,0.96,2.76,0.96
						c2.82,0,6.53-2.11,9.44-5.37c2.82-3.16,4.47-6.86,4.3-9.65c-0.07-1.26-0.51-2.3-1.29-3c-0.73-0.64-1.68-0.96-2.79-0.96
						c-2.8,0-6.51,2.11-9.44,5.38C235.29,42.92,233.86,45.45,233.28,47.78z"/>
					<path d="M229.69,45.12c0-0.4-0.03-0.81-0.09-1.21C229.66,44.31,229.69,44.72,229.69,45.12z"/>
					<path d="M229.81,47.61c0.77-2.44,0.37-5.11-1.15-7.57c-0.33-0.54-0.71-1.07-1.13-1.56c0.43,0.49,0.81,1.02,1.14,1.56
						C230.18,42.5,230.58,45.18,229.81,47.61z"/>
					<path d="M227.31,38.21c-0.13-0.14-0.26-0.28-0.4-0.42C227.05,37.92,227.18,38.06,227.31,38.21z"/>
					<path d="M228.23,40.3c-0.47-0.77-1.03-1.5-1.68-2.16c0.65,0.66,1.22,1.38,1.7,2.16c0.65,1.06,1.08,2.16,1.28,3.26
						C229.33,42.46,228.89,41.36,228.23,40.3z"/>
					<path d="M226.06,36.99c0.05,0.05,0.11,0.09,0.16,0.14C226.17,37.09,226.12,37.04,226.06,36.99z"/>
					<path d="M225.61,36.62c0.05,0.03,0.09,0.07,0.13,0.1C225.7,36.69,225.65,36.66,225.61,36.62z"/>
					<path d="M225.61,36.62c-0.11-0.08-0.22-0.17-0.34-0.26C225.38,36.44,225.49,36.53,225.61,36.62z"/>
					<path d="M225.26,36.36c-0.36-0.27-0.73-0.52-1.12-0.76C224.53,35.84,224.9,36.09,225.26,36.36z"/>
					<path d="M223.63,35.31c0.01,0.01,0.03,0.01,0.03,0.02C223.65,35.32,223.64,35.31,223.63,35.31z"/>
					<path d="M221.98,34.52c0.57,0.23,1.12,0.49,1.64,0.78C223.1,35.01,222.55,34.75,221.98,34.52z"/>
					<path d="M233.88,13.73c-6.14,0-11.13,4.77-11.13,10.64s5,10.64,11.13,10.64S245,30.24,245,24.37S240.01,13.73,233.88,13.73z
						 M222.42,24.37c0-6.04,5.14-10.96,11.46-10.96c6.31,0,11.46,4.92,11.46,10.96s-5.14,10.97-11.46,10.97
						C227.56,35.34,222.42,30.41,222.42,24.37z"/>
					<path d="M245.33,24.37c0-6.04-5.14-10.96-11.46-10.96c-6.32,0-11.46,4.92-11.46,10.96s5.14,10.97,11.46,10.97
						C240.19,35.34,245.33,30.41,245.33,24.37z M222.25,24.37c0-6.14,5.22-11.14,11.63-11.14c6.41,0,11.62,5,11.62,11.14
						c0,6.14-5.21,11.14-11.62,11.14C227.47,35.51,222.25,30.51,222.25,24.37z"/>
					<path d="M222.09,24.37c0-6.23,5.29-11.29,11.79-11.29s11.78,5.06,11.78,11.29s-5.29,11.3-11.78,11.3S222.09,30.6,222.09,24.37z
						 M233.88,13.23c-6.41,0-11.63,5-11.63,11.14c0,6.14,5.22,11.14,11.63,11.14c6.41,0,11.62-5,11.62-11.14
						C245.5,18.23,240.29,13.23,233.88,13.23z"/>
					<path d="M233.88,35.84c-6.59,0-11.96-5.14-11.96-11.47c0-6.32,5.36-11.46,11.96-11.46c6.59,0,11.95,5.14,11.95,11.46
						C245.83,30.7,240.47,35.84,233.88,35.84z M233.88,13.08c-6.5,0-11.79,5.06-11.79,11.29s5.29,11.3,11.79,11.3
						s11.78-5.07,11.78-11.3S240.37,13.08,233.88,13.08z"/>
					<path d="M245.83,24.37c0-6.32-5.36-11.46-11.95-11.46c-6.59,0-11.96,5.14-11.96,11.46c0,6.33,5.36,11.47,11.96,11.47
						C240.47,35.84,245.83,30.7,245.83,24.37z M221.59,24.37c0-6.5,5.51-11.79,12.29-11.79c6.77,0,12.28,5.29,12.28,11.79
						s-5.51,11.8-12.28,11.8C227.1,36.17,221.59,30.87,221.59,24.37z"/>
					<path d="M230.68,9.08c6.61,0,9.41-1.56,9.41-2.18s-2.8-2.18-9.41-2.18c-6.61,0-9.41,1.56-9.41,2.18S224.07,9.08,230.68,9.08z
						 M220.94,6.9c0-1.19,4-2.51,9.74-2.51c5.74,0,9.75,1.32,9.75,2.51s-4,2.51-9.75,2.51C224.94,9.41,220.94,8.09,220.94,6.9z"/>
					<path d="M230.68,4.39c-5.74,0-9.74,1.32-9.74,2.51s4,2.51,9.74,2.51c5.74,0,9.75-1.32,9.75-2.51S236.42,4.39,230.68,4.39z
						 M220.77,6.9c0-1.29,3.79-2.68,9.91-2.68c6.12,0,9.91,1.39,9.91,2.68c0,1.29-3.79,2.68-9.91,2.68
						C224.56,9.58,220.77,8.19,220.77,6.9z"/>
					<path d="M230.68,4.22c-6.12,0-9.91,1.39-9.91,2.68c0,1.29,3.79,2.68,9.91,2.68c6.12,0,9.91-1.39,9.91-2.68
						C240.59,5.61,236.8,4.22,230.68,4.22z M230.68,9.75c-5.65,0-10.07-1.25-10.07-2.84c0-1.58,4.43-2.83,10.07-2.83
						c5.55,0,10.07,1.27,10.07,2.83C240.75,8.68,235.63,9.75,230.68,9.75z"/>
					<path d="M220.44,6.9c0-1.95,5.27-3.01,10.24-3.01c4.96,0,10.24,1.05,10.24,3.01s-5.28,3.01-10.24,3.01
						C225.72,9.91,220.44,8.85,220.44,6.9z M220.61,6.9c0,1.59,4.43,2.84,10.07,2.84c4.95,0,10.07-1.06,10.07-2.84
						c0-1.56-4.52-2.83-10.07-2.83C225.04,4.07,220.61,5.32,220.61,6.9z"/>
					<path d="M241.25,6.9c0,2.45-6.32,3.34-10.57,3.34c-3.85,0-9.4-0.73-10.41-2.69c-0.1-0.2-0.16-0.42-0.16-0.65
						c0-2.44,6.32-3.33,10.57-3.33c2.39,0,5.44,0.28,7.64,0.96C240.04,5.06,241.25,5.83,241.25,6.9z M230.68,3.9
						c-4.96,0-10.24,1.05-10.24,3.01s5.27,3.01,10.24,3.01c4.96,0,10.24-1.05,10.24-3.01S235.65,3.9,230.68,3.9z"/>
					<path d="M218.65,9.16c-0.11-0.31-0.22-0.61-0.35-0.89C218.43,8.55,218.55,8.85,218.65,9.16z"/>
					<path d="M218.65,9.16c1.5,4.56-0.58,12.01-1.13,13.8C217.79,22.1,220.19,13.98,218.65,9.16z"/>
					<path d="M217.43,23.16c0.03-0.03,0.05-0.08,0.07-0.12c0-0.01,0.01-0.03,0.03-0.07c-0.01,0.03-0.01,0.05-0.02,0.07
						c-0.01,0.03-0.03,0.08-0.05,0.1c-0.04,0.05-0.08,0.1-0.12,0.16C217.37,23.24,217.4,23.2,217.43,23.16z"/>
					<path d="M217.05,23.66c0.09-0.12,0.18-0.24,0.28-0.37C217.24,23.41,217.15,23.53,217.05,23.66z"/>
					<path d="M217.05,23.66c-0.12,0.15-0.24,0.3-0.35,0.45C216.81,23.96,216.93,23.81,217.05,23.66z"/>
					<path d="M216.54,24.3c-0.25,0.31-0.5,0.61-0.75,0.9C216.04,24.91,216.29,24.61,216.54,24.3z"/>
					<path d="M216.44,6.8c-0.43-0.29-0.92-0.49-1.47-0.6C215.52,6.31,216.01,6.5,216.44,6.8z"/>
					<path d="M214.96,6.2c-0.16-0.03-0.34-0.06-0.52-0.07C214.62,6.14,214.79,6.17,214.96,6.2z"/>
					<path d="M215.79,25.19c-0.69,0.81-1.38,1.55-2.04,2.19C214.42,26.73,215.09,26.01,215.79,25.19z"/>
					<path d="M213.25,5.31c-0.22,0.13-0.43,0.26-0.64,0.4c-0.28,0.04-0.56,0.1-0.85,0.16c0.24-0.16,0.47-0.31,0.71-0.47
						C212.74,5.36,213,5.32,213.25,5.31z"/>
					<path d="M212.72,6.2c-0.39,0.07-0.81,0.15-1.24,0.27c0,0,0.01-0.01,0.01-0.01C211.92,6.34,212.33,6.25,212.72,6.2z"/>
					<path d="M212.04,5.48c0.14-0.03,0.29-0.06,0.43-0.08c-0.24,0.16-0.48,0.31-0.71,0.47c-0.16,0.04-0.31,0.08-0.47,0.12
						C211.54,5.82,211.79,5.65,212.04,5.48z"/>
					<path d="M213.73,27.4c-0.83,0.81-1.64,1.49-2.42,2.04C212.09,28.89,212.9,28.21,213.73,27.4z"/>
					<path d="M212.24,5.95c-0.29,0.05-0.59,0.12-0.89,0.21c0.14-0.1,0.28-0.2,0.41-0.29c0.29-0.07,0.57-0.12,0.85-0.16
						C212.48,5.79,212.36,5.87,212.24,5.95z"/>
					<path d="M211.49,6.46C211.49,6.47,211.49,6.47,211.49,6.46c-0.02,0.01-0.04,0.01-0.06,0.01
						C211.45,6.47,211.47,6.46,211.49,6.46z"/>
					<path d="M211.31,29.45c-0.11,0.08-0.22,0.16-0.33,0.22C211.09,29.6,211.2,29.52,211.31,29.45z"/>
					<path d="M212.24,5.95c-0.12,0.07-0.24,0.15-0.35,0.24c-0.29,0.07-0.6,0.15-0.92,0.24c0.12-0.09,0.25-0.18,0.38-0.27
						C211.65,6.08,211.95,6.01,212.24,5.95z"/>
					<path d="M211.28,6C211.28,6,211.28,6,211.28,6c0.16-0.05,0.32-0.09,0.48-0.12c-0.14,0.09-0.27,0.19-0.41,0.29
						c-0.16,0.04-0.31,0.09-0.48,0.14C211.01,6.2,211.14,6.1,211.28,6z"/>
					<path d="M210.98,29.67c-0.03,0.03-0.07,0.05-0.09,0.06C210.92,29.71,210.95,29.69,210.98,29.67z"/>
					<path d="M211.63,5.58c0.14-0.04,0.28-0.07,0.41-0.1c-0.26,0.16-0.5,0.33-0.75,0.52c-0.01,0-0.01,0-0.01,0
						c-0.15,0.05-0.3,0.08-0.45,0.14C211.09,5.95,211.35,5.76,211.63,5.58C211.63,5.57,211.63,5.58,211.63,5.58z"/>
					<path d="M210.89,29.73c-0.08,0.06-0.16,0.11-0.24,0.16C210.73,29.83,210.8,29.78,210.89,29.73z"/>
					<path d="M210.87,6.3c-0.01,0.01-0.01,0.01-0.02,0.01C210.86,6.3,210.86,6.29,210.87,6.3z"/>
					<path d="M211.89,6.19c-0.13,0.08-0.26,0.18-0.39,0.27c-0.01,0-0.01,0.01-0.01,0.01c-0.02,0-0.04,0.01-0.06,0.01
						c-0.29,0.08-0.59,0.17-0.89,0.28c0.14-0.11,0.29-0.22,0.43-0.33C211.29,6.34,211.6,6.25,211.89,6.19z"/>
					<path d="M211.43,6.48c-0.29,0.08-0.58,0.18-0.89,0.28C210.84,6.65,211.14,6.56,211.43,6.48z"/>
					<path d="M210.32,6.3c0.27-0.21,0.54-0.4,0.81-0.59c0.17-0.05,0.33-0.1,0.5-0.13c-0.27,0.18-0.53,0.37-0.79,0.56
						C210.66,6.19,210.49,6.24,210.32,6.3z"/>
					<path d="M210.54,6.76C210.54,6.76,210.53,6.76,210.54,6.76L210.54,6.76L210.54,6.76z"/>
					<path d="M210.53,6.76L210.53,6.76c-0.01,0.01-0.01,0.01-0.01,0.01C210.52,6.77,210.52,6.76,210.53,6.76z"/>
					<path d="M210.53,6.77c-0.01,0-0.02,0.01-0.03,0.01c0-0.01,0.01-0.01,0.01-0.01C210.52,6.77,210.52,6.77,210.53,6.77z"/>
					<path d="M210.52,6.77c-0.01,0.01-0.01,0.01-0.01,0.01c-0.01,0.01-0.02,0.02-0.03,0.03c0.01-0.01,0.03-0.03,0.03-0.03
						C210.51,6.77,210.51,6.77,210.52,6.77z"/>
					<path d="M210.85,6.31c0.01,0,0.01,0,0.02-0.01c0.16-0.05,0.32-0.1,0.48-0.14c-0.12,0.09-0.26,0.18-0.38,0.27
						c-0.16,0.05-0.33,0.11-0.5,0.17h-0.01C210.59,6.5,210.72,6.4,210.85,6.31z"/>
					<path d="M210.38,6.65c0.01-0.01,0.03-0.02,0.04-0.03c-0.03,0.03-0.07,0.05-0.1,0.08C210.35,6.67,210.37,6.66,210.38,6.65z"/>
					<path d="M210.42,6.84c-0.01,0.02-0.03,0.03-0.05,0.04C210.39,6.86,210.4,6.85,210.42,6.84z"/>
					<path d="M210.83,6.14c0.15-0.05,0.3-0.09,0.45-0.14c-0.14,0.1-0.28,0.2-0.41,0.3c-0.01-0.01-0.01,0-0.02,0.01
						c-0.16,0.05-0.31,0.1-0.48,0.16C210.52,6.36,210.67,6.24,210.83,6.14z"/>
					<path d="M210.38,6.88c-0.01,0.02-0.03,0.03-0.05,0.05C210.35,6.91,210.37,6.9,210.38,6.88z"/>
					<path d="M210.37,6.47c-0.01,0.01-0.01,0.01-0.01,0.01C210.37,6.47,210.37,6.47,210.37,6.47z"/>
					<path d="M210.35,6.48L210.35,6.48c0,0.01,0,0.01-0.01,0.01C210.35,6.48,210.35,6.48,210.35,6.48z"/>
					<path d="M210.28,6.74c-0.01,0.01-0.02,0.02-0.03,0.03C210.26,6.75,210.27,6.74,210.28,6.74z"/>
					<path d="M210.23,7.02c-0.01,0.01-0.02,0.02-0.03,0.03C210.21,7.03,210.22,7.03,210.23,7.02z"/>
					<path d="M210.21,6.36c0.01-0.01,0.01-0.01,0.01-0.01c-0.02,0.02-0.05,0.04-0.06,0.05C210.19,6.38,210.21,6.37,210.21,6.36z"/>
					<path d="M210.23,6.35c-0.01,0.01,0.01-0.01,0.06-0.04c-0.06,0.04-0.11,0.08-0.17,0.14c0.01-0.01,0.03-0.03,0.03-0.04
						c0.01,0,0.01-0.01,0.01-0.01C210.18,6.39,210.21,6.37,210.23,6.35L210.23,6.35z"/>
					<path d="M210.16,6.41c-0.01,0.01-0.02,0.03-0.03,0.04h-0.01C210.13,6.43,210.14,6.42,210.16,6.41z"/>
					<path d="M210.16,7.09c-0.02,0.02-0.04,0.03-0.06,0.05C210.12,7.13,210.14,7.11,210.16,7.09z"/>
					<path d="M210.12,6.45L210.12,6.45L210.12,6.45z"/>
					<path d="M210.09,6.47c0.01,0,0.01-0.01,0.02-0.01C210.1,6.46,210.1,6.46,210.09,6.47z"/>
					<path d="M210.09,6.47L210.09,6.47C210.08,6.47,210.09,6.47,210.09,6.47z"/>
					<path d="M210.06,29.65c2.12-1.22,4.44-3.49,6.96-6.78c0.11-0.33,2.87-9.46,0.95-14.09c1.87,4.43-0.56,12.86-0.94,14.08
						C214.52,26.16,212.19,28.44,210.06,29.65z"/>
					<path d="M210.08,6.48c-0.01,0.01-0.01,0.01-0.02,0.02C210.06,6.49,210.07,6.48,210.08,6.48z"/>
					<path d="M210.06,29.65c-0.01,0.01-0.03,0.03-0.05,0.03C210.03,29.67,210.04,29.66,210.06,29.65z"/>
					<path d="M209.97,6.15c0.01-0.01,0.06-0.05,0.07-0.06c0,0,0,0,0.01,0C210.02,6.11,209.99,6.13,209.97,6.15z"/>
					<path d="M210.04,7.2c-0.05,0.06-0.11,0.11-0.17,0.16C209.93,7.3,209.99,7.24,210.04,7.2z"/>
					<path d="M209.98,30.27c-0.07,0.04-0.14,0.07-0.21,0.1C209.84,30.34,209.91,30.3,209.98,30.27z"/>
					<path d="M209.83,7.39c0,0.01-0.01,0.01-0.01,0.01C209.83,7.39,209.83,7.39,209.83,7.39z"/>
					<path d="M210.02,29.68c-0.27,0.16-0.54,0.3-0.81,0.42C209.47,29.98,209.74,29.84,210.02,29.68z"/>
					<path d="M209.7,7.52c-0.03,0.03-0.05,0.05-0.08,0.08C209.65,7.56,209.68,7.54,209.7,7.52z"/>
					<path d="M208.77,30.81c0.33-0.12,0.66-0.26,1-0.43C209.44,30.55,209.1,30.7,208.77,30.81z"/>
					<path d="M209.62,7.6c-0.02,0.02-0.04,0.05-0.07,0.07C209.58,7.64,209.61,7.61,209.62,7.6z"/>
					<path d="M209.28,7.94c0.1-0.11,0.19-0.2,0.28-0.28C209.47,7.75,209.38,7.85,209.28,7.94z"/>
					<path d="M209.28,7.94c-0.05,0.04-0.09,0.09-0.13,0.13C209.19,8.02,209.24,7.98,209.28,7.94z"/>
					<path d="M210.25,6.77c-0.45,0.33-0.88,0.69-1.3,1.05c0.65-0.66,1.15-1.11,1.37-1.3c0-0.01,0.01-0.01,0.01-0.01
						c0.01-0.01,0.02-0.01,0.03-0.02c0.01,0,0.01-0.01,0.01-0.01c0.01,0,0.01,0,0.01-0.01c0.16-0.06,0.32-0.11,0.48-0.16
						c-0.13,0.09-0.26,0.19-0.39,0.29c-0.01,0.01-0.02,0.01-0.03,0.02c-0.01,0.01-0.03,0.02-0.04,0.03
						c-0.01,0.01-0.03,0.03-0.06,0.05c-0.01,0.01-0.03,0.03-0.05,0.04C210.27,6.74,210.26,6.75,210.25,6.77z"/>
					<path d="M210.97,6.43c-0.14,0.1-0.29,0.22-0.43,0.33h-0.01c-0.01,0-0.01,0.01-0.01,0.01c-0.01,0.01-0.01,0.01-0.01,0.01
						c-0.01,0.01-0.02,0.02-0.03,0.03c-0.01,0.01-0.03,0.03-0.05,0.04c-0.02,0.01-0.03,0.02-0.05,0.04
						c-0.57,0.43-1.12,0.88-1.65,1.36c0.72-0.74,1.27-1.24,1.52-1.47c0.01-0.01,0.02-0.01,0.03-0.03c0.02-0.01,0.03-0.03,0.05-0.04
						c0.03-0.03,0.07-0.05,0.1-0.08c0.01-0.01,0.02-0.01,0.03-0.02h0.01C210.63,6.54,210.8,6.48,210.97,6.43z"/>
					<path d="M209.2,30.1c-0.2,0.1-0.41,0.18-0.61,0.25C208.79,30.28,209,30.2,209.2,30.1z"/>
					<path d="M210.31,6.52c-0.57,0.43-1.12,0.88-1.66,1.35c0.63-0.65,1.13-1.11,1.39-1.36c0.01,0,0.01,0,0.01-0.01
						c0.01-0.01,0.01-0.01,0.02-0.02l0.01-0.01l0.01-0.01c0.01-0.01,0.01-0.01,0.02-0.01l0.01-0.01h0.01
						c0.06-0.05,0.11-0.1,0.17-0.14c0.01,0,0.02-0.01,0.03-0.01c0.17-0.06,0.34-0.11,0.51-0.16c-0.16,0.1-0.31,0.22-0.46,0.33
						c-0.01,0-0.01,0-0.01,0.01h-0.01c0,0.01-0.01,0.01-0.01,0.01C210.34,6.5,210.33,6.5,210.31,6.52
						C210.32,6.51,210.31,6.51,210.31,6.52z"/>
					<path d="M208.42,8.08c0.76-0.78,1.34-1.32,1.62-1.57c-0.26,0.24-0.75,0.71-1.39,1.36c-0.01,0.01-0.01,0.01-0.03,0.03
						C208.56,7.95,208.49,8.02,208.42,8.08z"/>
					<path d="M208.22,9.04c0.33-0.37,0.64-0.69,0.92-0.96C208.87,8.36,208.56,8.68,208.22,9.04z"/>
					<path d="M207.66,9.67c0.19-0.22,0.38-0.43,0.56-0.63C208.05,9.23,207.86,9.44,207.66,9.67z"/>
					<path d="M210.68,7.06c-1.15,0.86-2.23,1.82-3.23,2.85c0.03-0.03,0.04-0.05,0.07-0.08c0.05-0.05,0.09-0.1,0.14-0.16
						c0.2-0.22,0.39-0.43,0.56-0.63c0.33-0.36,0.64-0.68,0.92-0.96c0.05-0.05,0.09-0.09,0.13-0.13c0.1-0.1,0.19-0.2,0.28-0.28
						c0.03-0.02,0.05-0.05,0.07-0.07c0.03-0.03,0.05-0.05,0.08-0.08c0.04-0.03,0.08-0.07,0.12-0.11c0.01-0.01,0.01-0.01,0.01-0.01
						c0.01-0.01,0.02-0.02,0.03-0.03c0.06-0.05,0.12-0.1,0.17-0.16c0.02-0.01,0.04-0.03,0.06-0.05s0.04-0.03,0.06-0.05
						c0.02-0.01,0.03-0.03,0.05-0.05c0.01-0.01,0.02-0.01,0.03-0.03c0.03-0.03,0.07-0.06,0.1-0.09c0.02-0.01,0.03-0.03,0.05-0.05
						c0.02-0.01,0.03-0.02,0.05-0.04c0.01-0.01,0.03-0.03,0.05-0.04c0.01-0.01,0.02-0.02,0.03-0.03c0.01-0.01,0.02-0.01,0.03-0.01
						c0-0.01,0.01-0.01,0.01-0.01c0.31-0.1,0.6-0.2,0.89-0.28c0.02,0,0.04-0.01,0.05-0.01C211.21,6.66,210.94,6.86,210.68,7.06z"/>
					<path d="M207.52,9.82c0.04-0.05,0.08-0.1,0.14-0.16C207.61,9.72,207.57,9.77,207.52,9.82z"/>
					<path d="M207.52,9.82c-0.03,0.03-0.05,0.06-0.07,0.08c-0.02,0.02-0.04,0.04-0.06,0.06C207.43,9.92,207.48,9.87,207.52,9.82z"/>
					<path d="M208.94,7.82c0.43-0.37,0.86-0.72,1.3-1.05c-0.25,0.23-0.8,0.73-1.52,1.47c-0.01,0.01-0.01,0.01-0.03,0.03
						c-0.48,0.43-0.96,0.87-1.41,1.34C207.9,8.9,208.47,8.3,208.94,7.82z"/>
					<path d="M207.29,9.6c-0.01,0.01-0.02,0.02-0.03,0.03C207.27,9.63,207.28,9.61,207.29,9.6z"/>
					<path d="M208.66,7.87c0.54-0.47,1.09-0.92,1.66-1.35c-0.22,0.2-0.71,0.64-1.37,1.3c-0.63,0.54-1.23,1.11-1.81,1.7
						c0.55-0.64,1.06-1.18,1.5-1.63C208.64,7.88,208.65,7.87,208.66,7.87z"/>
					<path d="M207.45,9.91c-0.24,0.28-0.49,0.57-0.74,0.88c0.23-0.29,0.46-0.56,0.68-0.82C207.41,9.95,207.43,9.93,207.45,9.91z"/>
					<path d="M206.83,9.82c0.57-0.67,1.11-1.26,1.58-1.75c0.07-0.06,0.14-0.12,0.21-0.18c-0.44,0.45-0.95,1-1.5,1.63
						c-0.02,0.02-0.04,0.05-0.07,0.07C206.99,9.67,206.91,9.75,206.83,9.82z"/>
					<path d="M210.17,6.01c0.33-0.12,0.65-0.22,0.96-0.3c-0.27,0.19-0.54,0.38-0.81,0.59c-0.01,0.01-0.02,0.01-0.03,0.01
						c-0.05,0.03-0.07,0.05-0.06,0.04h-0.01c-0.01,0-0.01,0-0.01,0.01c-0.01,0.01-0.03,0.02-0.05,0.05c-0.01,0-0.01,0.01-0.01,0.01
						c-0.01,0.01-0.03,0.02-0.04,0.04l-0.01,0.01c-0.01,0.01-0.01,0.01-0.02,0.01c0,0-0.01,0-0.01,0.01l-0.01,0.01
						c-0.01,0-0.01,0.01-0.02,0.02c0,0.01-0.01,0.01-0.01,0.01c-1.2,0.91-2.32,1.92-3.37,3.01c1.39-1.6,2.59-2.74,3.18-3.27
						c0.04-0.03,0.08-0.07,0.12-0.1c0.02-0.02,0.04-0.04,0.08-0.06c0.02-0.01,0.07-0.05,0.09-0.07
						C210.16,6.02,210.16,6.01,210.17,6.01z"/>
					<path d="M206.69,10.81c0-0.01,0.01-0.01,0.02-0.02C206.7,10.79,206.7,10.8,206.69,10.81z"/>
					<path d="M206.69,10.81c-0.13,0.16-0.26,0.33-0.4,0.5C206.42,11.13,206.55,10.97,206.69,10.81z"/>
					<path d="M206.58,30.73c-0.14,0-0.28-0.01-0.41-0.02C206.31,30.72,206.44,30.73,206.58,30.73z"/>
					<path d="M214.86,52.3c1.56,0.58,3.2,0.87,4.84,0.87c4.39,0,8-2.17,9.21-5.51c0.83-2.27,0.49-4.82-0.96-7.2
						c-1.47-2.4-3.9-4.32-6.84-5.39c-1.59-0.58-3.22-0.87-4.84-0.87c-4.38,0-7.99,2.17-9.2,5.53c-0.71,1.94-0.57,4.08,0.4,6.16
						C208.81,48.75,211.5,51.08,214.86,52.3z M216.28,33.87c1.67,0,3.34,0.3,4.96,0.9c2.07,0.75,3.88,1.91,5.31,3.37
						c0.65,0.66,1.21,1.39,1.68,2.16c0.66,1.06,1.09,2.16,1.3,3.26c0.03,0.12,0.05,0.24,0.07,0.35c0.06,0.41,0.09,0.81,0.09,1.21
						c0,0.91-0.16,1.8-0.47,2.66c-1.26,3.48-5,5.74-9.52,5.74c-1.63,0-3.3-0.3-4.96-0.9c-6.18-2.26-9.77-8.09-7.98-13.01
						C208.02,36.13,211.76,33.87,216.28,33.87z"/>
					<path d="M214.74,52.62c1.66,0.6,3.33,0.9,4.96,0.9c4.52,0,8.26-2.25,9.52-5.74c0.31-0.86,0.47-1.75,0.47-2.66
						c0-0.4-0.03-0.81-0.09-1.21c-0.02-0.11-0.04-0.23-0.07-0.35c-0.2-1.1-0.64-2.2-1.28-3.26c-0.48-0.78-1.05-1.51-1.7-2.16
						c-1.43-1.46-3.24-2.62-5.31-3.37c-1.62-0.6-3.29-0.9-4.96-0.9c-4.52,0-8.26,2.25-9.52,5.74
						C204.97,44.52,208.56,50.36,214.74,52.62z M221.29,34.6c3.05,1.11,5.56,3.1,7.1,5.6c1.53,2.52,1.88,5.22,1,7.63
						c-1.28,3.55-5.09,5.84-9.69,5.84c-1.7,0-3.39-0.3-5.01-0.9c-3.48-1.27-6.28-3.7-7.66-6.67c-1.03-2.21-1.17-4.48-0.42-6.55
						c1.29-3.56,5.08-5.85,9.67-5.85C217.96,33.7,219.64,34,221.29,34.6z"/>
					<path d="M206.29,11.3C206.29,11.31,206.29,11.31,206.29,11.3C206.29,11.3,206.29,11.3,206.29,11.3z"/>
					<path d="M206.29,11.31c-0.13,0.17-0.26,0.34-0.4,0.51C206.02,11.64,206.15,11.47,206.29,11.31z"/>
					<path d="M205.77,31.16c0.26,0.05,0.52,0.07,0.81,0.07C206.3,31.23,206.03,31.21,205.77,31.16z"/>
					<path d="M206.09,30.7c-0.07-0.01-0.12-0.01-0.18-0.03C205.97,30.69,206.04,30.7,206.09,30.7z"/>
					<path d="M214.64,52.92c-6.36-2.31-10.03-8.33-8.18-13.41c1.31-3.62,5.17-5.96,9.82-5.96c1.71,0,3.41,0.31,5.07,0.91
						c3.06,1.12,5.61,3.12,7.17,5.65c1.55,2.55,1.91,5.3,1,7.76c-1.31,3.62-5.17,5.96-9.82,5.96
						C218,53.83,216.29,53.53,214.64,52.92z M228.39,40.2c-1.54-2.5-4.05-4.49-7.1-5.6c-1.65-0.6-3.33-0.9-5.01-0.9
						c-4.59,0-8.38,2.3-9.67,5.85c-0.75,2.07-0.61,4.34,0.42,6.55c1.38,2.97,4.18,5.4,7.66,6.67c1.62,0.6,3.31,0.9,5.01,0.9
						c4.6,0,8.4-2.29,9.69-5.84C230.27,45.42,229.92,42.71,228.39,40.2z"/>
					<path d="M214.64,52.92c1.66,0.6,3.36,0.91,5.06,0.91c4.66,0,8.51-2.34,9.82-5.96c0.91-2.46,0.55-5.21-1-7.76
						c-1.56-2.53-4.11-4.53-7.17-5.65c-1.66-0.6-3.36-0.91-5.07-0.91c-4.66,0-8.51,2.34-9.82,5.96
						C204.61,44.59,208.28,50.61,214.64,52.92z M206.29,39.44c1.34-3.69,5.26-6.06,9.99-6.06c1.74,0,3.46,0.31,5.13,0.92
						c0.2,0.07,0.39,0.14,0.58,0.22c0.57,0.23,1.11,0.49,1.64,0.78c0,0,0,0.01,0.01,0.01c0.01,0.01,0.02,0.01,0.03,0.02
						c0.16,0.09,0.32,0.18,0.48,0.27c0.39,0.24,0.76,0.49,1.12,0.76c0.12,0.09,0.23,0.17,0.34,0.26c0.05,0.04,0.09,0.07,0.13,0.1
						c0.11,0.09,0.22,0.18,0.32,0.27c0.06,0.05,0.11,0.1,0.16,0.14c0.24,0.22,0.47,0.43,0.69,0.65c0.14,0.14,0.27,0.28,0.4,0.42
						c0.07,0.09,0.15,0.18,0.23,0.27c0.41,0.49,0.79,1.02,1.13,1.56c1.51,2.46,1.92,5.13,1.15,7.57c-0.04,0.11-0.08,0.23-0.12,0.34
						c-1.34,3.69-5.27,6.06-9.99,6.06c-1.69,0-3.41-0.31-5.13-0.92C208.12,50.74,204.41,44.61,206.29,39.44z"/>
					<path d="M205.87,11.85c-0.09,0.12-0.18,0.24-0.28,0.37C205.68,12.1,205.77,11.97,205.87,11.85z"/>
					<path d="M205.51,30.6c0.11,0.03,0.22,0.05,0.33,0.07C205.73,30.66,205.62,30.63,205.51,30.6z"/>
					<path d="M214.57,53.09c1.72,0.62,3.44,0.92,5.13,0.92c4.73,0,8.65-2.38,9.99-6.06c0.04-0.11,0.08-0.23,0.12-0.34
						c0.77-2.43,0.37-5.1-1.13-7.57c-0.33-0.54-0.71-1.07-1.14-1.56c-0.08-0.09-0.16-0.18-0.23-0.27c-0.13-0.14-0.26-0.29-0.4-0.42
						c-0.22-0.22-0.45-0.44-0.69-0.65c-0.05-0.05-0.11-0.1-0.16-0.14c-0.11-0.09-0.21-0.18-0.32-0.27c-0.04-0.04-0.08-0.07-0.13-0.1
						c-0.11-0.09-0.22-0.18-0.34-0.26c-0.36-0.27-0.73-0.52-1.12-0.76c-0.16-0.09-0.31-0.18-0.48-0.27
						c-0.01-0.01-0.02-0.01-0.03-0.02c-0.01,0-0.01-0.01-0.01-0.01c-0.52-0.29-1.07-0.55-1.64-0.78c-0.19-0.08-0.38-0.15-0.58-0.22
						c-1.67-0.62-3.39-0.92-5.13-0.92c-4.74,0-8.66,2.38-9.99,6.06C204.41,44.61,208.12,50.74,214.57,53.09z M216.28,33.05
						c1.77,0,3.53,0.31,5.24,0.94c3.17,1.16,5.81,3.24,7.43,5.86c1.63,2.69,2,5.59,1.04,8.19c-1.39,3.82-5.43,6.29-10.29,6.29
						c-1.76,0-3.52-0.31-5.23-0.94c-6.61-2.41-10.42-8.72-8.48-14.05C207.37,35.52,211.41,33.05,216.28,33.05z"/>
					<path d="M205.44,12.42c-0.13,0.18-0.27,0.37-0.4,0.56C205.17,12.79,205.3,12.61,205.44,12.42z"/>
					<path d="M205.01,30.98c0.12,0.04,0.24,0.08,0.37,0.1C205.26,31.06,205.13,31.02,205.01,30.98z"/>
					<path d="M204.53,30.24c0.2,0.1,0.41,0.18,0.63,0.26C204.94,30.43,204.73,30.35,204.53,30.24z"/>
					<path d="M205.01,13.02c-0.14,0.2-0.29,0.41-0.43,0.62C204.73,13.43,204.86,13.22,205.01,13.02z"/>
					<path d="M208.94,7.82c-0.48,0.48-1.04,1.08-1.65,1.78c-0.01,0.01-0.03,0.03-0.03,0.03c-0.03,0.03-0.05,0.05-0.07,0.08
						c-0.92,0.93-1.77,1.92-2.55,2.97c0.83-1.17,1.66-2.21,2.42-3.08c0.03-0.03,0.05-0.05,0.07-0.07
						C207.71,8.93,208.32,8.36,208.94,7.82z"/>
					<path d="M204.59,13.64c-0.13,0.19-0.26,0.39-0.39,0.59C204.33,14.03,204.45,13.83,204.59,13.64z"/>
					<path d="M204.37,13.64c1.53-2.31,3.16-4.15,4.33-5.37c0.01-0.01,0.02-0.02,0.03-0.03c0.53-0.47,1.08-0.93,1.65-1.36
						c-0.01,0.01-0.03,0.03-0.05,0.05c-0.03,0.03-0.07,0.06-0.1,0.09c-0.01,0.01-0.02,0.01-0.03,0.03
						c-0.01,0.02-0.03,0.03-0.05,0.05s-0.04,0.03-0.06,0.05s-0.04,0.04-0.06,0.05c-0.05,0.05-0.11,0.1-0.17,0.16
						c-0.01,0.01-0.02,0.03-0.03,0.03c0,0-0.01,0-0.01,0.01c-0.04,0.04-0.08,0.08-0.12,0.11c-0.03,0.02-0.05,0.05-0.08,0.08
						c-0.02,0.01-0.05,0.04-0.07,0.07c-0.09,0.08-0.18,0.17-0.28,0.28c-0.04,0.03-0.09,0.08-0.13,0.13
						c-0.28,0.27-0.59,0.6-0.92,0.96c-0.18,0.2-0.37,0.41-0.56,0.63c-0.05,0.05-0.1,0.1-0.14,0.16c-0.05,0.05-0.09,0.1-0.13,0.14
						C206.29,11.11,205.27,12.33,204.37,13.64z"/>
					<path d="M204.17,14.28c-0.14,0.22-0.28,0.44-0.41,0.66C203.89,14.72,204.03,14.5,204.17,14.28z"/>
					<path d="M203.63,14.14c1.01-1.6,2.09-3.02,3.08-4.18c0.04-0.05,0.08-0.09,0.12-0.14c0.08-0.08,0.15-0.16,0.23-0.23
						c-0.76,0.88-1.59,1.92-2.42,3.08c-0.03,0.03-0.05,0.07-0.07,0.1C204.25,13.22,203.93,13.67,203.63,14.14z"/>
					<path d="M206.67,9.52c1.05-1.09,2.17-2.1,3.37-3.01c-0.28,0.25-0.86,0.79-1.62,1.57c-1.79,1.61-3.39,3.43-4.75,5.43
						c0.98-1.51,2.02-2.84,2.97-3.95C206.65,9.54,206.67,9.53,206.67,9.52z"/>
					<path d="M203.6,13.6c0.02-0.03,0.04-0.07,0.07-0.09C203.65,13.54,203.62,13.56,203.6,13.6z"/>
					<path d="M203.76,14.95c-0.27,0.45-0.54,0.92-0.79,1.39C203.21,15.86,203.48,15.4,203.76,14.95z"/>
					<path d="M202.96,16.33c-0.12,0.22-0.23,0.43-0.34,0.66C202.73,16.77,202.84,16.55,202.96,16.33z"/>
					<path d="M202.62,16.99c-0.01,0.03-0.02,0.05-0.03,0.07C202.6,17.03,202.6,17.01,202.62,16.99z"/>
					<path d="M202.59,17.05c-0.24,0.49-0.47,1-0.69,1.5C202.11,18.04,202.34,17.55,202.59,17.05z"/>
					<path d="M205.01,30.98c-1.98-0.63-3.3-2.4-4.11-3.95C201.75,28.59,203.07,30.34,205.01,30.98z"/>
					<path d="M208.7,8.27c-1.18,1.22-2.81,3.06-4.33,5.37c-0.05,0.06-0.08,0.12-0.12,0.18c-1.47,2.15-2.67,4.49-3.52,7
						c1.4-4.59,4.22-8.51,6.48-11.11c0.02-0.03,0.04-0.05,0.07-0.08c0.01-0.01,0.02-0.03,0.03-0.03
						C207.75,9.14,208.22,8.69,208.7,8.27z"/>
					<path d="M204.53,30.24c-1.98-0.97-3.17-3.22-3.75-4.67C201.41,27.09,202.6,29.28,204.53,30.24z"/>
					<path d="M208.42,8.08c-0.48,0.49-1.01,1.07-1.58,1.75c-0.05,0.05-0.08,0.09-0.12,0.14c-2.88,3.05-5.12,6.72-6.49,10.77
						c0.79-2.64,2.02-5.06,3.37-7.13c0-0.01,0-0.01,0.01-0.01c0.02-0.03,0.05-0.06,0.07-0.09C205.03,11.51,206.62,9.69,208.42,8.08z
						"/>
					<path d="M200.69,25.35c0.02,0.05,0.04,0.1,0.06,0.16C200.72,25.44,200.71,25.39,200.69,25.35z"/>
					<path d="M200.61,25.12c0.03,0.07,0.05,0.14,0.08,0.22C200.66,25.26,200.63,25.19,200.61,25.12z"/>
					<path d="M200.51,26.21c0.12,0.26,0.25,0.54,0.4,0.82C200.75,26.75,200.62,26.47,200.51,26.21z"/>
					<path d="M200.43,26.03c0.03,0.06,0.05,0.12,0.08,0.18C200.48,26.15,200.46,26.09,200.43,26.03z"/>
					<path d="M202.13,27.5c3.27,5.11,8.34,3.4,14.6-4.79c0.58-1.97,3.05-11.17,0.37-14.81c-1.19-1.61-3.39-1.89-6.43-0.84
						c0.26-0.2,0.53-0.4,0.8-0.59c0.01,0,0.01,0,0.01-0.01c0.43-0.12,0.84-0.2,1.24-0.27c0.62-0.09,1.19-0.11,1.72-0.07
						c0.18,0.01,0.36,0.04,0.52,0.07c0.56,0.11,1.05,0.31,1.47,0.6c0.36,0.23,0.67,0.53,0.94,0.9c0.24,0.32,0.44,0.69,0.6,1.08
						c1.92,4.63-0.84,13.76-0.95,14.09c-2.52,3.29-4.85,5.56-6.96,6.78c-0.02,0.01-0.03,0.02-0.05,0.03
						c-0.27,0.16-0.54,0.29-0.81,0.42c-0.01,0-0.01,0-0.01,0c-0.2,0.1-0.41,0.18-0.61,0.25c-0.69,0.26-1.37,0.38-2.01,0.38
						c-0.14,0-0.27-0.01-0.41-0.02c-0.03,0-0.05,0-0.08-0.01c-0.06-0.01-0.12-0.01-0.18-0.03c-0.03,0-0.04,0-0.07-0.01
						c-0.11-0.02-0.22-0.04-0.33-0.07c-0.12-0.02-0.24-0.05-0.35-0.09c-0.22-0.08-0.43-0.16-0.63-0.26
						c-1.92-0.96-3.12-3.16-3.75-4.67c-0.01-0.03-0.03-0.05-0.03-0.07c-0.02-0.06-0.04-0.11-0.06-0.16
						c-0.03-0.08-0.06-0.15-0.08-0.22c-0.03-0.09-0.07-0.18-0.09-0.25c-0.1-0.31-0.16-0.52-0.18-0.6c0.24-2,0.81-3.93,1.56-5.72
						c0.22-0.5,0.45-1.01,0.69-1.5c0.01-0.02,0.02-0.04,0.03-0.07c0.11-0.22,0.22-0.44,0.34-0.66c0.25-0.47,0.52-0.94,0.79-1.39
						c0.14-0.22,0.28-0.45,0.41-0.66c0.01-0.02,0.02-0.04,0.03-0.05c0.13-0.2,0.26-0.4,0.39-0.59c0.14-0.21,0.28-0.42,0.43-0.62
						c0.01-0.01,0.02-0.03,0.03-0.04c0.13-0.19,0.27-0.37,0.4-0.56c0.05-0.07,0.1-0.13,0.15-0.2c0.09-0.12,0.18-0.25,0.28-0.37
						c0.01-0.01,0.02-0.03,0.02-0.03c0.14-0.17,0.27-0.34,0.4-0.51c0,0,0.01,0,0.01-0.01c0.14-0.17,0.27-0.33,0.4-0.5
						c0.01-0.01,0.01-0.01,0.02-0.02c0.25-0.31,0.5-0.6,0.74-0.88c1-1.03,2.08-1.98,3.23-2.85c-0.7,0.61-8.87,7.92-10.03,17.19
						C200.8,24.75,201.3,26.18,202.13,27.5z"/>
					<path d="M200.51,24.87c-0.09-0.25-0.16-0.45-0.2-0.6c0.24-2.01,0.82-3.93,1.58-5.72c-0.75,1.79-1.33,3.72-1.56,5.72
						C200.35,24.36,200.41,24.57,200.51,24.87z"/>
					<path d="M200.31,25.76c-0.01-0.03-0.01-0.05-0.03-0.07C200.29,25.71,200.31,25.73,200.31,25.76z"/>
					<path d="M217.16,22.97c-4.01,5.26-7.58,7.92-10.58,7.92c-1.9,0-3.54-1.05-4.87-3.13c-1.08-1.7-1.55-3.42-1.56-3.44
						c-0.01-0.03-0.01-0.07-0.01-0.1c0.48-3.94,2.2-7.53,4.09-10.41c0.04-0.07,0.08-0.12,0.12-0.18c0.9-1.3,1.92-2.53,3.03-3.67
						c-0.22,0.26-0.45,0.53-0.68,0.82c-0.01,0.01-0.02,0.01-0.02,0.02c-0.14,0.16-0.27,0.33-0.4,0.5c-0.01,0-0.01,0-0.01,0.01
						c-0.13,0.16-0.27,0.33-0.4,0.51c0,0.01-0.01,0.02-0.02,0.03c-0.1,0.12-0.19,0.24-0.28,0.37c-0.05,0.07-0.1,0.14-0.15,0.2
						c-0.14,0.18-0.27,0.37-0.4,0.56c-0.01,0.01-0.02,0.03-0.03,0.04c-0.15,0.2-0.29,0.41-0.43,0.62c-0.14,0.19-0.26,0.39-0.39,0.59
						c-0.01,0.01-0.02,0.03-0.03,0.05c-0.14,0.22-0.28,0.44-0.41,0.66c-0.28,0.45-0.54,0.91-0.79,1.39
						c-0.12,0.22-0.24,0.43-0.34,0.66c-0.02,0.03-0.03,0.05-0.03,0.07c-0.25,0.49-0.48,0.99-0.69,1.5
						c-0.77,1.79-1.34,3.71-1.58,5.72c0.05,0.15,0.11,0.35,0.2,0.6c0.03,0.07,0.06,0.16,0.09,0.25c0.02,0.07,0.05,0.14,0.08,0.22
						c0.01,0.05,0.03,0.1,0.06,0.16c0.01,0.02,0.02,0.05,0.03,0.07c0.58,1.45,1.76,3.7,3.75,4.67c0.2,0.1,0.41,0.19,0.63,0.26
						c0.11,0.04,0.23,0.07,0.35,0.09c0.11,0.03,0.22,0.06,0.33,0.07c0.02,0.01,0.04,0.01,0.07,0.01c0.06,0.01,0.12,0.02,0.18,0.03
						c0.03,0.01,0.05,0.01,0.08,0.01c0.13,0.01,0.27,0.02,0.41,0.02c0.64,0,1.32-0.12,2.01-0.38c0.2-0.07,0.41-0.15,0.61-0.25
						c0,0,0,0,0.01,0c0.27-0.12,0.54-0.26,0.81-0.42c0.01,0,0.03-0.01,0.05-0.03c2.12-1.22,4.45-3.49,6.98-6.79
						c0.37-1.22,2.81-9.65,0.94-14.08c-0.16-0.39-0.37-0.76-0.6-1.08c-0.27-0.37-0.58-0.67-0.94-0.9c-0.43-0.3-0.92-0.5-1.47-0.6
						c-0.17-0.03-0.34-0.06-0.52-0.07c-0.52-0.05-1.1-0.03-1.72,0.07c-0.39,0.06-0.8,0.14-1.22,0.26c0.13-0.09,0.26-0.18,0.39-0.27
						c2.58-0.6,4.49-0.12,5.62,1.41c2.76,3.77,0.47,12.63-0.3,15.26C217.21,22.89,217.18,22.95,217.16,22.97z"/>
					<path d="M206.58,30.9c3.01,0,6.57-2.67,10.58-7.92c0.02-0.03,0.05-0.08,0.05-0.12c0.77-2.63,3.07-11.49,0.3-15.26
						c-1.13-1.53-3.04-2.01-5.62-1.41c0.11-0.09,0.23-0.16,0.35-0.24c2.44-0.48,4.29,0.04,5.41,1.57
						c3.14,4.29-0.17,15.02-0.32,15.51c-4.07,5.32-7.68,8.02-10.75,8.02c-1.96,0-3.72-1.16-5.08-3.34
						c-0.97-1.55-1.45-3.16-1.51-3.43c0.14-1.16,0.38-2.29,0.71-3.38c0.01-0.03,0.02-0.05,0.03-0.08c0.86-2.51,2.05-4.85,3.52-7
						c-1.89,2.89-3.62,6.48-4.09,10.41c0,0.03,0,0.07,0.01,0.1c0.01,0.02,0.48,1.74,1.56,3.44C203.04,29.84,204.68,30.9,206.58,30.9
						z"/>
					<path d="M206.58,31.05c3.06,0,6.68-2.7,10.75-8.02c0.15-0.48,3.46-11.22,0.32-15.51c-1.12-1.53-2.97-2.05-5.41-1.57
						c0.12-0.08,0.24-0.16,0.37-0.24c2.35-0.38,4.09,0.21,5.17,1.7c0.2,0.27,0.37,0.56,0.52,0.86c0.13,0.28,0.25,0.58,0.35,0.89
						c1.54,4.81-0.87,12.94-1.13,13.8c-0.02,0.04-0.03,0.07-0.03,0.07c-0.02,0.05-0.04,0.1-0.07,0.12c-0.03,0.05-0.07,0.08-0.1,0.13
						c-0.1,0.12-0.19,0.24-0.28,0.37c-0.12,0.15-0.24,0.3-0.35,0.45c-0.06,0.07-0.11,0.12-0.16,0.19c-0.25,0.31-0.5,0.61-0.75,0.9
						c-0.7,0.81-1.38,1.54-2.04,2.19c-0.01,0-0.01,0.01-0.02,0.01c-0.83,0.81-1.64,1.49-2.42,2.04c-0.11,0.07-0.22,0.15-0.33,0.22
						c-0.03,0.02-0.07,0.04-0.09,0.06c-0.08,0.05-0.16,0.1-0.24,0.16c-0.23,0.14-0.45,0.27-0.67,0.39c-0.07,0.03-0.14,0.07-0.21,0.1
						c-0.33,0.17-0.67,0.31-1,0.43c-0.76,0.28-1.49,0.42-2.19,0.42h-0.01c-0.28,0-0.55-0.02-0.81-0.07
						c-0.13-0.02-0.26-0.05-0.39-0.08c-0.12-0.03-0.25-0.07-0.37-0.1c-1.95-0.64-3.27-2.39-4.11-3.95c-0.14-0.28-0.28-0.56-0.4-0.82
						c-0.03-0.06-0.05-0.12-0.08-0.18c-0.04-0.09-0.08-0.18-0.12-0.27c-0.01-0.03-0.02-0.05-0.03-0.07
						c-0.07-0.17-0.12-0.33-0.18-0.47c-0.09-0.24-0.15-0.44-0.2-0.58c-0.03-0.1-0.05-0.17-0.06-0.22c-0.01-0.03-0.03-0.05-0.03-0.07
						c0-0.01-0.01-0.02-0.01-0.03c-0.01-0.05,0-0.11,0.03-0.16c0.03-0.19,0.05-0.38,0.08-0.57c0.21-0.92,0.47-1.82,0.77-2.7
						c-0.33,1.09-0.57,2.22-0.71,3.38c0.06,0.28,0.54,1.89,1.51,3.43C202.86,29.89,204.62,31.05,206.58,31.05z"/>
					<path d="M207.2,9.71c-2.25,2.59-5.08,6.52-6.48,11.11c-0.01,0.03-0.02,0.05-0.03,0.08c-0.29,0.88-0.56,1.78-0.77,2.7
						c0.63-4.13,2.6-7.88,4.66-10.82c0.02-0.03,0.04-0.07,0.07-0.1C205.43,11.63,206.28,10.64,207.2,9.71z"/>
					<path d="M204.58,12.78c-2.06,2.94-4.03,6.69-4.66,10.82c-0.03,0.09-0.05,0.18-0.06,0.27c0.49-3.58,1.96-6.84,3.66-9.56
						c0.03-0.06,0.07-0.11,0.11-0.17C203.93,13.67,204.25,13.22,204.58,12.78z"/>
					<path d="M199.91,24.65c0.05,0.14,0.11,0.34,0.2,0.58C200.02,25,199.96,24.81,199.91,24.65z"/>
					<path d="M199.82,24.36c0.01,0.03,0.02,0.05,0.03,0.07c0.01,0.05,0.03,0.12,0.06,0.22c-0.04-0.1-0.07-0.18-0.08-0.25
						C199.82,24.39,199.82,24.38,199.82,24.36z"/>
					<path d="M199.84,24.17c-0.03,0.05-0.03,0.11-0.03,0.16c-0.01-0.03-0.01-0.05-0.01-0.07c0.01-0.14,0.03-0.27,0.06-0.4
						c0.01-0.08,0.03-0.18,0.06-0.27C199.89,23.79,199.87,23.98,199.84,24.17z"/>
					<path d="M217.78,7.41c-1.09-1.49-2.82-2.08-5.17-1.7c0.21-0.14,0.42-0.27,0.64-0.4c2.12-0.18,3.75,0.47,4.81,1.91
						c0.14,0.18,0.26,0.38,0.37,0.58c2.61,4.69-0.26,14.23-0.62,15.35c-0.01,0.05-0.03,0.09-0.05,0.12
						c-0.01,0.01-0.03,0.05-0.04,0.06c-4.16,5.46-7.91,8.22-11.14,8.22c-2.15,0-4.05-1.24-5.5-3.58c-0.75-1.19-1.22-2.39-1.43-3.05
						c0.07-0.35,0.13-0.71,0.22-1.05c-0.03,0.13-0.05,0.26-0.06,0.4c0,0.02,0,0.04,0.01,0.07c0,0.01,0.01,0.02,0.01,0.03
						c0,0.02,0,0.03,0.01,0.04c0.02,0.07,0.05,0.15,0.08,0.25c0.05,0.16,0.11,0.35,0.2,0.58c0.05,0.14,0.11,0.29,0.18,0.47
						c0.01,0.02,0.02,0.04,0.03,0.07c0.04,0.09,0.08,0.18,0.12,0.27c0.03,0.06,0.05,0.12,0.08,0.18c0.11,0.26,0.24,0.54,0.4,0.82
						c0.81,1.55,2.13,3.32,4.11,3.95c0.12,0.05,0.24,0.08,0.37,0.1c0.12,0.03,0.26,0.06,0.39,0.08c0.26,0.05,0.53,0.07,0.81,0.07
						h0.01c0.71,0,1.43-0.14,2.19-0.42c0.33-0.11,0.66-0.26,1-0.43c0.07-0.03,0.14-0.07,0.21-0.1c0.22-0.12,0.44-0.25,0.67-0.39
						c0.08-0.05,0.16-0.1,0.24-0.16c0.03-0.01,0.06-0.03,0.09-0.06c0.11-0.07,0.22-0.14,0.33-0.22c0.79-0.55,1.6-1.23,2.42-2.04
						c0.01-0.01,0.01-0.01,0.02-0.01c0.67-0.65,1.36-1.38,2.04-2.19c0.25-0.29,0.5-0.59,0.75-0.9c0.05-0.07,0.1-0.12,0.16-0.19
						c0.12-0.15,0.24-0.3,0.35-0.45c0.1-0.12,0.19-0.24,0.28-0.37c0.05-0.05,0.08-0.1,0.12-0.16c0.02-0.02,0.04-0.07,0.05-0.1
						c0.01-0.02,0.01-0.05,0.02-0.07c0.55-1.79,2.63-9.23,1.13-13.8c-0.1-0.31-0.22-0.61-0.35-0.89
						C218.15,7.96,217.98,7.68,217.78,7.41z"/>
					<path d="M203.63,14.14c-0.04,0.06-0.08,0.11-0.11,0.17c-1.83,2.84-3.19,6-3.96,9.39c0.14-0.96,0.35-1.9,0.61-2.82
						c0.01-0.05,0.03-0.09,0.05-0.14c1.38-4.05,3.61-7.72,6.49-10.77C205.72,11.12,204.64,12.54,203.63,14.14z"/>
					<path d="M199.64,24.92c-0.09-0.27-0.14-0.46-0.14-0.51c-0.01-0.03-0.01-0.1-0.01-0.16c0.02-0.18,0.05-0.37,0.08-0.56
						c0.77-3.39,2.12-6.55,3.96-9.39c-1.69,2.72-3.16,5.98-3.66,9.56C199.78,24.21,199.72,24.57,199.64,24.92L199.64,24.92z"/>
					<path d="M199.5,24.41c0.01,0.05,0.05,0.24,0.14,0.51c-0.31,1.72-0.48,3.48-0.48,5.29c0,16.03,13.03,29.07,29.06,29.07
						c16.03,0,29.06-13.04,29.06-29.07c0-5.53-1.56-10.72-4.26-15.13c-0.03-0.05-0.06-0.09-0.08-0.13
						c-0.02-0.03-0.04-0.07-0.06-0.09c-0.24-0.4-0.47-0.76-0.71-1.09c0-0.01-0.01-0.02-0.02-0.03c-0.01-0.01-0.02-0.03-0.03-0.05
						c-3.26-4.71-7.88-8.42-13.28-10.54c-3.29-1.29-6.87-2-10.62-2c-5.47,0-10.6,1.52-14.98,4.17c-0.25,0.01-0.5,0.05-0.77,0.09
						c4.56-2.9,9.96-4.58,15.75-4.58c16.21,0,29.4,13.18,29.4,29.39s-13.19,29.39-29.4,29.39c-16.2,0-29.39-13.18-29.39-29.39
						c0-2.24,0.25-4.41,0.73-6.51c-0.03,0.18-0.06,0.37-0.08,0.56C199.49,24.3,199.49,24.38,199.5,24.41z"/>
					<path d="M198.67,30.21c0-3.25,0.53-6.39,1.51-9.33c-0.26,0.92-0.47,1.85-0.61,2.82c-0.48,2.1-0.73,4.27-0.73,6.51
						c0,16.2,13.18,29.39,29.39,29.39c16.21,0,29.4-13.18,29.4-29.39s-13.19-29.39-29.4-29.39c-5.79,0-11.19,1.68-15.75,4.58
						c-0.14,0.02-0.29,0.05-0.43,0.08c4.65-3.06,10.21-4.83,16.18-4.83c16.3,0,29.56,13.26,29.56,29.56s-13.26,29.56-29.56,29.56
						C211.92,59.77,198.67,46.51,198.67,30.21z"/>
					<path d="M198.51,30.21c0-6.14,1.87-11.85,5.08-16.6c-1.35,2.07-2.59,4.49-3.37,7.13c-0.01,0.05-0.03,0.1-0.05,0.14
						c-0.98,2.93-1.51,6.07-1.51,9.33c0,16.3,13.26,29.56,29.56,29.56c16.3,0,29.56-13.26,29.56-29.56S244.53,0.65,228.22,0.65
						c-5.97,0-11.53,1.77-16.18,4.83c-0.14,0.03-0.28,0.06-0.41,0.1c4.74-3.21,10.45-5.08,16.6-5.08
						c16.39,0,29.72,13.33,29.72,29.71c0,16.39-13.33,29.71-29.72,29.71C211.84,59.92,198.51,46.59,198.51,30.21z"/>
					<path d="M203.59,13.61c-3.21,4.74-5.08,10.45-5.08,16.6c0,16.39,13.33,29.71,29.71,29.71c16.39,0,29.72-13.33,29.72-29.71
						c0-16.38-13.33-29.71-29.72-29.71c-6.14,0-11.85,1.87-16.6,5.08c0,0,0-0.01-0.01,0c-0.16,0.03-0.33,0.08-0.5,0.13
						c4.85-3.4,10.75-5.39,17.1-5.39c16.49,0,29.9,13.41,29.9,29.88s-13.41,29.88-29.9,29.88c-16.48,0-29.88-13.41-29.88-29.88
						c0-8,3.16-15.28,8.3-20.65c-0.96,1.11-1.99,2.44-2.97,3.95c-0.03,0.03-0.05,0.06-0.07,0.09
						C203.59,13.6,203.59,13.6,203.59,13.61z"/>
					<path d="M228.22,60.42c-16.66,0-30.21-13.55-30.21-30.21c0-9.75,4.64-18.44,11.84-23.96c-0.59,0.53-1.79,1.66-3.18,3.27
						c-0.01,0.01-0.02,0.03-0.03,0.04c-5.13,5.37-8.3,12.65-8.3,20.65c0,16.48,13.41,29.88,29.88,29.88
						c16.49,0,29.9-13.41,29.9-29.88s-13.41-29.88-29.9-29.88c-6.35,0-12.25,1.99-17.1,5.39c-0.31,0.08-0.63,0.18-0.96,0.3
						c-0.01,0-0.01,0.01-0.03,0.01C215.19,2.24,221.45,0,228.22,0c16.66,0,30.22,13.55,30.22,30.21
						C258.44,46.87,244.89,60.42,228.22,60.42z"/>
				</g>
			</g>
		</g>
		<g>
			<g>
				<rect x="11" y="207.76" fill="#262C62" width="19" height="3"/>
				<rect x="20" y="207.76" fill="#262C62" width="3" height="20"/>
				<rect x="32" y="207.76" fill="#262C62" width="5" height="20"/>
				<rect x="49" y="207.76" fill="#262C62" width="6" height="20"/>
				<rect x="32" y="222.76" fill="#262C62" width="23" height="5"/>
				<rect x="60" y="207.76" fill="#262C62" width="1" height="20"/>
				<rect x="60" y="207.76" fill="#262C62" width="14" height="3"/>
				<rect x="60" y="215.76" fill="#262C62" width="14" height="3"/>
				<polygon fill="#262C62" points="75.46,227.76 72.19,227.76 66.95,215.76 70.23,215.76 				"/>
				<path fill="#262C62" d="M72.13,218.35c-0.32,0-0.67-0.02-1.03-0.05l0.15-2.61c1.7,0.15,2.75-0.18,2.75-0.42v-3.41
					c0-0.65-0.13-0.9-0.29-1.04c-0.62-0.53-1.91-0.46-2.32-0.4l-0.41-2.59c0.29-0.05,2.44-0.42,4.1,0.98
					c0.59,0.5,0.93,1.44,0.93,3.04v4.03l0.32,0.2C76.24,216.35,75.84,218.35,72.13,218.35z"/>
				<rect x="78" y="207.76" fill="#262C62" width="8" height="20"/>
				<polygon fill="#262C62" points="85.94,218.76 80.71,218.76 92.49,207.76 97.73,207.76 				"/>
				<polyline fill="#262C62" points="97.73,228.03 85.94,218.76 80.71,218.76 92.49,228.31 				"/>
				<rect x="104" y="207.76" fill="#262C62" width="3" height="20"/>
				<rect x="105" y="222.76" fill="#262C62" width="14" height="5"/>
				<rect x="105" y="207.76" fill="#262C62" width="14" height="3"/>
				<rect x="105" y="215.76" fill="#262C62" width="13" height="6"/>
				<rect x="130" y="215.76" fill="#262C62" width="4" height="12"/>
				<polygon fill="#262C62" points="135.65,215.76 130.48,215.76 138.19,207.76 143.36,207.76 				"/>
				<polygon fill="#262C62" points="127.79,207.76 122.62,207.76 130.33,215.76 135.5,215.76 				"/>
			</g>
			<g>
				<path fill="#262C62" d="M30,253.76H11v-6.31c0-1.12,0.55-2.32,1.32-3.07c1.46-1.42,3.79-1.62,4.22-1.62h7.93
					c1.11,0,1.95,0,2.27-0.39c0.31-0.38,0.2-0.92,0.2-0.93l-0.05-0.18l0.01-0.6c0-1.05-0.46-0.91-0.83-2.91h-6.91
					c-2.83,0-3.59,1.14-3.75,1.36c-0.15,0.2-0.15,0.66-0.15,0.66l-3.78,1.17c-0.06-0.21-0.54-1.52,0.8-3.29
					c1.25-1.65,3.57-1.9,6.88-1.9h8.67l0.58,0.04c0.24,0.24,2.34,2.17,2.43,5.4c0.11,0.7,0.26,2.69-0.97,4.26
					c-1.11,1.41-2.91,2.31-5.36,2.31h-7.97c-0.51,0-2.52-0.5-2.52-0.35c0,0.01,0,0.02,0,0.05v3.31h16V253.76z"/>
				<path fill="#262C62" d="M39.15,254.09c-1.48,0-2.98-0.95-2.98-3.39l0-12.94c0.13-1.55,1.29-2.99,3.27-2.99h10.93
					c1.78,0,4.62,1.54,4.62,4.94v10.18c0,2.24-1.42,3.87-4.09,3.87H39.65C39.51,253.76,39.34,254.09,39.15,254.09z M40,250.76h10.91
					c0.07,0-0.02-0.19-0.02-0.19c0.08-0.07,0.12-0.62,0.12-0.9v-9.97c0-0.84-0.22-1.94-0.52-1.94H40V250.76z"/>
				<polygon fill="#262C62" points="67,253.76 61,253.76 61,237.76 60,237.76 60,235.76 67,235.76 				"/>
				<path fill="#262C62" d="M76.89,246.49l-0.01-3.93l7.97-0.02c0.41-0.39,1.15-0.71,1.15-0.97v-2.39c0-0.17-0.64-1.42-1.04-1.42
					H74.48c-1.02,0-1.2,2.48-1.2,2.5l-3.93,0.53c0.16-2.79,1.83-5.03,5.13-5.03h11.09l0.33-0.46c1.86,0.54,4.1,1.45,4.1,3.75v4.51
					l-0.9,0.59c-0.01,0-1.01,0.69-2.06,1.74l-0.59,0.57L76.89,246.49z"/>
				<path fill="#262C62" d="M84.63,253.76H73.88l-0.26,0.54c-1.69-0.48-3.49-1.32-3.7-3.1l-0.6-2l3.79-0.98l0.67,2.32
					c0.17,0.11,0.44,0.23,0.7,0.23h10.16c0.52,0,0.75-0.1,0.85-0.27l-0.03-2.7l0.04-0.17c0.11-0.57-0.26-1.52-0.56-1.99l3.32-2.09
					c0.16,0.24,1.47,2.39,1.13,4.66l0.03,3l-0.06-0.36C89.04,252.06,87.66,253.76,84.63,253.76z"/>
			</g>
		</g>
		<g>
			<g>
				<g>
					<rect x="166" y="239.76" fill="#FFFFFF" width="10" height="30"/>
					<polygon fill="#FFFFFF" points="184.84,247.76 171,247.76 171,239.76 187.46,239.76 					"/>
					<polygon fill="#FFFFFF" points="180.91,259.76 166,259.76 166,251.76 183.53,251.76 					"/>
				</g>
				<g>
					<rect x="206" y="239.76" fill="#FFFFFF" width="9" height="30"/>
					<polygon fill="#FFFFFF" points="224.79,247.76 210,247.76 210,239.76 227.41,239.76 					"/>
					<polygon fill="#FFFFFF" points="220.86,259.76 206,259.76 206,251.76 223.48,251.76 					"/>
				</g>
				<rect x="191" y="239.76" fill="#FFFFFF" width="9" height="30"/>
				<g>
					<polygon fill="#FFFFFF" points="249.68,269.76 240.51,269.76 233.3,239.76 242.47,239.76 					"/>
					<polygon fill="#FFFFFF" points="238.54,239.76 229.38,239.76 222.17,269.76 231.34,269.76 					"/>
					<rect x="227" y="259.76" fill="#FFFFFF" width="17" height="5"/>
				</g>
			</g>
			<path fill="#FFFFFF" d="M107.23,287.3c-0.18,0-0.34-0.54-0.5-0.54h-3.97c-1.93,0-2.17-1.02-2.37-1.82l0.61,0.33v-10.51h3v10.12
				c0,0.23-1.33-1.12-1.24-1.12h4.14c0,0-1.89,1.22-1.89,1.13v-10.13h5v10.13c0,1.18-0.6,1.78-1.3,2.27
				C108.3,287.44,107.63,287.3,107.23,287.3z"/>
			<rect x="113" y="282.76" fill="#FFFFFF" width="5" height="1"/>
			<path fill="#FFFFFF" d="M125,286.76h-9.09l9.09-8.1v-1.03c0-0.2-1.21-0.87-1.32-0.87h-3.24c-0.01,0-0.01,0.41-0.01,0.44
				l-2.61,0.38c-0.02-0.23-0.1-1.31,0.68-2.18c0.32-0.35,0.89-0.64,1.82-0.64h3.79l0.41-0.01c0.78,0.23,2.48,1.07,2.48,2.89v2.14
				l-4.62,3.99H125V286.76z"/>
			<path fill="#FFFFFF" d="M133.07,286.84c-3.56,0-3.84-2.07-3.84-2.71l0.01-6.53c-0.02-0.36-0.03-1.22,0.84-2.18
				c0.43-0.48,1.23-0.66,2.61-0.66h1.72c1.9,0,4.59,0.35,4.59,2.84v7.17l-0.48,0.28c-0.21,0.41-1.31,1.73-4.5,1.74
				C133.88,286.82,133.43,286.84,133.07,286.84z M131.85,284.03c0.15,0.07,0.53,0.18,1.22,0.18c0.31,0,0.54-0.02,0.57-0.03
				l-0.71-0.01c1.07,0,1.07-0.18,1.07-0.32v-6.26c0-0.25,1.72-0.84,0.46-0.84h-1.77c-0.22,0-0.52-0.05-0.66,0.1
				c-0.16,0.17-0.18,0.48-0.18,0.62l0.01,0.1L131.85,284.03z"/>
			<polygon fill="#FFFFFF" points="150.78,286.76 147.51,286.76 144.89,274.76 148.16,274.76 			"/>
			<polygon fill="#FFFFFF" points="154.06,274.76 150.78,274.76 148.16,286.76 151.44,286.76 			"/>
			<polygon fill="#FFFFFF" points="158.64,286.76 155.37,286.76 152.75,274.76 156.02,274.76 			"/>
			<polygon fill="#FFFFFF" points="161.92,274.76 158.64,274.76 156.02,286.76 159.3,286.76 			"/>
			<path fill="#FFFFFF" d="M169.2,287.07c-2.84,0-5.16-2.7-5.16-6.01s2.32-6.01,5.16-6.01c2.84,0,5.16,2.7,5.16,6.01
				S172.05,287.07,169.2,287.07z M169.2,277.68c-1.38,0-2.54,1.55-2.54,3.39c0,1.84,1.16,3.39,2.54,3.39c1.37,0,2.54-1.55,2.54-3.39
				C171.74,279.23,170.58,277.68,169.2,277.68z"/>
			<rect x="178" y="274.76" fill="#FFFFFF" width="3" height="12"/>
			<path fill="#FFFFFF" d="M182.82,282.76H178v-3h4.82c0.4,0,0.64,0.41,0.71-0.07c-0.01-0.3-0.05,0.07-0.09,0.07H178v-5h5.48
				c0.47,0,1.13,0.38,1.68,0.86c0.66,0.58,0.99,1.62,0.99,2.81l0,0.64C186.04,280.34,185.07,282.76,182.82,282.76z"/>
			<polygon fill="#FFFFFF" points="186.8,286.76 183.74,286.76 179.9,279.76 182.97,279.76 			"/>
			<rect x="188" y="274.76" fill="#FFFFFF" width="3" height="12"/>
			<rect x="191" y="283.76" fill="#FFFFFF" width="4" height="3"/>
			<rect x="198" y="274.76" fill="#FFFFFF" width="5" height="12"/>
			<path fill="#FFFFFF" d="M205.36,286.76H200v-3h5.36c1.08,0,0.64-0.43,0.64-0.58v-3.31c0-1.19-0.21-0.11-0.52-0.11H200v-5h6.05
				l0.7,0.36c1.04,0.42,3.25,2.09,3.25,4.75v3.26c0,0.28-0.5,1.52-1.32,2.39C208.22,286.01,206.88,286.76,205.36,286.76z"/>
			<path fill="#FFFFFF" d="M227,286.76h-5.1c-3.16,0-3.99-1.9-4.1-2.99l0.2,0.03v-4.23c0-3.24,2.3-4.81,3.87-4.81H227v5h-4.83
				c-0.28,0-2.17-1.67-2.17-0.19v4.13c0,0.18,0.53,0.06,1.9,0.06h5.1V286.76z"/>
			<path fill="#FFFFFF" d="M235.01,287.09c-0.3,0-0.55-0.01-0.73-0.02c-2.32-0.01-3.43-0.43-4.15-1.33
				c-0.41-0.52-0.12-1.04-0.12-1.35v-9.63h2v9.4c0,0.11,0.76-0.4,2.16-0.4h0.15c1.09,0,2.39,0.28,2.88,0.07l-0.14-8.7l2.63,0.04
				l0.17,9.21c0,0.61-0.24,1.18-0.68,1.6C238.18,286.92,236.21,287.09,235.01,287.09z"/>
			<path fill="#FFFFFF" d="M244,286.76h-2v-11.91l1.31-0.2c0.64-0.12,4.05-0.64,5.8,0.79l0.22,0.16c0.47,0.55,1.6,1.96,1.62,3.15
				c0.02,0.35,0.06,2.04-1.06,3.25c-0.48,0.52-1.9,1.13-3.36,1.13l-2.53,0.02V286.76z M246,277.11v3.44l1.53-0.02
				c0.63,0,0.61-0.22,0.68-0.29c0.36-0.38,0.29-1.11,0.27-1.34l-0.06-0.08c-0.04-0.2-0.03-0.87-0.45-1.39
				C247.51,277.12,246,277.05,246,277.11z"/>
		</g>
	</g>
</g>
<g id="LOGO">
</g>
<g id="Layer_31">
</g>
<g id="Layer_6">
</g>
</svg>
