<?xml version="1.0" encoding="utf-8"?>
<!-- Generator: Adobe Illustrator 16.2.0, SVG Export Plug-In . SVG Version: 6.00 Build 0)  -->
<!DOCTYPE svg PUBLIC "-//W3C//DTD SVG 1.1//EN" "http://www.w3.org/Graphics/SVG/1.1/DTD/svg11.dtd">
<svg version="1.1" xmlns="http://www.w3.org/2000/svg" xmlns:xlink="http://www.w3.org/1999/xlink" x="0px" y="0px"
	 width="1180.49px" height="415.47px" viewBox="0 0 1180.49 415.47" enable-background="new 0 0 1180.49 415.47"
	 xml:space="preserve">
<g id="BG">
</g>
<g id="Layer_26">
</g>
<g id="Layer_29">
</g>
<g id="Gracias" display="none">
</g>
<g id="Layer_27" display="none">
</g>
<g id="Layer_28" display="none">
</g>
<g id="Layer_25">
</g>
<g id="Layer_24">
</g>
<g id="_x35__BG">
</g>
<g id="Layer_23">
	<g>
		<g>
			<defs>
				<polygon id="SVGID_7_" points="1164,415 0,257.05 0,63.62 1164,-0.47 				"/>
			</defs>
			<clipPath id="SVGID_2_">
				<use xlink:href="#SVGID_7_"  overflow="visible"/>
			</clipPath>
			<g clip-path="url(#SVGID_2_)">
				<path fill="#262C62" d="M924.16,176.49c0,0,32.74,0.94,32.53,16.8l3.93-15.36c0,0-6.33-27.1-38.28-26.02
					C922.34,151.92,915.27,171.92,924.16,176.49z"/>
				<path fill="#2A3577" d="M959.81,187.84c0,0-8.37-17.46-16.07-18.78c0,0-14.99-5.96-20.8,5.06c0,0-15.8,13.98-20.12-2.76
					l-3.24-28.26l-1.98-28.11c0,0-4.35-5.17-5.94-5.03c0,0-4.23-25.57,7.38-37.72c11.61-12.16,0.81-1.08,0.81-1.08
					s13.78-28.09,80.76-12.69c0,0,35.48,13.5,23.86,56.25c-0.11,0.42-0.24,0.85-0.36,1.28c0,0-7.56,15.66-1.89,25.12
					C1002.22,141.12,977.51,182.77,959.81,187.84z"/>
				<path fill="#6DCFF6" d="M891.66,95.89c0,0,0.92-0.14,2.26-0.02c1.33,0.11,3.03,0.58,4.5,1.34c0.37,0.2,0.7,0.46,1.03,0.69
					c0.31,0.28,0.61,0.53,0.93,0.73c0.62,0.44,1.3,0.72,1.91,1c0.32,0.13,0.62,0.25,0.88,0.36c0.27,0.11,0.52,0.2,0.74,0.26
					c0.44,0.13,0.74,0.18,0.74,0.18l0.25-0.21c0,0-0.01-0.29-0.13-0.75c-0.11-0.46-0.3-1.11-0.74-1.76
					c-0.21-0.32-0.44-0.69-0.75-1.01c-0.31-0.32-0.67-0.63-1.07-0.91c-0.43-0.24-0.9-0.43-1.39-0.6c-0.49-0.14-1-0.28-1.5-0.42
					c-0.51-0.1-1-0.25-1.5-0.29c-0.5-0.08-0.99-0.1-1.47-0.09c-0.95-0.01-1.81,0.14-2.53,0.32c-1.44,0.33-2.27,0.87-2.27,0.87
					L891.66,95.89z"/>
				<path fill="#6DCFF6" d="M898.03,103.65c0,0-0.03,0.17,0.03,0.52c0.01,0.18,0.05,0.39,0.14,0.61c0.09,0.21,0.15,0.51,0.31,0.75
					c0.16,0.26,0.33,0.54,0.52,0.83c0.21,0.28,0.49,0.5,0.76,0.78c0.27,0.28,0.57,0.55,0.92,0.72c0.35,0.2,0.69,0.4,1.04,0.6
					c0.35,0.23,0.71,0.33,1.07,0.51c0.36,0.16,0.72,0.3,1.08,0.39c0.74,0.19,1.4-0.04,1.97-0.22c1.15-0.37,1.83-1.07,1.83-1.07
					l-0.01-0.32c0,0-0.72-0.75-1.67-1.2c-0.24-0.11-0.5-0.23-0.77-0.3c-0.28-0.07-0.54-0.16-0.82-0.23c-0.28-0.04-0.59-0.03-0.91,0
					c-0.31,0.01-0.67,0.08-0.95-0.01c-0.3-0.06-0.6-0.13-0.89-0.19c-0.32-0.05-0.59-0.14-0.84-0.26c-0.26-0.11-0.54-0.2-0.78-0.32
					c-0.22-0.15-0.44-0.29-0.63-0.41c-0.22-0.13-0.33-0.31-0.48-0.44c-0.15-0.14-0.25-0.27-0.33-0.38c-0.18-0.22-0.25-0.4-0.25-0.4
					L898.03,103.65z"/>
				<circle fill="#6DCFF6" cx="899.99" cy="108.11" r="1.8"/>
				<g>
					<path fill="#6DCFF6" d="M913.43,64.67c0,0,13.17-0.54,11,3.79c0,0-12.11,9.99-5.38,15.39c6.73,5.4,0.62,0,0.62,0
						s-3.08,8.65,1.25,9.19c0,0,6.48-4.59,9.18,7.29c0,0-3.51,1.72,2.7,3.29c6.21,1.57,1.08,0,1.08,0s1.89,2.29,0,4.49
						c0,0-2.7,7.62,9.18,1.81c0,0,1.98-7.16,7.61-9.59c0,0,8.06-5.03,13.46,3.29c0,0,2.16,7.51,0,13.72c0,0,8.37-1.62,6.48,4.32
						c0,0-0.81,6.21,4.32,5.13c0,0,2.43,4.05,6.75,1.35c4.32-2.7,0,0.93,0,0.93s2.97-3.36,3.24,2.31c0,0,2.61,8.42,11.43,3.53
						c0,0,6.39-4.07,4.1-7.04c0,0,16.25-34.03,0.5-52.4C1000.96,75.48,969.95,39.01,913.43,64.67z"/>
					<path fill="#262C62" d="M991.31,136.94C991.31,136.94,991.31,136.94,991.31,136.94c-5.12,0-6.84-5.35-6.86-5.41l-0.02-0.12
						c-0.08-1.77-0.47-2.82-1.03-2.82c-0.19,0-0.43,0.09-0.7,0.27c-0.38,0.33-0.69,0.6-0.69,0.6l-0.57-0.59
						c-0.89,0.47-1.77,0.71-2.63,0.71c-2.22,0-3.61-1.56-4.1-2.23c-1.52,0.24-2.7-0.11-3.51-1.03c-1.46-1.66-1.09-4.6-1.08-4.72
						c0.39-1.26,0.35-2.17-0.1-2.79c-0.71-0.97-2.34-1.17-3.58-1.17c-1.2,0-2.21,0.19-2.21,0.19l-0.85,0.17l0.29-0.82
						c1.98-5.67,0.22-12.58,0.01-13.35c-1.96-2.99-4.49-4.51-7.51-4.51c-2.89,0-5.2,1.42-5.22,1.43c-5.4,2.34-7.37,9.23-7.39,9.3
						l-0.06,0.22l-0.2,0.1c-5.19,2.54-8.42,2.89-9.66,1.13c-0.97-1.37-0.24-3.47-0.21-3.56l0.09-0.16c1.12-1.31,0.71-2.64,0.28-3.41
						c-0.32-0.08-0.69-0.17-1.1-0.28c-2.66-0.67-3.95-1.46-4.06-2.47c-0.08-0.74,0.51-1.27,0.91-1.54
						c-1.17-4.86-3.16-7.42-5.77-7.42c-1.44,0-2.55,0.77-2.56,0.78l-0.16,0.11l-0.19-0.02c-0.91-0.11-1.61-0.54-2.08-1.27
						c-1.31-2.04-0.39-5.94,0.19-7.83l-0.23-0.18c-1.46-1.17-2.21-2.65-2.22-4.37c-0.04-5.18,6.63-10.98,7.51-11.73
						c0.25-0.56,0.12-0.88,0-1.07c-0.74-1.2-4.21-1.92-9.27-1.92c-0.8,0-1.31,0.02-1.31,0.02l-2.56,0.1l2.33-1.06
						c13.44-6.1,26.58-9.19,39.06-9.19c31.57,0,48.89,19.93,49.06,20.13c15.04,17.54,1.17,49.43-0.3,52.67
						c0.38,0.6,0.5,1.27,0.38,1.99c-0.48,2.75-4.6,5.41-4.78,5.52C994.71,136.41,992.92,136.94,991.31,136.94z M985.43,131.3
						c0.19,0.56,1.72,4.65,5.88,4.65h0c1.44,0,3.06-0.49,4.81-1.46c0.01-0.01,3.9-2.51,4.3-4.83c0.1-0.55-0.02-1.03-0.36-1.47
						l-0.19-0.24l0.13-0.28c0.16-0.34,15.93-33.95,0.57-51.86c-0.17-0.2-17.21-19.78-48.3-19.78c-11.66,0-23.91,2.74-36.46,8.14
						c3.73,0.07,7.95,0.58,9.06,2.38c0.27,0.44,0.49,1.16,0,2.14l-0.13,0.16c-0.07,0.06-7.27,6.06-7.24,11.02
						c0.01,1.41,0.59,2.57,1.79,3.55l0.15-0.42l0.55,0.49c2.84,2.51,2.82,2.57,2.67,2.95l-0.12,0.32l-0.35,0
						c-0.21,0-0.31,0-2.39-1.66c-0.69,2.44-1.05,5.27-0.19,6.62c0.28,0.43,0.67,0.69,1.19,0.79c0.42-0.26,1.55-0.85,2.96-0.85
						c2.23,0,5.22,1.48,6.83,8.55l0.09,0.38l-0.35,0.18c-0.26,0.13-0.74,0.48-0.71,0.75c0.01,0.13,0.24,0.82,3.21,1.58l-0.36-0.45
						l1.57,0.48c2.19,0.67,2.42,0.74,2.34,1.24l-0.06,0.43l-0.46,0.01c-0.07,0-0.16,0-0.68-0.11l0.01,0.01l-0.17-0.04
						c0.33,0.96,0.43,2.33-0.68,3.68c-0.17,0.53-0.41,1.82,0.11,2.57c0.88,1.24,3.81,0.76,8.21-1.36c0.39-1.27,2.54-7.41,7.83-9.7
						c0.04-0.03,2.51-1.55,5.68-1.55c3.36,0,6.26,1.74,8.39,5.03l0.06,0.13c0.09,0.3,2.01,7.14,0.24,13.25
						c0.42-0.05,0.98-0.09,1.59-0.09c2.14,0,3.62,0.53,4.39,1.58c0.65,0.89,0.74,2.1,0.26,3.59l0,0c0.01,0-0.29,2.54,0.86,3.85
						c0.62,0.71,1.58,0.92,2.88,0.64l0.35-0.07l0.18,0.3c0.01,0.02,1.26,2.04,3.45,2.04c0.83,0,1.71,0.12,2.61-0.44
						c1.59-0.99,1.92-0.66,2.13-0.66h0.34l0.17-0.06c0.08,0.2,0.07,0.17-0.17,0.47C984.81,128.19,985.32,129.2,985.43,131.3z"/>
				</g>
				<path fill="#6DCFF6" d="M952.25,118.96c0,0-0.44-0.74-1.39-1.35c-0.47-0.33-1.07-0.6-1.8-0.76c-0.38-0.06-0.76-0.14-1.21-0.09
					c-0.23,0.02-0.45,0.03-0.69,0.08c-0.25,0.08-0.51,0.16-0.76,0.26c-0.5,0.27-1.05,0.64-1.35,1.22c-0.4,0.55-0.37,1.1-0.45,1.62
					c0.06,0.44,0.14,0.86,0.27,1.21c0.15,0.32,0.33,0.6,0.5,0.84c0.32,0.5,0.74,0.78,1.01,0.99c0.28,0.2,0.47,0.3,0.47,0.3
					s0.06-0.21,0.13-0.54c0.08-0.33,0.1-0.78,0.19-1.25c0.05-0.23,0.1-0.47,0.12-0.71c0.07-0.21,0.16-0.38,0.19-0.56
					c0.13-0.06,0.13-0.21,0.2-0.15c0.01-0.01,0.05,0.01,0.11-0.04c0.06-0.02,0.12-0.04,0.17-0.08l0.28-0.08
					c0.19-0.07,0.45-0.09,0.69-0.16c0.51-0.08,1.05-0.18,1.54-0.29C951.45,119.25,952.25,118.96,952.25,118.96z"/>
				<path fill="#6DCFF6" d="M962.91,118.21c-1.07,1.89-2.2,3.75-3.42,5.53c-1.22,1.77-2.47,3.52-3.88,5.1
					c-0.69,0.8-1.42,1.55-2.19,2.24c-0.75,0.7-1.59,1.3-2.4,1.83c-0.82,0.54-1.6,1.05-2.4,1.47c-0.4,0.22-0.81,0.38-1.23,0.54
					c-0.42,0.16-0.85,0.24-1.3,0.33l-0.58,0.12c0.11-0.03,0.05,0.01,0.06,0.02c0,0.02,0.01,0.03,0.02,0.05
					c0.03,0.02,0.05,0.1,0.02,0.1c-0.04,0.01-0.13-0.04-0.21-0.14c-0.07-0.11-0.17-0.23-0.22-0.4c-0.29-0.64-0.42-1.47-0.6-2.3
					l-0.32-0.04c-0.16,0.4-0.32,0.81-0.42,1.24c-0.11,0.43-0.19,0.88-0.18,1.37c0.03,0.49,0.03,1.05,0.52,1.68
					c0.24,0.31,0.65,0.57,1.08,0.67c0.22,0.05,0.43,0.06,0.63,0.05c0.22-0.02,0.36-0.03,0.66-0.14l-0.58,0.11
					c0.64,0.11,1.29,0.14,1.95,0.1c0.64-0.07,1.28-0.2,1.89-0.39c0.6-0.21,1.19-0.45,1.72-0.77c0.55-0.29,1.03-0.67,1.49-1.05
					c0.93-0.77,1.68-1.68,2.42-2.55c0.72-0.89,1.4-1.8,2.02-2.73c1.25-1.87,2.34-3.8,3.29-5.79c0.93-2,1.79-4.02,2.46-6.12
					L962.91,118.21z"/>
				<path fill="#6DCFF6" d="M962.07,107.77c0,0-0.74-0.77-2.02-1.74c-1.27-0.98-3.08-2.2-5.31-2.9c-1.1-0.32-2.36-0.72-3.69-0.42
					c-0.65,0.14-1.27,0.47-1.76,0.87c-0.49,0.42-0.85,0.91-1.07,1.38c-0.46,0.95-0.44,1.76-0.38,2.29c0.09,0.54,0.21,0.83,0.21,0.83
					l0.32,0.07c0,0,0.25-0.21,0.58-0.55c0.16-0.15,0.37-0.33,0.6-0.54c0.23-0.18,0.47-0.37,0.72-0.51c0.25-0.16,0.52-0.25,0.76-0.34
					c0.27-0.06,0.51-0.15,0.82-0.21c0.57-0.18,1.45-0.42,2.37-0.32c1.86,0.19,3.83,0.84,5.28,1.37c1.44,0.56,2.4,1,2.4,1
					L962.07,107.77z"/>
				<path fill="#6DCFF6" d="M950.68,109.92c-0.11,0.67-0.01,1.37,0.25,2.02c0.25,0.66,0.7,1.28,1.3,1.74
					c0.15,0.12,0.3,0.24,0.48,0.31c0.17,0.08,0.34,0.19,0.52,0.24c0.36,0.13,0.73,0.24,1.1,0.25c0.38,0.06,0.73,0,1.1-0.01
					c0.35-0.06,0.69-0.16,1.03-0.24l-0.46-0.05c0.01,0,0.12,0.04,0.17,0.08c0.08,0.03,0.12,0.09,0.17,0.14
					c0.09,0.11,0.19,0.23,0.21,0.42c0.06,0.18-0.01,0.42-0.02,0.66c-0.08,0.24-0.15,0.49-0.23,0.77c0.23-0.15,0.46-0.32,0.68-0.52
					c0.15-0.25,0.4-0.47,0.46-0.83c0.1-0.33,0.09-0.74-0.08-1.09c-0.08-0.17-0.17-0.35-0.3-0.48c-0.13-0.15-0.23-0.26-0.45-0.4
					l-0.13-0.08l-0.33,0.02c-0.58,0.04-1.13,0.08-1.65,0c-0.26-0.03-0.51-0.08-0.75-0.15c-0.13-0.02-0.23-0.09-0.35-0.14
					c-0.12-0.05-0.24-0.09-0.34-0.16C952.15,111.96,951.39,111.05,950.68,109.92z"/>
				<path fill="#2A3577" d="M899.71,70.73c0,0-11.08,0.18-7.44-14.92c0,0,28.37-33.25,73.42-26.4c0,0,47.97,12.24,43.73,35.21
					c0,0-2.74,4.3-4.89,4.01c0,0-1.91,2.33-4.35,2.93c0,0,1.85,5.42-0.06,7.02C1000.12,78.59,971.33,33.25,899.71,70.73z"/>
				<path fill="#2A3577" d="M938.51,247.12c0,0-15.92-2.94-15.56-3.64c0,0-21.2,24.85-23.9,39.97l-4.47-64.86
					c0,0,9.33-10.77,24.99-17.25c0,0,9.45-5.4,15.4-12.15c0,0,12.15-1.66,15.67,2.14c0,0,8.83-5.04,1.35-13.49
					c0,0-9.72-8.38-18.37,0l-75.9,22.96c0,0-1.35,8.38-1.62,15.13c0,0-8.38,87.26,13.77,113.44c0,0,2.7,11.34,1.89,14.31
					c0,0,1.08,9.72,18.37,5.67l51.25-83.19L938.51,247.12z"/>
				<path fill="#262C62" d="M930.03,245.15c0,0-21.54,34.32-23.16,46.88c0,0-5.74-49.68-12.63-74.65c0,0,3.21-6.73,11.31-12.4
					c0,0,19.43-8.5,26.72-23.09c0,0,4.45-5.26,9.11-4.86c0,0,11.14-4.32,2.36-7.97c0,0-12.83-4.46-17.7,2.97
					c0,0-12.69,8.78-15.93,7.02c0,0-6.08,0.81-5.27-12.42c0,0-5.85-39.57-6.77-48.53c-0.08-0.76-0.12-1.3-0.12-1.58
					c0-3.51-7.15-10.53-10.66-3.78c0,0-3.3-15.39-9.3-6.21v2.43c0,0-7.98-1.89-7.98,4.05l-1.83,17.28c0,0-1.19,5.67-4.16,1.89
					c0,0-2.48-7.29-6.8-6.21c0,0-2.73-1.35-3,7.56l-1.9,47.27c0,0-2.98,19.45,3.5,25.66c0,0,2.96,0.81,2.43,3.78
					c0,0,5.4,90.75,15.67,111.82c0,0,6.49,17.69,8.47,22.08c0.19,0.43,0.34,0.73,0.44,0.88c1.08,1.62,1.08,14.85,22.42,9.99
					c0,0,29.17-12.96,41.86-30.79c0,0,35.38-27.28,45.92-54.83C993.04,269.41,985.06,257.35,930.03,245.15z"/>
				<path fill="#2A3577" d="M885,113.56c0,0-0.81,41.86,0,44.02C885,157.59,889.32,166.77,885,113.56z"/>
				<path fill="#2A3577" d="M876.9,113.56c0,0-3.78,37.71-2.97,44.78C873.92,158.35,877.17,134.36,876.9,113.56z"/>
				<path fill="#2A3577" d="M867.22,132.67c0,0-2.21,17.89-2.48,20.86c0,0-1.89-10.4-1.89-20.86
					C862.85,132.67,866.26,135.04,867.22,132.67z"/>
				<path fill="#4FC4E8" d="M956.3,185.94c0,0-13.9,3.65-15.12,8.52c0,0-8.91,27.14-9.72,33.63c0,0-6.48,11.34-8.51,15.39
					c0,0,18.23,6.08,22.28,8.1l14.59-52.26C959.81,199.32,959.16,184.56,956.3,185.94z"/>
				<g>
					<path fill="#6DCFF6" d="M998.3,135.31c0,0-15.4,12.96-17.83,18.23c0,0-22.69,24.11-24.71,34.23c0,0-10.29,20.11-12.67,32.88
						c-0.12,0.64-0.22,1.21-0.29,1.81c-1.41,10.91-10.15,19.04-13.48,23.38c-0.5,0.66-0.89,1.22-1.1,1.7
						c-1.62,3.65,41.73,8.5,63.2,23.49l-1.62,6.48l-10.94,15.83c0,0,59.15,102.12,81.43,117.12H1179v-81.1
						c0,0-60.98-146.66-105.54-162.87C1073.46,166.5,1025.99,130.85,998.3,135.31z"/>
					<path fill="#262C62" d="M1180,410.47h-119.86l-0.13-0.32c-22.12-14.89-79.17-112.76-81.59-116.92l-0.16-0.34l11.07-15.56
						l1.51-6.07c-12.94-8.9-33.86-14.24-47.73-17.79c-9.85-2.52-14.62-3.79-15.34-5.27c-0.14-0.28-0.14-0.58-0.02-0.86
						c0.21-0.47,0.57-1.03,1.16-1.8c0.61-0.8,1.39-1.71,2.29-2.75c3.97-4.62,9.96-11.61,11.09-20.39c0.08-0.61,0.18-1.19,0.3-1.83
						c2.3-12.35,12.05-31.71,12.69-32.96c2.08-10.04,23.26-32.74,24.77-34.35c2.55-5.35,17.29-17.8,17.92-18.33l0.11-0.09l0.14-0.02
						c1.62-0.26,3.35-0.39,5.16-0.39c27.44,0,69,30.29,70.83,31.64c44.25,16.21,105.4,161.65,106.01,163.12l-0.22,0.19V410.47z
						 M1060.44,409.47H1179v-80c-1-4.39-62.07-146.72-105.46-162.5l0.01-0.07c-0.42-0.31-42.63-31.48-70.22-31.48
						c-1.71,0-3.31,0.12-4.83,0.36c-1.36,1.16-15.32,13.09-17.57,17.97l-0.08,0.13c-0.23,0.24-22.61,24.12-24.58,33.99l-0.04,0.13
						c-0.1,0.2-10.28,20.2-12.62,32.75c-0.12,0.63-0.21,1.19-0.29,1.78c-1.17,9.08-7.28,16.2-11.33,20.91
						c-0.89,1.04-1.66,1.93-2.26,2.71c-0.54,0.71-0.86,1.2-1.04,1.6c0.17,1.04,7.55,2.93,14.69,4.75
						c14.05,3.59,35.28,9.01,48.34,18.12l0.28,0.2l-1.78,6.98l-10.75,15.32C982.9,299.03,1038.99,394.47,1060.44,409.47z"/>
				</g>
				<path opacity="0.9" fill="#2A3577" d="M1049.76,210.26c0,0-59.45,89.75-50.53,115.95c0,0-5.39-4.11-20.74-34.93
					c0,0,59.12-81.29,61.01-83.45c1.89-2.16,1.89-2.16,1.89-2.16s-18.91,19.99-14.58,29.71
					C1026.8,235.38,1031.12,232.13,1049.76,210.26z"/>
				<path fill="#262C62" d="M1101.88,281.02c0,0-15.93-45.64-44.83-45.64c0,0-25.12,16.48-39.16,12.96l-5.4,0.27l-2.97,2.97
					c0,0,35.65,2.97,49.43-11.88c0,0,8.37-0.27,6.75,2.7c0,0-17.83,19.45-39.97,18.37c0,0,11.72,9.33,44.96-13.83
					c0.23-0.16,0.46-0.32,0.69-0.48c0,0,3.78,0,3.24,1.62c0,0-17.82,13.51-24.04,15.67c0,0,6.75,2.7,27.28-12.15
					c0,0,1.89,1.35,1.35,2.43c0,0-7.83,6.99-12.42,8.22c0,0,4.05,3.12,15.12-4.03C1081.9,258.2,1090.81,262.11,1101.88,281.02z"/>
				<path fill="#2A3577" d="M1035.44,185.85c0,0-49.38,14.78-61.09,21.36c-0.38,0.22-0.73,0.43-1.03,0.62
					c-9.45,6.21-7.83,2.7-11.34,2.43c0,0,1.62,4.05,29.71-6.75C991.68,203.5,1012.75,193.85,1035.44,185.85z"/>
				<path fill="#2A3577" d="M959.81,224.84c0,0,69.68-15.02,81.3-31.55C1041.11,193.29,1024.4,221.65,959.81,224.84z"/>
				<path fill="#2A3577" d="M977.37,231.86c0,0,36.73-8.1,42.4-14.31C1019.78,217.55,998.44,236.18,977.37,231.86z"/>
				<path fill="#2A3577" d="M953.33,231.32c0,0,45.37,10.5,52.39,22.54l-3.16,4.34C1002.56,258.2,991.69,244.29,953.33,231.32z"/>
				<path fill="#2A3577" d="M987.28,163.07c0,0,21.45,3.59,26.84,0c0,0-15.91,10.22-29.97,3.99
					C970.08,160.83,987.28,163.07,987.28,163.07z"/>
				<path fill="#2A3577" d="M1101.75,191.01c-1.27-0.93,10.33,33.71,10.33,33.71l-1.86,4.64l6.25,19.1h9.45l13.5,34h5.94l6.21,13
					h14.86C1166.44,295.47,1124.84,207.9,1101.75,191.01z"/>
				<path fill="#2A3577" d="M1132.13,333.69c-7.56,12.42-22.96,46.73-33.76,54.29c0,0,31.87-32.14,33.76-55.64"/>
				<path fill="#2A3577" d="M1104.58,391.22c0,0,33.76-29.17,36.19-37C1140.78,354.21,1131.05,386.36,1104.58,391.22z"/>
				<path fill="#2A3577" d="M1176.97,332.34c0,0-15.13,33.49-24.04,36.19C1152.93,368.53,1181.29,355.29,1176.97,332.34z"/>
				<path fill="#2A3577" d="M1162.38,372.72c0,0-24.85,7.43-30.25,16.61C1132.13,389.33,1161.84,376.09,1162.38,372.72z"/>
				<path fill="#2A3577" d="M1181.02,370.69c0,0-22.69,17.56-50.24,23.77C1130.78,394.46,1176.97,386.36,1181.02,370.69z"/>
				<path fill="#2A3577" d="M1157.25,395.81c0,0-41.59,7.56-44.84,11.07l13.24,1.08C1125.65,407.97,1149.96,394.46,1157.25,395.81z"
					/>
				<path fill="#2A3577" d="M1122.68,391.22c0,0-19.72,7.29-20.8,8.91l-6.48-7.29c0,0-5.94,8.91-2.97,12.69
					C1092.43,405.53,1105.4,409.86,1122.68,391.22z"/>
				<path fill="#2A3577" d="M1065.01,365.15c0,0,7.9,6.82,7.63,8.98c0,0,1.52-4.96,4.22-4.69c0,0,4.28,9.4,2.93,13.18
					c0,0-1.79,12.64,3.21,9.94v16.21c0,0-19.05-18.91-18.38-26.2c0,0,10.33,11.75,5.2-1.55
					C1069.82,381.02,1075.14,381.76,1065.01,365.15z"/>
				<path fill="#2A3577" d="M1065,405.97c0,0-19.57-23.12-25.51-33.25C1033.55,362.59,1045.67,398.84,1065,405.97z"/>
				<path fill="#2A3577" d="M1031.66,356.09c0,0,9.72-34.29-5.13-58.6c0,0,0.13,13.82,4.13,26.2
					C1030.66,323.7,1028.96,350.95,1031.66,356.09z"/>
				<path fill="#2A3577" d="M1115.25,311c0,0-25.52,14.31-26.06,27.82"/>
			</g>
		</g>
	</g>
</g>
<g id="Text_5" display="none">
</g>
<g id="_x34__dotted" display="none">
</g>
<g id="_x34__BG">
</g>
<g id="Text_4" display="none">
</g>
<g id="Layer_18">
</g>
<g id="_x33__dotted" display="none">
</g>
<g id="_x33__BG">
</g>
<g id="Layer_14">
</g>
<g id="Text_3" display="none">
</g>
<g id="_x32__dotted" display="none">
</g>
<g id="_x32__BG_1_">
</g>
<g id="_x32__BG">
</g>
<g id="Text_2" display="none">
</g>
<g id="_x31__dotted">
</g>
<g id="_x31__BG">
</g>
<g id="Layer_7">
</g>
<g id="TEAMS">
</g>
<g id="FIFA">
</g>
<g id="LOGO">
</g>
<g id="Layer_31">
</g>
<g id="Layer_6">
</g>
</svg>
