<?xml version="1.0" encoding="utf-8"?>
<!-- Generator: Adobe Illustrator 16.2.0, SVG Export Plug-In . SVG Version: 6.00 Build 0)  -->
<!DOCTYPE svg PUBLIC "-//W3C//DTD SVG 1.1//EN" "http://www.w3.org/Graphics/SVG/1.1/DTD/svg11.dtd">
<svg version="1.1" xmlns="http://www.w3.org/2000/svg" xmlns:xlink="http://www.w3.org/1999/xlink" x="0px" y="0px"
	 width="583.59px" height="448.7px" viewBox="0 0 583.59 448.7" enable-background="new 0 0 583.59 448.7" xml:space="preserve">
<g id="BG">
</g>
<g id="Layer_26">
</g>
<g id="Layer_29">
</g>
<g id="Gracias" display="none">
</g>
<g id="Layer_27" display="none">
</g>
<g id="Layer_28" display="none">
</g>
<g id="Layer_25">
</g>
<g id="Layer_24">
</g>
<g id="_x35__BG">
</g>
<g id="Layer_23">
</g>
<g id="Text_5" display="none">
</g>
<g id="_x34__dotted" display="none">
</g>
<g id="_x34__BG">
</g>
<g id="Text_4" display="none">
</g>
<g id="Layer_18">
	<g>
		<g>
			<path fill="#2A3577" d="M175.05,339.2c0,0-26.2,52.93-23.71,109.41l238.79-33.77l20.29-56.03l-11.27-26.15l-96.08-8.02
				L175.05,339.2z"/>
			<path fill="#262C62" d="M239.06,331.8c21.32-2.58,42.49-6.18,64.06-6.96l0.06-0.01l-0.01-0.49l96.05,7.49l0.47-0.01l0.19,0.42
				l11.3,25.98l0.14,0.31l-0.12,0.33l-20.24,55.58l-0.23,0.33l-0.58,0.08c-19.9,2.82-39.75,5.95-59.66,8.73l-59.72,8.29
				l-119.42,16.74l-0.64,0.09l-0.01-0.61l-0.11-7.18l-0.04-3.47l0.15-3.5l0.31-7.04l0.67-7.02l0.36-3.51l0.51-3.49
				c0.36-2.32,0.65-4.66,1.06-6.98l1.31-6.93c0.4-2.32,1.02-4.59,1.52-6.89c0.51-2.29,1.05-4.58,1.69-6.85
				c0.63-2.27,1.17-4.55,1.87-6.8l2.04-6.75l2.23-6.69l2.4-6.63l2.59-6.56c1.78-4.35,3.68-8.56,5.78-12.76L239.06,331.8z
				 M169.41,351.86l-2.5,6.58l-2.32,6.65l-2.15,6.71l-1.96,6.76c-0.66,2.25-1.18,4.54-1.78,6.81c-0.61,2.27-1.12,4.56-1.6,6.85
				c-0.47,2.3-1.06,4.57-1.43,6.89l-1.23,6.93c-0.38,2.31-0.64,4.65-0.97,6.97l-0.47,3.48l-0.32,3.5l-0.63,7l-0.28,7.02l-0.13,3.51
				l0.06,3.51l0.12,7.02l-0.64-0.54l119.36-17.13l59.68-8.56c19.9-2.84,39.78-5.75,59.69-8.49l-0.79,0.64l20.44-55.73l0.02,0.63
				l-11.2-26.04l0.67,0.69L303,325.45h0.12c-21.36,1-42.68,4.58-64.04,6.83l-64.06,6.76C172.98,343.27,171.14,347.5,169.41,351.86z"
				/>
		</g>
		<path fill="#262C62" d="M234.68,395.26c0,0,17.41,12.25,15.2,18.49c0,0,3.88,2.81,12.08-1.71
			C261.95,412.05,251.83,397.48,234.68,395.26z"/>
		<path fill="#262C62" d="M239.71,416.69c0,0-12.67-5.64-12.66-11.05c0,0-7.42,8.27,2.04,14.68
			C229.09,420.31,222.51,413.64,239.71,416.69z"/>
		<path fill="#262C62" d="M293.34,409.1c0,0-14.37-4.88-24.82-18.62c0,0-0.7-17.71-16.88-10.77c0,0,11.73-1.92,15.18,13.34
			C266.81,393.04,269.17,400.59,293.34,409.1z"/>
		<path fill="#262C62" d="M327.51,369.75c0,0,52.06-2.26,51.82,16.12C379.33,385.88,382.97,366.04,327.51,369.75z"/>
		<path fill="#262C62" d="M377.55,371.71c0,0-16.99-7.06-33.78-5.73c-0.52,0.04-1.03,0.09-1.55,0.15
			c-17.27,1.93-3.06-3.42,4.72-4.92c7.79-1.5,1.85-0.26,1.85-0.26s9.37-2.49,20.24,1.39c10.87,3.88-19.69-2.41,0.93,2.95
			C369.97,365.28,380.13,368.25,377.55,371.71z"/>
		<path fill="#6DCFF6" d="M244.99,167.04c0,0,11.45-4.75,9.2-11.31c0,0-0.12-11.59,12.31-16.1c0,0,11.81-9.2,7.78-18.26
			c0,0-9.34,11.66-19.54,2.79c0,0-17.61-3-16.1-19.04c0,0,1.13-13.91,14.66-8.26c0,0,8.33,2.95,7.94,5.07c0,0,12.72-2.49,10.31-0.08
			c-2.41,2.41,6.44,11.47,6.44,11.47l4.33,6.27c0,0-0.73-29.49-5.34-37.78c0,0-7.5-9.26-13.38-7.05c0,0,12.56-10.72,12.22-12.05
			c-0.34-1.33,0.35,1.33,0.35,1.33s-6.46-13.54-2-14.17c0,0,3.4-10.12,8.03-11.46c0,0,4.66-4.79,10.63-1.5c0,0,2.43-1.72-0.84-5.39
			c0,0,24.36-9.29,37.09,4.13c0,0,9.66,6.12,11.31,15.17c0,0,5.86,9.75,15.39,15.11c0,0,7.14,4.92,6.63,10.42
			c0,0-1.42,4.59-0.99,5.82c0,0,4.04,9.75,3.51,10.86c0,0-5.62,18.08-0.1,26.07c0,0,9.93,6.34,3.81,14.17c0,0-2.64,5.02-4.96,5.09
			c0,0,3.32,10.89-3.43,14.16c0,0-25.11,10.26-27.75,13.47c0,0-5.99,0.05,0.74,4.53c0,0,21.1,5.8,8.21,31.36
			c0,0-55.04,35.91-98.82-25.5C242.62,176.38,241.67,166.77,244.99,167.04z"/>
		<path fill="#2A3577" d="M355.78,65.94c0,0-0.36-0.2-0.97-0.37c-0.6-0.17-1.46-0.25-2.31-0.07c-0.41,0.12-0.82,0.28-1.16,0.53
			c-0.35,0.22-0.59,0.53-0.77,0.79c-0.36,0.54-0.39,0.97-0.42,0.96c0.02,0.01,0.21-0.37,0.64-0.78c0.41-0.42,1.06-0.84,1.82-1
			c0.75-0.19,1.55-0.17,2.15-0.14C355.36,65.88,355.78,65.94,355.78,65.94z"/>
		<g>
			<path fill="#2A3577" d="M233.86,164.78c0,0,12.06,6.48,21.09-4.86c0,0,1.2-14.33,7.52-18.35c0,0,18.22-7.22,13.66-22.06
				c0,0-13.32,15.3-22.26,3.15c0,0-23.01-3.7-11.6-25.32c0,0,7.31-5.05,20.48,4.3c0,0,7.23-1.91,8.82,0.19l-0.17,2.41
				c0,0,5.43,12.93,10.93,15.34c0,0,5.31-42.1-14.61-45c-0.55-0.08-1.11-0.13-1.69-0.15c0,0-1.72-2.02,2.69-1.87
				c0,0,11.43-10.39,11.54-13.25c0,0-4.38,3.72-5.05-2.9c0,0,3.11-25.21,15.49-17.15c0,0,10.22-1.76,2.48-9.03
				c0,0,21.72-5.2,30.15,1.11c8.43,6.3,8.43,6.3,8.43,6.3s7.06,5.38,11.14-7.83c0,0-5.19,3.32-9.77-3.52c0,0-18.65-22.39-37.11-23.4
				c-18.46-1-1.01,0.14-1.01,0.14s-29.31,6.21-34.83,0.02c-5.52-6.18-1.27,0.18-1.27,0.18s-1.95,2.6,1.15,6.29
				c0,0-2.57,7.33-17.82,7.16c0,0-8.38-0.88-10.88,1.54c0,0,5.78,0.73,5.74,2.29c0,0-3.66,6.97-2.55,11.2
				c0,0-11.68,10.43-10.39,14.11c0,0-14.74-0.24-16.55,1.57c0,0,3.08,0.85,4.06,2.78c0,0-3.54,13.66-0.59,21.76
				c2.95,8.1-0.21,1.06-0.21,1.06s-6.41,37.03,10.68,47c0,0,0.83,11.75,11.3,18.27c0,0,4.66,14.05,5.71,17.25
				C238.56,155.53,241.19,163.04,233.86,164.78z"/>
			<path fill="#6DCFF6" d="M233.86,164.78c0.88,0.43,1.8,0.78,2.74,1.05c0.94,0.28,1.9,0.47,2.87,0.62l1.46,0.13
				c0.49,0.02,0.98,0,1.47,0.01c0.49,0,0.97-0.09,1.46-0.12c0.49-0.02,0.96-0.17,1.44-0.26l0.72-0.15l0.69-0.23
				c0.46-0.17,0.94-0.28,1.37-0.51l1.32-0.65c0.44-0.21,0.82-0.53,1.24-0.79c0.4-0.27,0.83-0.52,1.18-0.87l1.1-0.96
				c0.39-0.3,0.67-0.71,1.01-1.06l0.97-1.09l-0.01,0.03c0.16-1.7,0.43-3.37,0.76-5.04c0.17-0.83,0.36-1.66,0.57-2.49
				c0.23-0.82,0.44-1.64,0.73-2.45c0.25-0.81,0.58-1.6,0.9-2.39l0.55-1.16c0.17-0.39,0.41-0.75,0.62-1.12
				c0.2-0.38,0.43-0.74,0.69-1.08c0.26-0.34,0.47-0.72,0.79-1.01c0.3-0.31,0.57-0.64,0.9-0.92l1.02-0.79l0,0l0.02-0.01
				c2.17-0.93,4.24-2.15,6.16-3.55c1.91-1.41,3.65-3.05,5.07-4.95c0.34-0.48,0.68-0.97,0.97-1.48c0.31-0.5,0.57-1.03,0.81-1.57
				c0.25-0.54,0.45-1.09,0.63-1.65c0.16-0.57,0.33-1.13,0.41-1.72c0.12-0.58,0.15-1.17,0.19-1.75c-0.01-0.59,0.03-1.18-0.05-1.76
				c-0.04-0.59-0.13-1.17-0.25-1.75c-0.09-0.58-0.29-1.14-0.43-1.71l0.34,0.07c-1.49,1.64-3.15,3.11-4.94,4.41
				c-1.79,1.29-3.75,2.39-5.9,3.03c-0.53,0.17-1.08,0.28-1.63,0.38l-0.83,0.1l-0.84,0.03c-0.56-0.02-1.12-0.04-1.68-0.15
				c-0.28-0.03-0.55-0.11-0.82-0.19c-0.27-0.07-0.54-0.15-0.8-0.26c-0.53-0.19-1.03-0.46-1.52-0.73c-0.46-0.32-0.95-0.61-1.36-0.99
				c-0.44-0.35-0.83-0.75-1.21-1.16c-0.39-0.4-0.71-0.86-1.07-1.29l0.17,0.1c-1.42-0.26-2.79-0.67-4.13-1.17
				c-1.34-0.5-2.63-1.12-3.86-1.86c-0.61-0.37-1.21-0.77-1.77-1.22c-0.29-0.22-0.56-0.44-0.83-0.69c-0.27-0.24-0.54-0.48-0.78-0.75
				c-0.25-0.26-0.5-0.52-0.72-0.8c-0.23-0.28-0.46-0.55-0.66-0.86c-0.42-0.58-0.78-1.22-1.09-1.87c-0.32-0.65-0.54-1.34-0.75-2.03
				l-0.23-1.06c-0.07-0.35-0.09-0.72-0.14-1.07c-0.05-0.36-0.05-0.72-0.06-1.08c0-0.36-0.03-0.72,0.02-1.08l0.09-1.08
				c0.04-0.36,0.11-0.71,0.17-1.06c0.09-0.71,0.31-1.4,0.48-2.09c0.19-0.69,0.45-1.36,0.67-2.04l0.82-1.98l0.94-1.92l0.03-0.06
				l0.06-0.04c0.43-0.27,0.85-0.45,1.3-0.63c0.44-0.16,0.89-0.31,1.35-0.41c0.91-0.23,1.85-0.32,2.78-0.37l1.4,0.02l1.39,0.14
				c0.46,0.05,0.92,0.17,1.37,0.25c0.46,0.07,0.91,0.21,1.35,0.34c0.44,0.14,0.9,0.23,1.33,0.41l1.3,0.49
				c0.44,0.15,0.85,0.37,1.27,0.56l1.26,0.59c0.8,0.46,1.62,0.9,2.41,1.37l2.31,1.53l-0.26-0.05c1.5-0.38,3.01-0.64,4.56-0.77
				c0.77-0.05,1.56-0.06,2.34,0.03c0.4,0.06,0.79,0.14,1.18,0.29c0.2,0.06,0.38,0.19,0.57,0.29c0.18,0.12,0.33,0.3,0.5,0.45
				l0.07,0.07l-0.01,0.14l-0.16,2.41l-0.02-0.15c0.63,1.45,1.32,2.88,2.05,4.29c0.37,0.7,0.75,1.4,1.14,2.09
				c0.39,0.69,0.8,1.37,1.23,2.04c0.42,0.67,0.87,1.32,1.33,1.97c0.22,0.33,0.48,0.63,0.71,0.94c0.24,0.31,0.48,0.62,0.75,0.91
				c0.27,0.29,0.51,0.6,0.79,0.86c0.28,0.27,0.56,0.54,0.85,0.8l0.92,0.7l0.99,0.55l-0.47,0.27c0.48-4.38,0.67-8.81,0.62-13.22
				c-0.02-1.1-0.05-2.21-0.11-3.31c-0.05-1.1-0.13-2.2-0.22-3.3c-0.09-1.1-0.22-2.19-0.36-3.29c-0.16-1.09-0.31-2.18-0.53-3.26
				c-0.19-1.08-0.45-2.15-0.71-3.22l-0.44-1.59l-0.52-1.56c-0.38-1.03-0.77-2.05-1.27-3.02c-0.23-0.5-0.48-0.98-0.77-1.44
				c-0.27-0.47-0.54-0.95-0.87-1.38c-0.61-0.9-1.31-1.73-2.08-2.48c-0.77-0.75-1.64-1.41-2.56-1.95c-0.48-0.23-0.93-0.54-1.44-0.71
				c-0.51-0.17-1-0.39-1.52-0.52l-1.56-0.33l-1.65-0.14l-0.17-0.01l-0.1-0.12c-0.16-0.2-0.25-0.37-0.34-0.6
				c-0.04-0.12-0.07-0.23-0.08-0.37c-0.02-0.12,0.01-0.27,0.04-0.41c0.08-0.27,0.27-0.5,0.47-0.63c0.2-0.14,0.4-0.23,0.6-0.29
				c0.4-0.13,0.79-0.18,1.17-0.2c0.38-0.04,0.76-0.02,1.14-0.02l-0.28,0.1c2.16-1.99,4.28-4.05,6.31-6.17
				c1.01-1.06,2.01-2.15,2.93-3.28c0.46-0.56,0.91-1.14,1.31-1.74c0.2-0.3,0.38-0.6,0.54-0.91c0.14-0.3,0.29-0.63,0.3-0.88
				l0.67,0.33c-0.29,0.24-0.58,0.42-0.89,0.59c-0.31,0.17-0.64,0.31-1,0.42c-0.35,0.1-0.74,0.14-1.13,0.12
				c-0.19-0.04-0.39-0.08-0.58-0.14c-0.18-0.09-0.37-0.17-0.53-0.29l-0.43-0.4l-0.32-0.46c-0.12-0.15-0.16-0.32-0.24-0.49
				c-0.07-0.17-0.16-0.33-0.2-0.5c-0.08-0.34-0.2-0.67-0.25-1.01l-0.15-1.01l-0.01-0.04l0.01-0.05c0.32-2.36,0.81-4.66,1.45-6.95
				c0.64-2.28,1.45-4.52,2.58-6.63c0.3-0.52,0.59-1.04,0.94-1.54c0.33-0.5,0.71-0.98,1.12-1.43c0.82-0.9,1.81-1.7,2.99-2.15
				c0.59-0.23,1.21-0.36,1.84-0.4c0.63-0.04,1.26,0.04,1.87,0.15c0.6,0.16,1.19,0.34,1.74,0.61c0.58,0.22,1.07,0.58,1.6,0.87
				l-0.32-0.07c0.5-0.1,1.02-0.24,1.51-0.41c0.5-0.17,0.98-0.38,1.43-0.62c0.9-0.49,1.71-1.18,1.96-2.07c0.13-0.44,0.12-0.92,0-1.38
				c-0.07-0.23-0.14-0.47-0.25-0.7c-0.09-0.23-0.24-0.45-0.36-0.67c-0.55-0.87-1.28-1.66-2.05-2.4L292.24,30l0.83-0.19
				c2.37-0.54,4.74-0.96,7.13-1.29c2.39-0.33,4.8-0.57,7.21-0.69c2.42-0.1,4.85-0.09,7.27,0.18c2.41,0.27,4.84,0.78,7.1,1.85
				c1.13,0.54,2.13,1.33,3.07,2.03l2.89,2.15l2.89,2.15l1.44,1.07c0.43,0.3,0.95,0.56,1.47,0.72c1.05,0.36,2.19,0.33,3.2-0.05
				c0.24-0.12,0.51-0.19,0.74-0.35l0.69-0.46c0.4-0.4,0.86-0.72,1.19-1.2l0.53-0.67c0.17-0.23,0.3-0.49,0.46-0.74l0.45-0.75
				l0.37-0.8c0.53-1.04,0.87-2.18,1.27-3.29l0.73,0.56c-0.26,0.15-0.48,0.26-0.72,0.35c-0.24,0.1-0.49,0.18-0.73,0.26
				c-0.5,0.13-1.01,0.23-1.53,0.25c-0.51,0.03-1.04,0-1.54-0.1c-0.25-0.06-0.51-0.08-0.75-0.18c-0.24-0.09-0.49-0.15-0.73-0.26
				l-0.69-0.34c-0.23-0.11-0.43-0.27-0.65-0.41c-0.44-0.26-0.79-0.62-1.18-0.95c-0.19-0.16-0.34-0.36-0.52-0.54l-0.5-0.55l-0.88-1.2
				l0.03,0.04c-1.62-1.91-3.38-3.74-5.17-5.51c-1.8-1.77-3.66-3.48-5.59-5.1c-3.86-3.24-7.98-6.2-12.44-8.53
				c-1.12-0.58-2.25-1.11-3.41-1.61l-1.75-0.69c-0.59-0.2-1.18-0.41-1.78-0.6c-1.2-0.36-2.41-0.67-3.64-0.88
				c-1.23-0.22-2.46-0.33-3.73-0.4l-3.8-0.45c-1.26-0.06-2.54,0.59-3.78-0.41h-0.05h-0.01h0c0.01,0,0.16,0.22,0.21,0.16
				c0.09,0.29,0.27-0.66-0.15-0.63l0,0.06c0,0-0.01,0.03,0,0.03l0.05,0.02l0.23,0.03l0.47,0.04l0.95,0.08l1.9,0.14l3.79,0.26
				l3.11,0.21l-3.05,0.62c-3.52,0.71-7.04,1.29-10.59,1.77c-3.55,0.47-7.12,0.83-10.71,0.95c-1.79,0.05-3.59,0.05-5.39-0.07
				c-1.8-0.13-3.61-0.36-5.36-0.92c-0.87-0.3-1.73-0.68-2.5-1.25c-0.77-0.66-1.27-1.33-1.9-1.97c-0.3-0.32-0.61-0.64-0.93-0.92
				c-0.08-0.07-0.16-0.14-0.23-0.2c-0.04-0.03-0.07-0.05-0.1-0.07c-0.02-0.03-0.08-0.02,0.03-0.01c0.05,0,0.1-0.01,0.14-0.03
				c0.07-0.02,0.15-0.11,0.17-0.18c0.03-0.06,0.02-0.09,0.02-0.1c0,0.01,0.01,0.04,0.03,0.08c0.03,0.08,0.07,0.17,0.12,0.27
				c0.38,0.76,0.87,1.52,1.35,2.25l0.15,0.22l-0.16,0.22c-0.06,0.08-0.11,0.2-0.17,0.31c-0.07,0.11-0.09,0.24-0.14,0.36
				c-0.11,0.24-0.12,0.5-0.18,0.75c-0.06,0.25-0.01,0.52-0.02,0.78c-0.03,0.26,0.09,0.52,0.13,0.78l0.08,0.39
				c0.04,0.13,0.11,0.25,0.16,0.37l0.33,0.74c0.05,0.12,0.15,0.23,0.22,0.34l0.24,0.33l0.47,0.67l0.13,0.19l-0.07,0.17
				c-0.18,0.46-0.41,0.81-0.66,1.19c-0.26,0.36-0.53,0.7-0.83,1.02c-0.28,0.34-0.62,0.6-0.94,0.91c-0.34,0.26-0.68,0.54-1.03,0.79
				c-0.37,0.23-0.72,0.48-1.1,0.69l-1.14,0.6l-1.19,0.5c-0.39,0.18-0.81,0.27-1.21,0.42c-0.41,0.13-0.81,0.27-1.23,0.35l-1.25,0.29
				c-0.42,0.1-0.84,0.14-1.26,0.21c-0.42,0.06-0.84,0.14-1.26,0.19c-0.85,0.07-1.69,0.35-2.54,0.39l-2.54,0.24h-0.01l-0.02-0.19
				c-1.83-0.17-3.7-0.3-5.54-0.17c-0.46,0.03-0.92,0.03-1.37,0.1c-0.45,0.07-0.9,0.12-1.34,0.24c-0.44,0.1-0.86,0.24-1.27,0.41
				l-0.58,0.3l-0.5,0.38l-0.2-0.59c1.09,0.15,2.15,0.35,3.21,0.65c0.53,0.15,1.05,0.32,1.57,0.57c0.26,0.12,0.51,0.26,0.76,0.48
				c0.12,0.09,0.24,0.22,0.33,0.38c0.12,0.13,0.14,0.37,0.17,0.56l0.01,0.05l-0.05,0.1c-0.85,1.71-1.59,3.52-2.11,5.36
				c-0.25,0.92-0.47,1.86-0.55,2.81c-0.04,0.24-0.04,0.47-0.05,0.71c-0.01,0.24-0.03,0.47,0,0.7c0.01,0.47,0.09,0.92,0.18,1.38
				l0.04,0.2l-0.14,0.13c-2.2,2-4.33,4.12-6.29,6.36c-0.97,1.12-1.91,2.28-2.72,3.52c-0.4,0.62-0.77,1.26-1.04,1.92
				c-0.13,0.33-0.24,0.67-0.3,1.01c-0.06,0.34-0.04,0.67,0.04,0.96l0.12,0.42l-0.42,0c-2.78-0.03-5.58,0-8.36,0.14
				c-1.39,0.07-2.78,0.17-4.16,0.33c-0.69,0.08-1.37,0.18-2.04,0.33c-0.33,0.07-0.66,0.16-0.98,0.26c-0.3,0.11-0.63,0.24-0.81,0.41
				l-0.13-0.49c0.84,0.26,1.62,0.61,2.37,1.06c0.18,0.12,0.36,0.25,0.54,0.38c0.18,0.12,0.34,0.28,0.5,0.43
				c0.15,0.16,0.34,0.29,0.45,0.49l0.38,0.56l0.05,0.08l-0.03,0.13c-0.58,2.35-1.01,4.76-1.32,7.17c-0.31,2.41-0.49,4.85-0.43,7.27
				c-0.01,0.61,0.06,1.21,0.09,1.81c0.03,0.61,0.14,1.2,0.2,1.8c0.07,0.6,0.23,1.18,0.33,1.78c0.14,0.59,0.34,1.15,0.5,1.73
				c0.41,1.16,0.84,2.29,1.19,3.49l0.06,0.24l0.02,0.13l0.01,0.08c-0.02,0.05,0.05,0.05-0.08,0.25c-0.06,0.06-0.13,0.09-0.2,0.09
				c-0.04,0-0.07-0.01-0.1-0.02l-0.03-0.02c-0.05-0.03-0.07-0.05-0.08-0.06c-0.04-0.03-0.04-0.05-0.06-0.07l-0.08-0.11l-0.12-0.21
				c-0.15-0.28-0.29-0.55-0.43-0.83l-0.78-1.67l0.5-0.06c-0.66,4.15-1.01,8.37-1.14,12.58c-0.13,4.21,0,8.43,0.52,12.61
				c0.14,1.04,0.28,2.09,0.48,3.12c0.18,1.04,0.42,2.06,0.66,3.08c0.27,1.01,0.54,2.03,0.89,3.02c0.32,1,0.72,1.97,1.13,2.94
				l0.68,1.42l0.77,1.37c0.55,0.89,1.12,1.78,1.8,2.57c0.32,0.41,0.66,0.81,1.04,1.18c0.37,0.37,0.71,0.77,1.13,1.09
				c0.41,0.32,0.79,0.69,1.22,0.98l1.31,0.87l0.06,0.04l0.01,0.07c0.09,0.91,0.25,1.82,0.46,2.71c0.21,0.9,0.47,1.78,0.76,2.65
				l0.48,1.3l0.55,1.27c0.19,0.42,0.41,0.82,0.62,1.23c0.2,0.42,0.45,0.8,0.68,1.2c0.45,0.81,1.01,1.54,1.54,2.29l0.88,1.06
				c0.28,0.37,0.62,0.68,0.94,1.01c0.33,0.32,0.63,0.67,0.98,0.97l1.06,0.89c0.7,0.6,1.5,1.07,2.24,1.62l0.03,0.02l0.01,0.02
				l4.68,14.28l0.58,1.79c0.19,0.6,0.41,1.18,0.56,1.8c0.29,1.22,0.38,2.5,0.16,3.74c-0.04,0.31-0.12,0.61-0.23,0.91
				c-0.08,0.31-0.23,0.58-0.36,0.87c-0.29,0.56-0.68,1.06-1.14,1.48c-0.47,0.41-0.99,0.78-1.56,1.03
				C235.07,164.46,234.45,164.58,233.86,164.78z M233.86,164.78c0.59-0.21,1.21-0.32,1.76-0.64c0.57-0.25,1.09-0.62,1.55-1.04
				c0.46-0.43,0.84-0.93,1.12-1.48c0.13-0.28,0.28-0.56,0.36-0.86c0.1-0.3,0.18-0.6,0.22-0.91c0.22-1.23,0.11-2.5-0.18-3.72
				c-0.15-0.6-0.38-1.19-0.57-1.79l-0.6-1.78l-4.76-14.26l0.03,0.04c-0.75-0.54-1.56-1.01-2.27-1.62l-1.07-0.89
				c-0.36-0.3-0.66-0.65-1-0.97c-0.33-0.33-0.67-0.65-0.95-1.02l-0.9-1.07c-0.54-0.76-1.11-1.49-1.57-2.3
				c-0.24-0.4-0.49-0.79-0.7-1.21c-0.21-0.42-0.44-0.82-0.63-1.24l-0.56-1.28l-0.49-1.3c-0.3-0.88-0.57-1.77-0.78-2.68
				c-0.21-0.91-0.39-1.82-0.48-2.75l0.07,0.11l-1.34-0.88c-0.44-0.29-0.83-0.66-1.25-0.99c-0.43-0.32-0.78-0.73-1.16-1.1
				c-0.39-0.37-0.73-0.77-1.06-1.19c-0.7-0.81-1.28-1.7-1.84-2.6l-0.79-1.39l-0.69-1.44c-0.42-0.97-0.84-1.95-1.16-2.96
				c-0.36-1-0.63-2.03-0.92-3.05c-0.25-1.03-0.49-2.06-0.68-3.11c-0.21-1.04-0.36-2.09-0.5-3.14c-0.55-4.2-0.7-8.45-0.59-12.68
				c0.12-4.23,0.47-8.45,1.12-12.65l0.13-0.84l0.37,0.78l0.78,1.65c0.13,0.27,0.27,0.54,0.41,0.8l0.11,0.18l0.05,0.08
				c0,0,0.02,0.02,0.01,0.01c0,0,0-0.01-0.04-0.02l-0.02-0.01c-0.03-0.01-0.06-0.02-0.09-0.02c-0.06,0-0.12,0.02-0.18,0.08
				c-0.11,0.17-0.05,0.13-0.07,0.14l0-0.03l-0.02-0.09l-0.05-0.21c-0.34-1.15-0.77-2.3-1.18-3.45c-0.17-0.6-0.38-1.18-0.52-1.79
				c-0.11-0.61-0.27-1.21-0.35-1.82c-0.07-0.61-0.18-1.22-0.21-1.84c-0.03-0.62-0.1-1.23-0.09-1.85c-0.06-2.46,0.12-4.92,0.42-7.35
				c0.31-2.44,0.74-4.85,1.32-7.25l0.02,0.2l-0.33-0.48c-0.09-0.17-0.26-0.29-0.4-0.43c-0.14-0.14-0.28-0.28-0.45-0.39
				c-0.17-0.11-0.32-0.24-0.49-0.35c-0.35-0.2-0.7-0.4-1.08-0.56c-0.37-0.17-0.76-0.31-1.14-0.43l-0.49-0.15l0.36-0.34
				c0.33-0.31,0.69-0.42,1.03-0.56c0.35-0.12,0.7-0.21,1.04-0.28c0.7-0.15,1.4-0.25,2.09-0.34c1.4-0.17,2.8-0.27,4.2-0.34
				c2.8-0.14,5.6-0.18,8.4-0.15l-0.3,0.41c-0.13-0.43-0.14-0.86-0.07-1.26c0.07-0.4,0.19-0.78,0.33-1.14
				c0.29-0.72,0.68-1.39,1.09-2.03c0.83-1.28,1.78-2.46,2.77-3.6c1.98-2.27,4.11-4.4,6.34-6.43l-0.1,0.33
				c-0.11-0.5-0.2-1.01-0.21-1.51c-0.03-0.25-0.01-0.5,0-0.75c0.01-0.25,0.01-0.5,0.05-0.75c0.09-1,0.31-1.97,0.57-2.92
				c0.53-1.91,1.27-3.73,2.15-5.5l-0.04,0.15c-0.04-0.06,0-0.12-0.08-0.2l-0.07-0.11l-0.12-0.11c-0.16-0.14-0.38-0.27-0.61-0.38
				c-0.45-0.22-0.95-0.38-1.46-0.52c-1.01-0.28-2.07-0.48-3.11-0.62l-0.8-0.11l0.61-0.48c0.2-0.16,0.4-0.32,0.61-0.47l0.66-0.35
				c0.46-0.18,0.92-0.35,1.38-0.46c0.47-0.12,0.94-0.21,1.41-0.28c0.47-0.07,0.94-0.12,1.42-0.16c1.89-0.14,3.78-0.1,5.67,0.07
				l-0.03,0l2.5-0.05c0.83-0.05,1.66-0.14,2.49-0.2c0.41-0.05,0.82-0.13,1.23-0.19c0.41-0.07,0.82-0.11,1.23-0.21l1.21-0.29
				c0.41-0.08,0.8-0.22,1.19-0.35c0.39-0.14,0.8-0.23,1.17-0.4l1.14-0.48l1.09-0.57c0.36-0.2,0.69-0.44,1.04-0.65
				c0.34-0.23,0.65-0.5,0.97-0.74c0.29-0.29,0.61-0.54,0.87-0.85c0.28-0.29,0.53-0.61,0.76-0.94c0.22-0.33,0.44-0.69,0.57-1.01
				l0.07,0.36l-0.52-0.73L259,8.7c-0.08-0.13-0.18-0.23-0.24-0.37l-0.37-0.82c-0.06-0.14-0.13-0.27-0.18-0.42l-0.1-0.45
				c-0.05-0.3-0.17-0.59-0.15-0.9c0.01-0.31-0.04-0.62,0.02-0.92c0.06-0.3,0.08-0.62,0.21-0.91c0.06-0.15,0.09-0.3,0.17-0.44
				c0.08-0.14,0.13-0.28,0.25-0.44l-0.01,0.44c-0.5-0.76-0.98-1.5-1.41-2.34c-0.05-0.11-0.1-0.22-0.15-0.35
				c-0.02-0.06-0.05-0.14-0.06-0.24c-0.01-0.06-0.01-0.16,0.02-0.26c0.04-0.1,0.13-0.21,0.22-0.25c0.07-0.03,0.15-0.04,0.22-0.04
				c0.21,0.03,0.26,0.09,0.33,0.12c0.06,0.04,0.12,0.08,0.17,0.12c0.1,0.08,0.19,0.16,0.28,0.23c0.35,0.31,0.66,0.64,0.97,0.96
				c0.62,0.63,1.22,1.39,1.82,1.89c0.67,0.49,1.45,0.85,2.27,1.12c1.65,0.53,3.41,0.75,5.17,0.88c1.76,0.12,3.54,0.12,5.31,0.06
				c3.55-0.12,7.1-0.49,10.62-0.96c3.53-0.48,7.05-1.07,10.53-1.78l0.06,0.83l-3.8-0.25l-1.9-0.13l-0.95-0.07l-0.48-0.04l-0.25-0.02
				l-0.07-0.01l-0.05-0.01l-0.03-0.01c-0.42,0.02-0.27-1.05-0.16-0.76c0.07-0.06,0.22-0.09,0.24-0.09l0.02,0.19l0.05,0.18h0.07
				c1.3,0,2.55-0.08,3.82-0.02l3.8,0.1c1.26,0.06,2.57,0.13,3.83,0.36c1.27,0.21,2.52,0.51,3.75,0.87c0.61,0.19,1.22,0.39,1.83,0.6
				l1.79,0.69c1.18,0.5,2.34,1.04,3.48,1.63c4.54,2.37,8.71,5.35,12.62,8.62c1.96,1.64,3.67,3.35,5.49,5.14
				c1.82,1.79,4.08,3.62,5.08,5.57v0l0.2,0.04l0.91,1.12l0.51,0.51c0.16,0.16,0.32,0.35,0.5,0.5c0.35,0.29,0.68,0.62,1.07,0.85
				c0.19,0.12,0.37,0.27,0.58,0.36l0.6,0.3c0.2,0.09,0.42,0.15,0.63,0.22c0.21,0.08,0.43,0.1,0.65,0.15
				c0.43,0.08,0.88,0.11,1.32,0.08c0.44-0.01,0.88-0.1,1.31-0.21c0.21-0.07,0.42-0.13,0.63-0.22c0.2-0.08,0.41-0.19,0.57-0.28
				l1.18-0.68l-0.45,1.23c-0.42,1.15-0.76,2.32-1.32,3.42l-0.39,0.84l-0.47,0.8c-0.16,0.26-0.3,0.54-0.49,0.79l-0.58,0.74
				c-0.35,0.52-0.88,0.91-1.34,1.35l-0.81,0.54c-0.27,0.18-0.59,0.28-0.89,0.42c-1.23,0.47-2.63,0.48-3.86,0.06
				c-0.62-0.2-1.19-0.48-1.75-0.86l-1.45-1.08l-2.88-2.16l-2.88-2.16c-0.98-0.73-1.88-1.44-2.92-1.94c-2.09-1-4.43-1.51-6.78-1.77
				c-2.35-0.27-4.74-0.28-7.12-0.19c-2.38,0.11-4.76,0.34-7.13,0.66c-2.36,0.33-4.73,0.74-7.04,1.26l0.21-0.78
				c0.81,0.77,1.58,1.6,2.2,2.58c0.14,0.26,0.3,0.5,0.41,0.78c0.13,0.27,0.22,0.55,0.3,0.85c0.15,0.59,0.17,1.24-0.01,1.86
				c-0.18,0.61-0.54,1.15-0.97,1.57c-0.43,0.43-0.92,0.76-1.43,1.03c-0.51,0.28-1.04,0.5-1.57,0.68c-0.54,0.18-1.07,0.33-1.65,0.44
				l-0.14,0.03l-0.17-0.09c-0.5-0.26-0.96-0.61-1.48-0.81c-0.5-0.25-1.04-0.41-1.57-0.56c-0.54-0.1-1.08-0.17-1.62-0.13
				c-0.54,0.03-1.07,0.15-1.58,0.34c-1.02,0.39-1.91,1.09-2.66,1.92c-0.38,0.41-0.73,0.86-1.05,1.33c-0.33,0.46-0.61,0.96-0.9,1.46
				c-1.09,2.02-2.12,4.22-2.75,6.45c-0.63,2.23-0.67,4.53-1.67,6.82v-0.09l0.37,0.94c0.05,0.31,0.27,0.6,0.34,0.9
				c0.04,0.15,0.17,0.28,0.23,0.42c0.07,0.13,0.13,0.29,0.22,0.4l0.25,0.35l0.3,0.27c0.11,0.08,0.23,0.12,0.34,0.19
				c0.12,0.04,0.25,0.06,0.38,0.09c0.27,0.01,0.54-0.01,0.82-0.09c0.28-0.08,0.56-0.19,0.82-0.34c0.26-0.14,0.54-0.32,0.75-0.5
				l0.74-0.61l-0.07,0.93c-0.04,0.5-0.22,0.85-0.39,1.21c-0.18,0.35-0.38,0.68-0.6,0.99c-0.42,0.63-0.88,1.22-1.36,1.8
				c-0.95,1.15-1.96,2.24-2.98,3.32c-2.05,2.14-4.18,4.44-6.37,6.44l-0.11,0.34h-0.17c-0.35,0-0.71-0.26-1.05-0.23
				c-0.35,0.02-0.69-0.05-0.98,0.04c-0.15,0.04-0.29,0.05-0.38,0.12c-0.11,0.07-0.15,0.12-0.18,0.19c0,0.04-0.02,0.06-0.01,0.12
				c0,0.05,0.02,0.1,0.03,0.16c0.04,0.12,0.12,0.26,0.2,0.35l-0.26-0.14l1.65,0.15l1.69,0.35c0.55,0.14,1.08,0.37,1.62,0.55
				c0.54,0.19,1.02,0.51,1.53,0.76c0.98,0.58,1.9,1.27,2.71,2.06c0.81,0.79,1.54,1.66,2.17,2.6c0.34,0.45,0.62,0.94,0.9,1.43
				c0.3,0.48,0.55,0.98,0.79,1.49c0.51,1,0.91,2.05,1.29,3.1l0.53,1.59l0.45,1.61c0.26,1.08,0.53,2.17,0.72,3.27
				c0.22,1.09,0.37,2.2,0.53,3.3c0.14,1.1,0.27,2.21,0.36,3.32c0.09,1.11,0.17,2.22,0.22,3.33c0.06,1.11,0.08,2.22,0.1,3.33
				c0.05,4.45-0.15,8.88-0.65,13.31l-0.06,0.5l-0.42-0.23l-1.1-0.61l-0.98-0.75c-0.31-0.27-0.59-0.56-0.89-0.84
				c-0.3-0.28-0.55-0.6-0.82-0.9c-0.28-0.3-0.53-0.61-0.77-0.94c-0.24-0.32-0.51-0.63-0.73-0.96c-0.47-0.65-0.92-1.32-1.35-2
				c-0.43-0.68-0.84-1.37-1.24-2.07c-0.4-0.7-0.78-1.4-1.15-2.11c-0.74-1.42-1.43-2.86-2.07-4.34l-0.03-0.07l0-0.08l0.17-2.41
				l0.06,0.21c-0.12-0.1-0.21-0.22-0.35-0.31c-0.15-0.07-0.28-0.17-0.45-0.23c-0.32-0.12-0.67-0.19-1.03-0.25
				c-0.72-0.09-1.47-0.08-2.22-0.03c-1.49,0.12-2.99,0.38-4.45,0.74l-0.14,0.03l-0.12-0.08l-2.27-1.51
				c-0.78-0.46-1.58-0.9-2.37-1.35l-1.23-0.58c-0.41-0.19-0.81-0.41-1.24-0.55l-1.27-0.48c-0.42-0.17-0.87-0.26-1.3-0.4
				c-0.43-0.13-0.87-0.26-1.31-0.33c-0.44-0.08-0.88-0.19-1.33-0.24l-1.34-0.14l-1.35-0.02c-0.9,0.05-1.79,0.13-2.66,0.35
				c-0.44,0.09-0.86,0.24-1.28,0.39c-0.41,0.16-0.83,0.35-1.18,0.56l0.09-0.1l-0.93,1.89l-0.81,1.94c-0.22,0.66-0.47,1.32-0.65,1.99
				c-0.16,0.68-0.38,1.35-0.47,2.04c-0.05,0.34-0.13,0.69-0.17,1.03l-0.08,1.04c-0.04,0.35-0.01,0.69-0.02,1.04
				c0,0.35,0,0.69,0.05,1.04c0.04,0.34,0.06,0.69,0.13,1.03l0.22,1.01c0.2,0.66,0.41,1.32,0.71,1.94c0.29,0.62,0.63,1.23,1.04,1.79
				c0.19,0.29,0.41,0.56,0.63,0.83c0.21,0.27,0.45,0.53,0.69,0.77c0.23,0.26,0.49,0.49,0.75,0.72c0.25,0.24,0.52,0.46,0.8,0.67
				c0.54,0.44,1.12,0.83,1.72,1.19c1.19,0.73,2.46,1.33,3.77,1.83c1.31,0.49,2.67,0.9,4.03,1.15l0.1,0.02l0.07,0.08
				c0.35,0.41,0.66,0.86,1.03,1.25c0.37,0.39,0.74,0.78,1.16,1.12c0.39,0.37,0.86,0.64,1.29,0.95c0.47,0.26,0.93,0.52,1.44,0.7
				c0.24,0.11,0.5,0.18,0.76,0.25c0.26,0.07,0.51,0.15,0.78,0.18c0.52,0.11,1.06,0.14,1.59,0.15l0.8-0.03l0.8-0.1
				c0.53-0.09,1.06-0.19,1.57-0.35c2.08-0.6,4.01-1.67,5.78-2.93c1.77-1.26,3.43-2.72,4.89-4.32l0.25-0.28l0.08,0.35
				c0.14,0.59,0.33,1.16,0.43,1.76c0.12,0.59,0.21,1.19,0.24,1.79c0.08,0.6,0.04,1.21,0.04,1.81c-0.05,0.6-0.09,1.21-0.21,1.8
				c-0.08,0.6-0.26,1.18-0.42,1.76c-0.19,0.57-0.4,1.14-0.65,1.69c-0.25,0.54-0.52,1.09-0.84,1.6c-0.3,0.52-0.65,1.01-1,1.5
				c-1.45,1.92-3.23,3.57-5.16,4.98c-1.94,1.4-4.02,2.61-6.23,3.54l0.02-0.01l-1,0.76c-0.32,0.27-0.58,0.6-0.88,0.9
				c-0.31,0.29-0.52,0.66-0.78,0.99c-0.26,0.33-0.49,0.69-0.69,1.06c-0.2,0.37-0.45,0.72-0.62,1.11l-0.55,1.14
				c-0.31,0.79-0.65,1.56-0.9,2.37c-0.29,0.8-0.51,1.62-0.74,2.43c-0.21,0.82-0.41,1.64-0.58,2.47c-0.34,1.66-0.62,3.34-0.79,5.02
				l0,0.02l-0.01,0.01l-0.99,1.09c-0.34,0.35-0.63,0.76-1.02,1.06l-1.12,0.96c-0.36,0.34-0.78,0.59-1.19,0.87
				c-0.42,0.26-0.8,0.57-1.25,0.78l-1.33,0.64c-0.44,0.22-0.92,0.33-1.38,0.5l-0.7,0.23l-0.72,0.15c-0.48,0.09-0.96,0.23-1.45,0.25
				c-0.49,0.04-0.98,0.11-1.47,0.12c-0.49-0.01-0.98,0-1.47-0.02l-1.46-0.14c-0.97-0.15-1.93-0.34-2.87-0.63
				C235.65,165.57,234.73,165.22,233.86,164.78z"/>
		</g>
		<g>
			<path fill="#6DCFF6" d="M238.31,162.28c0,0-6.72,3.53-8.53,5.33c0,0-29.28,11.88-51.1,7.23c0,0-14.14-2.91-32.48,10.92
				c-0.47,0.36-0.95,0.72-1.43,1.1c-19.03,15.08-63.76,19.86-69.47,19.63c0,0-1.88,1.3-3.4,5.12c0,0-25.38,11.23-24.88,14.78
				l43.32,28.03c0,0,25.77,18.03,54.03,17.13c0,0,24.71-0.4,33.31-1.62c0,0,26.08,1.99,29.18,9.29c0,0,23.78-0.27,22.9,8.11
				c-0.88,8.38,4.28-6.8,4.28-6.8l1.14,8.09c0,0,15.88,10.66,15.37,14.34c0,0,1.53,11.14-9.88,10.69c0,0-15.43-8.66-16.67-6.42
				c0,0-3.33,10.26-7.99,10.15c-4.66-0.11-2.09,0.34-2.09,0.34s0.93,6.8-8.76,7.65c0,0-5.64-3.28-5.07,0.75c0,0,5.09,5.34-1.06,7.61
				c-0.55,0.2-1.19,0.38-1.94,0.53c-9.03,1.79-33.66-15.37-38.79-15.16l-8.67-2.9c0,0-2.49,22.54,24.09,31.68
				c0,0,4.13,43.8,11.34,51.03c0,0,5.85,4.85,5.84,8.46c0,0,2.49,28.54,4.87,30.79c0,0,4.27-2.67,11.23-22.75
				c0,0,5.5-8.52,3.71-17.55c0,0-0.49-10.77,2.26-13.22c0,0-4.47-6.08,6.22-7.07c0,0,53.5-19.43,67.07-11.03
				c0,0,87.61-19.1,87.84-28.42c0,0,22.06,39.2,15.66,66.94c0,0-2.71,24.63,8.97-9.53c0,0,45.5-86.94,51.43-88.81
				c0,0,24.92,4.73,32.03-14.33c0,0,10.09-30.84,17.48-44.27l-16.96-14.11c0,0,3.02-17.35-25.82-25.61c-0.52-0.15-1.06-0.3-1.6-0.44
				c-30.56-8.06-34.66-18.84-36.75-22.67c0,0,0.44-7.81-24.78-3.72c0,0-26.73-2.93-26.27-21.57c0,0,3.27-9.75-14.09-1.11
				c0,0-21.11,7.63-21.76,10.3c0,0,13.86,10.43,9.65,20.83c0,0-8.18,27.24-54.93,13.82c-0.67-0.19-1.35-0.39-2.03-0.6
				C235.82,188.43,255.43,166.56,238.31,162.28z"/>
			<path fill="#262C62" d="M242.04,163.8c1.14,0.72,2.13,1.67,2.88,2.8c1.51,2.26,2.16,4.94,3,7.49c0.79,2.57,1.74,5.11,3.02,7.48
				c1.27,2.37,2.92,4.53,4.79,6.47c1.87,1.93,4,3.6,6.22,5.12c2.21,1.54,4.6,2.79,7,4.01l3.67,1.69l3.74,1.51l3.8,1.37l3.85,1.23
				c2.57,0.79,5.18,1.48,7.8,2.1c2.62,0.61,5.27,1.13,7.93,1.5c2.66,0.38,5.34,0.66,8.03,0.72c2.69,0.09,5.38,0.01,8.04-0.32
				c5.33-0.58,10.58-2.2,15.11-5.04c2.27-1.41,4.29-3.45,6.04-5.46c1.71-2.03,2.97-5.02,3.84-7.02h0.37v0.52
				c1-1.87,0.87-3.91,0.52-5.88c-0.33-1.97-1.15-3.87-2.16-5.6c-2.05-3.46-4.93-6.47-8.07-8.98l-0.23-0.18l0.08-0.22
				c0.27-0.72,0.72-0.98,1.13-1.33c0.42-0.32,0.86-0.6,1.3-0.86c0.88-0.53,1.79-1,2.7-1.45c1.83-0.9,3.68-1.72,5.54-2.52
				c3.74-1.58,7.51-3.06,11.31-4.46l-0.05,0.02c2.77-1.36,5.6-2.66,8.68-3.36c0.78-0.15,1.56-0.29,2.38-0.29
				c0.81,0.01,1.68,0.11,2.46,0.59c0.8,0.45,1.29,1.35,1.42,2.2c0.13,0.87,0.04,1.68-0.2,2.51l0.03-0.14
				c0.04,0.75-0.01,1.52,0.11,2.26c0.06,0.75,0.22,1.49,0.38,2.23c0.21,0.72,0.4,1.46,0.71,2.14c0.27,0.71,0.65,1.36,1,2.02
				c1.58,2.57,3.82,4.72,6.38,6.37c2.55,1.68,5.38,2.93,8.29,3.91c2.91,0.97,5.94,1.69,8.96,2.09l-0.14,0l3.33-0.48
				c1.11-0.18,2.23-0.27,3.35-0.38c1.12-0.13,2.24-0.21,3.36-0.25c1.13-0.08,2.25-0.1,3.39-0.07c1.13-0.02,2.26,0.1,3.39,0.19
				c0.57,0.05,1.13,0.17,1.7,0.25c0.57,0.07,1.12,0.24,1.68,0.39c0.56,0.12,1.11,0.36,1.65,0.57c0.54,0.22,1.06,0.53,1.56,0.86
				c0.49,0.35,0.96,0.77,1.33,1.29c0.37,0.53,0.65,1.09,0.68,1.89l-0.06-0.3c0.83,1.6,1.65,3.12,2.71,4.52
				c1.02,1.42,2.22,2.69,3.51,3.87c1.3,1.17,2.69,2.26,4.15,3.24c1.45,1.01,2.99,1.86,4.52,2.74c1.59,0.78,3.14,1.63,4.78,2.29
				c1.61,0.74,3.26,1.38,4.93,1.99c1.65,0.66,3.34,1.16,5.02,1.73c1.67,0.58,3.41,1.01,5.12,1.51c1.71,0.49,3.44,0.94,5.15,1.49
				c1.72,0.54,3.41,1.14,5.08,1.82c3.34,1.35,6.55,3.07,9.49,5.21c2.9,2.17,5.52,4.82,7.34,8.02c0.91,1.59,1.62,3.31,2.06,5.1
				c0.43,1.81,0.66,3.62,0.42,5.56l-0.22-0.59l16.99,14.08l0.42,0.35l-0.26,0.49c-3.33,6.25-6.01,12.9-8.6,19.54
				c-2.57,6.66-4.98,13.38-7.28,20.14c-0.6,1.71-1.08,3.35-1.76,5.11c-0.66,1.72-1.58,3.34-2.65,4.85
				c-2.13,3.04-5.17,5.37-8.48,6.95c-3.33,1.58-6.95,2.42-10.56,2.77c-3.63,0.33-7.26,0.25-10.9-0.33l0.36-0.02
				c-0.17,0.05-0.62,0.44-0.94,0.79c-0.35,0.36-0.68,0.76-1,1.17c-0.65,0.82-1.27,1.68-1.88,2.55c-1.21,1.74-2.37,3.53-3.51,5.34
				c-2.27,3.62-4.46,7.29-6.62,10.99c-4.31,7.39-8.5,14.87-12.64,22.37c-8.27,15.01-16.36,30.12-24.32,45.29l0.05-0.12
				c-1.59,4.6-3.19,9.19-5.2,13.68c-0.52,1.12-1.05,2.23-1.76,3.33c-0.18,0.27-0.37,0.54-0.61,0.82c-0.26,0.27-0.48,0.58-1.11,0.81
				c-0.32,0.12-0.89,0.04-1.17-0.21c-0.3-0.23-0.43-0.48-0.52-0.67c-0.19-0.41-0.26-0.75-0.32-1.09c-0.22-1.33-0.19-2.56-0.16-3.81
				c0.04-1.24,0.12-2.45,0.25-3.69l0-0.03l0.02-0.07c0.28-1.4,0.57-2.8,0.72-4.23c0.21-1.42,0.28-2.85,0.35-4.28
				c0.06-1.44,0.06-2.87,0.01-4.31c-0.06-1.44-0.13-2.88-0.29-4.31c-0.55-5.74-1.74-11.43-3.3-17.01
				c-1.55-5.58-3.51-11.05-5.7-16.43c-2.21-5.36-4.66-10.66-7.42-15.72l1.71-0.42c-0.16,1.61-1.15,2.34-1.91,3.04
				c-0.82,0.67-1.67,1.22-2.54,1.72c-1.74,1-3.53,1.83-5.34,2.61c-3.62,1.54-7.29,2.86-10.99,4.11c-7.4,2.48-14.89,4.65-22.4,6.72
				c-15.03,4.1-30.15,7.77-45.36,11.17l-0.38,0.08l-0.35-0.21c-2.22-1.32-5.07-1.74-7.84-1.9c-2.8-0.14-5.64,0.01-8.47,0.3
				c-5.67,0.59-11.3,1.69-16.88,2.98c-11.16,2.61-22.2,5.94-33.02,9.74l-0.12,0.04l-0.13,0.01c-1.9,0.19-3.9,0.54-5.23,1.5
				c-0.65,0.48-1,1.07-1.02,1.78c-0.01,0.36,0.05,0.75,0.19,1.13c0.06,0.2,0.15,0.39,0.24,0.58c0.09,0.18,0.21,0.39,0.3,0.51
				l0.51,0.72l-0.65,0.6c-0.53,0.49-0.94,1.52-1.2,2.53c-0.26,1.03-0.43,2.12-0.54,3.22c-0.22,2.2-0.27,4.47-0.2,6.68l-0.02-0.14
				c0.1,0.8,0.29,1.59,0.3,2.39c0.07,0.8,0.08,1.6,0.04,2.4c-0.02,0.8-0.11,1.59-0.21,2.38c-0.11,0.79-0.25,1.57-0.44,2.34
				c-0.36,1.54-0.84,3.05-1.43,4.5c-0.3,0.73-0.62,1.45-0.97,2.16c-0.35,0.71-0.71,1.39-1.15,2.11l0.1-0.21l-2.22,6.02
				c-0.76,2-1.64,3.96-2.46,5.95c-0.95,1.94-1.79,3.92-2.91,5.79c-0.5,0.96-1.09,1.89-1.71,2.79c-0.29,0.47-0.65,0.9-1.01,1.34
				c-0.37,0.46-0.68,0.83-1.33,1.34l-0.62,0.49l-0.5-0.61c-0.74-0.88-0.8-1.49-1.04-2.16c-0.21-0.66-0.31-1.32-0.46-1.97
				c-0.3-1.3-0.42-2.61-0.64-3.91c-0.44-2.59-0.73-5.2-1.07-7.79c-0.65-5.19-2.87-10.15-1.37-15.64l0-0.02l-0.29-0.02
				c-0.04-1.33-1.34-2.79-2.35-4.08c-1.03-1.31-2.22-2.55-3.48-3.64l-0.03-0.04l-0.01-0.02c-0.86-0.92-1.46-1.93-1.99-2.95
				c-0.52-1.02-0.94-2.07-1.35-3.11c-0.78-2.11-1.4-4.24-1.96-6.38c-1.12-4.29-1.98-8.62-2.74-12.96
				c-1.51-8.69-2.64-17.41-3.52-26.18l0.58,0.73c-1.71-0.61-3.4-1.28-5.05-2.06c-0.81-0.42-1.65-0.78-2.43-1.25
				c-0.8-0.44-1.59-0.9-2.35-1.41c-3.08-1.96-5.87-4.43-8.16-7.29c-2.3-2.87-4.05-6.17-5.19-9.66c-0.57-1.75-0.98-3.54-1.23-5.36
				c-0.24-1.83-0.37-3.63-0.21-5.55l0.08-1.03l1,0.34l8.67,2.91l-0.29-0.04c1.44,0.04,2.47,0.5,3.56,0.91
				c1.07,0.43,2.1,0.9,3.11,1.39c2.03,0.98,4.02,2.01,6.01,3.05c3.97,2.07,7.92,4.15,11.95,6.01c2.02,0.93,4.06,1.72,6.13,2.45
				c2.07,0.73,4.21,1.35,6.29,1.35h0.72l0.83-0.02c0.43-0.09,0.96-0.15,1.49-0.33c0.98-0.3,1.93-0.75,2.45-1.43
				c0.53-0.66,0.58-1.53,0.27-2.45c-0.3-0.9-0.91-1.82-1.56-2.55l-0.18-0.2l-0.02-0.22c-0.04-0.33-0.08-0.67-0.02-1.06
				c0.05-0.38,0.19-0.83,0.53-1.2s0.81-0.54,1.2-0.59c0.39-0.06,0.75-0.03,1.07,0.02c1.31,0.23,2.36,0.73,3.43,1.31l-0.45-0.1
				l1.55-0.2c0.5-0.11,1-0.23,1.5-0.36c0.47-0.19,0.97-0.3,1.41-0.55c0.46-0.21,0.88-0.46,1.27-0.75c0.21-0.13,0.37-0.31,0.56-0.46
				c0.19-0.16,0.35-0.33,0.5-0.52c0.31-0.36,0.58-0.77,0.77-1.2c0.22-0.42,0.34-0.89,0.45-1.36c0.08-0.46,0.12-0.99,0.08-1.38
				l0.62,0.64c-0.21-0.04-0.38-0.07-0.62-0.14c-0.07-0.02-0.12-0.04-0.23-0.09c-0.07-0.05-0.11-0.02-0.32-0.26
				c-0.02-0.01-0.12-0.17-0.15-0.35c-0.03-0.19,0-0.32,0.06-0.45c0.19-0.33,0.26-0.29,0.33-0.36c0.43-0.19,0.4-0.12,0.56-0.15
				c0.43-0.04,0.78-0.04,1.15-0.05l1.09,0.01c0.4,0,0.63,0.02,0.91-0.05c1.1-0.21,2.13-1.16,2.96-2.2c1.66-2.14,2.84-4.77,3.76-7.37
				l0.04-0.1l0.02-0.03c0.57-0.83,1.28-0.72,1.69-0.75c0.47,0.01,0.87,0.09,1.27,0.18c0.79,0.18,1.54,0.43,2.27,0.7
				c1.46,0.54,2.87,1.16,4.26,1.81c2.78,1.3,5.49,2.71,8.18,4.2l-0.31-0.1c2.68,0.13,5.52-0.5,7.22-2.45
				c0.84-0.96,1.48-2.19,1.79-3.47c0.15-0.65,0.05-1.28,0.09-1.95c0.04-0.66,0.03-1.36-0.06-1.97l-0.02-0.12l0.03-0.08
				c0.03-0.19-0.25-0.52-0.41-0.85c-0.18-0.34-0.31-0.7-0.57-1.03c-0.5-0.67-1.07-1.31-1.68-1.93c-1.24-1.23-2.6-2.39-3.97-3.51
				c-2.75-2.23-6.24-4.25-9.17-6.24l-0.94-0.08l-0.04-0.31l-0.44-8.19l1.76,0.06c-0.53,1.55-0.95,3.07-1.54,4.6
				c-0.29,0.77-0.53,1.52-0.86,2.28c-0.35,0.77-0.61,1.49-1.17,2.3c-0.09,0.11-0.14,0.21-0.33,0.35c-0.09,0.06-0.22,0.16-0.48,0.19
				c-0.3,0.04-0.64-0.2-0.71-0.33c-0.32-0.54-0.22-0.7-0.27-0.96c-0.02-0.47,0.01-0.89,0.04-1.31c0.1-0.9,0.14-1.46-0.1-2.13
				c-0.46-1.28-1.76-2.23-3.12-2.91c-2.81-1.36-6.03-1.96-9.2-2.4c-3.19-0.42-6.44-0.62-9.65-0.62l-0.43,0l-0.18-0.4
				c-0.46-1.01-1.38-1.87-2.4-2.55c-1.04-0.69-2.19-1.25-3.37-1.74c-2.37-0.97-4.88-1.67-7.41-2.26c-5.06-1.16-10.26-1.9-15.44-2.36
				l0.14,0c-2.98,0.36-5.95,0.58-8.92,0.76l-8.91,0.41l-8.91,0.28l-8.92,0.17c-5.99-0.04-11.96-0.84-17.76-2.24
				c-5.81-1.4-11.47-3.35-16.95-5.72c-5.47-2.37-10.78-5.12-15.83-8.32l-14.94-9.7l-29.97-19.38l-0.31-0.14l0-0.21
				c-0.01-1.05,0.66-1.5,1.07-1.99c0.45-0.47,0.99-0.87,1.48-1.25c1-0.76,2.05-1.43,3.1-2.08c2.1-1.29,4.27-2.46,6.45-3.59
				c4.36-2.25,8.79-4.35,13.26-6.35l-0.22,0.24c0.42-0.97,0.86-1.94,1.45-2.84c0.28-0.46,0.6-0.88,0.94-1.3
				c0.36-0.41,0.7-0.94,1.18-1.31l0.1-0.21l0.16,0c3.3-0.04,6.7-0.26,10.04-0.63c3.35-0.39,6.69-0.81,10.02-1.36
				c6.66-1.11,13.27-2.45,19.78-4.21c6.5-1.77,12.93-3.87,19.04-6.72c3.04-1.43,6.01-3.04,8.75-4.98c2.71-1.99,5.38-4.12,8.3-5.84
				c5.75-3.58,12.15-6.22,18.87-7.24c3.34-0.48,6.81-0.63,10.13,0.16c3.32,0.61,6.69,0.82,10.06,0.81c6.75-0.03,13.47-1,20.07-2.42
				c6.59-1.46,13.09-3.36,19.4-5.78l-0.01,0.01c1.25-1.14,2.72-1.98,4.15-2.86c1.44-0.86,2.92-1.68,4.4-2.46
				C239.6,162.65,240.9,163.05,242.04,163.8z M233.92,164.76c-1.43,0.88-2.89,1.73-4.13,2.87l-0.01,0.01
				c-6.3,2.45-12.8,4.38-19.39,5.87c-6.6,1.46-13.33,2.46-20.1,2.52c-3.38,0.03-6.78-0.17-10.12-0.76c-3.29-0.77-6.7-0.59-10.02-0.1
				c-6.65,1.05-13,3.69-18.68,7.28c-2.89,1.73-5.52,3.84-8.24,5.87c-2.77,1.98-5.75,3.63-8.81,5.08
				c-6.14,2.89-12.59,5.05-19.11,6.86c-6.53,1.8-13.16,3.21-19.83,4.35c-3.33,0.57-6.68,1.07-10.04,1.48
				c-3.37,0.39-6.71,0.81-10.16,0.82l0.26-0.07c-0.34,0.26-0.7,0.65-1.01,1.02c-0.31,0.39-0.61,0.79-0.87,1.22
				c-0.55,0.84-0.96,1.77-1.36,2.7l-0.07,0.17l-0.16,0.07c-4.44,2.01-8.85,4.12-13.17,6.38c-2.16,1.14-4.29,2.31-6.36,3.59
				c-1.03,0.64-2.04,1.3-2.99,2.03c-0.47,0.37-0.93,0.74-1.33,1.16c-0.39,0.38-0.75,0.93-0.71,1.15l-0.22-0.35l29.92,19.32
				l14.95,9.67c4.99,3.15,10.26,5.88,15.68,8.22c5.42,2.33,11.03,4.26,16.77,5.63c5.73,1.38,11.62,2.17,17.5,2.2l8.89-0.14l8.9-0.22
				l8.9-0.31c2.96-0.19,5.95-0.1,8.86-0.51l0.08-0.01l0.02-0.26c5.26,0.46,10.43,0.91,15.59,2.08c2.58,0.6,5.14,1.32,7.62,2.33
				c1.24,0.51,2.46,1.1,3.61,1.86c1.13,0.77,2.24,1.73,2.88,3.13l-0.61-0.39c3.3,0,6.57,0.2,9.84,0.62
				c3.26,0.45,6.54,1.04,9.63,2.51c1.49,0.75,3.1,1.81,3.79,3.65c0.36,0.87,0.27,1.98,0.19,2.69c-0.03,0.39-0.05,0.79-0.03,1.13
				c-0.02,0.13,0.09,0.41-0.01,0.21c-0.02-0.03-0.25-0.23-0.46-0.19c-0.16,0.01-0.21,0.07-0.22,0.07c-0.02,0.02,0.04-0.04,0.08-0.09
				c0.38-0.53,0.72-1.31,1.04-2.03c0.32-0.73,0.61-1.48,0.9-2.24c0.58-1.51,1.12-3.04,1.64-4.57l0.92-2.73l0.41,2.86l1.15,8.09
				l-0.3-0.48c2.98,2.02,5.88,4.12,8.68,6.39c1.4,1.14,2.77,2.31,4.07,3.6c0.64,0.65,1.27,1.32,1.84,2.08
				c0.29,0.37,0.55,0.79,0.79,1.24c0.21,0.47,0.37,0.98,0.37,1.7v-0.2c0,0.79,0.1,1.51,0.06,2.26c-0.04,0.75-0.14,1.49-0.31,2.22
				c-0.34,1.46-0.98,2.9-2.01,4.08c-1.03,1.16-2.41,2.01-3.87,2.44c-1.46,0.44-2.96,0.57-4.43,0.51l-0.17-0.01l-0.15-0.09
				c-2.64-1.46-5.34-2.86-8.07-4.14c-1.37-0.63-2.75-1.24-4.15-1.75c-0.69-0.25-1.4-0.49-2.09-0.64c-0.34-0.08-0.69-0.14-0.98-0.15
				c-0.31-0.04-0.5,0.12-0.36-0.02l0.06-0.13c-0.48,1.41-1.03,2.74-1.68,4.06c-0.65,1.31-1.38,2.6-2.32,3.78
				c-0.94,1.15-2.09,2.37-3.83,2.75c-0.42,0.1-0.91,0.08-1.23,0.08l-1.05-0.01c-0.34,0-0.71,0.01-0.99,0.04
				c-0.02-0.01-0.23,0.07,0.04-0.04c0.06-0.05,0.09,0,0.28-0.31c0.05-0.12,0.08-0.25,0.06-0.42c-0.03-0.17-0.13-0.31-0.14-0.32
				c-0.18-0.2-0.18-0.15-0.21-0.18c-0.04-0.01,0,0,0.02,0c0.1,0.03,0.28,0.07,0.42,0.1l0.57,0.1l0.05,0.54
				c0.07,0.69,0.01,1.25-0.09,1.86c-0.13,0.59-0.29,1.18-0.56,1.73c-0.25,0.55-0.58,1.08-0.98,1.53c-0.19,0.24-0.39,0.46-0.62,0.65
				c-0.23,0.2-0.44,0.42-0.69,0.57c-0.48,0.37-0.99,0.65-1.53,0.89c-0.52,0.28-1.09,0.39-1.63,0.6c-0.55,0.14-1.1,0.36-1.66,0.48
				l-1.68,0.24l-0.21,0.03l-0.24-0.15c-0.91-0.5-1.95-0.91-2.88-1.06c-0.47-0.08-0.87-0.03-0.93,0.08c-0.11,0.08-0.18,0.5-0.11,0.97
				l-0.21-0.43c0.83,0.93,1.49,1.91,1.92,3.12c0.44,1.16,0.41,2.79-0.51,3.91c-0.88,1.1-2.07,1.61-3.2,1.98
				c-0.53,0.18-1.1,0.31-1.76,0.44c-0.53,0.09-1.13,0.13-1.79,0.12c-2.4-0.12-4.62-0.76-6.77-1.5c-2.15-0.75-4.23-1.64-6.28-2.57
				c-4.1-1.87-8.07-3.96-12.04-6.03c-1.98-1.03-3.96-2.05-5.96-3.01c-1-0.48-2.01-0.94-3.01-1.34c-0.99-0.39-2.09-0.77-2.89-0.79
				l-0.18,0l-0.11-0.04l-8.67-2.9l1.08-0.69c-0.13,1.65-0.02,3.44,0.22,5.14c0.24,1.72,0.64,3.42,1.17,5.08
				c1.08,3.3,2.74,6.42,4.92,9.12c2.18,2.71,4.82,5.05,7.77,6.92c0.73,0.49,1.49,0.92,2.25,1.34c0.75,0.45,1.56,0.8,2.34,1.2
				c1.59,0.75,3.22,1.39,4.88,1.98l0.52,0.19l0.05,0.54c0.89,8.71,2.03,17.42,3.54,26.04c0.77,4.31,1.63,8.6,2.73,12.81
				c0.55,2.1,1.16,4.19,1.91,6.21c0.75,1.99,1.66,4.01,2.94,5.42l-0.06-0.06c1.39,1.2,2.65,2.46,3.8,3.9
				c0.57,0.71,1.1,1.48,1.54,2.34c0.23,0.42,0.42,0.88,0.57,1.35c0.16,0.49,0.24,1.01,0.26,1.56l0-0.08
				c0.47,5.18,1.02,10.37,1.68,15.52c0.33,2.58,0.69,5.15,1.13,7.7c0.22,1.28,0.45,2.54,0.74,3.79c0.15,0.62,0.3,1.23,0.48,1.82
				c0.15,0.56,0.47,1.23,0.58,1.36l-1.14-0.11c0.18-0.17,0.61-0.57,0.88-0.95c0.31-0.39,0.63-0.77,0.9-1.21
				c0.58-0.84,1.13-1.72,1.62-2.65c1.07-1.79,1.89-3.74,2.81-5.63c0.8-1.96,1.66-3.88,2.41-5.86l2.19-5.96l0.04-0.1l0.06-0.1
				c0.36-0.59,0.73-1.25,1.04-1.91c0.33-0.66,0.62-1.34,0.91-2.02c0.55-1.37,1-2.79,1.33-4.22c0.17-0.72,0.3-1.44,0.4-2.17
				c0.09-0.73,0.17-1.46,0.19-2.19c0.03-0.73,0.02-1.46-0.04-2.18c-0.01-0.73-0.19-1.43-0.28-2.15l-0.02-0.14
				c-0.08-2.34-0.04-4.64,0.19-6.98c0.13-1.16,0.29-2.33,0.59-3.51c0.34-1.16,0.66-2.4,1.79-3.52l-0.14,1.32
				c-0.21-0.29-0.33-0.52-0.47-0.79c-0.13-0.26-0.25-0.53-0.35-0.82c-0.2-0.56-0.31-1.18-0.3-1.83c0-1.33,0.83-2.63,1.82-3.31
				c0.98-0.73,2.05-1.09,3.09-1.37c1.05-0.27,2.1-0.42,3.14-0.53l-0.25,0.06c10.92-3.85,21.96-7.22,33.24-9.86
				c5.64-1.29,11.34-2.39,17.14-2.99c2.9-0.29,5.83-0.45,8.78-0.29c2.93,0.19,5.99,0.56,8.78,2.2l-0.73-0.12
				c15.16-3.36,30.29-7.01,45.28-11.07c7.49-2.05,14.96-4.2,22.31-6.65c3.67-1.23,7.32-2.53,10.86-4.04
				c1.76-0.76,3.51-1.56,5.15-2.5c0.81-0.47,1.6-0.98,2.29-1.54c0.67-0.53,1.27-1.28,1.25-1.67l-0.14-3.83l1.85,3.4
				c2.82,5.19,5.26,10.5,7.49,15.94c2.2,5.43,4.18,10.97,5.74,16.63c1.58,5.66,2.78,11.44,3.33,17.32c0.15,1.47,0.23,2.94,0.28,4.42
				c0.05,1.48,0.05,2.96-0.02,4.44c-0.08,1.48-0.15,2.96-0.37,4.43c-0.16,1.48-0.47,2.94-0.76,4.4l0.02-0.1
				c-0.12,1.18-0.21,2.38-0.25,3.56c-0.04,1.18-0.05,2.39,0.13,3.46c0.04,0.26,0.11,0.51,0.18,0.65c0.03,0.08,0.07,0.1,0.01,0.05
				c-0.05-0.06-0.28-0.09-0.32-0.06c0.02,0.03,0.53-0.5,0.79-0.94c0.61-0.94,1.14-2.02,1.64-3.1c1.97-4.36,3.58-8.94,5.16-13.51
				l0.02-0.06l0.03-0.05c7.99-15.17,16.11-30.27,24.41-45.28c4.16-7.5,8.36-14.97,12.7-22.38c2.17-3.7,4.38-7.38,6.67-11.02
				c1.15-1.82,2.32-3.62,3.56-5.39c0.62-0.89,1.26-1.77,1.94-2.62c0.34-0.43,0.7-0.86,1.09-1.27c0.43-0.41,0.73-0.83,1.57-1.18
				l0.14-0.06l0.22,0.04c3.41,0.56,7,0.65,10.48,0.33c3.48-0.33,6.94-1.13,10.08-2.62c3.13-1.48,5.95-3.65,7.94-6.48
				c1-1.41,1.87-2.92,2.49-4.54c0.62-1.58,1.15-3.36,1.74-5.03c2.32-6.77,4.75-13.51,7.34-20.18c2.62-6.66,5.3-13.31,8.71-19.68
				l0.16,0.83l-16.94-14.14l-0.26-0.22l0.05-0.37c0.2-1.6,0.01-3.4-0.39-5.05c-0.41-1.67-1.07-3.29-1.93-4.79
				c-1.71-3.02-4.2-5.56-6.99-7.65c-2.83-2.06-5.95-3.75-9.22-5.08c-1.63-0.67-3.3-1.27-4.98-1.8c-1.68-0.54-3.41-0.99-5.12-1.49
				c-1.71-0.51-3.44-0.93-5.14-1.52c-1.7-0.57-3.43-1.09-5.09-1.76c-1.68-0.62-3.35-1.27-4.99-2.02c-1.66-0.68-3.24-1.54-4.86-2.34
				c-1.56-0.9-3.14-1.78-4.62-2.81c-1.5-1-2.93-2.13-4.27-3.34c-1.33-1.23-2.59-2.56-3.66-4.04c-1.09-1.46-1.97-3.09-2.78-4.65
				l-0.06-0.11l-0.01-0.19c-0.02-0.31-0.19-0.83-0.48-1.2c-0.28-0.39-0.65-0.74-1.06-1.03c-0.42-0.28-0.87-0.56-1.36-0.75
				c-0.5-0.19-0.98-0.42-1.51-0.53c-0.52-0.14-1.03-0.31-1.58-0.37c-0.54-0.08-1.08-0.21-1.62-0.26c-1.1-0.08-2.19-0.24-3.3-0.22
				c-1.1-0.04-2.22-0.08-3.32-0.01c-1.11,0.03-2.25-0.15-3.35-0.03c-1.1,0.11-2.26-0.18-3.37-0.03l-3.3,0.47l-0.08,0.01l0,0.39
				c-3.15-0.42-6.15-0.83-9.13-1.82c-2.98-1.01-5.88-2.26-8.52-4.01c-2.65-1.72-5.02-3.96-6.68-6.7c-0.38-0.71-0.77-1.4-1.06-2.15
				c-0.33-0.73-0.53-1.51-0.75-2.28c-0.17-0.78-0.27-1.56-0.33-2.36c-0.12-0.79-0.04-1.6-0.04-2.39v-0.05l-0.04-0.08
				c0.4-1.3,0.3-2.97-0.83-3.6c-1.12-0.67-2.75-0.48-4.17-0.2c-2.93,0.65-5.75,1.92-8.49,3.25l-0.03,0.01l-0.03,0.01
				c-3.79,1.38-7.57,2.83-11.29,4.39c-1.86,0.78-3.71,1.59-5.51,2.47c-0.9,0.45-1.79,0.9-2.65,1.41c-0.43,0.25-0.84,0.52-1.23,0.81
				c-0.37,0.27-0.78,0.65-0.86,0.9l-0.14-0.39c1.64,1.29,3.12,2.71,4.51,4.24c1.38,1.53,2.65,3.18,3.68,4.98
				c1.04,1.79,1.85,3.75,2.19,5.83c0.35,2.07,0.12,4.24-0.66,6.19l0.01-0.03c-0.93,2.63-2.45,4.92-4.21,7
				c-1.8,2.04-3.88,3.85-6.2,5.28c-4.63,2.88-9.96,4.49-15.35,5.05c-2.69,0.31-5.41,0.38-8.11,0.28c-2.71-0.08-5.4-0.37-8.07-0.77
				c-2.67-0.39-5.33-0.92-7.95-1.55c-2.62-0.64-5.23-1.34-7.81-2.15l-3.85-1.25l-3.81-1.39l-3.75-1.53l-3.67-1.71
				c-2.4-1.24-4.79-2.51-7-4.07c-2.22-1.53-4.35-3.21-6.23-5.17c-1.87-1.95-3.51-4.13-4.78-6.52c-1.28-2.38-2.21-4.93-2.99-7.51
				c-0.82-2.55-1.47-5.23-2.95-7.49c-0.74-1.12-1.72-2.08-2.86-2.81c-1.13-0.75-2.43-1.16-3.72-1.54
				C236.83,163.07,235.36,163.89,233.92,164.76z"/>
		</g>
		<path fill="#262C62" d="M180.7,269.41c0,0-3.37-47.47-10.74-52.1c-7.36-4.63-14.71-3.55-14.35-1.02l0.43,3.04
			c0,0-25.62-13.41-31.34-6.41c-5.72,7,24.11,0.72,30.3,15.33l3.47,10.83c0,0-25.89-22.11-41.93-22.42
			c-16.04-0.31,39.97,23.76,41.84,26.08l-0.24,5.71l-37.41-19.99c0,0,21.72,18.6,36.38,23.75c0,0-16.06,13.11-37.59,7.38
			c0,0-28.66-12.38-26.91-21.92c0,0-14.13,31.42,64.31,35.11L180.7,269.41z"/>
		<path fill="#FFFFFF" d="M257.53,214.26l-41.91-0.78c0,0-14.3,44.85,17.99,50.61C233.61,264.08,262.09,257.48,257.53,214.26z"/>
		<path fill="#262C62" d="M425.21,284.76c0,0-105.38,12.45-121.22,17.14"/>
		<path fill="#262C62" d="M422.4,292.67c0,0-45.44-0.22-81.62,11.54"/>
		<path fill="#262C62" d="M272.98,285.94c0,0-45.64,13.69-55.5,15.73"/>
		<path fill="#262C62" d="M247.3,313.24c0,0,22.16,7.36,52.39,7.04"/>
		<path fill="#262C62" d="M243.31,321.12c0,0,4.78,1.56,12.12,3.31c3.67,0.86,7.96,1.84,12.62,2.62c4.64,0.84,9.64,1.51,14.65,2.06
			c2.51,0.21,5.02,0.5,7.5,0.62c2.48,0.09,4.93,0.3,7.3,0.24c2.37-0.11,4.67,0,6.83-0.29c2.16-0.24,4.22-0.35,6.09-0.65
			c1.88-0.3,3.58-0.64,5.1-0.91c1.51-0.28,2.8-0.69,3.87-0.98c2.13-0.58,3.33-0.96,3.33-0.96l-0.05-0.2c0,0-1.26,0.14-3.43,0.45
			c-1.09,0.12-2.39,0.39-3.91,0.53c-1.52,0.14-3.23,0.25-5.08,0.45c-1.86,0.19-3.89,0.19-6.03,0.3c-2.13,0.13-4.4,0.08-6.73,0.12
			c-2.33,0.11-4.75-0.05-7.21-0.04c-2.46-0.03-4.95-0.22-7.44-0.33c-4.98-0.39-9.96-0.91-14.6-1.6c-4.65-0.66-8.96-1.44-12.66-2.15
			c-7.38-1.45-12.21-2.81-12.21-2.81L243.31,321.12z"/>
		<path fill="#262C62" d="M442.02,256.29c0,0-156.42,22.64-184.36,34.33c0,0,68.69,1.64,173.05-12.09c0,0-65.58,79.97-144.56,79.79
			c0,0-0.17,17.05,92.22-15.62c0,0,17.43,39.33,9.74,61.58c0,0,53.75-94.3,63.65-97.25C451.78,307.03,541.21,271.67,442.02,256.29z"
			/>
		<path fill="#262C62" d="M240.07,295.17c2.1,0.1,23.92-2.35,23.18,14.27c0,0-13.6,1.92-15.94,3.8c0,0-7.19,4.11-3.9,27.38
			c0,0-3.06,6.62-15.41,7.34c0,0-16.34,16.25-12.1,31.64c0,0-12.34,36.83-14.6,53.67c0,0-11.48-8.18-5.01-35.42
			c0,0-13-4.35-12.19-16.85c0,0,13.5-0.36,11.6-11.45c0,0-10.35-20.73-5.01-35.41C190.69,334.14,194.33,292.86,240.07,295.17z"/>
		<path fill="#262C62" d="M352.19,179.39c0,0,1.41,6.32-5.04,15.48c0,0,12.09-2.87,11.16-16.35
			C357.39,165.05,352.28,175.19,352.19,179.39z"/>
		<path fill="#262C62" d="M362.5,181.08c0,0-4.43,14.37-3.76,15.41l2.53-0.36c0,0-0.24-5.46,1.6-12.43
			c1.85-6.97,4.16,2.09,4.16,2.09s4.26,4.6,1.15,8.14l4.72-6.72L362.5,181.08z"/>
		<path fill="#262C62" d="M238,174.71c0,0,33.6,55.11,93.16,38.43C331.16,213.14,267.47,233.5,238,174.71z"/>
		<g>
			<path fill="#262C62" d="M53,225.03c0,0-36.11,6.23-44.46,27.54c0,0-16,18.26-3.66,32.51c0,0,20.58,6.89,24.84,11.45
				c0,0,21.52,20.8,81.67,15.59c0,0,36.8-6.56,38.25,4.09c0,0,33.72,19.48,50.56,18.14c0,0,5.86-5.99,1.82-9.03
				c-4.04-3.04,14.59,4.64,14.31-4.61c0,0-1.8-1.81-6.79-4.2c0,0,16.26-1.78,15.76-5.32c0,0-2.3-8.96-4.18-7.66
				c-1.88,1.3-1.88,1.3-1.88,1.3s26.86,14.78,28.61,1.63c0,0-0.06-11.34-13.35-14.11c0,0-3.52-17.56-18.4-17.01
				c0,0-14.79-13.39-55.13-3.04c0,0-19.22-0.89-46.24-5.85C114.74,266.44,72.89,246.37,53,225.03z"/>
			<path fill="#6DCFF6" d="M56.3,228.32c1.08,1.11,2.3,2.09,3.45,3.14c1.14,1.05,2.34,2.05,3.56,3.01s2.39,1.99,3.66,2.9
				c2.48,1.88,4.98,3.73,7.55,5.48c1.27,0.91,2.56,1.76,3.86,2.62c1.3,0.85,2.58,1.73,3.91,2.55c5.24,3.36,10.61,6.5,16.03,9.55
				c5.43,3.03,10.93,5.95,16.52,8.66l-0.06-0.02l11.51,1.83l5.75,0.92c1.92,0.34,3.85,0.49,5.78,0.75l5.78,0.7
				c1.93,0.21,3.85,0.51,5.79,0.65c3.87,0.32,7.74,0.73,11.6,0.93l-0.09,0.01l6.93-1.6c2.33-0.45,4.67-0.83,7.01-1.25l3.53-0.42
				c1.18-0.12,2.35-0.33,3.54-0.37l3.56-0.22c1.18-0.1,2.37-0.05,3.56-0.06c1.19,0.02,2.38-0.05,3.57,0.06l3.56,0.23l3.54,0.46
				c1.18,0.17,2.34,0.44,3.51,0.66c1.17,0.24,2.31,0.6,3.46,0.89c1.13,0.39,2.27,0.72,3.37,1.19c1.12,0.43,2.2,0.95,3.26,1.5
				c1.04,0.6,2.08,1.17,3.04,1.99l-0.26-0.09l1.74,0.06c0.58,0.01,1.16,0.04,1.73,0.18l1.71,0.33l1.64,0.6
				c0.56,0.17,1.05,0.48,1.57,0.76c0.51,0.28,1.04,0.54,1.48,0.91c0.46,0.36,0.95,0.68,1.38,1.06l1.26,1.2
				c0.4,0.42,0.75,0.88,1.13,1.31c0.39,0.43,0.69,0.93,1.03,1.4c0.67,0.94,1.24,1.95,1.75,2.98c0.52,1.02,0.98,2.08,1.37,3.17
				c0.4,1.09,0.74,2.17,1,3.32l-0.31-0.31c0.86,0.23,1.73,0.43,2.58,0.7c0.82,0.35,1.69,0.57,2.47,1.02l1.19,0.62l1.11,0.75
				c0.38,0.24,0.73,0.52,1.06,0.83c0.33,0.31,0.7,0.56,0.99,0.91l0.91,0.99l0.8,1.09c0.49,0.75,0.94,1.54,1.3,2.36
				c0.36,0.82,0.59,1.67,0.81,2.55c0.21,0.88,0.35,1.75,0.35,2.69v0.03l0.05,0.02c-0.13,0.71-0.25,1.41-0.54,2.08
				c-0.29,0.67-0.7,1.28-1.22,1.81c-0.27,0.25-0.56,0.47-0.85,0.69c-0.32,0.17-0.63,0.37-0.96,0.51c-0.67,0.27-1.37,0.46-2.07,0.57
				c-2.83,0.41-5.61-0.13-8.28-0.78c-5.34-1.41-10.39-3.63-15.26-6.18l-0.66-0.34l0.62-0.43l1.19-0.83l0.59-0.41
				c0.2-0.14,0.7-0.37,1.05-0.19c0.37,0.1,0.57,0.33,0.76,0.53c0.18,0.21,0.3,0.43,0.43,0.65c0.29,0.43,0.39,0.9,0.6,1.35
				c0.82,1.81,1.13,3.71,1.64,5.6l-0.51,0.1l0,0.03c0.07,0.52,0.37,0.94,0.1,1.28c-0.27,0.34-0.09,0.53-0.42,0.74
				c-0.65,0.43-1.33,0.73-2.02,1c-1.38,0.53-2.79,0.91-4.21,1.24c-2.84,0.65-5.7,1.11-8.59,1.46l0.16-0.92l1.79,0.94
				c0.59,0.33,1.21,0.6,1.77,0.97l1.72,1.09c0.55,0.43,1.1,0.77,1.64,1.29l0.15,0.14l0,0.2c0,0.65-0.04,1.31-0.27,1.96
				c-0.19,0.66-0.61,1.24-1.09,1.72c-1.03,0.94-2.35,1.3-3.59,1.46c-2.51,0.31-4.96-0.05-7.36-0.41l-1.78-0.28
				c-0.29-0.04-0.58-0.08-0.84-0.09c-0.1-0.04-0.28,0.11-0.01-0.11c0.15-0.4,0.05-0.32,0.04-0.39l0.08,0.08
				c0.38,0.36,1.02,0.78,1.35,1.4c0.4,0.58,0.55,1.29,0.59,1.97c-0.01,1.37-0.54,2.58-1.15,3.67c-0.63,1.1-1.38,2.04-2.24,2.97
				l-0.14,0.12l-0.18,0l-3.46,0.04l-3.41-0.37c-1.13-0.18-2.24-0.43-3.36-0.65c-1.13-0.19-2.21-0.56-3.31-0.83
				c-1.1-0.28-2.19-0.6-3.27-0.96c-1.08-0.36-2.17-0.67-3.23-1.07c-2.14-0.77-4.26-1.56-6.36-2.43c-2.11-0.84-4.17-1.77-6.24-2.69
				c-2.07-0.93-4.11-1.9-6.15-2.9c-4.06-2-8.08-4.09-12.02-6.33l-0.16-0.09l-0.05-0.23c-0.17-0.74-0.4-1.5-0.95-2.06
				c-0.48-0.61-1.16-1.07-1.86-1.48c-1.44-0.76-3.06-1.24-4.7-1.54c-3.29-0.6-6.7-0.84-10.08-0.8c-6.75,0.12-13.51,0.98-20.2,1.93
				l-0.02,0.14h-0.01l-7,0.47l-3.49,0.46l-3.51,0.21l-7.04,0.08l-7.04-0.45c-2.35-0.03-4.68-0.46-7.02-0.63
				c-2.35-0.16-4.67-0.54-6.99-0.89l-3.49-0.52l-3.45-0.71l-3.45-0.71l-3.41-0.89c-2.29-0.54-4.51-1.32-6.75-2.03
				c-1.13-0.33-2.21-0.82-3.31-1.22c-1.1-0.42-2.2-0.83-3.26-1.34c-2.16-0.94-4.26-1.99-6.31-3.16c-2.04-1.18-4.02-2.45-5.86-3.97
				c-1.65-1.67-3.65-2.82-5.73-3.9c-2.07-1.07-4.2-2.03-6.35-2.95c-4.31-1.81-8.7-3.47-13.12-4.98l-0.08-0.03l-0.04-0.05l-1.34-1.82
				l-0.67-0.91l-0.51-1.01c-0.32-0.68-0.71-1.33-0.98-2.04l-0.66-2.16c-0.25-0.71-0.25-1.49-0.38-2.22L0,273.96l0.01-1.13
				c0.03-0.75-0.05-1.51,0.1-2.25c0.11-0.74,0.18-1.49,0.32-2.23l0.54-2.19c0.2-0.72,0.48-1.42,0.71-2.13
				c0.22-0.71,0.56-1.39,0.84-2.08c0.28-0.69,0.62-1.36,0.97-2.02c0.67-1.34,1.44-2.62,2.26-3.87c0.82-1.25,1.69-2.46,2.67-3.61
				l-0.03,0.05l1.51-3.06c0.43-1.06,1.24-1.9,1.85-2.86l0.98-1.39l1.15-1.25c0.8-0.81,1.48-1.73,2.37-2.44l2.57-2.23l2.77-1.98
				c0.9-0.69,1.9-1.23,2.87-1.82c0.97-0.58,1.93-1.18,2.96-1.67c1.01-0.51,2-1.06,3.03-1.53l3.1-1.38c1.04-0.44,2.1-0.83,3.15-1.25
				c1.05-0.43,2.13-0.76,3.2-1.14c2.14-0.73,4.31-1.38,6.5-1.96c2.18-0.58,4.39-1.11,6.61-1.52L56.3,228.32z M46.39,226.58
				c-2.18,0.6-4.34,1.25-6.48,2c-1.06,0.39-2.14,0.72-3.18,1.16c-1.05,0.43-2.11,0.82-3.14,1.26l-3.09,1.4
				c-1.02,0.48-2.01,1.03-3.01,1.54c-1.02,0.5-1.97,1.1-2.94,1.69c-0.96,0.6-1.95,1.14-2.84,1.83l-2.74,1.99l-2.54,2.22
				c-0.88,0.71-1.55,1.63-2.34,2.44l-1.14,1.25l-0.96,1.39c-0.59,0.95-1.39,1.78-1.81,2.84l-1.47,3.03l-0.02,0.04l-0.01,0.02
				c-0.95,1.12-1.81,2.34-2.61,3.58c-0.8,1.24-1.56,2.52-2.22,3.85c-0.34,0.66-0.67,1.32-0.94,2.01c-0.28,0.69-0.61,1.35-0.82,2.06
				c-0.22,0.7-0.5,1.39-0.68,2.11l-0.52,2.15c-0.12,0.73-0.19,1.46-0.29,2.19c-0.14,0.73-0.06,1.47-0.08,2.2l0,1.1l0.15,1.09
				c0.14,0.72,0.13,1.47,0.38,2.16l0.65,2.1c0.26,0.68,0.64,1.32,0.96,1.98l0.5,0.98l0.65,0.89l1.3,1.77l-0.12-0.08
				c4.44,1.51,8.84,3.16,13.17,4.97c2.16,0.91,4.3,1.88,6.4,2.95c2.08,1.06,4.19,2.29,5.85,3.97c1.78,1.46,3.75,2.74,5.77,3.89
				c2.03,1.14,4.12,2.18,6.26,3.11c1.05,0.5,2.15,0.9,3.24,1.32c1.1,0.4,2.16,0.88,3.28,1.2c2.23,0.7,4.43,1.47,6.71,2l3.39,0.88
				l3.43,0.69l3.44,0.68l3.47,0.5c2.31,0.35,4.62,0.67,6.96,0.83c2.33,0.16,4.65,0.51,6.99,0.53l7.01,0.26l7.02-0.06l3.52,0
				l3.51-0.16l7.03-0.23l-0.04,0c6.74-0.95,13.46-2.09,20.28-2.23c3.41-0.04,6.8-0.19,10.19,0.42c1.69,0.31,3.38,0.79,4.96,1.62
				c0.77,0.44,1.53,0.95,2.12,1.67c0.65,0.67,0.96,1.6,1.15,2.5l-0.21-0.32c3.92,2.22,7.94,4.3,11.99,6.28
				c2.03,0.99,4.07,1.95,6.12,2.88c2.06,0.91,4.12,1.83,6.22,2.66c2.08,0.86,4.2,1.64,6.32,2.4c1.06,0.4,2.14,0.7,3.21,1.06
				c1.07,0.36,2.15,0.68,3.24,0.95c1.09,0.26,2.16,0.63,3.27,0.81c1.1,0.21,2.2,0.46,3.3,0.63l3.33,0.37l3.32-0.02l-0.31,0.15
				c0.78-0.84,1.51-1.8,2.08-2.8c0.57-1,1-2.1,1.01-3.17c-0.05-0.52-0.14-1.03-0.44-1.45c-0.25-0.46-0.67-0.73-1.17-1.18
				c-0.08-0.08-0.15-0.14-0.23-0.25c-0.06-0.2-0.3-0.25-0.03-0.8c0.48-0.42,0.65-0.25,0.84-0.3c0.35,0.01,0.66,0.05,0.96,0.09
				l1.8,0.28c2.37,0.37,4.77,0.71,7.07,0.43c1.14-0.15,2.26-0.48,3.04-1.2c0.37-0.36,0.69-0.79,0.83-1.3
				c0.18-0.5,0.21-1.06,0.22-1.61l0.15,0.34c-0.43-0.41-1-0.79-1.5-1.18l-1.66-1.05c-0.54-0.37-1.16-0.63-1.73-0.95l-1.75-0.92
				l-1.4-0.74l1.55-0.18c2.84-0.34,5.69-0.79,8.48-1.42c1.39-0.32,2.78-0.69,4.09-1.19c0.65-0.26,1.29-0.54,1.85-0.91
				c0.56-0.35,1-0.84,0.93-1.26l0.01,0.05c-0.5-1.84-1.07-3.69-1.85-5.41c-0.19-0.42-0.4-0.85-0.65-1.22
				c-0.12-0.2-0.25-0.36-0.39-0.51c-0.12-0.14-0.29-0.27-0.38-0.28c-0.12-0.04-0.09-0.02-0.29,0.07l-0.6,0.41l-1.19,0.82l-0.04-0.77
				c4.79,2.53,9.82,4.74,15.04,6.13c2.61,0.65,5.32,1.16,7.93,0.78c0.65-0.1,1.27-0.27,1.87-0.51c0.29-0.12,0.56-0.3,0.84-0.44
				c0.24-0.2,0.5-0.38,0.73-0.59c0.44-0.45,0.8-0.97,1.06-1.55c0.26-0.58,0.39-1.22,0.51-1.85l0,0.06c-0.08-1.65-0.51-3.36-1.2-4.9
				c-0.34-0.78-0.76-1.52-1.22-2.23l-0.75-1.03l-0.86-0.94c-0.27-0.33-0.63-0.57-0.94-0.86c-0.31-0.29-0.64-0.56-1-0.78l-1.06-0.72
				l-1.14-0.59c-0.73-0.44-1.58-0.65-2.37-0.99c-0.81-0.26-1.66-0.45-2.48-0.67l-0.25-0.07l-0.05-0.24c-0.49-2.16-1.29-4.3-2.29-6.3
				c-0.49-1-1.05-1.98-1.69-2.9c-0.33-0.45-0.61-0.94-0.99-1.35c-0.36-0.42-0.7-0.87-1.09-1.27l-1.2-1.16
				c-0.41-0.37-0.88-0.67-1.32-1.01c-0.42-0.36-0.93-0.6-1.41-0.87c-0.49-0.26-0.96-0.57-1.49-0.72l-1.56-0.58l-1.63-0.32
				c-0.54-0.14-1.1-0.17-1.65-0.18l-1.67-0.06l-0.16-0.01l-0.1-0.09c-0.85-0.73-1.89-1.32-2.89-1.89c-1.04-0.54-2.09-1.04-3.19-1.47
				c-1.08-0.46-2.21-0.8-3.31-1.18c-1.14-0.29-2.26-0.65-3.41-0.89c-1.16-0.22-2.3-0.49-3.47-0.66l-3.5-0.46l-3.53-0.24
				c-1.17-0.12-2.36-0.04-3.53-0.07c-1.18,0.01-2.36-0.04-3.54,0.06l-3.53,0.21c-1.18,0.03-2.35,0.24-3.52,0.36l-3.52,0.41
				c-2.32,0.41-4.66,0.79-6.98,1.23l-6.91,1.58l-0.05,0.01l-0.04,0c-3.89-0.2-7.76-0.63-11.63-0.96c-1.94-0.15-3.86-0.45-5.79-0.67
				l-5.79-0.71c-1.93-0.26-3.87-0.42-5.78-0.76l-5.76-0.94l-11.51-1.88l-0.03,0l-0.03-0.01c-5.59-2.76-11.07-5.72-16.49-8.79
				c-5.41-3.08-10.76-6.26-15.98-9.66c-1.32-0.82-2.6-1.72-3.9-2.58c-1.29-0.86-2.59-1.73-3.85-2.64c-2.56-1.77-5.05-3.64-7.52-5.53
				c-1.25-0.92-2.42-1.96-3.64-2.93c-1.21-0.97-2.4-1.97-3.55-3.04c-1.14-1.06-2.35-2.04-3.43-3.16L53,225.03
				C50.77,225.44,48.58,225.99,46.39,226.58z"/>
		</g>
		<g>
			<path fill="#262C62" d="M499.39,308.03c0,0,30.53,29.74,58.5,23.21c27.98-6.54,27.12-1.63,23.12-18.94
				c0,0-16.92-21.16-24.36-29.91c0,0,1.54-14.67-29.81-24.69c0,0-22.98-1.91-27.67-5.89c0,0-10.83-7.24-17.24-19.75
				c0,0-12.71-5.94-16.9-2.77c0,0-27.83,3.93-27.69,8.56c0,0,0.93,6.58,4.11,7.16c0,0-6.08,4.47-1.96,8.02
				c0,0,1.71,15.76,6.05,17.21c4.33,1.45-5.23,17.77,16.53,11.08c0,0,11.93,7.73,14.96,3.62c0,0,15.3,2.42,19.35,5.46
				C496.38,290.4,495.44,298.27,499.39,308.03z"/>
			<path fill="#6DCFF6" d="M499.04,308.4l-0.12-0.17c-3.58-8.82-3.21-16.02-3.08-17.58c-3.89-2.63-16.53-4.81-18.6-5.15
				c-0.54,0.6-1.29,0.97-2.24,1.1c-4.3,0.61-11.66-3.88-13-4.72c-6.78,2.05-11.14,2.08-13.48,0.07c-2.07-1.78-2.09-4.81-2.12-7.24
				c-0.02-1.96-0.04-3.65-1.02-3.98c-4.37-1.46-6.1-15.08-6.37-17.44c-1.01-0.92-1.5-1.99-1.45-3.18c0.08-2.1,1.86-4,2.89-4.91
				c-2.76-1.51-3.57-7.01-3.61-7.32c-0.14-4.8,23-8.35,28-9.06c0.62-0.44,1.42-0.73,2.39-0.86c5.4-0.76,14.55,3.47,14.93,3.66
				l0.16,0.07l0.08,0.15c6.27,12.24,16.96,19.49,17.12,19.6c4.51,3.83,27.15,5.75,27.49,5.8c29.65,9.47,30.25,23.01,30.17,25
				c7.42,8.75,24.06,29.55,24.23,29.76l0.1,0.2c0.25,1.11,0.5,2.13,0.73,3.06c1.27,5.31,1.9,7.98,0.72,9.8
				c-1.26,1.95-4.32,2.53-11.03,3.8c-3.61,0.68-8.12,1.54-13.92,2.89c-1.02,0.24-2.07,0.43-3.12,0.58
				C527.87,336.14,499.32,308.68,499.04,308.4z M556.27,282.72l-0.14-0.17l0.02-0.22c0.01-0.14,1.14-14.37-29.34-24.13
				c-0.95-0.08-23.2-1.99-27.91-5.99c-0.11-0.07-10.93-7.43-17.34-19.82c-1.24-0.56-9.48-4.23-14.21-3.56
				c-0.84,0.12-1.55,0.19-2.05,0.57l-0.15-0.22l-0.13,0.02c-11.37,1.6-27.29,5.46-27.21,8.28c0.25,1.73,1.42,6.58,3.73,7l1.17,0.22
				l-0.95,0.71c-0.03,0.02-3.09,2.3-3.18,4.72c-0.03,0.93,0.37,1.75,1.25,2.51l0.15,0.13l0.02,0.2c0.47,4.29,2.4,15.68,5.7,16.78
				c1.68,0.56,1.7,2.69,1.72,4.94c0.02,2.34,0.04,5,1.76,6.47c2.06,1.77,6.25,1.66,12.74-0.34l0.23-0.07l0.2,0.13
				c0.08,0.05,8.24,5.3,12.51,4.7c0.8-0.11,1.38-0.42,1.77-0.95l0.18-0.25l0.31,0.05c0.63,0.1,15.48,2.47,19.58,5.55l0.23,0.18
				l-0.03,0.29c-0.01,0.08-0.88,7.82,2.93,17.28c1.65,1.57,29.07,27.22,54.92,23.57c1.02-0.14,2.04-0.33,3.03-0.56
				c5.83-1.36,10.34-2.21,13.97-2.9c6.22-1.18,9.34-1.77,10.36-3.35c0.94-1.45,0.3-4.14-0.86-9.01c-0.22-0.91-0.45-1.89-0.7-2.96
				C579.33,311,563.37,291.08,556.27,282.72z"/>
		</g>
		<g>
			<defs>
				<path id="SVGID_9_" d="M499.39,308.03c0,0,30.53,29.74,58.5,23.21c27.98-6.54,27.12-1.63,23.12-18.94
					c0,0-16.92-21.16-24.36-29.91c0,0,1.54-14.67-29.81-24.69c0,0-22.98-1.91-27.67-5.89c0,0-10.83-7.24-17.24-19.75
					c0,0-12.71-5.94-16.9-2.77c0,0-27.83,3.93-27.69,8.56c0,0,0.93,6.58,4.11,7.16c0,0-6.08,4.47-1.96,8.02
					c0,0,1.71,15.76,6.05,17.21c4.33,1.45-5.23,17.77,16.53,11.08c0,0,11.93,7.73,14.96,3.62c0,0,15.3,2.42,19.35,5.46
					C496.38,290.4,495.44,298.27,499.39,308.03z"/>
			</defs>
			<clipPath id="SVGID_2_">
				<use xlink:href="#SVGID_9_"  overflow="visible"/>
			</clipPath>
			<path clip-path="url(#SVGID_2_)" fill="#2A3577" d="M495.74,285.84c0,0,4.78-7.55,4.16-9.53c0,0,5.64-1.49,6.45,1.84
				c0,0-0.83,6.31-3.33,8.04c0,0-5.35,1.1-0.64,5.25c0,0,39,13.06,45,28.73c0,0,1.92,8.67,13.34,4.31
				c11.42-4.37,1.76,0.28,1.76,0.28s14.43-0.16-0.95,5.46c-15.38,5.62-2.02,0.29-2.02,0.29s-27.42,3.19-30.73-3.22
				c0,0-40.53-23.86-40.37-30.07C488.56,290.99,492.03,286.37,495.74,285.84z"/>
			<path clip-path="url(#SVGID_2_)" fill="#2A3577" d="M484.02,267.57l-3.59,3.06l-7.08,2.86l-8.09,1.14c0,0-1.4,2.28-2.99,3.2
				c-1.59,0.91-10.95,5.29-10.95,5.29s6.17,2.28,9.11,3.59c2.93,1.31,8.81-0.86,8.81-0.86l3.06-7.66l7.76-1.1l4.97-3.64
				C485.02,273.44,488.17,266.66,484.02,267.57z"/>
			<path clip-path="url(#SVGID_2_)" fill="#2A3577" d="M482.97,253.94l-6.07,0.86l-6.07,0.86l-6.68,3.86c0,0-4.98,1.31-5.85,2.46
				c-0.87,1.16-5.64,1.46-6.8,3.01c-1.16,1.54-4.2,1.95-4.2,1.95l-2.58,0.37l0.63,4.46l6.97-0.98l10.04-4.38l2.48-1.94l7.08-1
				l7.78-3.37l8.1-1.15C487.81,258.94,485.36,251.33,482.97,253.94z"/>
			<path clip-path="url(#SVGID_2_)" fill="#2A3577" d="M469.41,245.63l-6.07,0.86l-4.08-2.05c0,0-3.29,1.04-4.74,0.56
				c-1.45-0.48-3.16-0.42-4.36,0.78c-1.2,1.2-3.69,3.09-3.69,3.09l-3.37,0.48c0,0-1.19,1.32-2.06,2.48
				c-0.87,1.15,1.76,2.73,0.56,3.94c-1.21,1.2,0.3,3.99,0.3,3.99l8.69-1.23l8.96-4.77l5.28-4.06l3.03-0.43
				C467.86,249.26,472.45,245.2,469.41,245.63z"/>
		</g>
		<path fill="#2A3577" d="M352.64,153.59c0,0-29.28,4.4-37.54-6.56c0,0-22.93-12.5-24.37-11.78c-1.45,0.72,1.45-0.72,1.45-0.72
			s-4.69-7.63-5.53-13.56c0,0-8.43,16.31,1.66,25.97c0,0,7.04,20.94,17.05,15.13c0,0,12.03-2.09,23.7-2.77
			C329.07,159.31,345.06,158.53,352.64,153.59z"/>
		<path fill="#2A3577" d="M272.92,160.74c0,0,8.44,34.16,17.68,39.3c0,0,0.97,6.85-14.07-4.58c-15.03-11.43,1.01-0.14,1.01-0.14
			s-19.25-0.76-20.4-21.25c0,0,0.39,5.98,13.31,11.28C270.47,185.34,267.29,162.82,272.92,160.74z"/>
		<path fill="#2A3577" d="M326.41,179.49c0,0-2.71,11.8-22.54,12.1c0,0,12.59,8.73,27.87-5.46c0,0-8.91,4.52-6.07,0.86
			C325.66,186.99,325,180.46,326.41,179.49z"/>
		<path fill="#262C62" d="M362.26,93.66c0,0-15.55,8.65-14.84,15.52c0,0-2.4,8.59,10.74,15.76c0,0,8.85,5.98,5.5-3.1
			c0,0-7.43-5.14-5.22-13.19C358.45,108.65,365.11,91.92,362.26,93.66z"/>
		<path fill="#262C62" d="M353.39,80.21c0,0-6.09-3.27-8.56,2.24"/>
		<path fill="#262C62" d="M324.91,59.47c0,0-1.39-1.25-3.95-2.18c-0.64-0.24-1.35-0.46-2.12-0.64c-0.78-0.13-1.6-0.33-2.48-0.34
			c-0.88-0.08-1.8-0.05-2.74,0.08c-0.94,0.06-1.9,0.4-2.85,0.67c-0.9,0.45-1.87,0.76-2.64,1.44c-0.4,0.3-0.8,0.61-1.17,0.93
			c-0.32,0.37-0.64,0.74-0.93,1.11c-0.65,0.7-0.98,1.55-1.33,2.31c-0.4,0.75-0.5,1.53-0.63,2.22c-0.12,0.7-0.27,1.31-0.2,1.89
			c0.01,0.56,0.07,1.05,0.11,1.44c0.09,0.79,0.18,1.22,0.18,1.22s0.25-0.4,0.62-1.08c0.18-0.34,0.4-0.74,0.61-1.21
			c0.18-0.48,0.59-0.92,0.88-1.43c0.33-0.5,0.63-1.06,1.1-1.52c0.43-0.48,0.79-1.04,1.35-1.42c0.26-0.21,0.5-0.43,0.75-0.66
			c0.29-0.17,0.59-0.33,0.87-0.52c0.53-0.41,1.24-0.59,1.86-0.91c0.69-0.19,1.36-0.47,2.09-0.59c0.36-0.07,0.72-0.14,1.07-0.23
			c0.37-0.05,0.73-0.1,1.1-0.14c1.45-0.2,2.87-0.25,4.12-0.33C323.18,59.51,324.91,59.47,324.91,59.47z"/>
		<path fill="#262C62" d="M320.67,62.33c0,0-0.77-0.46-2.05-0.55c-1.27-0.14-3.08,0.13-4.6,1.1c-0.38,0.23-0.72,0.52-1.05,0.81
			c-0.36,0.26-0.59,0.64-0.87,0.95c-0.28,0.31-0.44,0.69-0.63,1c-0.21,0.31-0.29,0.67-0.4,0.97c-0.23,0.6-0.27,1.15-0.31,1.52
			c-0.03,0.37-0.02,0.58-0.02,0.58s0.16-0.16,0.4-0.43c0.24-0.27,0.54-0.67,0.95-1.09c0.38-0.44,0.85-0.88,1.34-1.34
			c0.52-0.43,1.05-0.89,1.67-1.24c0.57-0.41,1.24-0.68,1.85-0.99c0.63-0.25,1.24-0.51,1.79-0.69
			C319.84,62.56,320.67,62.33,320.67,62.33z"/>
		<circle fill="#262C62" cx="315.8" cy="65.49" r="2.46"/>
		<path fill="#262C62" d="M324.64,48.41c0,0-0.47-0.65-1.54-1.54c-0.53-0.45-1.2-0.97-2.04-1.48c-0.84-0.5-1.81-1.07-2.95-1.49
			c-1.12-0.51-2.43-0.79-3.83-1.12c-1.42-0.17-2.95-0.39-4.54-0.22c-1.62-0.01-3.21,0.48-4.86,0.87c-0.79,0.28-1.56,0.62-2.35,0.97
			c-0.78,0.34-1.56,0.69-2.25,1.18c-1.39,0.95-2.85,1.84-3.94,3.04c-1.18,1.12-2.32,2.25-3.14,3.52c-0.85,1.25-1.79,2.38-2.36,3.62
			c-0.61,1.22-1.15,2.39-1.62,3.46c-0.52,1.05-0.74,2.13-1.01,3.05c-0.27,0.91-0.44,1.73-0.59,2.39c-0.29,1.33-0.39,2.1-0.39,2.1
			s0.58-0.56,1.48-1.57c0.44-0.5,1-1.11,1.56-1.82c0.59-0.7,1.19-1.53,1.98-2.31c0.76-0.81,1.54-1.69,2.34-2.63
			c0.76-0.98,1.8-1.75,2.68-2.71c0.49-0.43,0.88-0.99,1.42-1.37c0.52-0.4,1.03-0.82,1.54-1.25c0.98-0.93,2.12-1.56,3.22-2.29
			c0.52-0.42,1.11-0.68,1.69-0.94c0.59-0.26,1.14-0.6,1.72-0.85c1.21-0.35,2.35-0.92,3.57-1.09c1.19-0.34,2.38-0.41,3.54-0.56
			c1.15-0.01,2.29-0.14,3.34-0.03c1.06,0.02,2.04,0.13,2.93,0.23c0.87,0.15,1.67,0.24,2.32,0.38c0.64,0.14,1.17,0.22,1.52,0.32
			C324.45,48.36,324.64,48.41,324.64,48.41z"/>
		<path fill="#262C62" d="M242.04,104.73c0,0,0.51-0.19,1.37-0.47c0.85-0.29,2.07-0.68,3.47-1.02c0.71-0.16,1.46-0.27,2.23-0.38
			c0.77-0.06,1.55-0.05,2.29,0.04c0.36,0.08,0.73,0.1,1.05,0.27l0.5,0.18l0.45,0.27c0.6,0.34,1.14,0.84,1.62,1.46
			c0.6,0.68,1.23,1.58,1.87,2.33c0.63,0.79,1.52,1.57,2.25,2.29c0.87,0.66,1.65,1.31,2.63,1.71c0.88,0.51,1.89,0.67,2.73,0.83
			c0.85,0.05,1.63,0.1,2.28-0.01c0.65-0.06,1.22-0.15,1.67-0.25c0.91-0.19,1.42-0.34,1.42-0.34s-0.5-0.2-1.38-0.47
			c-0.43-0.14-0.95-0.3-1.54-0.49c-0.6-0.15-1.18-0.47-1.83-0.7c-0.58-0.36-1.21-0.66-1.76-1.17c-0.59-0.4-1.09-1.12-1.69-1.67
			c-0.53-0.69-1.07-1.4-1.63-2.13c-0.59-0.84-1.12-1.62-1.84-2.48c-0.78-0.96-1.79-1.88-2.99-2.42l-0.89-0.4l-0.93-0.21
			c-0.62-0.17-1.22-0.15-1.81-0.18c-1.18-0.01-2.24,0.28-3.17,0.58c-0.93,0.33-1.74,0.76-2.44,1.19c-1.4,0.87-2.37,1.81-3,2.5
			C242.33,104.27,242.04,104.73,242.04,104.73z"/>
		<path fill="#262C62" d="M345.9,72.96c0,0-2.45,0.92-4.49,2.68c-0.5,0.44-1.01,0.92-1.36,1.5c-0.36,0.56-0.48,1.26-0.42,1.82
			c-0.03,0.28,0.16,0.52,0.21,0.73c0.06,0.22,0.21,0.35,0.31,0.47c0.2,0.23,0.33,0.33,0.33,0.33l0.08-0.06c0,0-0.03-0.18-0.09-0.44
			c-0.02-0.14-0.09-0.28-0.07-0.47c0.02-0.18-0.03-0.36,0.04-0.57c0.05-0.2,0.06-0.41,0.19-0.63c0.09-0.21,0.19-0.44,0.34-0.67
			c0.24-0.48,0.61-0.97,1.01-1.44c1.71-1.82,3.96-3.17,3.96-3.17L345.9,72.96z"/>
		<path fill="#262C62" d="M360.33,80.69c0.15-0.51,0.41-1.1,0.54-1.24c-0.04,0.05-0.23,0.17-0.5,0.15
			c-0.27-0.03-0.43-0.18-0.47-0.24l1.81-0.95c-0.46-0.85-1.13-0.88-1.4-0.85c-0.3,0.03-1.23,0.12-1.95,2.55L360.33,80.69z"/>
	</g>
</g>
<g id="_x33__dotted" display="none">
</g>
<g id="_x33__BG">
</g>
<g id="Layer_14">
</g>
<g id="Text_3" display="none">
</g>
<g id="_x32__dotted" display="none">
</g>
<g id="_x32__BG_1_">
</g>
<g id="_x32__BG">
</g>
<g id="Text_2" display="none">
</g>
<g id="_x31__dotted">
</g>
<g id="_x31__BG">
</g>
<g id="Layer_7">
</g>
<g id="TEAMS">
</g>
<g id="FIFA">
</g>
<g id="LOGO">
</g>
<g id="Layer_31">
</g>
<g id="Layer_6">
</g>
</svg>
