<?xml version="1.0" encoding="utf-8"?>
<!-- Generator: Adobe Illustrator 16.2.0, SVG Export Plug-In . SVG Version: 6.00 Build 0)  -->
<!DOCTYPE svg PUBLIC "-//W3C//DTD SVG 1.1//EN" "http://www.w3.org/Graphics/SVG/1.1/DTD/svg11.dtd">
<svg version="1.1" xmlns="http://www.w3.org/2000/svg" xmlns:xlink="http://www.w3.org/1999/xlink" x="0px" y="0px"
	 width="745.85px" height="616.5px" viewBox="0 0 745.85 616.5" enable-background="new 0 0 745.85 616.5" xml:space="preserve">
<g id="BG">
</g>
<g id="Layer_26">
</g>
<g id="Layer_29">
</g>
<g id="Gracias" display="none">
</g>
<g id="Layer_27" display="none">
</g>
<g id="Layer_28" display="none">
</g>
<g id="Layer_25">
</g>
<g id="Layer_24">
	<g>
		<g>
			<path fill="#FFFFFF" d="M49.97,228.11l7.64,2.94l-8.72,26.32l-9.53-3.49l4.28-10.38l-9.72-1.29l-21.37,6.14l-2.85,8.53
				l-9.53-3.49l10.67-25.85l7.61,3.03l-2.25,6.9l15.23-1.66l-7.69-17.78l-2.85,10.49l-9.74-3.02l9.36-26.29l7.73,2.52l-2.38,8.64
				l14.11,21.06l6.7,4.75L49.97,228.11z"/>
			<path fill="#FFFFFF" d="M47.7,172.41c-0.56,1.5-1.05,2.94-1.48,4.3c-0.43,1.36-0.77,2.58-1.03,3.67l-8.42-3.92
				c0.77-2.28,1.58-4.46,2.43-6.54c0.84-2.08,1.7-4.04,2.56-5.89s1.71-3.56,2.54-5.16c0.84-1.59,1.63-3.06,2.39-4.4
				c1.77-3.1,3.52-5.87,5.27-8.32c1.89-2.53,3.76-4.58,5.62-6.16c1.86-1.57,3.67-2.69,5.45-3.35s3.5-0.88,5.17-0.65
				c1.67,0.23,3.24,0.88,4.72,1.95c1.93,1.4,3.33,3.09,4.19,5.09c0.86,1.99,1.34,4.15,1.42,6.46c0.09,2.32-0.14,4.73-0.69,7.24
				c-0.54,2.51-1.26,4.98-2.15,7.42c-0.89,2.43-1.88,4.77-2.98,7s-2.14,4.22-3.14,5.96l7.19,5.13l6.44-8.78l6,4.35l-14.65,23.13
				l-7.66-5.31l5.71-7.76L47.7,172.41z M57.19,152.22c-0.43,0.59-0.88,1.3-1.37,2.13c-0.48,0.83-0.99,1.75-1.51,2.75
				c-0.53,1-1.06,2.07-1.6,3.22c-0.54,1.15-1.08,2.33-1.62,3.56L65.29,174c0.65-1.44,1.28-3,1.91-4.69c0.62-1.68,1.17-3.4,1.64-5.14
				c0.47-1.74,0.82-3.47,1.07-5.18s0.3-3.3,0.17-4.77c-0.13-1.47-0.46-2.78-1-3.93c-0.54-1.14-1.35-2.02-2.45-2.63
				c-0.79-0.44-1.59-0.65-2.4-0.62c-0.8,0.03-1.6,0.25-2.4,0.67s-1.58,1.02-2.36,1.79C58.7,150.29,57.94,151.19,57.19,152.22z"/>
			<path fill="#FFFFFF" d="M115.39,150.95c-2.09,2.13-4.22,3.65-6.37,4.56c-2.16,0.91-4.27,1.31-6.35,1.22
				c-2.07-0.09-4.08-0.63-6.02-1.6c-1.94-0.97-3.73-2.27-5.39-3.89c-2.22-2.18-3.79-4.48-4.7-6.9c-0.91-2.42-1.27-4.83-1.08-7.25
				c0.19-2.42,0.87-4.77,2.03-7.06c1.16-2.29,2.7-4.41,4.61-6.35c2.14-2.18,4.26-3.7,6.37-4.56c2.11-0.86,4.16-1.22,6.14-1.08
				c1.98,0.14,3.88,0.7,5.68,1.67c1.8,0.97,3.47,2.21,5,3.71c2.08,2.05,3.65,4.24,4.7,6.58c1.05,2.34,1.57,4.71,1.58,7.11
				c0.01,2.4-0.51,4.78-1.55,7.15C119,146.61,117.45,148.84,115.39,150.95z M94.01,128.01c-0.8,0.81-1.32,1.69-1.57,2.64
				s-0.31,1.91-0.18,2.9c0.13,0.99,0.41,1.97,0.82,2.96c0.42,0.98,0.91,1.92,1.47,2.8c0.56,0.88,1.15,1.7,1.78,2.45
				s1.19,1.37,1.69,1.87c0.55,0.54,1.21,1.11,1.96,1.7c0.76,0.59,1.57,1.14,2.44,1.63c0.87,0.49,1.79,0.91,2.75,1.25
				c0.96,0.34,1.92,0.53,2.88,0.57c0.96,0.04,1.89-0.1,2.81-0.42c0.92-0.32,1.77-0.89,2.57-1.7c0.81-0.83,1.36-1.69,1.63-2.58
				s0.36-1.79,0.25-2.69c-0.11-0.9-0.36-1.79-0.76-2.67s-0.87-1.71-1.41-2.49c-0.54-0.79-1.1-1.51-1.68-2.17
				c-0.58-0.66-1.12-1.24-1.61-1.72c-0.66-0.65-1.41-1.31-2.24-2c-0.83-0.68-1.71-1.32-2.63-1.9s-1.86-1.08-2.84-1.48
				c-0.98-0.4-1.94-0.65-2.88-0.75c-0.94-0.1-1.87-0.01-2.77,0.26C95.59,126.72,94.76,127.24,94.01,128.01z"/>
			<path fill="#FFFFFF" d="M145.38,112.04l3.37,4.24l-17.46,17.91l-5.87-5.88l6.42-5.18l-10.83-14.24l-8.31,5.66l-3.41-4.29
				l15.18-14.41l3.64,6.29c0.06-0.68,0.19-1.52,0.39-2.51c0.2-0.99,0.45-2.05,0.76-3.16c0.31-1.11,0.67-2.27,1.07-3.47
				c0.41-1.2,0.85-2.36,1.34-3.47c0.49-1.11,1.01-2.16,1.56-3.14c0.55-0.98,1.12-1.81,1.71-2.49l7.34,7.83
				c-2.42,1.93-4.34,3.79-5.74,5.59c-1.41,1.8-2.49,3.42-3.25,4.85c-0.88,1.66-1.48,3.23-1.82,4.7l6.22,11.44L145.38,112.04z"/>
			<path fill="#FFFFFF" d="M194.21,68.33l-13.76,5.9l3.12,7.17l22.53-11.86l-1.82-6.15l4.45-2.34l6.83,15.38L174.98,99.8
				l-5.72-10.86l8.47-4.46l-11.35-18.57l-6.99,4.3l-5.66-10.75l42.87-21.45l8.67,16.45l-3.98,3.23l-6.08-9.4L174.7,60.87l3.71,8.64
				l12.46-7.54L194.21,68.33z"/>
			<path fill="#FFFFFF" d="M242.64,32.85l0.9,11.38c-1.18-0.15-2.47-0.25-3.87-0.29c-1.39-0.04-2.8-0.02-4.22,0.09
				s-2.81,0.28-4.17,0.53s-2.61,0.59-3.73,1.02c-1.57,0.59-2.75,1.31-3.56,2.16c-0.8,0.84-1.04,1.72-0.69,2.62
				c0.22,0.58,0.63,1,1.23,1.24c0.6,0.25,1.41,0.38,2.44,0.4s2.29-0.05,3.78-0.22c1.49-0.17,3.22-0.38,5.19-0.62
				c1.77-0.24,3.46-0.39,5.07-0.46c1.61-0.07,3.07,0.06,4.39,0.39c1.32,0.33,2.48,0.9,3.48,1.71c1,0.82,1.78,1.98,2.36,3.48
				c0.61,1.61,0.79,3.09,0.53,4.45c-0.25,1.36-0.85,2.62-1.79,3.77c-0.94,1.15-2.17,2.19-3.7,3.11c-1.52,0.92-3.25,1.75-5.18,2.48
				c-2.35,0.89-4.43,1.47-6.25,1.75c-1.82,0.27-3.35,0.4-4.61,0.39s-2.24-0.1-2.95-0.24c-0.71-0.14-1.13-0.19-1.28-0.14l1.25,5.11
				l-7.18,0.24l-0.28-11.1c0.78,0.17,1.69,0.3,2.74,0.41c1.05,0.11,2.16,0.19,3.33,0.25c1.17,0.06,2.38,0.09,3.63,0.09
				c1.25,0,2.47-0.05,3.65-0.14c1.18-0.09,2.29-0.23,3.32-0.42c1.03-0.19,1.93-0.42,2.69-0.71c0.36-0.14,0.75-0.32,1.17-0.55
				c0.42-0.23,0.79-0.5,1.12-0.82c0.33-0.32,0.56-0.68,0.71-1.09c0.14-0.41,0.12-0.88-0.08-1.4c-0.24-0.64-0.69-1.11-1.33-1.41
				s-1.36-0.49-2.15-0.58c-0.79-0.09-1.61-0.11-2.45-0.05c-0.84,0.06-1.6,0.11-2.27,0.15c-1.06,0.1-2.25,0.2-3.54,0.29
				c-1.3,0.09-2.64,0.13-4.02,0.11c-1.38-0.01-2.75-0.11-4.11-0.29c-1.35-0.18-2.62-0.49-3.8-0.94c-1.18-0.45-2.22-1.05-3.12-1.82
				c-0.9-0.76-1.58-1.75-2.03-2.95c-0.46-1.23-0.61-2.5-0.45-3.81c0.17-1.32,0.65-2.6,1.46-3.84c0.8-1.25,1.93-2.43,3.38-3.54
				s3.22-2.07,5.31-2.86c1.97-0.75,3.84-1.24,5.63-1.48s3.36-0.36,4.74-0.35c1.6-0.01,3.1,0.11,4.48,0.37l-1.93-4.71L242.64,32.85z"
				/>
			<path fill="#FFFFFF" d="M273.27,60.55c-2.88,0.78-5.49,1.01-7.8,0.7c-2.32-0.31-4.35-1.03-6.09-2.17s-3.2-2.61-4.38-4.43
				s-2.07-3.85-2.67-6.09c-0.81-3.01-0.99-5.78-0.55-8.33s1.36-4.81,2.75-6.8c1.39-1.99,3.17-3.67,5.33-5.05s4.56-2.43,7.2-3.14
				c2.95-0.79,5.55-1.02,7.8-0.7s4.21,1.05,5.84,2.18c1.64,1.13,2.99,2.57,4.05,4.32c1.06,1.75,1.87,3.66,2.43,5.74
				c0.76,2.82,1,5.5,0.71,8.05c-0.28,2.55-1.03,4.85-2.24,6.93s-2.87,3.86-4.96,5.37C278.58,58.65,276.12,59.78,273.27,60.55z
				 M266.48,29.94c-1.1,0.3-2,0.79-2.69,1.47c-0.69,0.69-1.23,1.49-1.62,2.41c-0.39,0.92-0.65,1.9-0.79,2.96
				c-0.14,1.06-0.19,2.11-0.15,3.16c0.04,1.05,0.13,2.05,0.29,3.01c0.16,0.96,0.33,1.78,0.51,2.46c0.2,0.75,0.48,1.57,0.83,2.46
				c0.35,0.9,0.78,1.78,1.28,2.64c0.5,0.87,1.08,1.69,1.73,2.47c0.65,0.78,1.38,1.43,2.19,1.95c0.81,0.52,1.69,0.87,2.64,1.06
				c0.95,0.19,1.98,0.14,3.08-0.16c1.12-0.3,2.02-0.77,2.71-1.4c0.69-0.63,1.21-1.36,1.58-2.19c0.37-0.83,0.6-1.73,0.7-2.69
				c0.1-0.96,0.11-1.92,0.05-2.87c-0.07-0.95-0.18-1.86-0.35-2.73c-0.17-0.87-0.34-1.63-0.52-2.3c-0.24-0.89-0.55-1.84-0.92-2.86
				c-0.37-1.01-0.81-2-1.3-2.97c-0.49-0.97-1.06-1.87-1.7-2.71c-0.64-0.84-1.34-1.54-2.1-2.1c-0.76-0.56-1.6-0.95-2.52-1.17
				C268.49,29.63,267.51,29.66,266.48,29.94z"/>
			<path fill="#FFFFFF" d="M359.66,23.42l-2.01,19.39l-43.92,6.34l-1.06-10.1l9.16-0.7l-3.72-27.09l-8.24,1.13l-1.06-10.1l27.87-1.8
				l0.66,8.13l-9.16,1.32l0.5,27.82l23.87-1.93l0.42-11.71L359.66,23.42z"/>
			<path fill="#FFFFFF" d="M400.29,33.72c-0.85,2.12-2,3.94-3.47,5.48c-1.47,1.54-3.13,2.81-4.97,3.8s-3.78,1.73-5.83,2.19
				c-2.05,0.47-4.06,0.69-6.04,0.66c-2.75-0.04-5.19-0.5-7.33-1.39s-3.95-2.07-5.43-3.55c-1.48-1.48-2.64-3.21-3.46-5.19
				c-0.82-1.98-1.28-4.07-1.38-6.29c0.04-3.37,0.65-6.25,1.81-8.63c1.16-2.38,2.72-4.31,4.69-5.79c1.96-1.48,4.25-2.55,6.86-3.21
				c2.61-0.66,5.37-0.98,8.3-0.94c1.07,0.01,2.18,0.1,3.33,0.27c1.15,0.17,2.27,0.45,3.36,0.85c1.09,0.4,2.13,0.95,3.12,1.64
				c0.99,0.69,1.88,1.57,2.67,2.65c0.79,1.07,1.46,2.36,2,3.85c0.54,1.49,0.9,3.25,1.09,5.27l-26.52,4.39
				c0.15,1.48,0.44,2.94,0.86,4.36s1,2.68,1.74,3.78c0.74,1.1,1.66,1.97,2.75,2.62c1.1,0.65,2.41,0.96,3.94,0.94
				c1.66-0.17,3.12-0.65,4.4-1.42c0.54-0.34,1.06-0.75,1.56-1.25s0.94-1.1,1.31-1.8c0.37-0.7,0.65-1.53,0.84-2.47
				c0.18-0.94,0.23-2.03,0.14-3.25L400.29,33.72z M388.21,23.18c-0.07-1.01-0.24-1.89-0.51-2.65s-0.61-1.4-1.02-1.95
				c-0.41-0.54-0.87-1-1.37-1.36c-0.5-0.36-1.01-0.65-1.52-0.88c-1.2-0.51-2.55-0.75-4.05-0.73c-1.42,0.15-2.58,0.54-3.46,1.16
				c-0.89,0.62-1.58,1.4-2.08,2.32c-0.5,0.93-0.84,1.96-1.02,3.1c-0.19,1.14-0.29,2.3-0.3,3.48L388.21,23.18z"/>
			<path fill="#FFFFFF" d="M440.51,15.17l-4.21,10.61c-1-0.65-2.11-1.31-3.34-1.97c-1.23-0.66-2.51-1.25-3.83-1.79
				s-2.65-0.99-3.98-1.36c-1.33-0.37-2.6-0.62-3.8-0.73c-1.67-0.16-3.05-0.03-4.15,0.37c-1.09,0.4-1.69,1.09-1.78,2.05
				c-0.06,0.62,0.13,1.17,0.56,1.65c0.43,0.48,1.1,0.96,2.02,1.44s2.08,0.96,3.49,1.46c1.41,0.5,3.05,1.08,4.93,1.73
				c1.69,0.57,3.28,1.18,4.75,1.82c1.47,0.65,2.73,1.41,3.77,2.28c1.04,0.88,1.83,1.9,2.37,3.07c0.54,1.17,0.73,2.56,0.58,4.17
				c-0.16,1.71-0.66,3.12-1.48,4.23c-0.83,1.11-1.92,1.97-3.27,2.59c-1.35,0.62-2.92,1-4.69,1.16s-3.69,0.14-5.74-0.06
				c-2.5-0.24-4.63-0.63-6.38-1.18c-1.75-0.55-3.19-1.11-4.31-1.68c-1.12-0.57-1.97-1.08-2.54-1.52s-0.94-0.67-1.08-0.68l-1.13,5.14
				l-6.55-2.95l4.64-10.08c0.62,0.49,1.38,1.01,2.28,1.57s1.86,1.12,2.88,1.7s2.1,1.13,3.22,1.68c1.12,0.55,2.24,1.04,3.34,1.48
				s2.16,0.8,3.17,1.09c1.01,0.29,1.92,0.47,2.73,0.55c0.38,0.04,0.82,0.04,1.29,0.03c0.48-0.02,0.93-0.1,1.37-0.24
				c0.43-0.14,0.81-0.37,1.12-0.67c0.31-0.31,0.49-0.74,0.54-1.29c0.06-0.68-0.13-1.3-0.57-1.85c-0.45-0.55-1-1.04-1.67-1.47
				c-0.67-0.43-1.4-0.81-2.17-1.13c-0.78-0.32-1.48-0.61-2.1-0.86c-1-0.37-2.1-0.81-3.31-1.3s-2.43-1.05-3.66-1.67
				c-1.24-0.62-2.42-1.31-3.56-2.07s-2.14-1.59-3-2.52c-0.86-0.92-1.53-1.92-2-3c-0.47-1.08-0.64-2.26-0.52-3.55
				c0.12-1.3,0.55-2.51,1.28-3.62s1.73-2.04,3-2.81c1.27-0.76,2.8-1.33,4.59-1.69c1.79-0.36,3.8-0.43,6.03-0.22
				c2.1,0.2,4,0.58,5.7,1.15c1.71,0.57,3.18,1.16,4.41,1.78c1.44,0.7,2.73,1.47,3.86,2.31l0.35-5.08L440.51,15.17z"/>
			<path fill="#FFFFFF" d="M497.94,78.28c-3.57,0.16-6.55-0.08-8.94-0.7c-1.85-0.48-3.39-1.16-4.62-2.02
				c-1.23-0.87-2.21-1.84-2.95-2.93c-0.74-1.09-1.26-2.27-1.58-3.53c-0.32-1.26-0.48-2.53-0.51-3.81c-0.02-1.28,0.06-2.54,0.25-3.76
				c0.19-1.23,0.42-2.36,0.69-3.4l0.05-0.19c-3.84-1.27-6.98-2.93-9.4-5c-2.43-2.06-4.25-4.39-5.46-6.97s-1.87-5.35-1.96-8.32
				c-0.09-2.97,0.27-6.01,1.08-9.13c0.86-3.28,2.16-6.25,3.91-8.89c1.75-2.64,3.92-4.77,6.51-6.4s5.58-2.66,8.98-3.1
				c3.4-0.45,7.18-0.13,11.34,0.96c3.24,0.84,6.03,1.88,8.37,3.1c2.33,1.22,4.27,2.58,5.81,4.08c1.54,1.5,2.73,3.13,3.57,4.89
				c0.84,1.76,1.4,3.62,1.68,5.58c0.28,1.96,0.3,4,0.07,6.11c-0.23,2.12-0.63,4.27-1.2,6.45c-0.81,3.12-2.01,5.96-3.58,8.51
				c-1.58,2.55-3.54,4.66-5.89,6.32c-2.35,1.66-5.11,2.79-8.27,3.37c-3.16,0.59-6.74,0.48-10.73-0.31
				c-0.09,0.95-0.09,1.81,0.01,2.57c0.1,0.76,0.27,1.45,0.51,2.07c0.24,0.62,0.52,1.16,0.86,1.62c0.33,0.46,0.68,0.87,1.04,1.2
				c0.86,0.8,1.85,1.39,2.97,1.77c0.77,0.2,1.58,0.36,2.44,0.47c0.75,0.09,1.62,0.15,2.6,0.19c0.98,0.04,2.03-0.01,3.16-0.16
				L497.94,78.28z M507.96,39.83c0.45-1.75,0.61-3.47,0.46-5.16s-0.78-3.3-1.91-4.83c-1.12-1.52-2.81-2.94-5.07-4.24
				c-2.26-1.3-5.26-2.44-9-3.41c-3.2-0.83-6.07-1.23-8.6-1.18c-2.53,0.05-4.73,0.45-6.59,1.2c-1.86,0.75-3.37,1.8-4.53,3.15
				c-1.16,1.35-1.97,2.9-2.43,4.65c-0.45,1.75-0.53,3.47-0.23,5.18c0.3,1.71,1.05,3.34,2.26,4.88c1.21,1.55,2.91,2.96,5.12,4.25
				s5,2.37,8.39,3.25c3.33,0.87,6.26,1.28,8.81,1.23c2.54-0.05,4.73-0.45,6.56-1.21c1.83-0.75,3.3-1.8,4.42-3.14
				C506.72,43.12,507.5,41.57,507.96,39.83z"/>
			<path fill="#FFFFFF" d="M551.22,82.33l-16.16-6.54l2.37-4.74c-2,0.58-3.85,0.9-5.55,0.95c-1.7,0.05-3.18,0-4.44-0.16
				c-1.48-0.18-2.83-0.5-4.07-0.95c-1.89-0.77-3.37-1.65-4.42-2.64c-1.06-1-1.78-2.09-2.17-3.28c-0.39-1.19-0.49-2.47-0.3-3.84
				c0.19-1.37,0.59-2.83,1.21-4.36c0.33-0.82,0.63-1.53,0.9-2.14c0.27-0.61,0.54-1.19,0.82-1.73c0.28-0.55,0.58-1.11,0.89-1.68
				s0.68-1.22,1.1-1.95c0.42-0.73,0.91-1.58,1.45-2.56c0.54-0.97,1.2-2.14,1.96-3.5l-6.52-2.19l3.83-6.79l14.5,6.6
				c-1.13,2.11-2.12,3.95-2.95,5.5s-1.56,2.9-2.17,4.04s-1.13,2.11-1.56,2.91c-0.43,0.8-0.8,1.51-1.12,2.13
				c-0.32,0.62-0.6,1.18-0.82,1.68c-0.23,0.5-0.45,1.03-0.68,1.59c-0.36,0.9-0.64,1.77-0.82,2.62c-0.18,0.85-0.22,1.65-0.11,2.39
				c0.11,0.74,0.38,1.39,0.81,1.96s1.06,1.02,1.9,1.36c1.06,0.36,2.23,0.5,3.52,0.42c1.09-0.07,2.35-0.36,3.78-0.87
				c1.42-0.51,2.97-1.45,4.63-2.82l6.03-12.23l-6.85-2.49l3.23-6.17l20.13,9.02l-1.95,4.81l-6.92-2.42l-7.54,19.65l6.21,3.14
				L551.22,82.33z"/>
			<path fill="#FFFFFF" d="M591.26,91.02c-1.74,1.47-3.62,2.54-5.64,3.21c-2.02,0.67-4.08,1.01-6.17,1.03s-4.15-0.25-6.18-0.8
				c-2.03-0.55-3.91-1.3-5.64-2.25c-2.41-1.32-4.35-2.88-5.82-4.66c-1.47-1.79-2.52-3.68-3.13-5.68c-0.62-2-0.83-4.07-0.62-6.2
				s0.78-4.2,1.73-6.2c1.62-2.96,3.5-5.22,5.64-6.78c2.14-1.56,4.42-2.53,6.85-2.91c2.43-0.38,4.95-0.26,7.57,0.38
				c2.61,0.64,5.2,1.66,7.77,3.06c0.94,0.52,1.88,1.12,2.82,1.8c0.94,0.68,1.79,1.46,2.57,2.32c0.77,0.87,1.44,1.84,1.99,2.91
				s0.92,2.27,1.12,3.59c0.2,1.32,0.18,2.76-0.04,4.33c-0.22,1.57-0.73,3.29-1.51,5.16l-25.48-8.56c-0.56,1.38-0.99,2.8-1.29,4.26
				c-0.3,1.46-0.37,2.84-0.24,4.15c0.14,1.31,0.54,2.51,1.21,3.6c0.67,1.09,1.68,1.98,3.04,2.67c1.54,0.62,3.06,0.89,4.56,0.81
				c0.64-0.04,1.29-0.17,1.97-0.37c0.68-0.21,1.34-0.53,2-0.98c0.66-0.45,1.29-1.04,1.9-1.79c0.6-0.75,1.15-1.68,1.65-2.81
				L591.26,91.02z M585.54,76.05c0.41-0.93,0.67-1.79,0.79-2.58s0.12-1.53,0.01-2.2c-0.11-0.67-0.3-1.29-0.57-1.84
				s-0.58-1.05-0.93-1.48c-0.82-1.01-1.9-1.86-3.24-2.54c-1.33-0.53-2.53-0.73-3.61-0.6c-1.08,0.13-2.05,0.49-2.92,1.08
				s-1.66,1.34-2.36,2.25c-0.7,0.92-1.33,1.89-1.9,2.93L585.54,76.05z"/>
			<path fill="#FFFFFF" d="M613.07,110.73l-3.12,4.43l-22.11-11.71l3.99-7.28l6.78,4.7l10.61-14.4l-7.77-6.38l3.15-4.48l18.1,10.5
				l-5.01,5.26c0.67-0.13,1.51-0.24,2.52-0.33s2.09-0.14,3.25-0.16c1.15-0.02,2.36,0,3.63,0.05c1.26,0.05,2.5,0.15,3.71,0.31
				c1.21,0.15,2.36,0.36,3.45,0.62c1.09,0.26,2.05,0.57,2.87,0.94l-5.45,9.25c-2.53-1.78-4.86-3.09-6.99-3.93
				c-2.13-0.84-3.98-1.42-5.57-1.75c-1.84-0.38-3.51-0.52-5.02-0.42l-9.23,9.19L613.07,110.73z"/>
			<path fill="#FFFFFF" d="M653.16,140.06c-2.03,1.04-4.1,1.65-6.22,1.84c-2.12,0.19-4.2,0.06-6.24-0.4
				c-2.04-0.46-3.99-1.19-5.84-2.18c-1.85-1-3.51-2.15-4.98-3.47c-2.05-1.84-3.58-3.79-4.61-5.87c-1.03-2.07-1.61-4.16-1.75-6.25
				c-0.14-2.09,0.12-4.15,0.8-6.18s1.71-3.91,3.09-5.65c2.25-2.51,4.6-4.28,7.04-5.31s4.88-1.46,7.34-1.28
				c2.45,0.18,4.88,0.88,7.28,2.09c2.4,1.22,4.69,2.8,6.87,4.75c0.8,0.72,1.58,1.52,2.33,2.39c0.75,0.88,1.41,1.83,1.97,2.85
				s0.98,2.11,1.27,3.29s0.38,2.42,0.27,3.75c-0.11,1.33-0.45,2.73-1.03,4.21c-0.57,1.48-1.46,3.04-2.64,4.69l-22.86-14.14
				c-0.86,1.22-1.6,2.5-2.22,3.85c-0.62,1.35-1.01,2.68-1.17,3.99c-0.17,1.31-0.05,2.57,0.35,3.78c0.4,1.21,1.18,2.31,2.35,3.29
				c1.36,0.96,2.78,1.57,4.25,1.82c0.63,0.1,1.3,0.13,2,0.08s1.43-0.21,2.18-0.5c0.75-0.28,1.5-0.72,2.26-1.31
				c0.76-0.59,1.51-1.38,2.25-2.36L653.16,140.06z M651,124.18c0.61-0.81,1.06-1.59,1.36-2.33c0.29-0.75,0.46-1.46,0.51-2.14
				s0-1.32-0.14-1.92c-0.14-0.6-0.33-1.15-0.57-1.66c-0.57-1.17-1.42-2.24-2.57-3.21c-1.17-0.82-2.29-1.29-3.37-1.4
				s-2.11,0.01-3.09,0.39s-1.92,0.93-2.81,1.66c-0.89,0.73-1.73,1.54-2.52,2.42L651,124.18z"/>
			<path fill="#FFFFFF" d="M680.03,178.66l-6.67,4.03l-9.67-13.47c2.14-1.34,3.98-2.5,5.52-3.46c1.54-0.96,2.86-1.78,3.95-2.46
				c1.09-0.68,2.01-1.25,2.76-1.71c0.75-0.46,1.39-0.87,1.94-1.23c0.55-0.36,1.04-0.7,1.48-1.01c0.44-0.31,0.9-0.66,1.39-1.05
				c0.76-0.6,1.41-1.24,1.94-1.94c0.53-0.7,0.91-1.43,1.14-2.18c0.23-0.75,0.28-1.51,0.16-2.28c-0.12-0.76-0.44-1.52-0.96-2.25
				c-0.38-0.38-0.87-0.76-1.47-1.14c-0.5-0.32-1.13-0.67-1.91-1.06c-0.78-0.39-1.74-0.75-2.87-1.09l-15.34,10.31l4.75,5.49
				l-5.84,3.83l-13.51-17.54l4.62-3.61l4.31,5.1l15.69-12.84l-4.38-5.29l4.62-3.61l12.96,12.81l-3.47,2.31
				c1.41,0.59,2.65,1.22,3.7,1.91c1.06,0.69,1.96,1.32,2.72,1.9c0.85,0.7,1.6,1.38,2.25,2.04c1.46,1.86,2.39,3.63,2.79,5.3
				c0.41,1.67,0.4,3.26-0.03,4.77c1.65,0.54,3.1,1.17,4.36,1.91c1.26,0.74,2.31,1.44,3.16,2.11c0.99,0.78,1.86,1.57,2.6,2.38
				c1.32,1.69,2.22,3.31,2.69,4.85s0.58,3,0.34,4.38c-0.25,1.38-0.82,2.69-1.71,3.93c-0.9,1.25-2.04,2.42-3.45,3.51
				c-0.58,0.45-1.09,0.84-1.56,1.18c-0.46,0.33-0.93,0.65-1.39,0.94c-0.46,0.29-0.96,0.6-1.48,0.91c-0.52,0.31-1.13,0.68-1.84,1.09
				c-0.71,0.42-1.54,0.91-2.5,1.46c-0.96,0.56-2.1,1.24-3.44,2.04l4.57,5.22l-6.71,3.98l-9.67-13.47c2.14-1.35,3.98-2.5,5.52-3.46
				s2.86-1.78,3.95-2.46c1.09-0.68,2.01-1.25,2.76-1.71s1.39-0.87,1.94-1.23c0.55-0.36,1.04-0.7,1.48-1.01
				c0.44-0.31,0.9-0.66,1.39-1.05c0.76-0.6,1.41-1.24,1.94-1.94c0.53-0.7,0.91-1.42,1.15-2.17c0.24-0.74,0.29-1.5,0.17-2.26
				c-0.12-0.76-0.44-1.51-0.96-2.25c-0.33-0.32-0.76-0.64-1.28-0.96c-0.44-0.28-1.01-0.59-1.71-0.93c-0.7-0.34-1.55-0.68-2.55-1.01
				c-0.79,0.91-1.67,1.75-2.65,2.52c-0.59,0.46-1.12,0.87-1.59,1.21c-0.47,0.34-0.94,0.66-1.4,0.95c-0.46,0.29-0.95,0.59-1.46,0.9
				s-1.12,0.67-1.83,1.08c-0.71,0.42-1.54,0.91-2.5,1.49c-0.96,0.57-2.1,1.27-3.42,2.08L680.03,178.66z"/>
			<path fill="#FFFFFF" d="M692.28,216.39c-1.35-2.66-2.11-5.16-2.29-7.5c-0.17-2.33,0.12-4.47,0.87-6.4
				c0.75-1.94,1.9-3.67,3.44-5.19c1.54-1.53,3.34-2.81,5.41-3.86c2.78-1.41,5.46-2.16,8.04-2.25c2.58-0.09,4.98,0.34,7.21,1.29
				c2.23,0.95,4.24,2.35,6.04,4.18c1.8,1.83,3.31,3.97,4.55,6.4c1.38,2.72,2.14,5.22,2.28,7.5c0.14,2.28-0.17,4.33-0.94,6.17
				s-1.9,3.45-3.4,4.85c-1.5,1.4-3.2,2.58-5.12,3.55c-2.61,1.32-5.18,2.1-7.73,2.35c-2.55,0.25-4.96-0.01-7.24-0.77
				c-2.28-0.76-4.37-2.01-6.28-3.75C695.23,221.2,693.61,219.01,692.28,216.39z M720.85,203.46c-0.51-1.02-1.18-1.79-2-2.33
				c-0.82-0.54-1.71-0.9-2.69-1.09c-0.98-0.19-2-0.25-3.06-0.16c-1.07,0.08-2.11,0.25-3.12,0.5c-1.02,0.25-1.98,0.55-2.88,0.9
				c-0.91,0.35-1.67,0.69-2.31,1.01c-0.69,0.35-1.44,0.79-2.24,1.32c-0.8,0.53-1.58,1.13-2.32,1.79c-0.75,0.67-1.43,1.4-2.06,2.2
				c-0.63,0.8-1.11,1.65-1.46,2.54s-0.51,1.83-0.5,2.8c0.01,0.97,0.27,1.96,0.79,2.98c0.52,1.04,1.17,1.82,1.92,2.37
				c0.76,0.54,1.58,0.91,2.47,1.1c0.89,0.19,1.82,0.23,2.78,0.13s1.9-0.28,2.81-0.54c0.92-0.26,1.78-0.56,2.6-0.9
				c0.81-0.34,1.53-0.67,2.14-0.98c0.82-0.42,1.69-0.91,2.61-1.48c0.91-0.57,1.79-1.2,2.64-1.88s1.62-1.42,2.31-2.22
				c0.69-0.8,1.24-1.63,1.63-2.49s0.6-1.76,0.63-2.71S721.33,204.41,720.85,203.46z"/>
			<path fill="#FFFFFF" d="M746.03,258.39l-11.41,0.37c0.2-1.17,0.36-2.46,0.47-3.85c0.11-1.39,0.15-2.8,0.11-4.22
				s-0.15-2.82-0.33-4.2c-0.19-1.37-0.47-2.63-0.84-3.78c-0.52-1.59-1.18-2.81-1.99-3.66c-0.81-0.84-1.67-1.12-2.59-0.82
				c-0.59,0.19-1.03,0.58-1.3,1.17c-0.27,0.59-0.44,1.39-0.51,2.42c-0.07,1.03-0.05,2.29,0.05,3.78s0.23,3.23,0.38,5.21
				c0.15,1.78,0.22,3.47,0.22,5.08c-0.01,1.61-0.21,3.06-0.59,4.36c-0.39,1.3-1.01,2.43-1.88,3.39s-2.06,1.69-3.59,2.19
				c-1.63,0.53-3.12,0.64-4.47,0.32c-1.35-0.32-2.57-0.97-3.68-1.97c-1.1-1-2.08-2.28-2.93-3.84c-0.85-1.56-1.59-3.33-2.23-5.29
				c-0.78-2.39-1.26-4.5-1.45-6.32c-0.19-1.83-0.25-3.37-0.17-4.62c0.08-1.26,0.2-2.24,0.38-2.94s0.24-1.12,0.2-1.27l-5.16,1.01
				l0.1-7.18l11.1,0.24c-0.2,0.77-0.38,1.67-0.54,2.72c-0.16,1.04-0.29,2.15-0.41,3.32s-0.2,2.38-0.26,3.63
				c-0.06,1.25-0.07,2.47-0.03,3.65c0.04,1.19,0.12,2.3,0.26,3.34c0.14,1.04,0.33,1.95,0.58,2.72c0.12,0.37,0.28,0.77,0.49,1.2
				s0.46,0.82,0.77,1.16c0.3,0.34,0.66,0.59,1.06,0.76c0.4,0.16,0.87,0.16,1.4-0.02c0.65-0.21,1.14-0.63,1.47-1.26
				c0.33-0.63,0.55-1.33,0.68-2.12c0.13-0.79,0.18-1.6,0.17-2.44c-0.02-0.84-0.03-1.6-0.05-2.27c-0.05-1.07-0.1-2.25-0.12-3.55
				c-0.03-1.3,0-2.64,0.08-4.02c0.08-1.38,0.24-2.75,0.48-4.09c0.24-1.34,0.61-2.59,1.11-3.75c0.5-1.16,1.16-2.17,1.96-3.03
				c0.8-0.86,1.82-1.49,3.04-1.89c1.25-0.41,2.52-0.5,3.83-0.27s2.56,0.77,3.77,1.63c1.21,0.86,2.33,2.04,3.38,3.54
				c1.04,1.5,1.91,3.31,2.6,5.44c0.65,2,1.06,3.9,1.21,5.69s0.2,3.38,0.13,4.75c-0.06,1.6-0.26,3.09-0.58,4.46l4.8-1.7
				L746.03,258.39z"/>
		</g>
		<g>
			<ellipse fill="#6DCFF6" cx="380.1" cy="324.52" rx="340.5" ry="278.78"/>
			<g>
				<defs>
					<ellipse id="SVGID_1_" cx="380.1" cy="324.52" rx="340.5" ry="278.78"/>
				</defs>
				<clipPath id="SVGID_2_">
					<use xlink:href="#SVGID_1_"  overflow="visible"/>
				</clipPath>
				<g clip-path="url(#SVGID_2_)">
					<path fill="#2A3577" d="M532.75,402.11c0,0,3.42-20.11,2.93-30.93c0,0-0.24-6.18-2.93-7.16c0,0-7.24-4.96-5.5-11.03
						c0.09-0.33,0.22-0.67,0.37-1.01c2.93-6.52-2.44-10.18-2.44-11.16c0,0-3.91-4.64,0-17.09c0,0-0.39-22.54,4.41-26.37
						c0,0-56.41,0-61.05-12.45c0,0-9.03-8.3-12.7-6.84c0,0-12.45-6.35-11.23-10.25c0,0-10.74,22.46,0,41.51
						c0,0,5.86,17.58,6.35,19.04s7.5,31.42,16.2,31.58c0,0,3.33,2.11,6.75-0.82c0,0,17.09,40.04,43.95,42.49
						c0,0,5.37,3.91,12.7,1.46"/>
					<g>
						<defs>
							<path id="SVGID_3_" d="M532.75,402.11c0,0,3.42-20.11,2.93-30.93c0,0-0.24-6.18-2.93-7.16c0,0-7.24-4.96-5.5-11.03
								c0.09-0.33,0.22-0.67,0.37-1.01c2.93-6.52-2.44-10.18-2.44-11.16c0,0-3.91-4.64,0-17.09c0,0-0.39-22.54,4.41-26.37
								c0,0-56.41,0-61.05-12.45c0,0-9.03-8.3-12.7-6.84c0,0-12.45-6.35-11.23-10.25c0,0-10.74,22.46,0,41.51
								c0,0,5.86,17.58,6.35,19.04s7.5,31.42,16.2,31.58c0,0,3.33,2.11,6.75-0.82c0,0,17.09,40.04,43.95,42.49
								c0,0,5.37,3.91,12.7,1.46"/>
						</defs>
						<clipPath id="SVGID_4_">
							<use xlink:href="#SVGID_3_"  overflow="visible"/>
						</clipPath>
						<path clip-path="url(#SVGID_4_)" fill="#4FC4E8" d="M505.96,291.75c0,0-3.15,78.18,30.34,124.7c0,0-115.61-22.96-65.24-114.2
							L505.96,291.75z"/>
					</g>
					<path fill="#262C62" d="M503.2,341.5c0,0-0.46-0.15-1.26-0.42c-0.79-0.28-1.96-0.6-3.33-0.98c-2.74-0.73-6.47-1.59-10.08-1.33
						c-0.91,0.03-1.78,0.21-2.63,0.42c-0.82,0.27-1.65,0.51-2.36,0.94c-1.45,0.78-2.6,1.9-3.42,3c-0.82,1.11-1.41,2.15-1.75,2.92
						c-0.34,0.76-0.56,1.21-0.56,1.21s0.05-0.48,0.2-1.33c0.06-0.43,0.24-0.92,0.39-1.5c0.18-0.57,0.41-1.23,0.78-1.89
						c0.67-1.35,1.83-2.82,3.48-3.88c1.63-1.11,3.7-1.69,5.73-1.83c4.11-0.27,7.96,1.01,10.61,2.23
						C501.66,340.29,503.2,341.5,503.2,341.5z"/>
					<path fill="#6DCFF6" d="M516.63,337.75c0,0-0.17-0.99,0.02-2.44c0.08-0.73,0.26-1.57,0.55-2.44c0.29-0.88,0.69-1.78,1.23-2.64
						c0.25-0.43,0.59-0.82,0.89-1.22c0.31-0.39,0.71-0.71,1.05-1.04c0.76-0.61,1.58-1.03,2.32-1.26c0.38-0.09,0.73-0.16,1.03-0.2
						c0.3-0.06,0.58,0,0.8,0c0.44,0.03,0.67,0.07,0.67,0.07s-0.22,0.11-0.6,0.31c-0.39,0.14-0.86,0.48-1.41,0.83
						c-0.25,0.21-0.52,0.43-0.81,0.67c-0.27,0.25-0.51,0.56-0.81,0.82c-0.5,0.64-1.04,1.29-1.48,2.06c-0.49,0.72-0.89,1.52-1.3,2.26
						c-0.39,0.76-0.75,1.48-1.06,2.09C517.1,336.88,516.63,337.75,516.63,337.75z"/>
					<path fill="#262C62" d="M500,345.99c0,0-1.11-0.68-2.89-1.45c-1.77-0.77-4.25-1.63-6.77-1.73c-0.63-0.07-1.25,0.06-1.86,0.09
						c-0.59,0.14-1.18,0.23-1.71,0.44c-0.51,0.24-1.06,0.37-1.48,0.69c-0.43,0.29-0.9,0.5-1.2,0.86c-0.34,0.32-0.66,0.62-0.93,0.88
						c-0.22,0.31-0.43,0.58-0.6,0.8c-0.36,0.44-0.56,0.7-0.56,0.7l-0.09-0.04c0,0,0.12-0.3,0.35-0.83c0.11-0.27,0.26-0.59,0.45-0.96
						c0.23-0.33,0.51-0.7,0.84-1.1c0.29-0.43,0.78-0.72,1.24-1.1c0.44-0.42,1.07-0.57,1.65-0.86c0.61-0.21,1.28-0.3,1.94-0.4
						c0.67,0.01,1.35-0.07,2.01,0.05c2.68,0.26,5.15,1.28,6.87,2.2c1.74,0.91,2.79,1.68,2.79,1.68L500,345.99z"/>
					<path fill="#262C62" d="M495.82,346.2c0,0-0.39,0.64-1.34,1.27c-0.5,0.24-1.06,0.63-1.75,0.78c-0.34,0.08-0.69,0.23-1.05,0.26
						c-0.37,0.03-0.74,0.06-1.11,0.09c-0.75,0.09-1.49-0.07-2.17-0.16c-0.7-0.06-1.3-0.3-1.82-0.48c-1.04-0.38-1.68-0.7-1.68-0.7
						s0.75,0.03,1.8,0.17c0.52,0.1,1.14,0.17,1.8,0.16c0.65,0,1.35,0.15,2.03,0.04c0.69-0.02,1.38-0.06,2-0.21
						c0.31-0.07,0.64-0.08,0.91-0.19c0.28-0.09,0.55-0.17,0.8-0.25c0.46-0.22,0.91-0.35,1.16-0.53
						C495.67,346.31,495.82,346.2,495.82,346.2z"/>
					<path fill="#6DCFF6" d="M504.19,350.2c-0.31-1.38-0.04-2.52,0.79-3.37c2.82-2.87,11.38-1.19,11.74-1.12l-0.19,0.96
						c-2.33-0.47-8.83-1.23-10.86,0.84c-0.59,0.6-0.77,1.41-0.53,2.47L504.19,350.2z"/>
					<path fill="#6DCFF6" d="M516.67,332.17c-0.3,1.53-0.4,3.08-0.46,4.64l0.03,2.33c-0.02,0.78,0.11,1.55,0.18,2.32
						c0.09,0.77,0.14,1.55,0.25,2.31l0.46,2.28c0.17,0.76,0.26,1.53,0.49,2.27l0.7,2.22l0.7,2.21l0.96,2.11l0.96,2.11
						c0.3,0.72,0.68,1.37,1.08,2.04c0.79,1.33,1.62,2.64,2.46,3.93c0.46,0.61,0.86,1.28,1.35,1.85c0.24,0.28,0.48,0.59,0.73,0.86
						l0.81,0.71l0.08,0.07c0.83,0.98,1.47,2.05,1.91,3.25c0.21,0.59,0.36,1.22,0.33,1.87c-0.02,0.64-0.22,1.26-0.57,1.78l-0.08-0.05
						c0.28-0.54,0.38-1.13,0.33-1.71c-0.04-0.58-0.25-1.14-0.48-1.68c-0.48-1.07-1.23-2.04-2-2.9l0.08,0.07l-0.99-0.78
						c-0.29-0.28-0.55-0.59-0.83-0.88c-0.55-0.59-1-1.24-1.48-1.87c-0.9-1.3-1.73-2.64-2.49-4.01c-0.38-0.68-0.76-1.39-1.04-2.13
						l-0.91-2.18l-0.91-2.17l-0.66-2.27l-0.65-2.26c-0.22-0.75-0.29-1.54-0.44-2.31l-0.4-2.32c-0.09-0.78-0.11-1.57-0.17-2.35
						c-0.03-0.78-0.15-1.56-0.1-2.35l0.05-2.35c0.12-1.56,0.28-3.12,0.63-4.65L516.67,332.17z"/>
					<path fill="#6DCFF6" d="M529.54,374.27c0,0-0.28,0.58-0.9,1.32c-0.61,0.73-1.58,1.62-2.79,2.18c-0.6,0.28-1.26,0.46-1.89,0.52
						c-0.64,0.05-1.23-0.07-1.71-0.22c-0.96-0.35-1.34-0.92-1.36-0.88c0,0,0.16,0.04,0.42,0.12c0.25,0.12,0.63,0.15,1.06,0.23
						c0.44,0.05,0.94-0.01,1.46-0.09c0.52-0.13,1.07-0.29,1.59-0.56c1.05-0.5,2.08-1.16,2.83-1.7
						C529.03,374.64,529.54,374.27,529.54,374.27z"/>
					<path fill="#262C62" d="M510.48,380.42c0,0-0.69-0.23-1.63-0.78c-0.92-0.55-2.14-1.49-2.83-2.89
						c-0.37-0.68-0.56-1.47-0.56-2.21c-0.02-0.37,0.09-0.71,0.16-1.04c0.06-0.33,0.23-0.6,0.34-0.86c0.23-0.52,0.55-0.88,0.76-1.12
						c0.21-0.25,0.34-0.38,0.34-0.38l0.08,0.05c0,0-0.04,0.19-0.13,0.49c-0.04,0.16-0.09,0.33-0.16,0.53
						c-0.09,0.19-0.09,0.44-0.16,0.69c-0.05,0.25-0.16,0.5-0.15,0.79c0.01,0.28-0.11,0.57-0.06,0.87c-0.03,0.59,0.01,1.25,0.25,1.87
						c0.44,1.26,1.5,2.25,2.31,2.92c0.83,0.65,1.47,0.97,1.47,0.97L510.48,380.42z"/>
					<path fill="#6DCFF6" d="M513.7,380.38c0,0-0.03-0.12,0.02-0.36c0.01-0.13,0.1-0.24,0.18-0.4c0.07-0.17,0.22-0.29,0.39-0.42
						c0.17-0.15,0.37-0.27,0.6-0.32c0.22-0.07,0.47-0.19,0.73-0.21c0.49,0,1.06-0.06,1.56,0.05c0.5,0.12,1.01,0.24,1.47,0.39
						c0.45,0.18,0.83,0.42,1.17,0.58c0.67,0.37,1.08,0.68,1.08,0.68s-0.53-0.03-1.26-0.17c-0.36-0.08-0.78-0.17-1.23-0.27
						c-0.45-0.06-0.92-0.16-1.38-0.25c-0.46-0.12-0.91-0.08-1.35-0.16c-0.21,0-0.4,0.03-0.59,0.03c-0.21-0.01-0.37,0.03-0.51,0.11
						c-0.14,0.07-0.31,0.09-0.4,0.19c-0.1,0.08-0.23,0.15-0.28,0.24C513.76,380.25,513.7,380.38,513.7,380.38z"/>
					<path fill="#262C62" d="M529.54,364.26c0,0,2.66,11.19,0,13.65c0,0-7.78,13.43-26.34-0.72c0,0-7.5-5.52-10.34-1.41
						c0,0-3.91,7.1,5.9,7.44c0,0,5.46,7.66,9.47,9.37c0,0,19.39,10.91,25.74-7.73C533.97,384.86,541.47,369.64,529.54,364.26z"/>
					<path fill="#6DCFF6" d="M500.03,375.35c0,0-0.89-0.04-2.23-0.1c-0.65-0.03-1.38-0.03-2.11,0.03l-0.54,0.07
						c-0.16,0.05-0.32,0.1-0.49,0.13c-0.29,0.11-0.59,0.21-0.73,0.42c-0.23,0.12-0.31,0.4-0.44,0.64c-0.03,0.32-0.21,0.59-0.17,0.97
						c0.01,0.36-0.08,0.7-0.01,1.06c0.04,0.35,0.06,0.69,0.07,1.02c0.07,0.64,0.16,1.19,0.18,1.59c0.03,0.4,0.03,0.64,0.03,0.64
						s-0.15-0.17-0.39-0.5c-0.12-0.16-0.27-0.36-0.41-0.6c-0.15-0.24-0.35-0.49-0.48-0.82c-0.14-0.32-0.29-0.68-0.42-1.06
						c-0.17-0.37-0.21-0.84-0.28-1.3c-0.1-0.45-0.01-1.01,0.09-1.55c0.19-0.52,0.43-1.15,0.94-1.54c0.45-0.46,1.04-0.64,1.56-0.79
						c0.53-0.13,1.04-0.13,1.5-0.09c0.47,0.01,0.89,0.13,1.29,0.22c0.39,0.11,0.76,0.23,1.07,0.37
						C499.33,374.7,500.03,375.35,500.03,375.35z"/>
					<path fill="#6DCFF6" d="M537.27,376.11l-1.95-0.03c0.12-9.18-5.77-10.81-6.02-10.87l0.47-1.9
						C529.85,363.33,537.42,365.31,537.27,376.11z"/>
					<path fill="#6DCFF6" d="M535.37,376.1c0,0,0.11,0.57,0.02,1.6c-0.06,0.51-0.16,1.13-0.36,1.83c-0.22,0.68-0.47,1.5-0.98,2.24
						c-0.42,0.81-1.08,1.55-1.78,2.33c-0.79,0.67-1.6,1.45-2.61,1.97c-0.95,0.64-2.04,1.05-3.14,1.49c-1.1,0.42-2.28,0.62-3.42,0.95
						c-1.17,0.18-2.34,0.29-3.49,0.44c-1.15,0.1-2.29,0.03-3.38,0.06c-1.1,0.05-2.14-0.09-3.14-0.2c-0.99-0.09-1.93-0.21-2.79-0.32
						c-1.71-0.3-3.12-0.67-4.1-0.88c-0.98-0.23-1.54-0.38-1.54-0.38s0.58-0.01,1.59,0.01c1,0.03,2.43,0.08,4.15,0.14
						c1.71-0.08,3.7,0.07,5.81-0.09c1.05-0.07,2.14-0.12,3.24-0.22c1.08-0.16,2.19-0.29,3.29-0.48c1.06-0.28,2.17-0.44,3.18-0.81
						c1-0.39,2.04-0.67,2.91-1.2c0.94-0.42,1.7-1.02,2.48-1.55c0.67-0.64,1.36-1.21,1.83-1.87c0.27-0.31,0.5-0.63,0.68-0.96
						c0.19-0.32,0.42-0.61,0.55-0.93c0.31-0.6,0.52-1.16,0.66-1.64C535.3,376.68,535.37,376.1,535.37,376.1z"/>
					<path fill="#6DCFF6" d="M520.78,340.09c0,0,0.19-0.08,0.53-0.21c0.34-0.12,0.78-0.36,1.33-0.61c0.28-0.11,0.56-0.29,0.86-0.46
						c0.29-0.18,0.61-0.34,0.92-0.54c0.59-0.46,1.31-0.8,1.87-1.37l0.9-0.75c0.3-0.25,0.53-0.56,0.79-0.82
						c0.24-0.28,0.5-0.53,0.74-0.77c0.26-0.23,0.42-0.52,0.59-0.76c0.69-0.98,1.24-1.63,1.24-1.63s-0.26,0.77-0.78,1.92
						c-0.14,0.28-0.25,0.61-0.48,0.89c-0.21,0.29-0.42,0.61-0.67,0.92c-0.26,0.3-0.46,0.67-0.78,0.94
						c-0.31,0.28-0.63,0.56-0.94,0.83c-0.61,0.59-1.39,0.95-2.06,1.36c-0.34,0.2-0.72,0.3-1.05,0.44c-0.34,0.12-0.65,0.26-0.96,0.33
						C521.62,340.12,520.78,340.09,520.78,340.09z"/>
					<path fill="#262C62" d="M443.67,270.15c0,0-4.93-17.41-1.76-27.42c0,0,6.84-12.24,30.28-19.07c0,0,25.66-6.85,34.45,1.94
						c0,0,13.21,3.89,13.21,21.96v22.71c0,0-20.29,9.95-20.29,11.08s-21.19,10.41-21.19,10.41s-8.61-2.01-11.67-8.21
						c0,0-7.33-5.47-10.99-5.47C455.71,278.07,444.45,273.29,443.67,270.15z"/>
					<g>
						<path fill="#6DCFF6" d="M470.18,361.19c0,0-21.18,2.34-31.92,14.06c0,0-29.79,31.25-35.65,38.09c0,0-13.19,25.88-10.25,39.56
							c0,0-2.93,66.41,3.42,73.74l0.49,11.72l22.46-11.72c0,0-16.6-90.34,75.69-86.92l36.14-29.79
							C530.55,409.92,469.51,391.85,470.18,361.19z"/>
						<path fill="#4FC4E8" d="M395.34,539.93l-0.54-12.94c-6.1-8.49-3.76-66.7-3.43-74.01c-2.87-13.88,9.82-39.01,10.37-40.08
							l0.13-0.19c5.81-6.78,35.39-37.82,35.68-38.13c10.85-11.84,31.65-14.26,32.53-14.36l1.11-0.12l-0.02,1.11
							c-0.65,29.57,59.07,47.6,59.67,47.78l1.76,0.52l-37.84,31.19l-0.37-0.01c-1.71-0.06-3.36-0.09-4.99-0.09
							c-24.93,0-43.65,7.29-55.63,21.66c-20.94,25.12-14.14,63.81-14.07,64.2l0.13,0.71L395.34,539.93z M403.42,413.89
							c-0.89,1.79-12.85,26.05-10.12,38.81l0.03,0.12l0,0.13c-0.81,18.36-1.82,67.29,3.18,73.06l0.22,0.26l0.44,10.52l20.48-10.68
							c-0.84-5.49-5.32-41.17,14.6-65.08c12.37-14.85,31.59-22.38,57.14-22.38c1.54,0,3.1,0.03,4.69,0.08l34.46-28.41
							c-4.45-1.45-16.77-5.73-28.9-12.4c-19.89-10.94-30.12-22.92-30.44-35.6c-4.41,0.67-21.23,3.79-30.23,13.6
							C438.66,376.24,409.38,406.97,403.42,413.89z"/>
					</g>
					<path fill="#6DCFF6" d="M636.03,313.72c0,0,36.62,10.74,40.53,37.6l11.47,29.15c0,0-43.7-23.77-52-0.82
						c-8.3,22.95,0,1.46,0,1.46s0.98-11.72-1.47-12.7c0,0,6.84-1.47,4.88-9.28l-3.91-14.16c0,0-0.49-13.19,1.46-19.04
						C637.01,325.93,639.45,314.7,636.03,313.72z"/>
					<path fill="#262C62" d="M503.2,403.74c0,0-33.7-10.75-38.58-18.88c0,0,15.78,12.05,16.19,16.12c0,0-9.84-4.23-16.19-8.63
						c-6.35-4.4-2.44,1.96-2.44,1.96s13.25,6.02-1.19,6.67c0,0-9.07-10.58-7.11-14c0,0-2.61,8.31-0.27,16.92c0,0-0.7,1.78-4.61,0
						c0,0-1.49,7.01,0,8.88C449,412.77,481.96,403.65,503.2,403.74z"/>
					<path fill="#262C62" d="M401.36,455.89c0,0,19.48-0.05,19.48,6.29v9.28C420.85,471.45,407.29,452.99,401.36,455.89z"/>
					<path fill="#262C62" d="M417.7,479.38c0,0-16.76-1.47-18.62,8.49C399.08,487.87,413.99,484.87,417.7,479.38z"/>
					<polygon fill="#262C62" points="396.22,449.11 401.68,457.36 398.95,479.5 395.15,483.59 					"/>
					<path fill="#262C62" d="M416.85,515.85c0,0-24-0.93-24,9.81v4.4c0,0,16-15.18,24-9.79V515.85z"/>
					<path fill="#4FC4E8" d="M421.16,518.22c0,0-15.63-3.8-27.35,11.83c0,0,17.85-9.83,24.31-7.11
						C424.58,525.66,421.16,518.22,421.16,518.22z"/>
					<path fill="#262C62" d="M646.28,347.25c0,0,0.69-0.84,1.23-1.84c0.13-0.25,0.24-0.53,0.34-0.79c0.11-0.26,0.18-0.53,0.24-0.79
						c0.07-0.27,0.11-0.54,0.15-0.81c0.01-0.29,0.09-0.56,0.07-0.88c0.05-0.3,0.03-0.62,0.03-0.96c0.02-0.33,0.01-0.68-0.01-1.03
						c0.03-0.69-0.06-1.4,0-2.06c-0.01-0.64,0-1.22,0.05-1.66c0.05-0.43,0.1-0.7,0.1-0.7s0.24,0.11,0.6,0.36
						c0.35,0.25,0.87,0.62,1.33,1.17c0.46,0.56,0.99,1.23,1.3,2.12c0.18,0.43,0.34,0.89,0.4,1.41c0.11,0.5,0.14,1.03,0.1,1.58
						c-0.01,0.54-0.15,1.11-0.32,1.64c-0.18,0.53-0.45,1.05-0.77,1.47c-0.63,0.9-1.52,1.43-2.27,1.7c-0.75,0.29-1.43,0.27-1.87,0.23
						C646.53,347.37,646.28,347.25,646.28,347.25z"/>
					<path fill="#262C62" d="M648.39,360.7c0,0,1.75-1.11,4.02-3.16c0.53-0.55,1.16-1.08,1.72-1.75c0.59-0.64,1.2-1.3,1.75-2.06
						c0.61-0.7,1.06-1.55,1.6-2.34c0.42-0.86,0.93-1.69,1.23-2.59c0.3-0.9,0.64-1.78,0.71-2.7c0.06-0.45,0.16-0.89,0.2-1.33
						c0-0.44,0.04-0.88,0.07-1.3c0.17-0.84,0.07-1.67,0.15-2.46c0.09-0.8,0.02-1.56-0.02-2.29c-0.07-0.72,0.04-1.43-0.09-2.02
						c-0.08-0.6-0.14-1.15-0.16-1.61c-0.07-0.92-0.05-1.51-0.05-1.51l0.35-0.17c0,0,0.4,0.38,1,1.14c0.3,0.38,0.65,0.86,1.04,1.43
						c0.41,0.56,0.64,1.29,0.97,2.07c0.15,0.4,0.31,0.82,0.47,1.25c0.15,0.44,0.17,0.92,0.27,1.41c0.16,0.98,0.32,2.03,0.14,3.12
						c-0.08,0.54-0.14,1.09-0.25,1.64c-0.12,0.55-0.36,1.07-0.54,1.6c-0.35,1.09-0.89,2.09-1.42,3.08c-0.52,1-1.22,1.88-1.84,2.76
						c-0.73,0.81-1.36,1.66-2.13,2.33c-0.72,0.72-1.45,1.37-2.2,1.91c-0.71,0.59-1.47,1.02-2.11,1.48
						c-2.69,1.71-4.69,2.41-4.69,2.41L648.39,360.7z"/>
					<path fill="#4FC4E8" d="M636.2,377.19c0,0,0.13-0.84,0.7-2.19c0.28-0.68,0.65-1.5,1.18-2.38c0.53-0.88,1.15-1.89,2-2.85
						c0.77-1.04,1.82-1.98,2.93-3c1.2-0.89,2.45-1.91,3.96-2.61c1.44-0.86,3.09-1.37,4.76-1.91c0.84-0.27,1.71-0.36,2.59-0.52
						c0.88-0.1,1.75-0.35,2.63-0.31c1.75,0.06,3.55-0.14,5.22,0.26c1.68,0.31,3.37,0.49,4.86,1.1c1.5,0.54,2.99,1,4.28,1.64
						c1.28,0.67,2.46,1.36,3.54,1.99c1.11,0.57,2,1.31,2.78,1.95c0.8,0.62,1.46,1.21,2.01,1.68c1.09,0.95,1.66,1.55,1.66,1.55
						s-0.84-0.16-2.22-0.52c-0.69-0.19-1.53-0.4-2.45-0.7c-0.93-0.29-1.96-0.63-3.12-0.87c-1.15-0.27-2.38-0.56-3.65-0.91
						c-1.28-0.33-2.66-0.45-4.03-0.75c-1.37-0.36-2.81-0.3-4.24-0.5l-1.08-0.11c-0.36-0.01-0.72,0.02-1.08,0.02l-2.16,0.03
						c-0.73-0.07-1.42,0.15-2.12,0.21c-0.69,0.13-1.42,0.1-2.09,0.29c-1.34,0.37-2.72,0.59-3.96,1.12c-1.3,0.38-2.46,1.01-3.62,1.53
						c-1.08,0.64-2.21,1.15-3.13,1.83c-1.92,1.24-3.43,2.51-4.5,3.43c-0.51,0.48-0.95,0.84-1.22,1.11
						C636.36,377.05,636.2,377.19,636.2,377.19z"/>
					<path fill="#262C62" d="M525.18,403.89"/>
					<path fill="#262C62" d="M473.78,358.83c0,0,16.34,38.85,43.56,42.64c0,0,8.51,5.28,14.51,0.64v4.88c0,0-13.59,6.58-51.44-23.45
						c0,0-12.27-11.92-10.33-22.86C470.08,360.68,472.07,359.26,473.78,358.83z"/>
					<path fill="#6DCFF6" d="M246.33,303.14c0,0,12.82-15.7,26.49-19.61l-2.07,4.3c0,0-14.99,7.99-5.22,21.01
						c0,0,39,44.75,78.72,31.73c0,0,5.49,0,0.12-17.58l-0.43-3.17c0,0,12.48,2.2,24.45-5.37c0,0,5.65-1.46,6.36-27.35
						c0,0,5.62-10.5,28.82-3.17c0,0,28.08,18.07,32.72,29.79l2.2,3.17c0,0-92.29,55.91-91.81,64.22s-2.2-1.71-2.2-1.71
						s-28.57-14.89-54.45-6.84c0,0-48.59,18.56-27.35,57.14c0,0,8.3,4.15,13.92,4.15c0,0,63.73,0.49,75.69,3.17
						c0,0,8.49-0.03,28.06-9.19c0,0,57.16-48.44,79.13-74.81l5.13,8.55c0,0-68.37,67.88-68.12,73.01c0,0-4.15,115.16-0.73,171
						l-218.53,0.65c0,0-6.87-146.08,18.79-160.58c0,0,1.24-37.69,0.02-44.28c0,0,31.01,8.06,33.45-17.83c0,0-2.93-8.14-3.91-12.37
						c0,0-2.69-8.63,0.24-10.33c0,0,0.98-4.4-0.49-9.03c0,0,6.11-5.37,4.64-13.19c0,0-1.95-5.13-3.91-8.3
						C226.07,330.32,234.37,313.07,246.33,303.14z"/>
					<path fill="#262C62" d="M471.23,358.24c0,0-3.73,3.23-9.4,7.97c-2.83,2.38-6.12,5.17-9.7,8.08c-3.57,2.92-7.39,6.04-11.12,9.23
						c-1.86,1.6-3.72,3.21-5.55,4.78c-1.81,1.6-3.62,3.14-5.43,4.57c-1.83,1.4-3.62,2.71-5.39,3.87c-1.75,1.19-3.43,2.28-5.01,3.24
						c-6.29,3.92-11.03,5.9-11.03,5.9l-0.37-0.45c0,0,3.06-4.01,8.46-9.1c1.34-1.28,2.82-2.64,4.43-4.03
						c1.58-1.42,3.32-2.82,5.15-4.24c1.85-1.39,3.82-2.76,5.84-4.11c2-1.38,4.04-2.77,6.08-4.17c8.07-5.68,16.23-11.17,22.4-15.24
						c6.15-4.1,10.3-6.77,10.3-6.77L471.23,358.24z"/>
					<path fill="#2A3577" d="M243.41,401.46c0,0-17.82,24.74-22.75,22.46C220.66,423.92,234.94,406.67,243.41,401.46z"/>
					<path fill="#2A3577" d="M248.62,384.86c0,0-24.74,30.93-30.6,32.23C218.01,417.09,236.24,390.39,248.62,384.86z"/>
					<path fill="#2A3577" d="M260.6,369.55c0,0-31.01,17.14-32.96,20.69C227.64,390.24,227.98,378.99,260.6,369.55z"/>
					<path fill="#2A3577" d="M250.89,365.84c0,0-24.32,9.94-23.98,11.5C226.91,377.34,223.22,368.64,250.89,365.84z"/>
					<path fill="#2A3577" d="M230.11,335.85c0,0,26.32-3.1,35.11,0C265.22,335.85,246.44,325.27,230.11,335.85z"/>
					<path fill="#4FC4E8" d="M295.17,369.55c0,0-59.77-5.21-51.05,49.49c0,0,5.85,30.36,35.45,14.37c0,0-31.28-1.35-19.89-34.23
						C259.68,399.18,258.71,384.85,295.17,369.55z"/>
					<path fill="#FFFFFF" d="M232.03,340.58c0,0,23.09-6.83,38.72-1.63c0,0,11.72,12.74,8.46,16.95c-3.25,4.21-1.3,0-1.3,0
						s-9.08,9.25-18.88,9.93C259.03,365.84,230.43,366.3,232.03,340.58z"/>
					<path fill="#FFFFFF" d="M364.19,335.85c0,0,16.93-12.2,23.77-8.62c0,0,9.44,13.34,8.14,17.9l-22.14,17.91
						C373.95,363.04,365.32,354.25,364.19,335.85z"/>
					<path fill="#FFFFFF" d="M345.58,324.22c0,0,17.71,26.02-36.26,17.01c0,0-52.27-21.75-46.23-46.36c0,0-18.05,7.61,24.27,40.98
						c0,0,36.3,24.79,62.51,8.96C349.86,344.81,360.5,335.53,345.58,324.22z"/>
					<path fill="#090E2D" d="M293.88,433.03c0,0,5.2,25.4,1.29,36.8c0,0-24.42,56.22-13.02,76.62l30.28,0.16
						c0,0,14.98-97.61-4.56-117.47L293.88,433.03z"/>
					<path fill="#090E2D" d="M352.14,460.38c0.39,1.4,3.64,2.93,4.75,2.6c0,0,4.04-9.77,7.29-2.6c0,0,0.98,13.67-4.56,14.32
						c-5.53,0.65-1.43,0-1.43,0s-11.27,10.09-11.27,19.53c0,0-1.89,15.3,8.66,17.26c0,0,16.74,2.77,16.08-10.99l0.02-3.34
						c0,0-3.27,4.72-5.88,4.48c0,0-10.08,4.46-10.09-10c0,0,3.58-7.62,8.46-6.91c0,0,11.11-8.41,7.51-24.68
						c0,0-2.95-12.37-7.51-13.02C364.19,447.04,349.87,452.25,352.14,460.38z"/>
					<path fill="#090E2D" d="M383.46,437.98c0,0-3.31,5.44-3.22,6.25c0.1,0.82,0.6,3.62,0.6,3.62v4.07l3.55,8.47
						c0,0,1.78,3.42,1.94,3.91s3.9,21.43,1.78,23.57c-2.12,2.15-3.4,2.8-3.4,2.8l-2.67-0.65l-1.87-2.38l-2-7.55l-2.41-0.7
						l-1.92,2.65v8.95c0,0-0.27,3.09,0.21,3.58s4.5,3.58,4.99,3.74s0.87-0.16,2.98,0c2.12,0.16,5.07-0.98,5.89-0.98
						s2.62-1.3,2.62-1.3s0.5-47.86,0.01-50.46s-0.49-2.61-0.49-2.61S390.2,435.76,383.46,437.98z"/>
					<path fill="#090E2D" d="M375.5,432.12c0,0,0.28,99.94-21.96,112.61l10.65-2.05C364.19,542.68,378.18,479.21,375.5,432.12z"/>
					<path fill="#090E2D" d="M375.12,465.47c0,0,11.15-42.37,15.65-46.45l-10.41,8.82C380.36,427.84,375.97,442.89,375.12,465.47z"
						/>
					<path fill="#262C62" d="M306.28,351.49c0,0,11.41,13,11.87,18h3.39C321.54,369.5,314.95,357.42,306.28,351.49z"/>
					<path fill="#262C62" d="M331.82,371.5c-0.83,0-0.97-0.93-1.04-1.35c-0.07-0.41-0.19-1.2-0.39-2.13
						c-0.26-0.69-0.64-1.56-1.12-2.5c-2.78-5.4-8.23-12.87-8.28-12.94l-2.33-3.19l3.55,1.72c6.33,3.08,9.02,11.5,10.06,16.29
						c0.31,0.84,0.47,1.53,0.5,2.11c0.04,0.87,0.05,1.22-0.24,1.53l-0.29,0.46H331.82z"/>
					<path fill="#262C62" d="M329.84,351.98c0,0,11.72,7.38,13.67,13.86c0,0-1.8-10.89-2.93-13.86
						C340.58,351.98,334.27,349.21,329.84,351.98z"/>
					<path fill="#262C62" d="M352.3,324.22c0,0,8.01,13.35,7.3,23.03C359.61,347.25,367.2,337.16,352.3,324.22z"/>
					<path fill="#262C62" d="M375.12,310.55c0,0,16.73,22.49,18.08,25.19C393.2,335.74,389.64,318.36,375.12,310.55z"/>
					<path fill="#262C62" d="M396.22,297.08c0,0,6.63,12.74,5.17,17.86C401.38,314.94,404.48,309.49,396.22,297.08z"/>
					<path fill="#262C62" d="M406.51,297.08l2.2,36.42C408.71,333.5,413.35,320.73,406.51,297.08z"/>
					<path fill="#262C62" d="M416.79,302.25c0,0,0.22,18.07-1.49,21.97C413.59,328.13,419.99,322.02,416.79,302.25z"/>
					<path fill="#262C62" d="M235.27,433.6c0,0-21.74,4.21-23.6-12.62c0,0-3.42,7.1-2.44,18.53c0,0,3.17,6.01-2.2,4.69
						c0,0-4.88,3.02-3.05,16.11c0,0,5.45,14.84,6.12,16.06c0,0,6.51,13.54,10.51,13.95c0,0,3.93,4.9,4.25,6.03
						c0,0,16.36-15.38,17.58-24.91c1.22-9.52-4.64,1.22,0-14.65s-1.95-2.93-1.95-2.93s-11.07,2.2-15.91,0.98
						c-4.84-1.22,0-0.98,0-0.98s15.58-4.1,14.25-15.14c0,0-10.87,7.28-17.44,4.11c0,0,0,0,2.18-1.32c0.31-0.19,0.72-0.35,1.25-0.46
						C229,440.2,228.84,437.5,235.27,433.6z"/>
					<path fill="#090E2D" d="M276.29,436.7c0,0-18.99,9.4-30.57-12.63c-11.58-22.03-5.52,10.59-18.08,11.25l-8.16,6.02
						c0,0,2.88,5.05,10.63,2.12l7.11-3.25c0,0-1.03,9.51-19.21,14.16c0,0,20.51,2.44,22.46,0.49c0,0-2.93,11.4,0,14.65l-10.36,19.86
						l-7.82,3.88l16.53,21.26c0,0,41.7-5.16,43-26.87c0,0,0.65-15.53,2.6-20.41c0,0,13.45-24.9,2.33-33.28l-7.19-0.53L276.29,436.7z
						"/>
					<path fill="#262C62" d="M692.68,394.63c0,0-3.91-29.71-27.83-28.73c0,0-27.83-1.92-30.28,16.64c-2.44,18.56,0,1.97,0,1.97
						s0,12.85,1.47,19.37c0,0,0.49,4.09-7.33,6.54c0,0-57.62-8.92-81.55-2.92h-26.37c0,0-13.67-4-25.88-2h-21
						c0,0-3.91,0.26-2.93,2.21c0,0-42,11.85-42.49,23.08c0,0-7.33,1.29-6.84,8.12c0,0-0.53,40.93-0.02,48.75c0,0,0.01-0.38,2-0.21
						c0.4,0.03,0.87,0.06,1.44,0.14c3.42,0.49,6.35-9.78,8.3-19.54c0,0-1.47-20.52,13.67-21c0,0,22.46-5.54,25.39-10.34
						c0,0,26.86,8.87,32.23,9.36c0,0,40.53,10.25,47.37,13.18c0,0,52.25,23.44,89.85,6.84c0,0,16.12-7.81,21.98-24.91
						c0,0,21.49-32.23,23.44-33.21C687.3,407.97,690.72,402.29,692.68,394.63z"/>
					<g>
						<path fill="#262C62" d="M262.69,429.7c0,0-24.66-35.24,29.06-58.52c0,0,34.67-4.23,52.74,8.22c0,0,21-19.78,102.55-67.63
							c0,0,24.91-23.26,42.49-30.43c0,0,27.84-32.56,36.62-40.38c0,0-2.93-1.95,9.28,0l29.3-3.91c0,0,5.37,0.49,5.86,6.35
							l-3.42,4.39l-0.98,3.42l-1.95,4.39c0,0-0.49,3.91-2.44,7.81c0,0,1.95,11.72-0.98,13.19c-2.93,1.46-2.93,1.46-2.93,1.46
							s-7.81-2.93-16.6,7.33c0,0-22.46,28.32-31.25,26.37c0,0-15.63,5.37-20.02,10.74c0,0-31.29,31.46-32.49,32.84
							c0,0-43.94,44.56-45.69,46.21c0,0-33.5,27.48-38.21,32.33c0,0-10.65,3.71-24.57,2.6c0,0-57.76-5.79-61.19-2.51
							C287.86,433.99,269.29,433.36,262.69,429.7z"/>
						<path fill="#2A3577" d="M262.69,429.7c-1.74-2.64-3.04-5.56-4.02-8.57c-0.47-1.51-0.89-3.04-1.15-4.6
							c-0.31-1.55-0.45-3.14-0.53-4.72c-0.07-1.58,0-3.17,0.15-4.75l0.35-2.35l0.53-2.32l0.71-2.27c0.26-0.75,0.59-1.47,0.88-2.21
							c0.66-1.44,1.36-2.87,2.23-4.21c0.79-1.38,1.78-2.63,2.73-3.9c1.03-1.21,2.04-2.44,3.19-3.54c1.08-1.16,2.31-2.18,3.5-3.23
							c1.2-1.03,2.49-1.96,3.75-2.93c1.32-0.88,2.61-1.8,3.96-2.64c1.37-0.8,2.71-1.66,4.11-2.41c1.41-0.73,2.79-1.5,4.22-2.19
							l4.31-2.01l0.05-0.02l0.05-0.01c4.53-0.51,9.06-0.71,13.6-0.75c1.14-0.01,2.27-0.02,3.41,0.03c1.13,0.04,2.27,0.03,3.41,0.11
							l3.4,0.2l3.4,0.33c1.14,0.09,2.25,0.29,3.38,0.45c1.13,0.16,2.25,0.32,3.37,0.56c1.12,0.23,2.24,0.43,3.35,0.69l3.31,0.88
							c1.11,0.27,2.17,0.73,3.25,1.08l1.62,0.57l1.56,0.71c1.03,0.51,2.12,0.88,3.09,1.51l2.96,1.77l-0.67,0.05
							c1.99-1.63,3.88-3.42,5.97-4.91l6.16-4.61l6.16-4.61c2.03-1.58,4.17-2.99,6.3-4.41l25.55-17.14c2.1-1.47,4.33-2.75,6.5-4.1
							l6.56-4.01l13.12-8.03l26.23-16.06l-0.13,0.1c1.62-1.5,3.25-2.95,4.9-4.4c1.67-1.42,3.3-2.89,5-4.27l5.09-4.17l5.21-4.02
							c1.72-1.36,3.57-2.56,5.35-3.85l2.69-1.9c0.92-0.61,1.87-1.17,2.8-1.75l2.81-1.73c0.94-0.57,1.85-1.19,2.87-1.64l5.96-2.93
							l-0.31,0.22l8.92-10.32c2.99-3.42,5.95-6.88,9.01-10.24l9.12-10.15l9.59-9.81l0.1,1.43c-0.19-0.15-0.3-0.22-0.47-0.46
							c-0.15-0.15-0.38-0.76-0.09-1.27c0.11-0.16,0.28-0.33,0.41-0.42l0.29-0.14c0.23-0.1,0.31-0.09,0.48-0.13
							c0.3-0.07,0.51-0.06,0.77-0.09l0.7-0.01c0.91,0.01,1.79,0.08,2.66,0.17c1.75,0.17,3.46,0.44,5.17,0.69l-0.27,0l29.29-3.95
							l0.12-0.02l0.1,0.01c0.52,0.06,0.91,0.16,1.35,0.29c0.42,0.13,0.83,0.3,1.23,0.49c0.8,0.39,1.54,0.94,2.15,1.61
							c0.6,0.67,1.12,1.44,1.42,2.29c0.34,0.83,0.49,1.7,0.59,2.56l0.04,0.36l-0.24,0.31l-3.42,4.39l0.16-0.32l-0.98,3.42
							l-0.02,0.07l-0.03,0.06l-1.96,4.39l0.07-0.27c-0.1,0.74-0.27,1.41-0.42,2.11c-0.13,0.7-0.39,1.36-0.58,2.04
							c-0.18,0.68-0.42,1.35-0.72,2l-0.83,1.96l0.09-0.57c0.43,2.86,0.71,5.69,0.61,8.63c-0.03,0.73-0.1,1.48-0.23,2.23
							c-0.1,0.38-0.15,0.76-0.29,1.15c-0.15,0.39-0.27,0.78-0.56,1.18c-0.18,0.39-0.75,0.8-1.11,1.01l-0.95,0.47l-1.9,0.94
							l-0.29,0.15l-0.43-0.11c-0.97-0.25-2.23-0.42-3.38-0.26c-1.19,0.02-2.32,0.46-3.47,0.74l-1.63,0.78
							c-0.54,0.26-1.11,0.48-1.58,0.88c-0.96,0.75-2.05,1.33-2.9,2.22l-2.61,2.62l-2.42,2.93c-1.64,1.95-3.32,3.87-5.03,5.77
							c-3.43,3.78-6.98,7.46-10.84,10.84c-1.94,1.68-3.94,3.32-6.14,4.71c-1.1,0.7-2.26,1.33-3.51,1.83
							c-1.24,0.48-2.66,0.85-4.19,0.55l0.43-0.03c-3.56,1.26-7.09,2.7-10.49,4.34c-1.7,0.82-3.36,1.71-4.95,2.7
							c-0.8,0.49-1.55,1.03-2.29,1.58l-1.04,0.88l-0.92,0.96l-0.05,0.06l-56.79,57.23l-14.19,14.31l-7.1,7.16
							c-2.62,2.25-5.21,4.29-7.8,6.46c-5.18,4.28-10.37,8.54-15.5,12.88l-7.7,6.49l-7.5,6.66l-0.11,0.1l-0.08,0.03
							c-3.5,1.1-7.05,1.76-10.64,2.24c-1.8,0.15-3.6,0.4-5.41,0.43c-1.81,0.03-3.62,0.15-5.43,0.01c-1.8-0.08-3.63-0.15-5.41-0.37
							l-5.37-0.53l-10.74-0.98c-7.17-0.62-14.33-1.18-21.51-1.59c-3.59-0.2-7.18-0.37-10.77-0.43c-1.79-0.03-3.59-0.03-5.38,0.04
							c-0.9,0.04-1.79,0.09-2.68,0.2c-0.86,0.13-1.83,0.4-2.5,0.87l-0.05,0.23h-0.04c-4.28,0-8.55-0.77-12.79-1.36
							c-2.12-0.29-4.23-0.76-6.32-1.25c-1.05-0.23-2.07-0.58-3.1-0.89l-1.5-0.58L262.69,429.7z M262.69,429.7l1.46,0.67l1.51,0.54
							c1.03,0.3,2.05,0.59,3.1,0.81c2.09,0.46,4.2,0.82,6.32,1.09c4.24,0.55,8.51,0.88,12.78,1.04l-0.09,0.03
							c0.82-0.58,1.75-0.62,2.64-0.77c0.9-0.11,1.8-0.17,2.7-0.22c1.8-0.08,3.6-0.1,5.4-0.09c3.6,0.02,7.2,0.16,10.79,0.32
							c7.19,0.34,14.37,0.83,21.54,1.38l10.75,0.88l5.38,0.48c1.79,0.21,3.56,0.25,5.36,0.31c1.78,0.12,3.57-0.02,5.36-0.06
							c1.79-0.05,3.56-0.31,5.33-0.47c1.76-0.29,3.54-0.51,5.28-0.91c1.75-0.34,3.49-0.81,5.16-1.33l-0.19,0.12l7.54-6.75l7.69-6.52
							c5.12-4.36,10.29-8.64,15.46-12.94c2.55-2.15,5.24-4.29,7.7-6.42l7.07-7.18l14.15-14.36l56.59-57.41l-0.05,0.05l1.05-1.11
							l1.14-0.97c0.79-0.59,1.59-1.17,2.42-1.68c1.65-1.03,3.35-1.96,5.09-2.8c3.47-1.69,7.02-3.15,10.65-4.45l0.2-0.07l0.24,0.05
							c0.99,0.2,2.16-0.05,3.25-0.49c1.1-0.45,2.19-1.03,3.22-1.7c2.09-1.33,4.03-2.93,5.92-4.58c3.77-3.33,7.28-6.99,10.67-10.74
							c1.69-1.88,3.35-3.79,4.97-5.74l2.43-2.95l2.76-2.79c0.9-0.95,2.09-1.6,3.13-2.41c0.51-0.43,1.13-0.68,1.73-0.98l1.81-0.87
							c1.3-0.34,2.57-0.82,3.95-0.86c0.67-0.1,1.36-0.08,2.05-0.02c0.7,0.02,1.34,0.15,2.11,0.38l-0.72,0.04l1.89-0.95l0.95-0.47
							c0.21-0.18,0.28-0.15,0.42-0.41c0.28-0.36,0.43-1.02,0.56-1.63c0.1-0.64,0.17-1.3,0.19-1.98c0.08-2.71-0.2-5.52-0.62-8.25
							l-0.04-0.27l0.13-0.3l0.76-1.82c0.28-0.6,0.5-1.22,0.67-1.86c0.17-0.64,0.41-1.26,0.53-1.91c0.13-0.64,0.29-1.3,0.38-1.92
							l0.02-0.14l0.05-0.12l1.95-4.4l-0.04,0.13l0.97-3.42l0.05-0.18l0.11-0.15l3.41-4.4l-0.2,0.68c-0.09-0.69-0.2-1.38-0.46-2
							c-0.23-0.64-0.6-1.18-1.04-1.67c-0.44-0.48-0.98-0.89-1.59-1.19c-0.3-0.15-0.62-0.28-0.94-0.38c-0.31-0.1-0.69-0.18-0.94-0.22
							l0.22,0l-29.31,3.86l-0.13,0.02l-0.14-0.02c-1.69-0.26-3.38-0.53-5.06-0.7c-0.84-0.09-1.68-0.15-2.49-0.17l-0.59,0.01
							c-0.17,0.02-0.39,0.02-0.51,0.06c-0.04,0.01-0.19,0.03-0.15,0.03c0,0,0,0,0-0.01c0.05-0.02,0.16-0.11,0.18-0.2
							c0.21-0.32,0.01-0.69,0-0.67c-0.06-0.06,0.01,0-0.01-0.01l0.1,1.43l-9.5,9.65l-9.13,10.1c-3.07,3.34-6.03,6.79-9.03,10.2
							l-8.94,10.28l-0.11,0.13l-0.2,0.1l-5.82,2.84c-0.99,0.43-1.89,1.05-2.82,1.61l-2.78,1.7c-0.92,0.57-1.86,1.12-2.77,1.71
							l-2.67,1.87c-1.77,1.27-3.6,2.45-5.31,3.8l-5.19,3.98l-5.07,4.13c-1.7,1.37-3.32,2.82-4.99,4.23
							c-1.64,1.43-3.28,2.88-4.88,4.35l-0.06,0.05l-0.07,0.04l-26.26,15.96l-13.13,7.98l-6.57,3.99c-2.18,1.34-4.41,2.62-6.51,4.07
							l-25.57,17.03c-2.13,1.42-4.28,2.82-6.3,4.38l-6.16,4.58l-6.16,4.58c-2.09,1.49-3.93,3.23-5.92,4.83l-0.32,0.26l-0.35-0.21
							l-2.86-1.72c-0.93-0.62-2.01-0.98-3-1.48l-1.52-0.7l-1.58-0.56c-1.06-0.35-2.09-0.8-3.19-1.07l-3.25-0.88
							c-1.09-0.26-2.2-0.46-3.3-0.69c-1.1-0.25-2.21-0.4-3.33-0.57c-1.11-0.16-2.22-0.36-3.35-0.46l-3.36-0.36l-3.37-0.23
							c-1.12-0.09-2.25-0.09-3.38-0.14c-1.12-0.05-2.25-0.05-3.38-0.06c-4.51-0.01-9.04,0.15-13.51,0.61l0.1-0.03l-4.3,1.96
							c-1.42,0.68-2.81,1.43-4.21,2.14c-1.4,0.73-2.73,1.57-4.1,2.35c-1.35,0.81-2.63,1.72-3.96,2.58
							c-1.25,0.95-2.54,1.86-3.75,2.87c-1.19,1.03-2.41,2.03-3.49,3.17c-1.15,1.08-2.16,2.29-3.19,3.47
							c-0.95,1.25-1.95,2.48-2.74,3.83c-0.87,1.31-1.57,2.72-2.24,4.14c-0.3,0.73-0.63,1.44-0.9,2.18l-0.73,2.25l-0.55,2.3
							l-0.37,2.33c-0.16,1.57-0.25,3.14-0.2,4.72c0.06,1.57,0.2,3.15,0.48,4.7c0.26,1.56,0.65,3.09,1.11,4.6
							C259.71,424.12,260.98,427.04,262.69,429.7z"/>
					</g>
					<path fill="#262C62" d="M343.94,319.83c0,0,9.54,20.92-4.22,21.99c0,0-43.05,13.69-77.01-36.99c0,0-3.68-13.08,8.04-16.99
						c0,0,6.35-11.72,5.37-18.07c0,0-19.6-24.42-14.75-33.45c0,0,17.68-15.87,31.36,11.48l4.4,15.63c0,0-6.15-31.74,1.95-35.65
						c0,0,10.74-6.35,10.25-11.23c-0.49-4.88-0.49-4.88-0.49-4.88l2.44-5.37c0,0,15.14-6.84,18.56-3.42c0,0,24.42,12.89,32.72,0.24
						c0,0,1.99-9.03,5.41-5.62c0,0,10.22,8.79,10.71,5.37c0,0,2.44,14.65,3.42,20.02c0,0,1.95,1.47,0,5.37
						c-1.46,2.93-1.83,2.98-1.61,3.28c0.07,0.1,0.21,0.23,0.39,0.5c0.73,1.1,0.98,3.79,0.73,5.98c0,0,3.66,20.75-4.03,35.04
						c0,0-2.89,7.77-2.11,12.54c0.02,0.15,0.05,0.3,0.08,0.45c1.05,4.71-0.03-0.15-0.03-0.15s-1.56,5.01-0.73,11.22
						c0,0,1.06,14.91-10.47,19.54C364.32,316.67,356.58,322.51,343.94,319.83z"/>
					<path fill="#090E2D" d="M275.96,238.36c0,0-0.79,0.18-1.97,0.45c-0.57,0.14-1.22,0.29-1.87,0.49
						c-0.33,0.08-0.65,0.22-0.98,0.34c-0.34,0.09-0.62,0.29-0.94,0.42c-0.27,0.18-0.6,0.3-0.83,0.52c-0.24,0.21-0.52,0.37-0.71,0.62
						c-0.23,0.21-0.41,0.45-0.57,0.71c-0.19,0.24-0.33,0.49-0.45,0.74c-0.11,0.25-0.28,0.47-0.35,0.69
						c-0.09,0.23-0.16,0.42-0.22,0.58c-0.14,0.33-0.24,0.53-0.24,0.53s-0.07-0.2-0.15-0.56c-0.09-0.36-0.21-0.89-0.12-1.55
						c0.01-0.33,0.06-0.7,0.21-1.06c0.11-0.38,0.25-0.78,0.52-1.13c0.22-0.38,0.52-0.73,0.87-1.03c0.33-0.33,0.74-0.54,1.13-0.8
						c0.42-0.16,0.83-0.38,1.25-0.48c0.42-0.14,0.84-0.19,1.24-0.23c0.81-0.09,1.55-0.03,2.18,0.08
						C275.22,237.9,275.96,238.36,275.96,238.36z"/>
					<path fill="#090E2D" d="M279.11,241.35c0.5,0.87,0.86,1.79,1.15,2.74c0.3,0.94,0.51,1.92,0.63,2.91c0.14,1,0.16,2.02,0.05,3.06
						c-0.03,0.52-0.18,1.05-0.33,1.57c-0.17,0.53-0.41,1.06-0.75,1.55l-0.3,0.43l-0.45-0.03c-0.44-0.03-0.95,0.01-1.41,0.07
						c-0.47,0.05-0.91,0.18-1.26,0.36c-0.17,0.09-0.32,0.2-0.43,0.35c-0.11,0.14-0.21,0.32-0.23,0.55
						c-0.08,0.45,0.05,0.98,0.18,1.52c-0.18-0.21-0.39-0.41-0.55-0.65c-0.13-0.26-0.31-0.51-0.35-0.83
						c-0.09-0.3-0.07-0.68,0.04-1.01c0.11-0.35,0.33-0.65,0.57-0.89c0.5-0.49,1.09-0.74,1.66-0.94c0.59-0.19,1.14-0.28,1.78-0.33
						l-0.75,0.4c0.15-0.34,0.32-0.68,0.43-1.09c0.1-0.4,0.17-0.82,0.23-1.26c0.12-0.87,0.15-1.79,0.16-2.72
						C279.2,245.24,279.08,243.34,279.11,241.35z"/>
					<path fill="#090E2D" d="M273.11,316.43c0,0,9.36-15.08,12.94-5.89s0,1.46,0,1.46s1.63,7.74-1.63,6.11c0,0-6.09,5.04-4.69,6.1
						s-1.4-1.06-1.4-1.06L273.11,316.43z"/>
					<path fill="#090E2D" d="M345.9,319.83c0,0-45.19-14.02-46.82-24.96c0,0,3.58,6.72,5.21,12.71c0,0,7.53,14.24,11.58,17.76
						c0,0,21.96,9.5,29.61,0L345.9,319.83z"/>
					<path fill="#090E2D" d="M367.77,286.37c0,0-21.49,4.39-28.32,0c0,0-4.88,9.61-2.77,12.54c0,0,6.31-7.33,15.28-6.27
						C351.96,292.64,370.04,291.74,367.77,286.37z"/>
					<path fill="#090E2D" d="M356.92,235.42c0,0-33.69-5.21-38.77,11.4c0,0,8.92-4.73,11.69-2.37c2.77,2.37,0-1.22,0-1.22
						s5.37,8.04,13.67,5.65c0,0,7.16-3.59,8.54-6.9C352.06,241.99,354.22,238.03,356.92,235.42z"/>
					<path fill="#090E2D" d="M367.97,232.17c0,0,10.87-12.36,14.13-11.06c0,0-0.53,3.81-1.89,5.48c0,0-4.11,3.3-4.36,4.28
						c0,0-0.73,9.44-3.42,9.12c0,0-6.6,1.64-6.27,0.01C366.14,239.99,364.26,232.17,367.97,232.17z"/>
					<path fill="#090E2D" d="M371.69,271.56c0.09-0.22,0.27-0.38,0.42-0.56l0.48-0.52c0.32-0.33,0.65-0.67,1-0.99l2.05-1.92
						l-0.05,0.05c0.6-0.9,1.19-1.81,1.28-2.74c0.07-0.93-0.29-1.91-0.73-2.85c-0.92-1.89-2.14-3.7-3.34-5.49l-1.82-2.7
						c-0.59-0.88-1.25-1.82-1.82-2.74c-0.59-0.92-1.13-2-1.58-3.01c-0.43-1.04-0.82-2.1-1.12-3.18c-1.27-4.32-1.52-8.83-1.31-13.23
						c0.25-4.42,1-8.77,2.25-13.02l0.05-0.16l0.09-0.09c0.9-0.86,1.84-1.59,2.86-2.25c1.02-0.65,2.12-1.18,3.29-1.53
						c1.17-0.34,2.44-0.44,3.63-0.12c1.19,0.32,2.17,1.12,2.89,2.04c-0.83-0.84-1.87-1.45-2.98-1.66c-1.12-0.2-2.26,0-3.32,0.41
						c-2.09,0.85-3.96,2.33-5.51,3.94l0.14-0.25c-0.48,2.07-0.83,4.22-1.08,6.35c-0.25,2.13-0.44,4.27-0.5,6.42
						c-0.12,4.27,0.21,8.57,1.33,12.63c0.27,1.02,0.63,2,1.02,2.98c0.43,0.98,0.83,1.87,1.38,2.8c0.54,0.95,1.12,1.8,1.71,2.75
						c0.58,0.93,1.16,1.85,1.71,2.8c1.1,1.89,2.22,3.78,3.09,5.86c0.41,1.04,0.8,2.19,0.62,3.45c-0.26,1.25-1.04,2.15-1.72,2.98
						l-0.03,0.04l-0.02,0.02l-2.22,1.7l-1.1,0.86l-0.54,0.44C372,271.22,371.8,271.36,371.69,271.56z"/>
					<path fill="#090E2D" d="M364.19,271.56c0,0-5.21-4.56-11.88,0C352.3,271.56,359.3,270.91,364.19,271.56z"/>
					<path fill="#090E2D" d="M350.51,261.14c0,0-0.23,0.75-0.66,1.75c-0.21,0.5-0.46,1.07-0.74,1.66c-0.26,0.6-0.58,1.2-0.83,1.83
						c-0.31,0.6-0.53,1.23-0.76,1.8c-0.22,0.58-0.37,1.12-0.5,1.61c-0.08,0.48-0.19,0.93-0.18,1.24c-0.03,0.34-0.04,0.53-0.04,0.53
						s-0.13-0.14-0.33-0.42c-0.23-0.28-0.42-0.74-0.57-1.33c-0.12-0.59-0.16-1.31-0.04-2.04c0.08-0.36,0.1-0.76,0.25-1.11
						c0.12-0.37,0.25-0.73,0.4-1.08c0.64-1.4,1.59-2.59,2.44-3.34C349.79,261.47,350.51,261.14,350.51,261.14z"/>
					<path fill="#090E2D" d="M359.61,274.82c0,0,4.91,0.98,4.58,5.21C364.19,280.03,371.63,273.84,359.61,274.82z"/>
					<path fill="#2A3577" d="M329.84,281.34c0,0,0.08,0.18,0.27,0.48c0.17,0.3,0.53,0.68,1.02,1.05c0.99,0.76,2.7,1.35,4.85,1.71
						c2.15,0.36,4.72,0.54,7.5,0.64c2.78,0.09,5.76,0.08,8.76,0.06c3-0.03,6.01-0.05,8.82-0.08c1.41-0.04,2.78-0.01,4.08-0.03
						c1.29,0,2.51-0.01,3.63-0.01c2.16-0.07,3.95-0.45,5.01-1.09c0.53-0.32,0.88-0.68,1.08-0.97c0.2-0.29,0.25-0.48,0.26-0.48
						c-0.01,0,0.01,0.2-0.08,0.56c-0.09,0.36-0.28,0.92-0.78,1.46c-0.96,1.12-2.85,2.12-5.19,2.68c-0.57,0.12-1.17,0.24-1.79,0.37
						c-0.61,0.13-1.25,0.23-1.9,0.34c-1.3,0.2-2.68,0.45-4.11,0.58c-2.86,0.33-5.93,0.56-9.01,0.58c-3.08,0.02-6.18-0.14-9.08-0.54
						c-2.9-0.38-5.6-1.01-7.83-1.92c-2.23-0.86-3.99-2.12-4.79-3.34c-0.42-0.6-0.58-1.15-0.65-1.52
						C329.84,281.53,329.84,281.34,329.84,281.34z"/>
					<path fill="#2A3577" d="M352.79,225.01c0,0-2.86,0.74-7.04,1.74c-2.08,0.52-4.5,1.12-7.09,1.77c-2.57,0.68-5.28,1.45-7.94,2.31
						c-1.33,0.42-2.64,0.89-3.92,1.38c-1.26,0.51-2.53,0.97-3.69,1.54c-1.17,0.55-2.29,1.1-3.31,1.7c-1.02,0.6-1.96,1.19-2.8,1.8
						c-0.44,0.29-0.8,0.62-1.17,0.91c-0.39,0.28-0.73,0.58-1.03,0.88c-0.64,0.57-1.14,1.12-1.57,1.58
						c-0.82,0.94-1.28,1.54-1.28,1.54s0.05-0.17,0.14-0.51c0.11-0.32,0.2-0.85,0.47-1.44c0.26-0.59,0.57-1.35,1.07-2.12
						c0.46-0.81,1.09-1.65,1.84-2.5c0.75-0.86,1.63-1.74,2.66-2.54c1.01-0.82,2.12-1.65,3.36-2.34c1.22-0.72,2.5-1.41,3.86-2
						c1.35-0.6,2.75-1.12,4.16-1.59c1.42-0.44,2.84-0.86,4.27-1.17c1.42-0.35,2.83-0.56,4.19-0.79c2.73-0.42,5.3-0.59,7.5-0.62
						C349.87,224.45,352.79,225.01,352.79,225.01z"/>
					<path fill="#2A3577" d="M372.41,294.87c0,0-1.87,0.63-4.59,1.27c-1.36,0.34-2.93,0.69-4.6,1.05c-0.83,0.19-1.68,0.39-2.55,0.58
						c-0.86,0.21-1.73,0.39-2.58,0.63c-0.86,0.21-1.7,0.45-2.5,0.7c-0.81,0.26-1.59,0.5-2.31,0.81c-0.69,0.33-1.39,0.61-1.94,0.99
						c-0.58,0.36-1.04,0.75-1.45,1.16c-0.35,0.43-0.67,0.88-0.87,1.34c-0.19,0.46-0.32,0.91-0.39,1.31c-0.12,0.78-0.15,1.3-0.15,1.3
						s-0.06-0.11-0.17-0.3c-0.09-0.2-0.33-0.49-0.45-0.92c-0.15-0.42-0.31-0.96-0.32-1.63c-0.03-0.66,0.09-1.44,0.41-2.23
						c0.33-0.77,0.82-1.58,1.48-2.24c0.64-0.71,1.4-1.3,2.24-1.82c1.66-1.04,3.55-1.76,5.46-2.25c1.91-0.49,3.83-0.74,5.64-0.83
						c1.8-0.1,3.48-0.04,4.91,0.12C370.55,294.19,372.41,294.87,372.41,294.87z"/>
					<path fill="#2A3577" d="M294.49,275.62l-0.72-1.81c3-1.2,1.46-12.82-0.58-20.69l1.89-0.49
						C295.97,256.07,300.16,273.36,294.49,275.62z"/>
					<path fill="#2A3577" d="M276.12,269.77c0,0,0.9,0.37,2.12,0.95c0.62,0.29,1.33,0.62,2.07,0.94c0.36,0.19,0.77,0.28,1.15,0.46
						c0.39,0.11,0.78,0.29,1.17,0.34c0.38,0.11,0.76,0.18,1.12,0.18c0.38,0.06,0.67-0.04,1.01-0.06c0.26-0.16,0.62-0.16,0.85-0.39
						c0.25-0.19,0.53-0.34,0.71-0.6c0.18-0.24,0.43-0.44,0.57-0.67c0.15-0.23,0.27-0.43,0.38-0.6c0.23-0.34,0.38-0.54,0.38-0.54
						s0.01,0.23-0.01,0.66c-0.01,0.42-0.04,1.04-0.38,1.75c-0.1,0.38-0.37,0.73-0.69,1.09c-0.27,0.41-0.76,0.64-1.22,0.92
						c-0.49,0.14-1.06,0.39-1.59,0.33c-0.55,0.02-1.08-0.05-1.58-0.17c-1-0.26-1.91-0.68-2.67-1.18c-0.77-0.49-1.41-1.03-1.91-1.54
						C276.59,270.63,276.12,269.77,276.12,269.77z"/>
					<path fill="#2A3577" d="M297.12,263.42c0,0,0.77-25.53,4.15-29.37c0,0,12.01-11.64,12.24-17.51c0,0,1.53-6.39-1.08-3.56
						c0,0-3.91-6.7,2.47-7.44c0,0,9.42-2.45,15.72,1.59c0,0,24.61,9.23,33.04-3.38c0,0,0.62-7,6.47-1.62c0,0,6.1,4.4,8.54,0.74
						c0,0,0.98-10.5,2.44-9.28c0,0,9.77-10.74-8.55-22.22c0,0-6.46-6.05-7.82-10.09c-0.13-0.4-0.22-0.79-0.24-1.14
						c-0.24-3.91-3.42-5.37-7.57-7.33c0,0-8.78-2.43-10.82-5c-0.29-0.37-0.44-0.74-0.41-1.1c0.24-2.93-3.75-2.44-5.29-3.91
						c0,0-9.11-3.75-6.18-6.02c0,0-39.87-6.28-49.73,8.92c-0.11,0.17-0.22,0.35-0.32,0.52c-9.28,15.87-11.48,4.15-10.74,5.86
						c0,0-5.37,10.01-2.93,12.45c0,0-14.16,4.64-15.38,8.79c0,0-6.59,26.86,1.46,33.21c0,0-0.49,11.96-1.22,14.65
						c0,0-1.57,21.43,6.78,24.98c0.23,0.1,0.46,0.18,0.7,0.25c9.13,2.61-14.75-11.64,14.4-13.67
						C277.25,232.73,290.77,234.37,297.12,263.42z"/>
					<path fill="#2A3577" d="M413.82,538.36c0,0-12.19,65.28-9.59,71.13c0,0,37.44,9.12,60.39,0l5.42-44.95
						C470.04,564.54,457.91,514.1,413.82,538.36z"/>
					<g>
						<path fill="#262C62" d="M530.55,408.46c0,0,12.58-2.32,17.21-0.73c4.64,1.59-12.72-5.91,67.04,0.61c0,0,15.69,3.81,19.05-0.71
							c0,0,3.83-3.05,1.04-12.83c0,0-3.15-8.11,1.3-17.61c0,0,1.29-6.82-1.64-8.77c0,0,7.19-0.92,4.21-11.74c0,0-4.76-8.73-2.9-24.4
							c0,0,4.31-11.73,0.16-17.34c0,0-2.2-20.27-8.55-28.08l-4.15-2.2c0,0-0.98,3.66-6.1,1.22c0,0,3.17,9.28-10.5,8.55
							c0,0-11.48,2.44-9.03,7.33c0,0-5.37,7.45-17.58,3.54c0,0-2.93,3.11-1.95,6.53c0,0,1.46,15.11-3.66,15.84
							c0,0-8.3-0.02-7.57,6.58c0,0,0,8.76-4.88,9.26c0,0,0.98,6.6-3.91,5.62l-4.64,0.73c0,0-3.17-27.1-13.92-20.51
							c0,0-11-1.05-12.33,23.65c0,0-1.49,9.78,8.47,12.85c0,0-0.4,17.08-1.6,29.71C533.64,400.63,531.32,406.22,530.55,408.46z"/>
						<path fill="#2A3577" d="M626.43,410.82c-5.49,0-11.59-1.47-11.85-1.53c-21.84-1.78-38.66-2.69-49.85-2.69
							c-13.45,0-14.86,1.35-15,1.62c-0.25,0.47-0.63,0.71-1.11,0.71c-0.3,0-0.63-0.09-1.17-0.28c-0.97-0.33-2.47-0.5-4.44-0.5
							c-5.32,0-12.21,1.26-12.28,1.27l-1.64,0.3l0.54-1.58c0.13-0.37,0.3-0.83,0.49-1.37c0.99-2.69,2.64-7.19,3.03-11.31
							c1.05-10.99,1.49-25.54,1.58-28.92c-9.87-3.51-8.46-13.59-8.45-13.69c1.25-23.05,10.93-24.46,13.04-24.48
							c1.19-0.68,2.36-1.03,3.49-1.03c8,0,10.87,16.7,11.52,21.4l3.82-0.6l0.17,0.03c0.97,0.19,1.62,0.05,2.07-0.47
							c0.89-1.03,0.79-3.33,0.68-4.06l-0.15-1.01l1.02-0.1c3.89-0.4,4.01-8.21,4.01-8.29c-0.21-1.87,0.26-3.53,1.42-4.83
							c2.41-2.69,6.93-2.72,7.12-2.72c2.76-0.4,3.26-8.88,2.69-14.77c-1.08-3.73,2.08-7.15,2.21-7.29l0.42-0.45l0.59,0.19
							c2.25,0.72,4.42,1.09,6.44,1.09c5.66,0,8.75-2.8,9.72-3.87c-0.3-0.93-0.24-1.87,0.18-2.75c1.71-3.54,8.96-5.18,9.78-5.35
							l0.13-0.03l0.13,0.01c0.5,0.03,0.98,0.04,1.43,0.04h0c3.76,0,6.29-0.87,7.51-2.58c1.46-2.05,0.58-4.69,0.58-4.71l-0.75-2.2
							l2.09,1c1.04,0.49,1.95,0.74,2.7,0.74c1.6,0,2.01-1.21,2.05-1.35l0.34-1.14l5.51,2.99c6.14,7.56,8.44,25.84,8.73,28.33
							c3.99,5.79,0.31,16.63-0.15,17.93c-1.77,15.11,2.76,23.62,2.8,23.7l0.08,0.21c1.19,4.3,0.99,7.68-0.59,10.05
							c-0.84,1.26-1.92,1.99-2.8,2.4c1.83,2.86,0.96,7.85,0.84,8.5l-0.07,0.23c-4.21,8.98-1.31,16.77-1.28,16.85
							c2.73,9.54-0.56,13.21-1.23,13.84C633.25,410,630.58,410.82,626.43,410.82z M564.73,404.65c11.24,0,28.12,0.91,50.16,2.72
							c0.21,0.04,6.29,1.5,11.54,1.5c3.46,0,5.76-0.63,6.65-1.82l0.18-0.18c0.02-0.02,3.25-2.9,0.71-11.79
							c-0.11-0.26-3.2-8.46,1.3-18.18c0.3-1.71,0.65-6.4-1.25-7.66l-2.18-1.45l2.59-0.33c0.07-0.01,1.9-0.29,3.08-2.09
							c1.22-1.86,1.34-4.66,0.34-8.32c-0.57-1.1-4.75-9.82-2.96-24.87l0.05-0.22c0.04-0.11,4.08-11.3,0.3-16.43l-0.16-0.21
							l-0.03-0.26c-0.02-0.2-2.21-19.8-8.21-27.42l-3.09-1.64c-0.6,0.85-1.68,1.71-3.41,1.71c-0.57,0-1.19-0.09-1.85-0.28
							c0.1,1.29-0.05,3.08-1.18,4.66c-1.61,2.25-4.67,3.42-9.1,3.42h0c-0.45,0-0.92-0.04-1.4-0.06c-2.06,0.46-7.23,2.02-8.3,4.25
							c-0.26,0.53-0.24,1.04,0.06,1.64l0.26,0.53l-0.35,0.48c-0.15,0.21-3.75,5.08-11.63,5.08c-2.03,0-4.18-0.33-6.4-0.99
							c-0.67,0.9-1.97,2.99-1.35,5.14c0.29,2.85,1.3,16.25-4.46,17.08c-0.18,0.01-3.98,0.04-5.8,2.08c-0.79,0.88-1.09,2-0.93,3.42
							c0.01,0.47-0.05,8.69-4.81,10.15c0.06,1.22-0.05,3.34-1.22,4.69c-0.86,1-2.08,1.43-3.75,1.14l-5.48,0.86l-0.12-1.01
							c-0.68-5.75-3.74-20.68-9.71-20.68c-0.84,0-1.76,0.3-2.72,0.89l-0.28,0.26l-0.33,0.06c0,0,0,0-0.01,0
							c-1.14,0-10.06,0.58-11.26,22.64c-0.06,0.46-1.23,9.04,7.79,11.82l0.71,0.19l-0.02,0.73c0,0.17-0.41,17.25-1.6,29.78
							c-0.4,4.26-2.03,8.77-3.06,11.57c2.42-0.38,7.04-1.02,10.97-1.02c2.22,0,3.88,0.2,5.07,0.61c0.07,0.02,0.14,0.05,0.2,0.07
							C549.07,405.88,551.56,404.65,564.73,404.65z"/>
					</g>
					<g>
						<defs>
							<path id="SVGID_5_" d="M530.55,408.46c0,0,12.58-2.32,17.21-0.73c4.64,1.59-12.72-5.91,67.04,0.61c0,0,15.69,3.81,19.05-0.71
								c0,0,3.83-3.05,1.04-12.83c0,0-3.15-8.11,1.3-17.61c0,0,1.29-6.82-1.64-8.77c0,0,7.19-0.92,4.21-11.74
								c0,0-4.76-8.73-2.9-24.4c0,0,4.31-11.73,0.16-17.34c0,0-2.2-20.27-8.55-28.08l-4.15-2.2c0,0-0.98,3.66-6.1,1.22
								c0,0,3.17,9.28-10.5,8.55c0,0-11.48,2.44-9.03,7.33c0,0-5.37,7.45-17.58,3.54c0,0-2.93,3.11-1.95,6.53
								c0,0,1.46,15.11-3.66,15.84c0,0-8.3-0.02-7.57,6.58c0,0,0,8.76-4.88,9.26c0,0,0.98,6.6-3.91,5.62l-4.64,0.73
								c0,0-3.17-27.1-13.92-20.51c0,0-11-1.05-12.33,23.65c0,0-1.49,9.78,8.47,12.85c0,0-0.4,17.08-1.6,29.71
								C533.64,400.63,531.32,406.22,530.55,408.46z"/>
						</defs>
						<clipPath id="SVGID_6_">
							<use xlink:href="#SVGID_5_"  overflow="visible"/>
						</clipPath>
						<path clip-path="url(#SVGID_6_)" fill="#6DCFF6" d="M635.79,310.1c0,0-35.14,7.99-39.98,41.52c0,0-9.26,60.87-49.63,60.87
							h-25.39l8.3-38.89l-3.91-22.48l-5.16-14.17l43.09-38l7.49-4.06l45.29-20.16l20.32,2.65l2.76,24.87L635.79,310.1z"/>
					</g>
					<path fill="#2A3577" d="M622.03,333.5c0,0-0.67-0.14-1.84-0.3c-1.16-0.17-2.81-0.38-4.76-0.51c-0.97-0.08-2.03-0.09-3.13-0.13
						c-1.1-0.05-2.26,0.08-3.45,0.08c-1.18,0.13-2.41,0.18-3.62,0.42c-0.61,0.1-1.22,0.19-1.84,0.29l-1.81,0.46
						c-1.24,0.22-2.38,0.74-3.56,1.09c-1.17,0.38-2.25,0.95-3.35,1.4c-1.07,0.49-2.04,1.12-3.03,1.62c-1,0.48-1.8,1.17-2.63,1.67
						c-0.79,0.57-1.62,0.99-2.21,1.52c-0.62,0.51-1.2,0.92-1.67,1.28c-0.95,0.7-1.53,1.09-1.53,1.09s0.32-0.59,0.95-1.61
						c0.32-0.5,0.7-1.13,1.18-1.82c0.44-0.73,1.11-1.39,1.81-2.16c0.72-0.74,1.42-1.67,2.41-2.35c0.96-0.72,1.9-1.61,3.05-2.25
						c1.17-0.61,2.3-1.43,3.61-1.91c1.3-0.5,2.61-1.08,4-1.36l2.07-0.48c0.7-0.08,1.4-0.16,2.09-0.24c1.38-0.22,2.76-0.07,4.07-0.1
						c1.31,0.09,2.58,0.22,3.75,0.46c1.18,0.21,2.27,0.49,3.26,0.82c1,0.27,1.87,0.68,2.64,0.99c0.76,0.35,1.42,0.67,1.94,0.98
						C621.5,333.06,622.03,333.5,622.03,333.5z"/>
					<path fill="#6DCFF6" d="M636.2,325.34c-0.35-0.53-0.93-1.04-1.53-0.88c-0.58,0.15-1.03,0.64-1.41,1.13
						c-0.76,1.02-1.31,2.21-1.82,3.39c-1,2.39-1.86,4.86-2.57,7.34l0.01-0.36c0.62,2.12,1.42,4.22,2.24,6.28
						c0.44,1.02,0.87,2.04,1.38,3.02c0.46,1.01,1.04,1.94,1.57,2.9l0.89,1.45l0.86,1.48c0.56,1,1.11,2,1.6,3.04
						c0.99,2.08,1.38,4.21,1.91,6.54l-0.5,0.09v0.07c0,0.86,0.45,1.62,0.3,2.42c-0.15,0.79-0.12,1.57-0.46,2.33
						c-0.64,1.51-1.84,2.91-3.51,3.4c-0.21,0.07-0.31,0.11-0.58,0.17l-0.52,0.09c-0.35,0.05-0.83,0.1-1.26,0.07
						c-0.43-0.01-0.9-0.14-1.33-0.34c-0.42-0.22-0.74-0.51-0.98-0.69c-0.25-0.18-0.43-0.26-0.72-0.27c-0.27-0.03-0.6,0.03-0.93,0.11
						c-0.66,0.15-1.33,0.45-2,0.73l-0.08,0.03l-0.03,0c-1.95,0.3-3.91,0.44-5.86-0.02c-0.94-0.24-1.97-0.76-2.38-1.74
						c-0.38-0.97-0.1-1.99,0.24-2.86c-0.26,0.9-0.39,1.92,0.03,2.74c0.42,0.81,1.33,1.2,2.22,1.35c1.82,0.3,3.74,0.01,5.53-0.41
						l-0.11,0.04c0.68-0.35,1.35-0.7,2.13-0.93c0.38-0.12,0.79-0.23,1.26-0.22c0.46-0.02,1.01,0.16,1.36,0.41
						c0.72,0.52,1.05,0.7,1.69,0.69c0.32,0,0.57-0.03,0.94-0.11l0.54-0.12l0.42-0.14c1.19-0.45,2.05-1.44,2.56-2.66
						c0.25-0.61,0.43-1.27,0.53-1.95c0.1-0.67,0.15-1.4,0.12-2.02l0.02,0.15c-0.51-2.06-1.38-4.11-2.36-6.09
						c-0.49-0.99-1.01-1.98-1.54-2.95l-0.82-1.45l-0.87-1.45c-0.55-1.02-1.15-2.02-1.59-3.08c-0.5-1.04-0.92-2.11-1.33-3.18
						c-0.39-1.08-0.79-2.15-1.1-3.25c-0.33-1.1-0.62-2.2-0.88-3.33l-0.05-0.2l0.06-0.16c0.9-2.5,1.85-4.96,3.11-7.31
						c0.64-1.16,1.32-2.32,2.24-3.32c0.46-0.48,0.99-1,1.73-1.09C635.42,324.13,635.93,324.79,636.2,325.34z"/>
					<path fill="#2A3577" d="M618.78,337.75c0,0-15.4-3.03-23.65,7.06c0,0-3.76,3.43-8.45,2.37c0,0,6.7,3.1,14.19,0.69
						c0,0,8.79,3.19,15.63-4.82C616.5,343.05,615.52,341.99,618.78,337.75z"/>
					<path fill="#6DCFF6" d="M629.92,335.09c0,0,2.2-3.54,4.52-1.59c0,0,0.07,4.34-2.1,4.25
						C630.17,337.65,629.05,336.16,629.92,335.09z"/>
					<path fill="#2A3577" d="M611.03,347.18c0,0-0.76,0.86-2.02,1.88c-1.26,1.03-3.06,2.29-5.04,3.15c-0.99,0.43-2.01,0.8-2.99,1.02
						c-0.97,0.26-1.91,0.36-2.71,0.4c-0.8,0.05-1.46,0.02-1.92-0.04c-0.46-0.04-0.72-0.06-0.72-0.06s0.26-0.01,0.72-0.02
						c0.46,0.01,1.11-0.04,1.88-0.18c0.77-0.13,1.66-0.33,2.56-0.68c0.91-0.31,1.84-0.78,2.72-1.3c1.78-1.03,3.32-2.41,4.38-3.49
						c1.07-1.11,1.62-1.9,1.62-1.9L611.03,347.18z"/>
					<path fill="#6DCFF6" d="M632.98,375.13c-0.91,0.42-1.85,0.74-2.75,1.15c-0.91,0.4-1.83,0.76-2.75,1.11
						c-0.91,0.36-1.85,0.67-2.75,1.07l-2.74,1.08l-2.75,1.03c-0.93,0.32-1.79,0.77-2.7,1.13c-1.79,0.78-3.6,1.51-5.43,2.21
						l0.19-0.14c-0.36,0.3-0.66,0.49-1.01,0.68c-0.33,0.2-0.69,0.35-1.04,0.5c-0.35,0.16-0.73,0.24-1.09,0.33
						c-0.36,0.11-0.74,0.17-1.12,0.19c-0.38,0.02-0.75,0.09-1.12,0.04l-1.1-0.11c-0.37-0.01-0.72-0.16-1.07-0.24l-1.03-0.33
						l1.07,0.02c0.35,0.01,0.69,0.08,1.04,0.01l1.02-0.12c0.34-0.03,0.66-0.18,0.98-0.25c0.33-0.07,0.64-0.17,0.95-0.32
						c0.3-0.14,0.61-0.25,0.89-0.43c0.29-0.16,0.57-0.32,0.82-0.52c0.26-0.18,0.52-0.41,0.69-0.58l0.08-0.08l0.11-0.05
						c1.78-0.89,3.58-1.76,5.4-2.58c0.91-0.4,1.8-0.88,2.75-1.16l2.83-0.95c1.89-0.6,3.78-1.23,5.73-1.64
						C629.05,375.75,631,375.35,632.98,375.13z"/>
					<path fill="#6DCFF6" d="M615.88,365c-1.67,0.66-3.3,1.36-4.88,2.11c-0.78,0.39-1.55,0.79-2.25,1.24
						c-0.35,0.23-0.67,0.48-0.97,0.72c-0.29,0.25-0.51,0.52-0.65,0.76l-0.03,0.05l-0.01,0.01c-0.53,0.8-1.07,1.5-1.7,2.17
						c-0.6,0.68-1.25,1.32-1.93,1.92c-0.69,0.59-1.41,1.16-2.18,1.66c-0.74,0.53-1.58,0.94-2.4,1.34c-0.84,0.37-1.7,0.7-2.61,0.9
						c-0.44,0.14-0.9,0.19-1.35,0.26c-0.46,0.06-0.91,0.14-1.37,0.11l-1.37-0.02l-1.34-0.24c-0.89-0.11-1.72-0.52-2.54-0.81
						c0.44,0.04,0.89,0.05,1.32,0.1c0.43,0.06,0.86,0.09,1.29,0.05l1.28-0.06l1.25-0.19c0.42-0.03,0.81-0.2,1.22-0.29
						c0.4-0.11,0.81-0.2,1.19-0.37c0.78-0.28,1.53-0.64,2.27-1.02c1.44-0.82,2.83-1.77,4.07-2.89c0.64-0.54,1.25-1.12,1.82-1.74
						c0.57-0.61,1.15-1.26,1.63-1.88l-0.04,0.06c0.69-1.02,1.56-1.51,2.4-1.94c0.85-0.41,1.71-0.75,2.58-1.01
						C612.32,365.49,614.1,365.16,615.88,365z"/>
					<path fill="#090E2D" d="M631.15,389.29c0,0-1.04,0.25-2.54,0.57c-0.75,0.14-1.62,0.36-2.54,0.51
						c-0.91,0.25-1.91,0.35-2.87,0.62c-0.97,0.23-1.96,0.38-2.86,0.65c-0.89,0.26-1.79,0.36-2.51,0.61
						c-1.45,0.43-2.54,0.59-2.54,0.59s0.76-0.73,2.1-1.62c0.65-0.49,1.52-0.8,2.43-1.22c0.46-0.19,0.93-0.41,1.44-0.52
						c0.5-0.13,1.02-0.27,1.53-0.4c2.07-0.45,4.2-0.51,5.78-0.33C630.13,388.89,631.15,389.29,631.15,389.29z"/>
					<path fill="#2A3577" d="M541.17,341.5c0,0-0.88-0.19-2.05-0.26c-0.58-0.04-1.23,0.02-1.8,0.18c-0.3,0.06-0.53,0.25-0.79,0.37
						c-0.21,0.21-0.48,0.34-0.64,0.64c-0.22,0.23-0.39,0.51-0.54,0.84c-0.17,0.29-0.31,0.63-0.43,0.96
						c-0.13,0.32-0.27,0.65-0.35,0.98c-0.09,0.33-0.2,0.63-0.31,0.92c-0.3,1.18-0.66,2.02-0.66,2.02s-0.3-0.83-0.46-2.13
						c0-0.65-0.1-1.43,0.12-2.27c0.09-0.42,0.14-0.86,0.38-1.29c0.18-0.43,0.4-0.87,0.74-1.27c0.28-0.42,0.76-0.72,1.17-1.02
						c0.47-0.24,0.97-0.4,1.45-0.45c0.48-0.08,0.93-0.01,1.33,0.07c0.41,0.07,0.76,0.21,1.07,0.36
						C540.65,340.74,541.17,341.5,541.17,341.5z"/>
					<path fill="#2A3577" d="M537.38,351.2c0,0,0.18-0.76,0.92-1.64c0.2-0.21,0.41-0.46,0.72-0.65c0.29-0.2,0.66-0.44,1.19-0.47
						c0.26-0.04,0.54-0.03,0.84,0.09c0.32,0.08,0.54,0.25,0.74,0.46c0.24,0.2,0.36,0.41,0.46,0.62c0.1,0.21,0.26,0.44,0.29,0.63
						c0.08,0.4,0.22,0.82,0.22,1.19c0.04,0.37,0.01,0.75,0.02,1.1c-0.08,0.68-0.16,1.32-0.33,1.85c-0.31,1.05-0.69,1.71-0.69,1.71
						s-0.27-0.73-0.42-1.76c-0.09-0.52-0.22-1.1-0.27-1.72c-0.05-0.3-0.14-0.6-0.17-0.91c-0.02-0.32-0.15-0.56-0.21-0.84
						c-0.02-0.16-0.09-0.21-0.12-0.32c-0.04-0.11-0.08-0.2-0.12-0.22c-0.03-0.05-0.05-0.11-0.07-0.1c-0.01-0.04-0.05-0.07-0.12-0.07
						c-0.11-0.03-0.36-0.02-0.59,0.05c-0.23,0.06-0.47,0.17-0.7,0.25C538.02,350.9,537.38,351.2,537.38,351.2z"/>
					<path fill="#2A3577" d="M546.17,364.26c0,0,0.34,0.29,0.67,0.61c0.16,0.17,0.35,0.34,0.49,0.53c0.07,0.1,0.18,0.16,0.24,0.26
						c0.07,0.09,0.11,0.2,0.21,0.27c0.14,0.16,0.23,0.38,0.37,0.54c0.14,0.16,0.21,0.42,0.36,0.57c0.26,0.34,0.47,0.77,0.47,0.77
						s-0.35,0.22-0.95,0.25c-0.31,0.05-0.61-0.1-0.95-0.24c-0.37-0.12-0.6-0.45-0.87-0.72c-0.45-0.63-0.58-1.4-0.45-1.95
						C545.85,364.59,546.17,364.26,546.17,364.26z"/>
					<path fill="#262C62" d="M541.95,371.18c1.13,2.38,2.29,4.68,3.56,6.9c0.62,1.12,1.28,2.2,1.97,3.26
						c0.65,1.08,1.4,2.09,2.12,3.11c0.4,0.48,0.76,0.98,1.14,1.47c0.36,0.51,0.8,0.94,1.19,1.41c0.4,0.47,0.8,0.93,1.25,1.34
						l1.28,1.29l1.38,1.17c0.44,0.42,0.97,0.7,1.45,1.05c0.49,0.33,0.96,0.7,1.49,0.97l1.54,0.87l0.79,0.68
						c-0.19-0.24,0.07,0.02,0.15,0.07c0.07,0.1,0.31,0.21,0.47,0.31c0.35,0.22,0.71,0.44,1.16,0.62l1.27,0.6l1.38,0.49l1.39,0.5
						l1.45,0.4c0.97,0.28,1.92,0.59,2.91,0.84c1.99,0.42,3.96,1.01,5.97,1.44c2.01,0.43,4.04,0.9,6.06,1.48
						c-2.08,0.17-4.17,0.22-6.27,0.24c-1.05,0.05-2.09-0.08-3.14-0.13c-1.05-0.07-2.1-0.13-3.15-0.24
						c-1.05-0.12-2.09-0.32-3.15-0.48c-1.05-0.15-2.09-0.4-3.14-0.71l-1.57-0.43l-1.58-0.61c-0.52-0.19-1.05-0.47-1.59-0.8
						c-0.27-0.17-0.52-0.27-0.82-0.53c-0.31-0.28-0.5-0.31-1-0.96l0.79,0.68l-1.87-0.99c-0.64-0.3-1.21-0.72-1.77-1.14
						c-0.55-0.42-1.16-0.79-1.66-1.28l-1.55-1.39c-0.95-0.99-1.92-1.99-2.69-3.11c-0.4-0.55-0.84-1.08-1.19-1.66l-1.09-1.71
						c-0.63-1.19-1.28-2.37-1.82-3.59c-0.56-1.21-1.01-2.47-1.44-3.72c-0.43-1.25-0.77-2.54-1.06-3.82
						C542.28,373.8,542.06,372.49,541.95,371.18z"/>
					<path fill="#6DCFF6" d="M631.15,377.77c0,0,0.16,0.36,0.29,1.04c0.07,0.34,0.12,0.75,0.14,1.23c0,0.47,0.03,1.03-0.1,1.62
						c-0.08,0.6-0.25,1.25-0.51,1.93c-0.11,0.35-0.34,0.67-0.52,1.02c-0.17,0.36-0.42,0.68-0.71,1c-0.52,0.68-1.26,1.2-2.04,1.7
						c-0.82,0.35-1.7,0.78-2.58,0.84l-1.32,0.14c-0.42-0.02-0.84-0.07-1.25-0.11c-0.85-0.04-1.59-0.28-2.3-0.53
						c-0.72-0.23-1.39-0.48-1.96-0.84c-0.58-0.32-1.11-0.66-1.59-0.97c-0.48-0.3-0.86-0.69-1.21-0.99c-0.35-0.3-0.63-0.6-0.87-0.84
						c-0.46-0.48-0.7-0.79-0.7-0.79s0.4,0.02,1.06,0.1c0.33,0.05,0.73,0.09,1.16,0.18c0.44,0.07,0.92,0.19,1.44,0.27
						c0.53,0.07,1.09,0.14,1.67,0.25c0.57,0.14,1.17,0.18,1.77,0.24c0.3,0.03,0.6,0.07,0.91,0.12c0.3,0.04,0.59-0.01,0.89,0.01
						c0.29,0,0.59,0,0.88,0.02l0.81-0.13c0.58,0.01,1-0.28,1.51-0.37c0.42-0.25,0.9-0.42,1.29-0.76c0.44-0.26,0.77-0.68,1.14-1.04
						c0.33-0.4,0.68-0.8,0.95-1.22c0.55-0.83,1-1.62,1.29-2.19C630.98,378.13,631.15,377.77,631.15,377.77z"/>
					<path fill="#6DCFF6" d="M613.89,340.09c0,0-6.19-0.23-8.14,2.41C605.75,342.5,609.91,348.09,613.89,340.09z"/>
					<path fill="#6DCFF6" d="M358.25,341.5"/>
					<path fill="#6DCFF6" d="M617.85,339.03c0,0-11.39,0.02-15.76,4.78"/>
					<path fill="#6DCFF6" d="M635.59,401.46c0,0,0.07,0.11,0.18,0.36c0.09,0.24,0.26,0.62,0.28,1.13c0.05,0.51,0.03,1.18-0.24,1.89
						c-0.24,0.71-0.69,1.51-1.36,2.14c-0.62,0.73-1.46,1.24-2.36,1.75c-0.91,0.43-1.89,0.92-2.93,1.14
						c-1.04,0.32-2.11,0.54-3.2,0.66c-1.1,0.19-2.2,0.21-3.31,0.24c-1.11,0.03-2.21,0.03-3.27-0.09c-1.07-0.07-2.12-0.21-3.13-0.34
						c-2-0.36-3.86-0.72-5.41-1.19c-3.11-0.94-5.09-1.91-5.09-1.91s2.21-0.33,5.39-0.32c0.8,0.02,1.66-0.06,2.56-0.04
						c0.9,0,1.85-0.02,2.83,0.03c0.98,0.02,1.98-0.05,2.99-0.02c1.02,0.03,2.04,0.03,3.05-0.03c1.02-0.01,2.04,0,3.01-0.1
						c0.98-0.07,1.96-0.07,2.85-0.25c0.93-0.1,1.75-0.29,2.56-0.47c0.42-0.07,0.72-0.27,1.09-0.37c0.38-0.1,0.69-0.25,0.97-0.43
						c0.31-0.15,0.59-0.32,0.81-0.52c0.24-0.19,0.5-0.36,0.65-0.59c0.37-0.41,0.63-0.86,0.78-1.27
						C635.61,402.04,635.59,401.46,635.59,401.46z"/>
					<g>
						<path fill="#2A3577" d="M543.49,328.38c0,0,6.92,0.48,9.93,20.87c0,0-0.16,1.1,4.72-0.12c0,0,4.88,1.93,3.91-5.63
							c0,0,4.14,0.25,4.88-10.73c0,0-0.24-4.2,8.43-5.4c0,0,3.78-2.6,2.81-15.57c0,0-1.47-3.33,1.95-6.56c0,0,10.74,5.07,17.58-3.6
							c0,0-3.17-4.03,9.03-7.45c0,0,11.48,1.71,10.5-8.79c0,0,2.2,1.71,7.08,0.49c0,0,8.06-14.23-5.62-29.46c0,0-8.3-1.79-9.52,1.13
							c0,0-5.13-4.64-6.1-6.1c0,0-4.15-5.37-8.06-4.15c0,0-11.48-3.66-13.67-2.69c0,0,2.65,2.49-4.88,1.71c0,0-7.06-1.39-7.92-0.28
							c0,0-2.67,5.93-3.48,7.74l-2.28,7.37l-0.72,4.03l0.37,6.46c0,0-1.6,5.68-4.53,6.42c-2.93,0.73-7.52-3.2-19.14,10.42
							l-11.58,12.61l-0.82,4.55l-1.18,18.08c0,0-3.17,11.21,0,17.09l3.3,6.8C528.47,347.62,526.64,331.07,543.49,328.38z"/>
						<path fill="#262C62" d="M530.05,353.11l-5.75-11.86c-3.18-5.88-0.43-16.45-0.09-17.68l1.17-17.97l0.88-4.94l11.77-12.82
							c9.39-11.01,14.58-10.89,17.9-10.67c0.7,0.04,1.32,0.07,1.72-0.03c1.87-0.47,3.34-4.12,3.78-5.58l-0.37-6.41l0.74-4.14
							l2.3-7.49c0.85-1.92,3.52-7.86,3.52-7.86l0.12-0.2c0.44-0.57,1.26-0.81,2.72-0.81c2.44,0,6.01,0.7,6.16,0.73
							c0.85,0.08,1.67,0.13,2.35,0.13c0.93,0,1.43-0.09,1.68-0.17c0,0-0.01-0.01-0.01-0.01l-1.02-1.01l1.3-0.59
							c0.38-0.17,0.88-0.25,1.52-0.25c3.4,0,10.99,2.32,12.56,2.81c0.38-0.09,0.78-0.14,1.18-0.14c3.95,0,7.48,4.52,7.63,4.71
							c0.67,1,3.5,3.69,5.2,5.26c0.93-0.81,2.49-1.22,4.67-1.22c2.54,0,5.08,0.54,5.19,0.57l0.31,0.07l0.21,0.23
							c13.98,15.57,5.82,30.44,5.74,30.59l-0.21,0.36l-0.41,0.1c-2.53,0.63-4.93,0.5-6.29,0.09c-0.06,2.26-0.72,4.1-1.99,5.49
							c-2.14,2.35-5.43,2.85-7.82,2.85c-0.76,0-1.35-0.05-1.65-0.08c-6.51,1.85-8.06,3.74-8.41,4.71c-0.24,0.68,0.05,1.11,0.08,1.16
							l0.42,0.59l-0.44,0.6c-2.81,3.56-6.71,5.45-11.28,5.45c-3.09,0-5.67-0.84-6.83-1.29c-2.33,2.57-1.3,4.99-1.29,5.01l0.08,0.32
							c0.99,13.15-2.79,16.15-3.23,16.45l-0.19,0.13l-0.23,0.03c-7.53,1.04-7.59,4.36-7.59,4.4c-0.57,8.61-3.22,10.92-4.79,11.53
							c0.18,2.28-0.18,3.9-1.09,4.93c-0.65,0.74-1.55,1.13-2.62,1.13c-0.54,0-1-0.1-1.3-0.18c-3.03,0.73-4.65,0.73-5.35-0.08
							l-0.29-0.34l-0.01-0.33c-2.65-17.95-8.25-19.86-8.96-20.02c-15.55,2.58-14.12,17.51-14.05,18.15L530.05,353.11z
							 M554.33,348.71c0.39,0.04,1.36,0.02,3.57-0.54l0.3-0.08l0.29,0.12l0,0c0,0,0.41,0.15,0.9,0.15c0.5,0,0.88-0.15,1.15-0.47
							c0.61-0.69,0.79-2.21,0.52-4.28l-0.15-1.17l1.18,0.07c0,0,3.2-0.2,3.85-9.82c-0.01-0.09-0.17-4.89,8.97-6.26
							c0.59-0.63,3.04-3.92,2.27-14.43c-0.29-0.82-1.21-4.22,2.25-7.49l0.48-0.46l0.6,0.28c0.03,0.01,2.99,1.38,6.65,1.38
							c3.8,0,6.94-1.42,9.35-4.23c-0.19-0.52-0.31-1.27-0.01-2.18c0.79-2.41,4.13-4.45,9.94-6.08l0.2-0.06l0.21,0.03
							c0.03,0.01,0.66,0.09,1.58,0.09c1.63,0,4.62-0.29,6.37-2.21c1.18-1.29,1.66-3.18,1.43-5.62l-0.21-2.25l1.78,1.38l0,0
							c0,0,1.02,0.72,3.18,0.72c0.82,0,1.71-0.1,2.65-0.31c1.13-2.29,6.23-14.47-5.47-27.72c-0.73-0.14-2.63-0.46-4.47-0.46
							c-2.03,0-3.35,0.39-3.64,1.08l-0.53,1.28l-1.03-0.93c-0.53-0.48-5.25-4.77-6.26-6.29c-0.92-1.18-4.38-4.58-6.95-3.76
							l-0.3,0.09l-0.29-0.09c-0.08-0.03-8.35-2.65-11.95-2.8c0.01,0.21-0.03,0.42-0.11,0.63c-0.49,1.23-2.22,1.39-3.67,1.39
							c-0.75,0-1.63-0.05-2.64-0.16c-0.12-0.02-3.62-0.7-5.87-0.7c-0.69,0-1.03,0.06-1.17,0.11c-0.52,1.14-2.66,5.9-3.36,7.49
							l-2.24,7.26l-0.67,3.8l0.38,6.51l-0.04,0.16c-0.18,0.64-1.85,6.25-5.23,7.1c-0.62,0.15-1.39,0.14-2.32,0.08
							c-2.91-0.19-7.44-0.38-16.32,10.02l-11.41,12.43l-0.77,4.27l-1.2,18.17c-0.03,0.11-3.03,10.9-0.08,16.36l1.58,3.25
							c0.64-5.35,3.56-14.25,15.72-16.2l0.11-0.02l0.11,0.01C544.34,327.46,551.26,328.52,554.33,348.71z"/>
					</g>
					<path fill="#6DCFF6" d="M691.85,397.06c0,0-3.98,1.55-7.89,8.87c0,0-9.07,16.64-11.51,19.57c0,0-12.35,21.02-14.3,23.22
						c0,0-7.52,24.92-47.68,23.7c0,0-90.74-19.53-116.14-32.71c0,0-91.76-9.27-75.65,86.93l2.95,42.97c0,0,8.8,17.55,46.41,10.22
						l-3.41,26.66h227.23V397.06z"/>
					<path fill="#262C62" d="M499.29,443.79c0,0-7.33,12.35-6.35,14.88c0,0,11.23-9.19,11.72-12.61L499.29,443.79z"/>
					<path fill="#262C62" d="M525.38,455.86c0,0-1.92,2.24-4.79,5.61c-1.42,1.69-3.07,3.67-4.84,5.78
						c-1.74,2.13-3.64,4.36-5.45,6.65c-1.84,2.26-3.37,4.77-5.03,6.87c-1.69,2.08-3.42,3.86-4.86,5.4c-0.73,0.77-1.39,1.46-1.95,2.1
						c-0.57,0.63-1.03,1.19-1.38,1.67c-0.35,0.48-0.6,0.89-0.72,1.18c-0.13,0.32-0.19,0.48-0.19,0.48l-0.58,0.11
						c0,0-0.09-0.2-0.26-0.57c-0.1-0.2-0.15-0.45-0.19-0.74c-0.05-0.29-0.12-0.66-0.09-1.02c-0.02-0.76,0.1-1.66,0.33-2.63
						c0.24-0.97,0.58-2.04,1.05-3.12c0.94-2.18,2.3-4.52,4.09-6.72c1.82-2.18,4.17-4.1,6.3-6.18c2.16-2.06,4.33-4.08,6.45-5.89
						c2.09-1.83,4.11-3.47,5.84-4.87c3.45-2.8,5.85-4.55,5.85-4.55L525.38,455.86z"/>
					<path fill="#262C62" d="M557.45,467.23c0,0-2.44,1.05-6.04,2.8c-1.81,0.85-3.88,1.92-6.11,3.06s-4.54,2.47-6.89,3.74
						c-1.14,0.68-2.29,1.37-3.42,2.04c-1.12,0.69-2.25,1.32-3.29,2.01c-2.07,1.4-4.03,2.69-5.67,3.83
						c-3.16,2.47-5.26,4.12-5.26,4.12s2.03-1.75,5.08-4.36c1.59-1.22,3.49-2.6,5.51-4.1c1.01-0.74,2.12-1.43,3.21-2.17
						c1.1-0.73,2.22-1.47,3.34-2.21c2.3-1.38,4.56-2.83,6.75-4.07c2.19-1.24,4.22-2.42,6-3.36c3.54-1.93,5.96-3.11,5.96-3.11
						L557.45,467.23z"/>
					<path fill="#262C62" d="M588.23,470.84c0,0-0.38,0.44-1.05,1.21c-0.68,0.78-1.65,1.88-2.83,3.17
						c-1.17,1.31-2.58,2.78-4.08,4.37c-1.5,1.58-3.18,3.22-4.81,4.87c-0.85,0.8-1.7,1.6-2.53,2.39c-0.84,0.78-1.64,1.58-2.47,2.29
						c-1.66,1.43-3.18,2.77-4.52,3.89c-2.77,2.11-4.62,3.52-4.62,3.52s1.68-1.59,4.21-3.98c1.21-1.25,2.58-2.74,4.06-4.31
						c0.74-0.79,1.45-1.66,2.19-2.51c0.74-0.86,1.49-1.74,2.24-2.61c1.44-1.81,2.91-3.58,4.23-5.29c1.31-1.72,2.55-3.31,3.55-4.71
						c1.03-1.39,1.86-2.56,2.43-3.37c0.58-0.83,0.91-1.3,0.91-1.3L588.23,470.84z"/>
					<path fill="#262C62" d="M664.58,442.11c0-0.12,0.01,0.99-0.11,2.4c-0.12,1.47-0.4,3.53-0.94,6.08c-0.54,2.54-1.36,5.57-2.6,8.9
						c-1.24,3.32-2.8,7-4.91,10.77c-2.11,3.76-4.55,7.73-7.56,11.59c-2.98,3.87-6.32,7.78-10.11,11.46
						c-3.71,3.76-7.89,7.25-12.2,10.67c-4.39,3.31-8.95,6.51-13.7,9.4c-4.72,2.92-9.58,5.6-14.44,8.04
						c-4.84,2.48-9.75,4.62-14.48,6.69c-4.8,1.91-9.41,3.81-13.89,5.33c-4.43,1.64-8.7,2.95-12.62,4.19
						c-3.91,1.3-7.58,2.19-10.78,3.13c-3.21,0.94-6.04,1.61-8.37,2.18c-4.65,1.14-7.31,1.79-7.31,1.79s2.62-0.8,7.2-2.2
						c2.29-0.7,5.08-1.52,8.22-2.64c3.14-1.11,6.74-2.2,10.55-3.71c3.83-1.45,8-2.99,12.29-4.86c4.35-1.74,8.81-3.89,13.43-6.03
						c4.56-2.3,9.26-4.67,13.87-7.37c4.63-2.66,9.22-5.54,13.65-8.63c4.45-3.06,8.68-6.4,12.71-9.81
						c3.94-3.51,7.73-7.05,11.03-10.79c3.38-3.67,6.29-7.49,8.85-11.22c2.58-3.72,4.6-7.48,6.32-10.97
						c1.72-3.51,2.91-6.86,3.84-9.84c0.93-2.98,1.48-5.63,1.81-7.79c0.34-2.16,0.47-3.85,0.49-4.94c0.03-1.15-0.01-1.41-0.01-1.53
						L664.58,442.11z"/>
					<path fill="#262C62" d="M572.02,513.5c0,0-14.48,7.22-28.61,15.15c-3.53,1.98-7.03,4.01-10.28,5.96
						c-3.25,1.96-6.22,3.87-8.74,5.56c-1.23,0.88-2.36,1.7-3.36,2.41c-0.95,0.78-1.78,1.47-2.46,2.03
						c-1.25,1.24-1.94,1.99-1.94,1.99s0.16-0.2,0.45-0.57c0.3-0.36,0.71-0.94,1.31-1.6c0.64-0.62,1.41-1.39,2.29-2.26
						c0.94-0.81,2-1.73,3.16-2.73c2.37-1.93,5.18-4.12,8.26-6.38c3.08-2.25,6.41-4.6,9.77-6.91c13.43-9.22,27.3-17.77,27.3-17.77
						L572.02,513.5z"/>
					<path fill="#262C62" d="M620.4,605.58c0,0,3.32-5.91,8.7-14.44c1.34-2.13,2.77-4.46,4.35-6.87c1.58-2.41,3.16-5.01,4.92-7.61
						c1.75-2.61,3.43-5.38,5.3-8.09c1.81-2.75,3.64-5.55,5.48-8.34c1.83-2.79,3.72-5.55,5.48-8.32c1.71-2.8,3.64-5.42,5.25-8.08
						c1.63-2.66,3.37-5.15,4.82-7.61c1.47-2.45,2.98-4.72,4.19-6.89c1.23-2.17,2.48-4.11,3.37-5.92c0.89-1.81,1.88-3.33,2.42-4.68
						c1.15-2.67,1.88-4.23,1.88-4.23s-0.24,1.65-0.78,4.61c-0.25,1.49-0.86,3.18-1.45,5.18c-0.56,2.02-1.45,4.18-2.42,6.54
						c-0.91,2.4-2.1,4.88-3.38,7.51c-1.23,2.66-2.69,5.35-4.22,8.13c-1.51,2.8-3.16,5.62-4.9,8.46c-1.73,2.84-3.57,5.67-5.38,8.53
						c-1.91,2.78-3.82,5.56-5.69,8.3c-1.9,2.72-3.87,5.33-5.76,7.87c-3.81,5.04-7.49,9.65-10.78,13.49
						c-3.25,3.88-6.12,6.98-8.15,9.13C621.62,604.4,620.4,605.58,620.4,605.58z"/>
					<path fill="#262C62" d="M646.28,603.31c0,0,0.39-1.1,1.14-2.98c0.75-1.87,1.84-4.53,3.25-7.66c0.71-1.56,1.43-3.27,2.29-5.03
						c0.83-1.77,1.67-3.66,2.61-5.56c0.9-1.93,1.88-3.9,2.86-5.89c0.98-2,1.98-4.03,2.98-6.05c1-2.02,2.01-4.04,3-6.03
						c0.5-0.99,0.99-1.98,1.48-2.95c0.47-0.98,0.94-1.94,1.4-2.89c1.9-3.78,3.58-7.33,4.98-10.41c0.73-1.54,1.33-2.96,1.85-4.23
						c0.52-1.28,1.05-2.38,1.34-3.33c0.66-1.88,1.11-2.98,1.11-2.98s0.06,1.14,0.04,3.2c0.02,1.04-0.11,2.27-0.31,3.67
						c-0.1,0.71-0.19,1.46-0.3,2.26c-0.12,0.79-0.34,1.59-0.52,2.45c-0.37,1.71-0.78,3.57-1.42,5.46c-0.57,1.92-1.19,3.93-1.98,5.95
						c-1.48,4.09-3.38,8.3-5.41,12.43c-4.08,8.27-9,16.04-13.08,21.61c-2.01,2.8-3.84,5.04-5.16,6.58
						C647.1,602.47,646.28,603.31,646.28,603.31z"/>
					<path fill="#262C62" d="M508.57,580.44c0,0,1.09-1.66,3.29-3.54c1.08-0.96,2.45-1.95,4.01-2.89c0.8-0.42,1.6-0.93,2.49-1.31
						c0.89-0.38,1.78-0.78,2.74-1.06c0.94-0.3,1.9-0.57,2.89-0.71c0.96-0.23,1.97-0.21,2.92-0.25c0.94-0.09,1.91,0.17,2.77,0.26
						c0.87,0.15,1.68,0.52,2.39,0.77c0.71,0.31,1.29,0.77,1.79,1.1c0.54,0.29,0.84,0.8,1.14,1.1c0.56,0.67,0.83,1.06,0.83,1.06
						s-0.5-0.15-1.26-0.42c-0.39-0.12-0.8-0.35-1.36-0.41c-0.55-0.07-1.12-0.22-1.75-0.29c-0.66,0.02-1.33-0.05-2.04-0.02
						c-0.74,0.12-1.47,0.09-2.26,0.27c-0.79,0.14-1.58,0.29-2.4,0.53c-0.82,0.19-1.65,0.43-2.48,0.72
						c-0.84,0.22-1.66,0.58-2.48,0.84c-0.83,0.3-1.64,0.6-2.42,0.89c-0.77,0.35-1.56,0.6-2.28,0.9c-0.72,0.32-1.43,0.55-2.07,0.82
						C510.44,579.83,508.57,580.44,508.57,580.44z"/>
					<path fill="#FFFFFF" d="M444.57,451.23c0,0,8.33,7.08,7.84,15.12c0,0-2.6,15.49-15.46,21.28c0,0-15.11,11.29-15.33,0
						C421.63,487.63,430.87,453.46,444.57,451.23z"/>
					<path fill="#262C62" d="M676.56,429.13c0,0,0.75,1.39,1.62,3.97c0.44,1.29,0.93,2.87,1.4,4.71c0.41,1.83,0.91,3.93,1.22,6.23
						c0.17,1.15,0.33,2.35,0.47,3.6c0.09,1.25,0.18,2.54,0.28,3.87c0.19,2.67,0.08,5.48,0.01,8.41c-0.09,1.46-0.24,2.93-0.39,4.43
						c-0.13,1.5-0.29,3.02-0.6,4.53c-0.28,1.51-0.52,3.05-0.84,4.57c-0.29,1.53-0.77,3.03-1.15,4.55c-0.44,1.5-0.85,3.02-1.33,4.5
						c-0.52,1.47-1.12,2.92-1.68,4.36c-1.03,2.91-2.5,5.6-3.88,8.2c-1.29,2.64-2.97,4.96-4.5,7.18c-0.79,1.09-1.52,2.17-2.29,3.17
						c-0.84,0.95-1.66,1.86-2.44,2.74c-1.61,1.71-3.02,3.3-4.45,4.55c-1.46,1.23-2.79,2.24-3.87,3.06
						c-1.06,0.84-1.97,1.43-2.55,1.85c-0.61,0.4-0.93,0.62-0.93,0.62s0.15-0.37,0.42-1.06c0.3-0.67,0.67-1.68,1.25-2.88
						c0.56-1.21,1.22-2.68,2.03-4.28c0.77-1.64,1.49-3.57,2.39-5.56c0.45-0.99,0.92-2.02,1.41-3.09c0.42-1.1,0.85-2.23,1.3-3.39
						c0.9-2.31,1.96-4.65,2.76-7.22c0.42-1.27,0.9-2.53,1.38-3.82c0.25-0.63,0.47-1.29,0.65-1.96l0.62-1.99
						c0.42-1.33,0.82-2.68,1.29-4.01c0.41-1.35,0.73-2.73,1.11-4.1c0.87-2.7,1.44-5.48,2.15-8.2c0.73-2.71,1.17-5.44,1.84-8.06
						c0.45-2.65,1.09-5.2,1.5-7.66c0.46-2.45,0.91-4.79,1.26-6.97c0.43-2.18,0.69-4.18,1.04-5.99c0.31-1.81,0.57-3.39,0.79-4.69
						c0.18-1.31,0.42-2.36,0.51-3.07C676.5,429.52,676.56,429.13,676.56,429.13z"/>
					<path fill="#262C62" d="M554.85,554.32c0,0,18.55-4.34,21.48,5.72c0,0,6.01,26.66,6.45,39.36l3.62,3.91l-11.33,2.28
						c0,0-3.21-38.9-5.65-42.81c0,0-14.58-0.49-14.58,0.98V554.32z"/>
					<path fill="#262C62" d="M584.85,545.68v7.81c0,0,11.43-0.49,11.43,3.91c0,0,3.52,41.15,5.47,43.59c0,0,2.05,5.5,8.89,5.5h5.86
						c0,0-6.84-41.78-8.3-50.74c0,0-1.66-11.42-11.92-10.47L584.85,545.68z"/>
					<path fill="#4FC4E8" d="M482.69,572.32c0,0-0.71,0.82-2.13,2.03c-1.42,1.21-3.57,2.81-6.34,4.41
						c-2.79,1.58-6.21,3.17-10.1,4.33c-1.95,0.58-4,1.09-6.12,1.42c-2.12,0.37-4.32,0.54-6.53,0.59c-2.21-0.01-4.43-0.08-6.6-0.45
						c-2.17-0.29-4.28-0.85-6.27-1.49c-0.99-0.34-1.95-0.72-2.88-1.11c-0.92-0.42-1.79-0.87-2.64-1.3
						c-1.66-0.95-3.16-1.93-4.44-2.98c-1.31-0.98-2.34-2.11-3.27-3.04c-0.88-0.99-1.61-1.87-2.15-2.64
						c-1.07-1.56-1.58-2.49-1.58-2.49s1.01,0.45,2.59,1.31c0.8,0.42,1.83,0.83,2.91,1.4c0.55,0.26,1.17,0.49,1.8,0.75
						c0.63,0.26,1.27,0.56,1.97,0.78c1.37,0.54,2.87,1,4.44,1.47c1.59,0.43,3.26,0.82,4.99,1.13c1.75,0.29,3.54,0.53,5.39,0.67
						c1.84,0.16,3.73,0.19,5.62,0.17c7.58-0.08,15.31-1.51,21.25-2.73c2.97-0.61,5.48-1.19,7.26-1.59
						C481.66,572.56,482.69,572.32,482.69,572.32z"/>
					<path fill="#262C62" d="M238.52,526.64c0,0,15.07,14.65,18.52,19.53c0,0,69.87,0.98,88.42,0c0,0,61.04-10.25,73.25-19.53
						c0,0,8.79-15.63,17.09-22.46c0,0,11.04-6.84,25.3-7.33c0,0,10.84,0.98,15.96-1.95c0,0,5.13-2.2,7.57,0c0,0,1.95,3.91,0,6.1
						c0,0,15.38-7.08,29.3-9.28c0,0,17.34-1.46,11.23,9.28c0,0,16.36,0.49,8.55,9.77l-20.02,12.21c0,0,16.36-4.39,18.8-2.2
						c0,0,5.86,4.39,0,9.52l-9.28,6.59l-4.64,1.46c0,0,6.35,3.66-0.24,6.59c0,0-19.05,21-58.6,19.78c0,0-33.45,0-42.49,6.84
						c0,0-70.32,27.35-76.67,30.03c0,0-62.05,15.39-89.12,15.39c-0.42,0-0.82,0-1.22-0.01c-26.37-0.49-18.8,0-29.54-10.74
						c-10.74-10.74,0-0.65,0-0.65s-43.71-32.8-42.73-39.64C177.97,565.95,196.28,537.62,238.52,526.64z"/>
					<path fill="#262C62" d="M106.55,380.47c0,0,0.18,13.63-3.48,15.83c0,0-6.74-3.93-25.54,11.45c0,0-4.59,12.2,9.08,8.29
						c0,0,13.7-10.08,39.83-10.78c0,0,13.68,0.27,22.71,13.21c0,0,6.5,1.73,11.78,3.3c0,0,14.93,11.59,24.93-6.48v-12.21
						c0,0,38.9,3.24,41.89-14.99c0,0,0.83-4.51-2.24-15.39c0,0-3.08-10.15,0.09-11.86c0,0,1.83-5.86-0.37-9.03
						c0,0,5.92-6.35,4.7-13.19c0,0-7.78-12.94-11.93-18.56c0,0,0.01-6.35,1.97-13.67c0,0,1.72-4.64-5.12-15.38l-3.17-4.64
						c0,0-12.69,0.88-21.97,2.69c0,0-24.66,4.4-8.06,20.27c0,0,0,0-9.04,6.59c0,0-15.46,4.85-9.03,11.23c0,0,1.22,12.21,1.22,14.16
						c0,0-7.5,2.2-11.32,1.22c0,0-1.38-6.35-6.01-7.57c0,0-10.74-3.91-12.21-6.84c0,0-16.85-4.97-19.78,8.75
						c0,0-0.98,17.13,4.39,21.77c0,0,5.86,13.67-0.98,15.14c0,0-3.66,4.64-10.74,4.15C108.14,377.94,106.56,379.08,106.55,380.47z"
						/>
					<path fill="#090E2D" d="M211.85,312.21c0,0-19.3-3.23-31.67,14.36c0,0,5.41-4.12,6.38-2.06c0.98,2.06-0.88-2.06-0.88-2.06
						s4.43,7.15,8.39,7.11c0,0,17.78-6.19,17.78-11.77C211.85,312.21,211.85,312.21,211.85,312.21z"/>
					<path fill="#262C62" d="M97.55,340.09"/>
					<path fill="#090E2D" d="M216.71,311.98l3.95,0.23c0,0,5.25-4.96,0-6.2L216.71,311.98z"/>
					<path fill="#090E2D" d="M122.95,347.87c0,0-4.64-19.45,10.75-15.71c0,0,10.42,4.83,5.21,12.65c0,0-5.86,6.51-7.32,0
						c0,0-1.14-2.93,1.46-2.44c0,0,1.79,3.42,2.2,0c0,0,7.39-7.24-3.91-6.63C131.32,335.74,123.92,327.81,122.95,347.87z"/>
					<path fill="#090E2D" d="M128.48,358.83c0,0,5.36,3.43,12.77,2.36c0,0,0.56,4.14-0.9,6.74
						C140.36,367.93,135.32,366.99,128.48,358.83z"/>
					<path fill="#090E2D" d="M143.46,337c0,0,0.99,1.29,2.15,3.4c0.59,1.05,1.22,2.3,1.84,3.67c0.63,1.37,1.2,2.87,1.73,4.39
						c0.49,1.54,0.95,3.08,1.24,4.58c0.3,1.49,0.49,2.91,0.49,4.14c0.02,0.61,0.01,1.17-0.06,1.68c-0.07,0.5-0.08,0.93-0.21,1.28
						c-0.21,0.7-0.34,1.06-0.34,1.06s-0.02-0.4-0.04-1.1c0.02-0.33-0.1-0.76-0.15-1.23c-0.05-0.47-0.17-0.99-0.3-1.56
						c-0.51-2.28-1.46-5.25-2.47-8.22c-0.99-2.98-2.04-5.96-2.75-8.24C143.86,338.57,143.46,337,143.46,337z"/>
					<path fill="#090E2D" d="M227.64,344.81c0,0-2.47-3.65-9.63,3.06c0,0-2.93,3.79-5.37,1.83c0,0,5.24,3.83,10.35-1.83
						C222.99,347.87,223.24,345.13,227.64,344.81z"/>
					<path fill="#090E2D" d="M223.82,361.19c0,0-3.86,4.19-11.18,4.65c0,0-6.02,4.04-6.35,7.46c0,0,15.12-5.1,16.7-6.05
						C222.99,367.24,223.45,364.21,223.82,361.19z"/>
					<path fill="#090E2D" d="M223.82,373.3c0,0-4.19,2.83-7.12,2.8c0,0-1.54,2.98,3.95,3.91c0,0,0.8-2.52,2.33,1.81l3.75,6.35
						c0,0,1.9-9.55,0.16-10.83C226.91,377.34,225.27,372.42,223.82,373.3z"/>
					<path fill="#090E2D" d="M222.99,394.79c0,0-32.41,6.35-46.04-1.79c0,0-7.12,2.95-11.68-2.75c0,0-2.6,6.01,0,10.73
						c0,0,4.88,0.08,6.84,6.63c0,0,10.71,8.15,5.85,13.37l-2.59,5.76c0,0,12.37,1.66,15.3-19.13c0,0-1.08-4.51,3.85-3.86
						C194.52,403.74,225.69,404.71,222.99,394.79z"/>
					<path fill="#090E2D" d="M118.75,375.78c0,0,30.56,27.07,35.45,32.72c0,0-30.71-25.77-44.33-28.78L118.75,375.78z"/>
					<path fill="#2A3577" d="M153.45,343.5c0,0,9.87,0.26,11.34-2.18c1.46-2.44-3.42-19.72,0-20.12
						c3.42-0.39,17.34-8.41,16.85-11.61c0,0-10.96-11.77,0.01-17.74c0,0,7.79-4.09,15.12-2.46c0,0,14.03-4.29,15.78-1.72
						c0,0,9.62-4.71,7.91-19.11c0,0-0.98-7.33-5.62-11.96c0,0-0.24,4.15-3.17,3.91c0,0-1.71-5.86-3.66-9.03c0,0-9.28,3.91-9.03,6.1
						c0,0-3.42-10.01-7.33-12.94c0,0,0.1,4.15-4.59,3.66c0,0-2.94-5.37-10.65-8.55c0,0-16.75-3.66-17.23-5.62
						c0,0-16.36,2.93-17.58,5.37c0,0-5.86,0.24-11.48-2.44c0,0-2.93,1.95-1.95,4.4c0,0-10.99-4.64-13.18-4.4
						c0,0-3.91,3.66-3.91,5.13l-5.86,0.49c0,0-2.69,6.1-1.46,7.81c0,0-33.7,29.79-29.79,55.67c0,0-5.13,37.29,32.6,74.32
						c0,0,20.14-3.02,16.97-16.21c0,0-17.64-28.33-0.64-36.14c0,0,12.95-2.11,14.61,2.12c0,0,5.08,3.25,9.96,4.72
						C147.45,334.96,153.59,337.62,153.45,343.5z"/>
					<path fill="#6DCFF6" d="M100.76,394.79c0,0-31.88,15.87-20.16,19.78c0,0,38.75-16.81,58.29-5.74c0,0,13.84,11.13,18.4,11.78
						c0,0,10.33-0.55,20.64,4.83c6.41,3.35,13.67,10.7,15.92,16.69c0,0,6.55,9.13,13.06,29.97c0,0,7.18,14.33,11.74,16.29
						c0,0,4.56,5.21,4.56,7.17c0,0,10.42,12.37,11.73,16.28c0,0,11.72,6.51,11.72,15.63c0,0-56,24.74-65.76,41.67
						c-9.77,16.93-2.6,0-2.6,0s14.98,12.18,14.98,14.13s-9.77,23.24-9.77,23.24H66.85V408.95
						C66.85,408.95,84.64,398.86,100.76,394.79z"/>
					<path fill="#090E2D" d="M212.64,496.36c0,0-12.7-0.88-15.14,2c0,0-8.3-1.67-8.79,3.29c0,0-7.32,5.45-17.58,7.41
						c0,0-31.74,11.23-29.79,25.39l9.28,3.91c0,0-1.95-15.14,11.23-17.09c0,0,21-8.35,28.32-15.63c0,0,5.37-6.02,11.72-3.99
						C201.9,501.65,212.15,498.8,212.64,496.36z"/>
					<path fill="#090E2D" d="M136.46,474.87c0,0-1.95,37.75-4.88,39.63c0,0,1.46,8.38,7.32,0
						C138.9,514.5,136.95,480.73,136.46,474.87z"/>
					<path fill="#090E2D" d="M128.65,442.25c0,0-23.93,38.86-19.05,54.3c0,0,15.14,34,25.64,38.88l1.71-3.67
						c0,0-24.9-30.65-23.93-40.11C113.02,491.65,117.9,465.3,128.65,442.25z"/>
					<path fill="#090E2D" d="M68.85,437.56l7.58,7.04l2.23,2.44c0,0-0.4,0.1,0.09,2.74c0.49,2.64-5.68,23.48-7.64,18.19l-2.26-2.49
						V437.56z"/>
					<path fill="#090E2D" d="M68.85,518.22c0,0,8.45,4.5,7.58,13.54l0.25,12.97c0,0,0.6,5.83-3.48,5.83l-4.35-1.95V518.22z"/>
					<path fill="#090E2D" d="M154.85,538.36c0,0-23.93-4.83-25.88,6.37c0,0,16.88-4.86,25.88,0V538.36z"/>
					<path fill="#090E2D" d="M158.92,544.73c0,0-21,0.16-23.68,9.59c0,0,23.2-5.71,27.59-3.76L158.92,544.73z"/>
					<path fill="#090E2D" d="M165.27,554.65c0,0-10.01,16.72-28.57,34.14c0,0-13.43,13.71-11.48,17.71h10.74
						c0,0,6.35-20.15,19.53-27.96c0,0,19.42-10.73,22.45-8.85C177.95,569.68,171.13,554.82,165.27,554.65z"/>
					<path fill="#090E2D" d="M212.64,511.72c0,0-13.18-4.62-22.46,8.56c0,0-10.25,7.81-16.12,9.28c0,0,7.81-0.49,17.09-5.86
						C191.15,523.71,200.43,510.97,212.64,511.72z"/>
					<path fill="#090E2D" d="M203.57,520.25c0,0,22.63-4.99,23.18-9.32C226.74,510.94,222.81,520.71,203.57,520.25z"/>
					<path fill="#090E2D" d="M158.92,462.18c0,0,19.41-16.12,32.23-8.99c0,0,12.7-6.05-11.23-3.42
						C179.92,449.77,163.81,450.94,158.92,462.18z"/>
					<path fill="#090E2D" d="M103.25,416.44c0,0-21,12.47-18.56,15.67c0,0-0.92-4.69-5.83-5.38c-4.91-0.7-1.94-1.3-1.94-1.3
						S85.18,424.43,103.25,416.44z"/>
					<path fill="#090E2D" d="M138.9,429.13c0,0,26.86-3.15,33.21,2.99"/>
					<path fill="#FFFFFF" d="M158.92,467.96c0,0,22.28-15.05,34.43-9.29c0,0,10.5,32.19,12.94,32.99c0,0-21.49,1.67-23.68,4.89
						c0,0-2.77,4.53-5.66,5.1L158.92,467.96z"/>
				</g>
			</g>
		</g>
	</g>
</g>
<g id="_x35__BG">
</g>
<g id="Layer_23">
</g>
<g id="Text_5" display="none">
</g>
<g id="_x34__dotted" display="none">
</g>
<g id="_x34__BG">
</g>
<g id="Text_4" display="none">
</g>
<g id="Layer_18">
</g>
<g id="_x33__dotted" display="none">
</g>
<g id="_x33__BG">
</g>
<g id="Layer_14">
</g>
<g id="Text_3" display="none">
</g>
<g id="_x32__dotted" display="none">
</g>
<g id="_x32__BG_1_">
</g>
<g id="_x32__BG">
</g>
<g id="Text_2" display="none">
</g>
<g id="_x31__dotted">
</g>
<g id="_x31__BG">
</g>
<g id="Layer_7">
</g>
<g id="TEAMS">
</g>
<g id="FIFA">
</g>
<g id="LOGO">
</g>
<g id="Layer_31">
</g>
<g id="Layer_6">
</g>
</svg>
