<?xml version="1.0" encoding="utf-8"?>
<!-- Generator: Adobe Illustrator 16.2.0, SVG Export Plug-In . SVG Version: 6.00 Build 0)  -->
<!DOCTYPE svg PUBLIC "-//W3C//DTD SVG 1.1//EN" "http://www.w3.org/Graphics/SVG/1.1/DTD/svg11.dtd">
<svg version="1.1" xmlns="http://www.w3.org/2000/svg" xmlns:xlink="http://www.w3.org/1999/xlink" x="0px" y="0px"
	 width="229.59px" height="420.48px" viewBox="0 0 229.59 420.48" enable-background="new 0 0 229.59 420.48" xml:space="preserve">
<g id="BG">
</g>
<g id="Layer_26">
</g>
<g id="Layer_29">
</g>
<g id="Gracias" display="none">
</g>
<g id="Layer_27" display="none">
</g>
<g id="Layer_28" display="none">
</g>
<g id="Layer_25">
</g>
<g id="Layer_24">
</g>
<g id="_x35__BG">
</g>
<g id="Layer_23">
</g>
<g id="Text_5" display="none">
</g>
<g id="_x34__dotted" display="none">
</g>
<g id="_x34__BG">
</g>
<g id="Text_4" display="none">
</g>
<g id="Layer_18">
</g>
<g id="_x33__dotted" display="none">
</g>
<g id="_x33__BG">
</g>
<g id="Layer_14">
</g>
<g id="Text_3" display="none">
</g>
<g id="_x32__dotted" display="none">
</g>
<g id="_x32__BG_1_">
</g>
<g id="_x32__BG">
	<g>
		<g>
			<path fill-rule="evenodd" clip-rule="evenodd" fill="#262C62" d="M145.27,192.74c0,0,10.94,45.1,11.17,65.2l-2.22,5.03
				c0,0-1.31-8.35-4.82-5.8c0,0-28.41-7.42-35.41,10.6v3.23c0,0-10.92-25.18-12.76-27.03c-1.85-1.85,0.67-1.16,0.67-1.16l1.49,39.28
				c0,0,2.48,13.86-21.09,24.49c0,0-26.95,8.32-33.19,0c0,0-6.99-31.65-3.82-43.67c0,0,0.42-18.25-4.9-23.57
				c0,0-1.58-18.04,0.01-16.76"/>
			<path fill="#6DCFF6" d="M60.6,311.18c-5.22,0-9.94-1-12.22-4.05l-0.16-0.35c-0.29-1.3-6.98-31.83-3.85-43.99
				c0.02-1.48,0.14-18.01-4.63-22.79l-0.24-0.24l-0.03-0.33c-1.47-16.77-0.3-17.4,0.26-17.7c0.4-0.21,0.87-0.16,1.24,0.14
				l-1.16,1.44c0.12,0.09,0.33,0.18,0.6,0.12c0.27-0.06,0.41-0.24,0.43-0.3c-0.5,1.05-0.17,8.8,0.43,15.81
				c5.28,5.8,4.95,23.24,4.93,23.99l-0.03,0.22c-2.95,11.17,3.21,40.31,3.8,43.03c5,6.17,24.81,1.76,32.08-0.48
				c22.43-10.12,20.52-23.32,20.5-23.45l-1.32-37.28c-0.11-0.16-0.2-0.27-0.27-0.34c-0.41-0.41-1.37-1.37-0.83-2.27
				c0.45-0.76,1.45-0.65,2.21-0.42l0.64,0.19l0.08,2.33c2.4,3.98,8.13,16.4,10.99,22.69c7.27-17,32.09-11.79,35.58-10.96
				c1.02-0.58,1.85-0.45,2.39-0.21c1.3,0.58,2.08,2.33,2.54,3.94l0.95-2.15c-0.3-19.87-11.04-64.35-11.14-64.79l2.11-0.44
				c0.11,0.45,10.51,45.43,11.51,65.41v0.2l-4,8.35l-0.53-3.42c-0.21-1.91-1.07-4.96-2.1-5.42c-0.09-0.04-0.39-0.16-0.97,0.26
				l-0.38,0.26l-0.3-0.11c-0.27-0.07-26.72-6.95-33.72,9.89v7.36l-1.9-3.93c-3.15-7.01-7.96-17.24-10.81-22.83l1.15,33.51
				c0.09,0.47,2.24,14.57-21.7,25.37C81.92,307.67,70.36,311.18,60.6,311.18z"/>
		</g>
		<path fill-rule="evenodd" clip-rule="evenodd" fill="#262C62" d="M55.66,64.69c0,0-4.67,0.52-5.67,1.37v7.16l6.68,14.56l11.89,4.7
			l18.73,1.62c0,0,16.11-24.11,12.1-33.73l-1.77-10.17c0,0-3.62,4.64-3.24,7.79c0,0-1.33,25.1-14.43,26.48
			C79.95,84.46,71.9,89.04,55.66,64.69z"/>
		<g>
			<path fill-rule="evenodd" clip-rule="evenodd" fill="#6DCFF6" d="M97.62,50.19c0,0,13.05-11.59,18.6-7.89
				c0,0,3.14-7.95,11.15-3.64c0,0,10.96,3.5,10.73,11.74c0,0-12,38.52-16.62,53.08c0,0,8.09,47.14,14.56,58.46
				c0,0,10.63,20.1,10.63,27.96c0,7.86-26.34,10.86-35.35,16.87c0,0-16.63,22.18-38.58,19.41c0,0-35.81,6.24-34.89-10.4
				c0,0,8.09-27.96,6.01-31.65c0,0,6.65-37.2,1.33-44.82c0,0-7.21,0.46-7.21,17.33v1.62c0,0-34.28,4.39-36.18-0.23
				c0,0,11.99-57.07,21.93-68.85c0,0,19.42-24.26,26.35-23.1c0,0,7.69,25.88,28.02,26.11C78.11,92.16,103.78,89.08,97.62,50.19z"/>
			<path fill="#262C62" d="M58.72,228.24c-9.47,0-15.96-1.78-19.28-5.29c-1.82-1.93-2.67-4.36-2.51-7.23l0.03-0.21
				c3.08-10.66,7.47-28.5,6.09-30.94l-0.17-0.29l0.06-0.33c1.92-9.96,5.97-36.6,2.35-43.57c-1.41,0.6-5.32,3.41-5.32,16.25v2.43
				l-0.83,0.1c-0.15,0.02-15.13,1.89-25.89,1.89c-9.46,0-11.27-1.44-11.78-2.69l-0.11-0.26l0.06-0.28
				c0.48-2.34,11.9-57.44,21.87-69.26c1.89-2.38,18.88-23.47,26.43-23.47c0.23,0,0.45,0.02,0.65,0.05l0.57,0.09l0.16,0.56
				c0.07,0.25,7.68,25.23,27.08,25.45c-0.04,0,7.84-1.06,13.52-8.61c5.55-7.37,7.23-18.24,5-32.3l-0.08-0.5l0.38-0.34
				c0.41-0.36,10.05-8.85,16.55-8.85c0.82,0,1.58,0.13,2.25,0.4c0.87-1.57,3.08-4.59,7.08-4.59c1.55,0,3.2,0.47,4.92,1.39
				c0.32,0.08,11.47,3.74,11.22,12.58l-0.04,0.25c-0.12,0.38-11.94,38.31-16.55,52.87c0.61,3.51,8.32,47.28,14.42,57.94
				c0.45,0.86,10.75,20.43,10.75,28.42c0,5.46-9.75,8.45-20.08,11.61c-5.96,1.82-12.12,3.71-15.56,5.95
				c-1.44,1.87-15.78,19.89-35.41,19.89c-1.26,0-2.54-0.08-3.8-0.23C71.77,227.27,65.56,228.24,58.72,228.24z M38.77,215.93
				c-0.11,2.32,0.55,4.21,2.01,5.75c2.92,3.08,9.12,4.71,17.94,4.71c7.27,0,13.8-1.12,13.86-1.13l0.14-0.02l0.14,0.02
				c1.22,0.15,2.47,0.23,3.7,0.23c19.33,0,33.88-19.09,34.03-19.28l0.23-0.21c3.64-2.43,9.73-4.29,16.17-6.26
				c8.8-2.69,18.77-5.74,18.77-9.84c0-7.54-10.42-27.33-10.53-27.53c-6.46-11.31-14.32-56.81-14.66-58.74l-0.04-0.22l0.07-0.21
				c4.44-13.98,15.82-50.52,16.58-52.95c0.09-7.37-9.99-10.67-10.09-10.71c-1.6-0.85-2.96-1.24-4.2-1.24
				c-4.03,0-5.74,4.16-5.81,4.34l-0.42,1.06l-0.95-0.63c-0.58-0.39-1.28-0.57-2.15-0.57c-5.15,0-13.12,6.52-14.95,8.06
				c2.19,14.35,0.35,25.53-5.46,33.22c-6.17,8.17-14.52,9.26-14.87,9.3C59.21,92.87,50.9,70.96,49.53,66.94
				c-5.75,0.34-19.83,16.52-24.82,22.79c-9.27,11-20.38,63.15-21.41,68.09c0.44,0.41,2.23,1.38,9.89,1.38
				c9.22,0,21.79-1.39,24.79-1.78v-0.8c0-17.53,7.3-18.23,7.61-18.25l0.55-0.04l0.31,0.43c5.29,7.59-0.94,41.55-1.64,45.25
				C46.45,188.73,40.17,211.1,38.77,215.93z"/>
		</g>
		<path fill-rule="evenodd" clip-rule="evenodd" fill="#262C62" d="M3.94,159.37c0,0-14.73,31.36,12.77,28.62
			c0,0,21.66-8.06,31.6-9.91c0,0,5.29,8.09,5.75,9.77c0,0,2.76,3.48,4.38,1.17l1.15-3.03c0,0,0.66,15.01,2.28,16.16
			c0,0,1.13,2.99,4.13-0.01v-12.48l5.92,14.79c0,0,0.23,1.16,2.87,0.92c0,0,2.73,1.16,2.04-4.62l-6.42-13.17l8.6,12.71v4.16
			c0,0,1.73,0.69,3.12-0.69c1.39-1.39,0.17-0.92,0.17-0.92s3.9-1.35-2.85-17.09c-0.1-0.23-0.15-0.46-0.26-0.7
			c-7.16-16.4,6.72,5.31,7.88,6.24c1.16,0.92,4.63,2.31,3.25-3.7c0,0-14.09-22.87-25.87-25.42c0,0-13.12-2.88-24.49-2.8
			C39.93,159.37,4.63,160.73,3.94,159.37z"/>
		<g>
			<path fill-rule="evenodd" clip-rule="evenodd" fill="#262C62" d="M125.88,37.37c0,0,8.55-7.36,24.95-4.82c0,0-4.4-1.85-4.16-3
				c0.23-1.16,0.23-1.16,0.23-1.16s33.27,4.39,20.79,21.49c0,0-4.27,9.64-31.02,5.05C136.69,54.93,143.68,44.04,125.88,37.37z"/>
			<path fill="#6DCFF6" d="M149.75,56.63c-3.9,0-8.33-0.42-13.14-1.24l-0.69-0.12l0.37-0.59c0.02-0.03,2.19-3.51,0.83-7.58
				c-1.27-3.81-5.11-6.93-11.4-9.29l-0.73-0.27l0.59-0.51c0.26-0.22,6.49-5.47,18.52-5.47c1.34,0,2.71,0.07,4.09,0.2
				c-1.14-0.69-2.13-1.52-1.97-2.3l0.32-1.58l0.43,0.06c0.79,0.11,19.54,2.67,23.33,11.54c1.37,3.19,0.62,6.78-2.22,10.68
				C168.01,50.33,165.04,56.63,149.75,56.63z M137.4,54.58c4.52,0.75,8.67,1.12,12.35,1.12c14.61,0,17.5-5.96,17.53-6.02
				c2.68-3.7,3.4-6.98,2.17-9.85c-3.29-7.68-19.35-10.49-22.18-10.93l-0.15,0.73c-0.03,0.38,1.67,1.55,3.89,2.49l3.47,1.46
				l-3.72-0.58c-2.26-0.35-4.5-0.53-6.66-0.53c-9.56,0-15.42,3.47-17.28,4.76c6.11,2.43,9.87,5.65,11.18,9.58
				C139.17,50.32,138.02,53.34,137.4,54.58z"/>
		</g>
		<polygon fill-rule="evenodd" clip-rule="evenodd" fill="#262C62" points="76.98,141.61 85.98,141.61 85.98,161.94 81.98,161.01 
			81.98,147.15 76.98,145.53 		"/>
		<path fill-rule="evenodd" clip-rule="evenodd" fill="#262C62" d="M97.57,133.75c0,0,5.42,1.39,5.42,4.39v14.56
			c0,0-1.95,6.88-5.42,6.67c0,0-4.21,0.72-4.9-6.67c0,0-1.3-15.02,1.25-15.71c0,0,1.95-3.23,2.87-3.23"/>
		<g>
			<path fill-rule="evenodd" clip-rule="evenodd" fill="#6DCFF6" d="M150.98,265.45v14.79c0,0,11.94,0,17.72,9.47
				c5.78,9.47,2.27,0,2.27,0s20.89,45.75,21.82,51.29c0.92,5.54,0.16,0.92,0.16,0.92s7.24,9.24,7.24,9.94s4.2,4.62,4.66,5.31
				c0.46,0.69,6.49,8.09,7.19,8.55c0.69,0.46,26.12,16.64,12.72,29.11c0,0-7.62,9.94-15.71,5.54c0,0-16.43-21.95-17.92-25.65
				c0,0-16.27-27.96-26.21-35.81c0,0-22.87-21.26-21.72-28.65c0,0-21.49-19.18-21.26-29.11c0,0-6.11-8.46-5.31-11.78
				c0.8-3.33,0.61-17.27,35.35-11.64L150.98,265.45z"/>
			<path fill="#262C62" d="M213.36,402.43c-1.64,0-3.24-0.41-4.74-1.23l-0.3-0.26c-0.67-0.9-16.52-22.09-18.04-25.85
				c-0.1-0.16-16.24-27.78-25.92-35.43c-2.38-2.21-22.35-21.01-22.11-29c-2.85-2.59-21.04-19.49-21.22-29.2
				c-1.15-1.63-6.11-8.89-5.29-12.29c0.05-0.2,0.09-0.44,0.15-0.72c0.67-3.54,2.46-12.95,21.97-12.95c4.26,0,9.19,0.45,14.66,1.34
				l0.84,0.14l-0.68,8.56l0,13.83c2.95,0.21,12.12,1.55,17.19,9.88c0.17,0.28,0.34,0.55,0.49,0.79l1.64-0.69
				c0.85,1.87,20.85,45.92,21.79,51.52l0.13,0.76c6.27,8.05,7.1,9.57,7.21,10.08c0.29,0.53,1.94,2.23,2.83,3.15
				c0.96,0.99,1.47,1.52,1.68,1.83c0.52,0.78,6.24,7.75,6.94,8.31c2.72,1.78,16.12,11,16.96,20.8c0.31,3.61-1.09,6.89-4.15,9.74
				C225.28,395.69,220.03,402.43,213.36,402.43z M209.67,399.66c1.18,0.61,2.42,0.92,3.69,0.92c5.76,0,10.62-6.24,10.67-6.3
				c2.73-2.56,3.93-5.33,3.67-8.34c-0.77-8.95-13.53-17.72-16.08-19.39c-1-0.67-7.22-8.42-7.51-8.86c-0.13-0.19-0.87-0.95-1.46-1.57
				c-2.54-2.62-3.23-3.44-3.33-4.08c-0.35-0.73-2.79-4.06-5.46-7.53l-0.1,0.09h-0.43c-0.53,0-0.71,0-0.91-2h-0.01
				c0,0-0.01,0.54-0.02,0.47c-0.08-0.37-0.17-0.58-0.3-1.3l-0.29-1.53c-1.61-5.72-12.24-29.79-19.33-45.51l-0.27,0.06
				c-0.66,0-1.25,0.17-3.9-4.17c-5.43-8.9-16.36-8.55-16.47-8.55l-0.85-1.84v-14.79l0.48-6.93c-5.04-0.78-9.62-1.18-13.56-1.18
				c-17.98,0-19.53,8.02-20.18,11.45c-0.06,0.31-0.12,0.58-0.17,0.8c-0.51,2.12,2.89,7.89,5.16,11.03l0.18,0.25l-0.01,0.31
				c-0.22,9.4,20.74,28.21,20.95,28.4l0.38,0.33l-0.08,0.5c-0.89,5.67,15.17,22.01,21.44,27.83c9.9,7.83,25.71,34.88,26.38,36.02
				C193.17,377.31,205.03,393.46,209.67,399.66z"/>
		</g>
		<g>
			<path fill-rule="evenodd" clip-rule="evenodd" fill="#6DCFF6" d="M63.04,310.27c0,0,26.82-0.62,33.71-12.98
				c0,0,2.8,22.22,2.8,24.3c0,0,5.31,1.85,6.47,13.86c0,0,5.31,13.4,6.24,21.72c0,0,3.7,8.32,6.01,9.7c0,0,8.32,8.09,4.39,15.25
				c0,0-3.52,16.64-3.9,22.89c-0.03,0.54-0.04,1-0.02,1.37c0.23,4.62,1.39,3.23,1.62,3.93c0.23,0.69-26.11,3.93-30.96,0
				c0,0,8.13-17.79,8.69-23.34c0,0,6.67-5.7-2.59-16.45c-0.25-0.29-0.51-0.58-0.78-0.88c-10.4-11.32-25.65-25.42-25.65-30.96
				l-0.92-4.39l-7.39-24.03l1.4-0.03"/>
			<path fill="#262C62" d="M101.3,413.17c-5.51,0-10.53-0.54-12.5-2.14l-0.56-0.45l0.3-0.65c0.08-0.18,8.07-17.71,8.61-23.04
				l0.04-0.37l0.28-0.24c0.24-0.21,5.8-5.28-2.69-15.15c-0.24-0.28-0.49-0.56-0.76-0.85c-2.46-2.68-5.24-5.57-7.94-8.36
				c-9.16-9.51-17.83-18.49-17.95-23.13l-0.91-4.3l-7.73-25.12l2.62-0.06l0.04,1.85l-0.18,0L69,334.03l0.96,4.66
				c0,3.86,9.26,13.47,17.44,21.95c2.7,2.8,5.49,5.7,7.96,8.39c0.28,0.3,0.54,0.6,0.8,0.9c3.67,4.27,5.39,8.31,5.11,12.01
				c-0.23,2.98-1.71,4.82-2.34,5.48c-0.74,5.33-6.88,19.19-8.4,22.57c4.88,2.56,22.64,0.88,27.91-0.07
				c-0.35-0.67-0.57-1.73-0.66-3.47c-0.02-0.4-0.01-0.89,0.02-1.47c0.38-6.25,3.78-22.34,3.92-23.03l0.09-0.25
				c3.37-6.14-3.43-13.33-4.16-14.08c-2.48-1.65-5.89-9.19-6.27-10.05l-0.07-0.27c-0.9-8.1-6.13-21.35-6.18-21.48l-0.06-0.25
				c-1.07-11.14-5.82-13.06-5.86-13.08l-0.59-0.23l-0.01-0.64c0-1.47-1.59-14.53-2.49-21.76c-8.62,10.67-32.02,11.33-33.07,11.36
				l-0.04-1.85c0.26-0.01,26.37-0.75,32.92-12.51l1.37-2.46l0.35,2.79c0.11,0.86,2.49,19.79,2.78,23.83
				c1.52,0.88,5.48,4.1,6.48,14.23c0.56,1.44,5.3,13.67,6.23,21.69c1.4,3.13,4.1,8.27,5.58,9.16l0.17,0.13
				c0.36,0.35,8.68,8.58,4.62,16.23c-0.33,1.57-3.5,16.8-3.86,22.62c-0.03,0.5-0.04,0.93-0.02,1.27c0.12,2.41,0.49,2.79,0.51,2.8
				c0.28,0.07,0.84,0.22,1.06,0.88l0.22,0.66l-0.61,0.46C119.83,411.83,109.97,413.17,101.3,413.17z"/>
		</g>
		<g>
			<circle fill-rule="evenodd" clip-rule="evenodd" fill="#262C62" cx="168.98" cy="384.09" r="35.47"/>
			<path fill="#6DCFF6" d="M168.98,420.48c-20.07,0-36.39-16.32-36.39-36.39c0-20.07,16.33-36.39,36.39-36.39
				c20.07,0,36.39,16.32,36.39,36.39C205.37,404.16,189.04,420.48,168.98,420.48z M168.98,349.55c-19.05,0-34.54,15.5-34.54,34.54
				s15.5,34.54,34.54,34.54s34.54-15.5,34.54-34.54S188.02,349.55,168.98,349.55z"/>
		</g>
		<g>
			<path fill-rule="evenodd" clip-rule="evenodd" fill="#262C62" d="M92.15,37.37c0,0,4.23-8.52,2.65-16.37
				c0,0-3.32-21.26-26.55-20.02c0,0-23.85,0.92-26.31,20.95c0,0-4.34,17.11,6.76,30.35"/>
			<path fill="#6DCFF6" d="M47.99,52.87c-11.28-13.45-7.13-30.45-6.95-31.17C43.55,1.24,67.97,0.06,68.21,0.05
				C80.64-0.6,87.44,5.09,90.99,9.98c3.82,5.28,4.69,10.65,4.73,10.87c1.61,8.03-2.56,16.57-2.74,16.93l-1.66-0.82
				c0.04-0.08,4.07-8.34,2.57-15.78C93.76,20.31,90.36,0.7,68.3,1.9c-0.07,0-5.92,0.26-11.96,2.91C48.36,8.3,43.83,14.1,42.85,22.04
				c-0.06,0.28-4.1,16.93,6.55,29.64L47.99,52.87z"/>
		</g>
		<g>
			<path fill-rule="evenodd" clip-rule="evenodd" fill="#6DCFF6" d="M92.15,37.37c0,0,0.63,9.08,1.65,10.22
				c0,0,0.81,8.88-0.82,12.69c-1.63,3.81,0.1,0.5,0.1,0.5s-2.45,8.2-2.45,11.36c0,0-0.9,9.51-11.41,9.74c0,0-7.74,0.12-18.25-14.56
				c0,0-5.89-7.51-7.39-10.4c0,0-3.21-6.37-4.95-7.86c0,0-1.75-5.86,2.07-5.29c3.81,0.56,0-0.82,0-0.82s1.55,0.99,2.22-2.68
				c0,0,3.09-8.05,10.95-3.73c0,0,10.58,0.05,14.88-4.34c0,0-4.95,3.2-4.71,0.69c0.23-2.51,0-0.69,0-0.69s8.46-12.94,12.72-7.51
				c0,0,7.1-1.16,3.89,8.43C90.62,33.13,93.42,34.34,92.15,37.37z"/>
			<path fill="#262C62" d="M79.21,82.61c-0.33,0-8.17-0.3-18.62-14.88c-0.23-0.29-5.92-7.63-7.43-10.52
				c-0.03-0.07-3.19-6.34-4.84-7.76l-0.1-0.11l-0.04-0.14c-0.11-0.35-1-3.51,0.18-5.08c0.44-0.59,1.11-0.89,1.98-0.85l-3.4-2.18
				l4.13,1.5c0.63,0,1.11-0.91,1.39-2.41c0.11-0.3,2.12-5.38,7.04-5.38c1.41,0,2.91,0.43,4.48,1.28c0.89-0.01,6.22-0.13,10.51-1.79
				c-0.26-0.05-0.47-0.17-0.63-0.34c-0.09-0.09-0.16-0.2-0.2-0.33l-0.34,0.52l0.26-2.25c0.1-0.75,0.13-1.29,0.56-1.29h0.09
				c1.68-2,6.2-7.96,10-7.96c1.06,0,1.97,0.56,2.73,1.43c0.73-0.06,2.91-0.03,4.16,1.7c1.07,1.49,1.1,3.9,0.1,7.09
				c1.07,0.64,2.38,2.18,1.43,4.56c0.26,3.7,0.9,9.15,1.52,9.84l0.1,0.12l0.01,0.15c0.03,0.37,0.8,9.04-0.86,12.91
				c-0.05,0.12-0.1,0.24-0.15,0.35l0.27,0.11c-0.02,0.08-2.43,8.31-2.43,11.36c-0.01,0.14-1.06,10.34-11.86,10.34H79.21z
				 M49.02,48.81c1.81,1.68,4.83,7.65,4.96,7.91c1.46,2.81,7.29,10.24,7.34,10.32c10.17,14.2,17.56,14.38,17.88,14.38
				c9.96-0.22,10.92-8.93,10.96-9.31c0-2.23,1.19-6.5,1.92-9.5h-0.05l-0.14-0.23c-0.16-0.24-0.19-0.3,0.66-2.28
				c1.46-3.42,0.89-11.26,0.8-12.34c-1-1.56-1.55-8.86-1.66-10.35l-0.01-0.11l0.04-0.1c1.08-2.58-1.19-3.6-1.29-3.64l-0.39-0.17
				l0.13-0.4c1.03-3.08,1.08-5.3,0.15-6.6c-1.16-1.62-3.48-1.24-3.53-1.23l-0.27,0.04l-0.17-0.21c-0.61-0.78-1.32-1.15-2.17-1.15
				c-3.13,0-7.52,5.25-9.67,8.43l-0.06,0.68c-0.02,0.18,0,0.33,0.05,0.38c0.04,0.05,0.15,0.07,0.29,0.07c1,0,2.97-1.14,3.65-1.58
				l3.48-2.25l-2.9,2.96c-4.33,4.43-14.75,4.48-15.19,4.48l-0.24-0.06c-1.47-0.81-2.87-1.22-4.14-1.22c-4.28,0-6.13,4.66-6.15,4.71
				c-0.25,1.43-0.68,2.23-1.13,2.66c0.54,0.28,0.68,0.51,0.63,0.81c-0.09,0.46-0.63,0.46-0.81,0.46c-0.31,0-0.76-0.05-1.4-0.14
				c-0.72-0.11-1.22,0.04-1.52,0.45C48.36,45.65,48.76,47.88,49.02,48.81z"/>
		</g>
		<g>
			<defs>
				<path id="SVGID_15_" d="M92.15,37.37c0,0,0.63,9.08,1.65,10.22c0,0,0.81,8.88-0.82,12.69c-1.63,3.81,0.1,0.5,0.1,0.5
					s-2.45,8.2-2.45,11.36c0,0-0.9,9.51-11.41,9.74c0,0-7.74,0.12-18.25-14.56c0,0-5.89-7.51-7.39-10.4c0,0-3.21-6.37-4.95-7.86
					c0,0-1.75-5.86,2.07-5.29c3.81,0.56,0-0.82,0-0.82s1.55,0.99,2.22-2.68c0,0,3.09-8.05,10.95-3.73c0,0,10.58,0.05,14.88-4.34
					c0,0-4.95,3.2-4.71,0.69c0.23-2.51,0-0.69,0-0.69s8.46-12.94,12.72-7.51c0,0,7.1-1.16,3.89,8.43
					C90.62,33.13,93.42,34.34,92.15,37.37z"/>
			</defs>
			<clipPath id="SVGID_2_">
				<use xlink:href="#SVGID_15_"  overflow="visible"/>
			</clipPath>
			<path clip-path="url(#SVGID_2_)" fill-rule="evenodd" clip-rule="evenodd" fill="#CCD8DB" d="M77.84,21c0,0-1.77,53.53,4.48,60.5
				c6.25,6.97,0,0.38,0,0.38S70.89,90.7,45.48,52.85C45.48,52.85,48.75,20.3,77.84,21z"/>
		</g>
		<g>
			<path fill-rule="evenodd" clip-rule="evenodd" fill="#262C62" d="M79.21,42.28c0,0,5.96-7.48,11.41-4.91"/>
			<path fill="#262C62" d="M79.21,42.28c0,0,0.28-0.85,1.04-1.9c0.37-0.53,0.87-1.11,1.47-1.67c0.6-0.56,1.3-1.09,2.09-1.53
				c0.38-0.22,0.81-0.38,1.22-0.56c0.41-0.18,0.87-0.24,1.27-0.35c0.86-0.15,1.68-0.11,2.36,0.05c0.33,0.1,0.63,0.21,0.88,0.31
				c0.26,0.09,0.45,0.27,0.61,0.37c0.32,0.23,0.48,0.37,0.48,0.37s-0.22-0.01-0.6-0.02c-0.36-0.06-0.88,0-1.44,0.03
				c-0.29,0.05-0.59,0.13-0.9,0.17c-0.31,0.09-0.63,0.19-0.97,0.3c-0.65,0.28-1.35,0.55-2.01,0.96c-0.69,0.34-1.34,0.79-1.97,1.18
				c-0.63,0.42-1.23,0.81-1.73,1.15C79.97,41.83,79.21,42.28,79.21,42.28z"/>
		</g>
		<g>
			<path fill-rule="evenodd" clip-rule="evenodd" fill="#262C62" d="M73.44,47.11c0,0-10.17-5.55-15.48,0"/>
			<path fill="#262C62" d="M73.44,47.11c0,0-1.02-0.22-2.55-0.56c-0.75-0.16-1.62-0.35-2.54-0.52c-0.92-0.16-1.89-0.34-2.86-0.4
				c-0.97-0.12-1.92-0.09-2.82-0.04c-0.43,0.09-0.88,0.09-1.27,0.18c-0.38,0.12-0.79,0.17-1.13,0.29c-0.33,0.14-0.65,0.25-0.95,0.36
				c-0.28,0.11-0.5,0.27-0.71,0.36c-0.42,0.21-0.66,0.33-0.66,0.33s0.13-0.22,0.42-0.61c0.15-0.18,0.3-0.45,0.55-0.67
				c0.25-0.22,0.54-0.47,0.87-0.72c0.69-0.47,1.6-0.88,2.62-1.13c1.02-0.22,2.15-0.28,3.24-0.19c1.09,0.11,2.16,0.34,3.11,0.67
				c0.96,0.31,1.81,0.71,2.5,1.1C72.67,46.34,73.44,47.11,73.44,47.11z"/>
		</g>
		<circle fill-rule="evenodd" clip-rule="evenodd" fill="#262C62" cx="86.73" cy="44.08" r="1.8"/>
		<circle fill-rule="evenodd" clip-rule="evenodd" fill="#262C62" cx="68.25" cy="51.47" r="1.8"/>
		<g>
			<path fill-rule="evenodd" clip-rule="evenodd" fill="#262C62" d="M81.41,45.26c0,0,1.62-2.84,8.09-2.98"/>
			<path fill="#262C62" d="M81.41,45.26c0,0,0-0.15,0.09-0.42c0.04-0.14,0.11-0.3,0.21-0.45c0.1-0.16,0.19-0.37,0.35-0.53
				c0.29-0.36,0.68-0.75,1.17-1.04c0.25-0.14,0.48-0.35,0.77-0.43l0.84-0.32c0.57-0.21,1.17-0.24,1.72-0.29
				c0.55-0.07,1.07,0,1.51,0.09c0.88,0.15,1.43,0.42,1.43,0.42s-0.55,0.35-1.33,0.63c-0.4,0.15-0.85,0.27-1.32,0.45
				c-0.46,0.2-1,0.24-1.46,0.45c-0.49,0.15-0.99,0.27-1.43,0.44c-0.47,0.13-0.87,0.3-1.26,0.43c-0.2,0.06-0.35,0.15-0.51,0.21
				c-0.16,0.07-0.3,0.12-0.41,0.17C81.55,45.17,81.41,45.26,81.41,45.26z"/>
		</g>
		<g>
			<path fill-rule="evenodd" clip-rule="evenodd" fill="#262C62" d="M71.63,50.11c0,0-5.01-2.03-7.78-0.44"/>
			<path fill="#262C62" d="M71.63,50.11c0,0-0.58,0.1-1.34,0.11c-0.38,0-0.81,0-1.26-0.03c-0.44-0.04-0.91-0.08-1.38-0.12
				c-0.46-0.08-0.9-0.07-1.33-0.18c-0.41-0.02-0.81-0.06-1.18-0.14c-0.66,0.01-1.29-0.07-1.29-0.07s0.3-0.46,1.05-0.96
				c0.38-0.17,0.85-0.35,1.37-0.46c0.5-0.05,1.07-0.08,1.6-0.03c0.52,0.1,1.06,0.17,1.52,0.37c0.47,0.17,0.88,0.38,1.22,0.61
				C71.28,49.63,71.63,50.11,71.63,50.11z"/>
		</g>
		<g>
			<path fill-rule="evenodd" clip-rule="evenodd" fill="#262C62" d="M73.48,59.58c0,0,4.18,0.63,5.25,2.39"/>
			<path fill="#262C62" d="M73.49,59.54c0,0,1.5,0.02,2.97,0.46c0.38,0.07,0.74,0.23,1.08,0.36c0.33,0.17,0.58,0.46,0.79,0.65
				c0.12,0.09,0.16,0.26,0.23,0.37c0.06,0.11,0.1,0.21,0.13,0.3c0.06,0.17,0.08,0.26,0.08,0.26L78.69,62c0,0-0.11-0.04-0.26-0.12
				c-0.17-0.06-0.32-0.2-0.56-0.3c-0.25-0.1-0.5-0.23-0.79-0.38c-0.29-0.14-0.56-0.38-0.89-0.52c-1.29-0.63-2.72-1.06-2.72-1.06
				L73.49,59.54z"/>
		</g>
		<g>
			<path fill-rule="evenodd" clip-rule="evenodd" fill="#262C62" d="M81.6,61.27c0.04-0.73,1.82-1.92,1.82-1.92
				s-5.9-8.31-6.21-11.08"/>
			<path fill="#262C62" d="M81.6,61.27c0.01-0.23,0.09-0.44,0.22-0.66c0.14-0.19,0.27-0.38,0.43-0.55c0.31-0.36,0.64-0.66,1.02-0.95
				l-0.07,0.39c-1.37-1.65-2.57-3.42-3.65-5.27c-0.55-0.91-1.03-1.89-1.47-2.86c-0.2-0.5-0.4-1.01-0.57-1.52
				c-0.17-0.51-0.22-1.08-0.29-1.59c0.25,0.5,0.37,1,0.65,1.45c0.28,0.45,0.5,0.92,0.77,1.38l1.68,2.68
				c1.12,1.79,2.27,3.57,3.34,5.41l0.15,0.26l-0.22,0.14c-0.37,0.22-0.75,0.47-1.1,0.73c-0.18,0.13-0.34,0.27-0.51,0.42
				C81.83,60.87,81.67,61.04,81.6,61.27z"/>
		</g>
		<path fill="#262C62" d="M85.45,68.71c-0.94,0.81-2.09,1.38-3.28,1.78c-1.2,0.4-2.48,0.59-3.76,0.58
			c-0.64,0.02-1.28-0.09-1.92-0.17c-0.63-0.12-1.27-0.26-1.87-0.49c-0.62-0.18-1.2-0.47-1.77-0.76c-0.57-0.29-1.09-0.66-1.62-1.02
			l-0.07-0.05l-0.02-0.02c-0.51-0.5-1.13-1.02-1.78-1.44c-0.33-0.2-0.66-0.42-1.03-0.56c-0.18-0.08-0.36-0.18-0.55-0.22l-0.6-0.18
			c0.4-0.07,0.84-0.17,1.27-0.11c0.45,0,0.86,0.13,1.29,0.23c0.83,0.28,1.6,0.64,2.35,1.18l-0.09-0.07
			c0.54,0.22,1.03,0.52,1.56,0.72c0.54,0.19,1.05,0.43,1.6,0.57c0.53,0.19,1.09,0.27,1.63,0.41c0.55,0.09,1.11,0.19,1.67,0.22
			c1.12,0.11,2.28,0.1,3.43-0.01C83.08,69.2,84.25,69,85.45,68.71z"/>
		<path fill="#262C62" d="M97.09,50.96c0,0-0.11,0.48-0.27,1.2c-0.14,0.72-0.37,1.66-0.53,2.6c-0.09,0.47-0.08,0.95-0.18,1.38
			c-0.11,0.41-0.27,0.78-0.47,1.09c-0.18,0.31-0.32,0.72-0.49,0.92c-0.15,0.2-0.26,0.46-0.26,0.46h-0.18c0,0-0.1-0.27-0.2-0.49
			c-0.07-0.12-0.12-0.33-0.18-0.5c-0.05-0.16-0.12-0.4-0.13-0.59c-0.04-0.39-0.05-0.89,0.06-1.35c0.16-0.45,0.41-0.92,0.63-1.36
			c0.45-0.9,0.9-1.78,1.34-2.4c0.42-0.62,0.7-1.03,0.7-1.03L97.09,50.96z"/>
		<g>
			<path fill-rule="evenodd" clip-rule="evenodd" fill="#262C62" d="M77.41,49.06c0,0-1.63-8.1,1.32-12.23"/>
			<path fill="#262C62" d="M77.18,49.11c-0.07-0.33-1.61-8.25,1.36-12.41l0.38,0.27c-2.86,4-1.3,11.97-1.28,12.05L77.18,49.11z"/>
		</g>
	</g>
</g>
<g id="Text_2" display="none">
</g>
<g id="_x31__dotted">
</g>
<g id="_x31__BG">
</g>
<g id="Layer_7">
</g>
<g id="TEAMS">
</g>
<g id="FIFA">
</g>
<g id="LOGO">
</g>
<g id="Layer_31">
</g>
<g id="Layer_6">
</g>
</svg>
