<?xml version="1.0" encoding="utf-8"?>
<!-- Generator: Adobe Illustrator 16.2.0, SVG Export Plug-In . SVG Version: 6.00 Build 0)  -->
<!DOCTYPE svg PUBLIC "-//W3C//DTD SVG 1.1//EN" "http://www.w3.org/Graphics/SVG/1.1/DTD/svg11.dtd">
<svg version="1.1" xmlns="http://www.w3.org/2000/svg" xmlns:xlink="http://www.w3.org/1999/xlink" x="0px" y="0px"
	 width="275.12px" height="326.8px" viewBox="0 0 275.12 326.8" enable-background="new 0 0 275.12 326.8" xml:space="preserve">
<g id="BG">
</g>
<g id="Layer_26">
</g>
<g id="Layer_29">
</g>
<g id="Gracias" display="none">
</g>
<g id="Layer_27" display="none">
</g>
<g id="Layer_28" display="none">
</g>
<g id="Layer_25">
</g>
<g id="Layer_24">
</g>
<g id="_x35__BG">
</g>
<g id="Layer_23">
</g>
<g id="Text_5" display="none">
</g>
<g id="_x34__dotted" display="none">
</g>
<g id="_x34__BG">
</g>
<g id="Text_4" display="none">
</g>
<g id="Layer_18">
</g>
<g id="_x33__dotted" display="none">
</g>
<g id="_x33__BG">
</g>
<g id="Layer_14">
	<g>
		<g>
			<path fill="#6DCFF6" d="M60.32,279.56c0,0-16.52,43.51,0,45.71c16.52,2.2,22.03,0,26.99,0l25.88-2.2c0,0-6.75-23.5-2.37-30.84
				c0,0-1.73,0.93-17.46,3.66c-1.36,0.23-2.82,0.48-4.4,0.75c-5.5,0.92,15.16-0.85,12.12-17.07
				C99.42,270.74,60.32,279.56,60.32,279.56z"/>
			<path fill="#262C62" d="M60.28,325.54c-2.46-0.33-4.35-1.57-5.62-3.7c-6.46-10.84,4.91-41.1,5.39-42.39l0.05-0.14l0.14-0.03
				c0.17-0.04,17.55-3.92,29.52-3.92c7.16,0,11.05,1.39,11.57,4.14c1.84,9.83-4.86,14.41-9.25,16.32c0.41-0.07,0.82-0.14,1.22-0.21
				c15.32-2.65,17.31-3.59,17.38-3.63l0.88-0.48l-0.51,0.86c-4.28,7.16,2.33,30.39,2.39,30.62l0.09,0.32l-26.24,2.23
				c-1.34,0-2.74,0.17-4.36,0.36c-2.36,0.28-5.3,0.62-9.39,0.62C69.58,326.52,65.23,326.2,60.28,325.54z M87.28,326.26l25.55-2.86
				c-0.81-2.88-6.1-23.2-2.58-30.72c-1.41,0.44-5.5,1.33-16.84,3.3c-1.36,0.24-2.83,0.26-4.38,0.52c-0.46,0.12-0.87-0.23-0.99-0.23
				h-0.26l-0.02,0.17c-0.03-0.29,0.16,0.1,1.14-0.06c2.4-0.62,14.24-4.36,11.91-16.75c-0.46-2.45-4.17-3.68-11.03-3.68
				c-11.33,0-27.54,3.52-29.25,3.89c-0.85,2.28-11.5,31.55-5.38,41.8c1.18,1.97,2.93,3.19,5.22,3.49c4.93,0.66,9.25,1.1,13.2,1.1
				c4.06,0,6.98,0.04,9.33-0.23c1.63-0.19,3.05,0.28,4.39,0.28C87.27,326.26,87.28,326.26,87.28,326.26z"/>
		</g>
		<g>
			<path fill="#6DCFF6" d="M100.22,292.25c0,0-1.06,38.28,23.86,34c0,0,36.84,1.22,69.92-4.72c0,0,27.15-4.52,37.61-0.11
				c0,0,44.06,4.41,40.21-6.61c0,0-25.33-22.03-33.04-18.73c0,0-7.16-5.51-9.91-8.26c0,0-16.52-7.71-22.03,0s-5.51,7.71-5.51,7.71
				s-56.45,2.94-59.85,1.1c-3.4-1.84,3.4,1.84,3.4,1.84l-5.79-14.08C139.08,284.39,102.68,286.77,100.22,292.25z"/>
			<path fill="#262C62" d="M108.66,321.99c-9.16-9.41-8.71-29.55-8.71-29.75l0.02-0.1c2.49-5.57,37.59-7.93,39.09-8.02l0.2-0.01
				l5.22,12.7c1.66,0.1,4,0.15,6.97,0.15c16.3,0,47.19-1.57,49.69-1.7c0,0,3.26-5.16,3.07-4.54c0.34-0.35,1.03-1.16,2.39-3.07
				c1.68-2.35,4.5-3.54,8.38-3.54c6.51,0,13.91,3.42,13.99,3.45l0.08,0.06c2.51,2.51,8.8,7.39,9.76,8.14c0.52-0.2,1.13-0.3,1.81-0.3
				c9.26,0,30.47,18.35,31.37,19.13l0.05,0.05l0.03,0.07c0.44,1.25,0.31,2.39-0.38,3.36c-2.12,2.98-9.53,4.51-22.05,4.51
				c-9.24,0-17.97-0.83-18.06-0.84l-0.08,0.04c-1.84-0.78-4.28-1.28-7.25-1.28c-11.55,0-29.16,0.75-29.33,0.75l0,0H194
				c-15.61,1-19.33,4.85-32.29,5.21c-21.12,0.58-37.41-0.07-37.58-0.07l0,0c-1.3,0.22-2.58,0.39-3.79,0.39
				C115.72,326.8,111.8,325.22,108.66,321.99z M195.3,320.89c1-0.37,17.62-0.94,28.95-0.94c3.02,0,5.52,0.4,7.42,1.19
				c0.66,0.06,9.08,0.87,17.97,0.87c12.16,0,19.62-1.47,21.6-4.26c0.58-0.81,0.69-1.73,0.33-2.79
				c-1.24-1.07-22.12-18.95-30.95-18.95c-0.67,0-1.26,0.11-1.75,0.32l-0.15,0.06l-0.13-0.1c-0.07-0.06-7.15-5.5-9.91-8.25
				c-0.61-0.28-7.58-3.38-13.71-3.38c-3.7,0-6.37,1.12-7.94,3.31c-2.53,3.54-2.87,3.54-3.1,3.54c-0.1,0-0.19-0.04-0.26-0.12
				l-2.2,4.39l-0.16,0.01c-0.33,0.02-32.96,1.71-49.88,1.71c-2.82,0-5.08-0.05-6.74-0.14l0.7,1.71l-0.68-0.37
				c-1.57-0.85-2.6-1.4-3.27-1.77c-0.05-0.02-0.1-0.1-0.13-0.12l-0.95-0.56h0.03c-0.19,0-0.18,0-0.16,0h0.05h0.21
				c0.04,0,0.38-0.03,0.38,0.01v-0.4c0,0-0.06,0.03,0.03,0.08c0.04,0.02,0.08,0.04,0.13,0.07l0.61,0.36
				c0.2,0.11,0.73,0.26,2.24,0.37l-4.98-12.08c-1.38,0.1-9.77,0.7-18.3,1.86c-15.26,2.08-19.38,4.28-20.11,5.78
				c-0.02,1.19-0.21,20.29,8.55,29.29c3.03,3.12,6.83,4.7,11.28,4.7c1.18,0,2.42-0.11,3.74-0.33c0.16,0,16.41-1.1,37.58-1.1
				C173.25,324.87,183.8,320.67,195.3,320.89z M143.2,297.26c0.41,0.22,0.8,0.44,1.12,0.6l-0.22-0.53
				C143.76,297.31,143.46,297.28,143.2,297.26z"/>
		</g>
		<g>
			<defs>
				<path id="SVGID_11_" d="M100.22,292.25c0,0-1.06,38.28,23.86,34c0.28-0.03,97.72-8.96,107.53-4.83c0,0,44.06,4.41,40.21-6.61
					c0,0-25.33-22.03-33.04-18.73c0,0-7.16-5.51-9.91-8.26c0,0-16.52-7.71-22.03,0s-5.51,7.71-5.51,7.71s-56.45,2.94-59.85,1.1
					c-3.4-1.84,3.4,1.84,3.4,1.84l-5.79-14.08C139.08,284.39,102.68,286.77,100.22,292.25z"/>
			</defs>
			<clipPath id="SVGID_2_">
				<use xlink:href="#SVGID_11_"  overflow="visible"/>
			</clipPath>
			<path clip-path="url(#SVGID_2_)" fill="#FFE313" d="M206,293.74c0,0,19.41-1.86,16.66,13.84l-2.48,5.82
				c0,0-11.29,0.86-11.29,2.51v7.36h66.23c0,0-15.15-31.63-33.32-27.84c0,0-4.13-2.6-9.36-7.28c0,0-11.02-8.79-17.9-5.03
				c0,0-15.15,2.99-16.25,10.98L206,293.74z"/>
		</g>
		<path fill="#262C62" d="M96.69,220.48l-9.38,3.45l-6.06-3.45c0,0-24.23,39.24-25.34,57.42c0,0-3.85,5.14,0,6.98
			c0,0,25.89-0.37,29.74,2.94c0,0,15.21-2.75,19.5-10.46c4.29-7.71,0-3.12,0-3.12L96.69,220.48z"/>
		<g>
			<defs>
				<path id="SVGID_13_" d="M85.29,288.34c-2.42-2.08-15.58-2.5-27.09-2.5c-1.42,0-2.28,0.43-2.28,0.43h-0.13l-0.12-0.47
					c-1.03-0.49-1.68-1.55-1.92-2.54c-0.54-2.18,1.18-4.86,1.62-5.49c1.22-18.17,24.42-55.94,25.41-57.54l0.28-0.46l6.3,3.57
					l9.77-3.59l8.4,53.35c1.02-0.9,1.68-0.91,1.97-0.42c0.24,0.41,0.28,1.09-1.87,4.95c-4.37,7.85-19.25,10.62-19.88,10.74
					l-0.26,0.05L85.29,288.34z M105.56,274.61l-0.77,0.82l-8.54-54.2l-8.99,3.3l-5.82-3.31c-2.69,4.43-23.96,39.92-24.97,56.71
					l-0.01,0.16l-0.1,0.13c-0.02,0.03-2.01,2.72-1.53,4.66c0.15,0.62,0.55,1.09,1.21,1.44c0.29,0,1.06-0.01,2.16-0.01
					c8.85,0,24.01,0.38,27.59,2.91c1.93-0.39,15.05-3.27,18.88-10.14c0.91-1.62,1.36-2.59,1.6-3.17
					C106.04,274.12,105.79,274.36,105.56,274.61z"/>
			</defs>
			<use xlink:href="#SVGID_13_"  overflow="visible" fill="#6DCFF6"/>
			<clipPath id="SVGID_4_">
				<use xlink:href="#SVGID_13_"  overflow="visible"/>
			</clipPath>
			<g clip-path="url(#SVGID_4_)">
				<path fill="#141A3F" d="M90.61,217.26c-0.3,6-16.47,69.22-16.47,69.22l19.22,10.69l20.38-17.92l-2.92-61.98H90.61z"/>
				<path fill="#6DCFF6" d="M110.82,215.78l0.41-0.01l0.03,0.43c0.7,10.39,1.24,20.78,1.87,31.17c0.63,10.39,1.08,20.79,1.63,31.18
					l0.03,0.48l-0.37,0.33c-6.78,6.12-13.51,12.29-20.35,18.34l-0.58,0.51l-0.66-0.38l-19.18-11.02L73,286.44l0.19-0.72l9-34.68
					l4.43-17.36c0.76-2.89,1.45-5.79,2.13-8.69c0.33-1.45,0.71-2.9,1.02-4.36l0.83-4.41L110.82,215.78z M90.01,220.65
					c-0.23,1.47-0.55,2.93-0.83,4.4c-0.57,2.94-1.16,5.88-1.8,8.79c-1.21,5.85-2.54,11.68-3.9,17.5l-4.1,17.45
					c-1.36,5.82-2.85,11.6-4.29,17.4l-0.46-1.1l19.26,10.87l-1.24,0.13c6.75-6.16,13.6-12.2,20.41-18.28l-0.34,0.81
					c-0.42-10.4-0.94-20.79-1.28-31.2c-0.34-10.4-0.77-20.8-1.04-31.21l0.44,0.42l-20.21-0.44L90.01,220.65z"/>
			</g>
		</g>
		<g>
			<path fill-rule="evenodd" clip-rule="evenodd" fill="#262C62" d="M152.11,213.28c0,0-44.43-14.69-58.75,12.12
				c0,0,0.73,57.65,9.55,73.8c0,0,8.81,1.47,7.71-4.04c0,0,13.22-9.18,30.84,1.47c0,0,7.71-18.73,8.44-30.84
				c0,0,8.08-29.01,4.04-52.51"/>
			<path fill="#6DCFF6" d="M105.31,300.49c1.81,0,4.11-0.31,5.45-1.69c0.56-0.58,1.15-1.56,1.04-3.08
				c2.64-1.56,14.11-7.2,29.09,1.86l1.1,0.67l0.49-1.19c0.32-0.77,7.74-18.92,8.52-31.08c0.55-2.04,7.94-30.15,4.03-52.88
				l-2.17,0.38c3.95,22.99-3.94,51.74-4.02,52.02l-0.04,0.23c-0.61,10.07-6.22,25.04-7.89,29.31c-17.47-9.85-30.78-0.87-30.92-0.78
				l-0.59,0.41l0.14,0.71c0.22,1.12-0.1,1.61-0.37,1.89c-1.12,1.15-4.06,1.09-5.56,0.92c-8.03-15.78-9.08-68.16-9.15-72.52
				c13.87-25.36,56.86-11.49,57.3-11.34l0.69-2.09c-0.45-0.15-45.48-14.66-60.07,12.64l-0.13,0.25l0,0.28
				c0.03,2.36,0.84,58.11,9.68,74.32l0.25,0.47l0.53,0.09C102.97,300.33,104.01,300.49,105.31,300.49z"/>
		</g>
		<path fill-rule="evenodd" clip-rule="evenodd" fill="#FFFFFF" d="M104.89,237.26h7.6c0,0,5.32,13,4.59,20h-4.59l-2.57-16.3
			l-3.12-1.17l-1.42-1.81"/>
		<path fill="#FFFFFF" d="M130.12,235.26h-11.23v11.8l7.82,1.65l-0.02,4.22l-6.27,1.47l0.17,2.57c0,0,8.8,0.34,9.54,0.16
			C130.86,256.95,130.12,235.26,130.12,235.26z M125.89,241.55v4.41l-3-0.92v-5.78h3V241.55z"/>
		<path fill="#FFFFFF" d="M125.89,263.26h-16c0,0-2.75,16.68,5.32,21.46c0,0,12.3-3.74,11.12-21.38"/>
		<g>
			<path fill="#6DCFF6" d="M149.27,70.54c0,0-7.22-7.87-11.02-12.67c0,0,12.94-40.48-2.75-49.84c0,0-12.12-13.49-41.31-1.38
				c0,0-8.81,2.48-4.41,12.94c0,0,0.01,6.06-1.23,7.71c0,0-0.96,1.65,0,4.41c0,0,2.6,5.51-0.43,11.84c0,0-3.59,6.06,0,7.99
				l2.21,1.38c0,0,0.28,1.65,0,2.48c-0.28,0.83-0.28,0.83-0.28,0.83l1.1,1.65c0,0,4.02-0.83,5.32,0.83c0,0,1.39,4.41-0.04,6.61
				c0,0-2.53,1.2-2.25,2.39c0,0,1.65,1.19,1.1,2.57c0,0-1.65,5.51,3.58,6.06c0,0,9.09,0.55,11.57,0c0,0,2.75,0.83,2.75,1.93
				c0,0,0.63,4.78-0.94,4.76c-1.57-0.01-0.44,5.7-0.44,5.7l27.81-1.65l14.32-11.57L149.27,70.54z"/>
			<path fill="#6DCFF6" d="M111.54,88.77c-0.09-0.47-0.88-4.59,0.04-5.71c0.17-0.21,0.4-0.32,0.67-0.32c0.13,0,0.23-0.05,0.33-0.16
				c0.64-0.73,0.46-3.35,0.33-4.33c0-0.6-1.43-1.32-2.49-1.64c-0.77,0.16-2.14,0.24-4.09,0.24c-3.39,0-7.44-0.24-7.5-0.25
				c-1.55-0.16-2.68-0.76-3.36-1.78c-1.26-1.89-0.49-4.52-0.45-4.65c0.46-1.16-0.99-2.23-1.01-2.24l-0.08-0.06l-0.02-0.1
				c-0.3-1.29,1.84-2.42,2.33-2.67c1.2-1.97,0.12-5.79-0.02-6.26c-0.61-0.73-1.91-0.89-2.9-0.89c-1.12,0-2.11,0.2-2.12,0.2
				l-0.18,0.04l-1.28-1.92l0.32-0.95c0.19-0.57,0.08-1.7,0.01-2.23l-2.09-1.3c-0.81-0.43-1.34-1.1-1.58-1.97
				c-0.73-2.62,1.39-6.24,1.47-6.37c2.93-6.14,0.45-11.55,0.42-11.63c-0.99-2.84-0.02-4.56,0.04-4.66c1.12-1.48,1.18-6.88,1.18-7.49
				c-1.48-3.53-1.63-6.55-0.46-8.99c1.57-3.26,4.92-4.23,5.03-4.26c8.11-3.37,15.67-5.07,22.47-5.07c12.66,0,18.64,5.99,19.12,6.49
				c6.49,3.9,9.04,13.82,7.36,28.68c-1.16,10.25-3.96,19.65-4.45,21.23c2.28,4.95,10.64,11.88,10.92,12.67l4.84,5.13L139.8,87.28
				l-0.07,0.06l-27.9,1.66L111.59,89L111.54,88.77z M153.54,75.47l-4.48-4.74l-7.2-6.38c-0.03-0.09,0,0-3.73-6.23l-0.23-0.1
				l0.08-0.24c0.13-0.4,12.7-40.38-2.63-49.52l-0.06-0.05c-0.06-0.06-5.86-6.34-18.74-6.34c-6.73,0-14.22,1.69-22.29,5.04
				c-0.03,0.01-3.25,0.95-4.72,3.98c-1.11,2.3-0.94,5.19,0.49,8.59l0.02,0.1c0,0.25,0,6.17-1.27,7.85
				c-0.01,0.02-0.88,1.59,0.01,4.15c0.03,0.06,2.62,5.7-0.44,12.1c-0.02,0.04-2.09,3.58-1.42,5.97c0.2,0.72,0.65,1.28,1.33,1.64
				l2.32,1.44l0.02,0.12c0.01,0.07,0.28,1.73-0.01,2.61l-0.23,0.7l0.93,1.39c0.35-0.06,1.14-0.18,2.04-0.18
				c1.64,0,2.77,0.38,3.36,1.14l0.05,0.09c0.06,0.19,1.41,4.56-0.07,6.84l-0.04,0.07l-0.07,0.03c-0.58,0.28-2.16,1.21-2.11,1.99
				c0.37,0.3,1.65,1.45,1.11,2.8c-0.01,0.03-0.73,2.49,0.39,4.17c0.58,0.88,1.58,1.39,2.94,1.54c0.04,0,4.07,0.25,7.45,0.25
				c1.97,0,3.33-0.08,4.04-0.24l0.07-0.02l0.07,0.02c0.3,0.09,2.95,0.92,2.95,2.16c0.05,0.37,0.45,3.68-0.46,4.73
				c-0.2,0.23-0.46,0.35-0.75,0.35c-0.09,0-0.17,0.04-0.23,0.12c-0.54,0.66-0.28,3.33,0.03,5.01l27.48-1.63L153.54,75.47z"/>
		</g>
		<g>
			<path fill="#262C62" d="M84.55,117.81c0,0-19.28,26.25-20.65,29.01c0,0-2.6-5.51-34.21-19.55l-6.27-8.26
				c5.18-25.88-9.82-6.29-3.86-6.61c0,0,3.58-14.87-2.48-16.8c0,0-5.78-0.83-7.43,3.3c0,0-6.06,1.93-6.33,5.78
				c0,0-4.96,1.93-2.2,7.99c0,0,3.86,11.02,7.16,16.25c0,0,15.97,12.94,17.07,15.15c0,0,18.45,23.41,36.9,28.92
				c0,0,7.16,4.13,12.39-4.68c0,0,12.12-14.87,12.39-17.62c0,0,10.19-17.9,9.36-21.75C96.39,128.92,95.57,117.45,84.55,117.81z"/>
			<path fill="#6DCFF6" d="M62.16,173.25c-18.32-5.47-36.85-28.77-37.07-29.06c-0.85-1.7-11.49-10.59-17-15.05l-0.06-0.07
				c-3.28-5.2-7.15-16.19-7.18-16.28c-0.95-2.09-1.11-3.95-0.48-5.5c0.71-1.74,2.19-2.55,2.67-2.78c0.41-3.62,5.5-5.51,6.39-5.82
				c1.76-4.13,7.5-3.39,7.73-3.34c3.53,1.12,3.96,6.31,3.63,10.73c0.52-0.4,1.15-0.75,1.79-0.75c0.5,0,0.95,0.22,1.29,0.63
				c1.29,1.58,1.24,5.94-0.16,12.99l6.16,8.11c26.96,11.98,32.83,17.74,34.01,19.25c2.51-4.2,19.69-27.62,20.45-28.65l0.08-0.11
				l0.13,0c0.18-0.01,0.35-0.01,0.52-0.01c10.66,0,11.59,11.26,11.6,11.33c0.83,3.85-8.66,20.67-9.36,21.9
				c-0.44,2.95-11.95,17.11-12.42,17.68c-2.84,4.78-6.26,5.78-8.63,5.78C63.88,174.23,62.18,173.26,62.16,173.25z M84.69,118.09
				c-1.35,1.84-19.24,26.25-20.55,28.86l-0.25,0.51l-0.24-0.51c-0.03-0.05-2.91-5.57-34.07-19.42l-6.46-8.45l0.03-0.12
				c1.82-9.11,0.97-11.84,0.3-12.65c-0.61-0.74-1.61-0.49-2.72,0.55c-0.29,3.06-0.89,5.59-0.9,5.62l-0.05,0.2l-0.2-0.2
				c-0.05,0-0.1-0.2-0.15-0.2h0c-0.91,0-1.29-0.25-1.44-0.63c-0.52-1.3,0.74-3.68,2.22-5.15c0.39-4.33,0.14-9.62-3.16-10.67
				c0,0-0.46-0.04-1.15-0.04c-1.76,0-4.88,0.43-5.99,3.21l-0.05,0.12l-0.12,0.04c-0.06,0.02-5.88,1.91-6.14,5.54l-0.01,0.17
				l-0.16,0.07c-0.02,0.01-1.77,0.71-2.52,2.55c-0.58,1.41-0.42,3.12,0.48,5.09c0.04,0.11,3.86,10.99,7.11,16.15
				c1.04,0.84,16.01,13.01,17.08,15.16c0.18,0.23,18.61,23.4,36.82,28.85c0.01,0.01,1.65,0.93,3.86,0.93c2.23,0,5.45-0.96,8.18-5.55
				c4.17-5.12,12.12-15.37,12.33-17.48l0.03-0.11c0.1-0.18,10.13-17.85,9.33-21.6c-0.01-0.11-0.9-10.86-11.05-10.86
				C84.94,118.08,84.82,118.08,84.69,118.09z M18.49,111.63c0.12,0.31,0.4,0.47,0.85,0.49c0.13-0.6,0.52-2.41,0.77-4.62
				C18.91,108.93,18.15,110.79,18.49,111.63z"/>
		</g>
		<g>
			<path fill-rule="evenodd" clip-rule="evenodd" fill="#6DCFF6" d="M146.15,62.67c0,0-10.93,18.59-32.96,19.52c0,0,0,0-7.71,5.33
				c0,0-19.34,25.89-24.85,35.07c0,0,16.04,2.2,12.73,8.81c-3.3,6.61-3.3,6.61-3.3,6.61s-4.4,78.88-11.01,82.95
				c0,0-1.1,7.28,11.01,3.47c0,0,45.16-16.35,53.98-3.47c0,0,15.42,15.09,9.91-12.45c0,0,5.51-34.15,12.12-48.47
				C166.06,160.04,190.57,81.56,146.15,62.67z"/>
			<path fill="#262C62" d="M152.13,65.81c0.97,0.58,1.92,1.18,2.78,1.92c0.87,0.72,1.83,1.33,2.62,2.15l2.42,2.38l2.17,2.61
				c1.33,1.82,2.64,3.68,3.68,5.7l0.82,1.49l0.7,1.55c0.45,1.04,0.97,2.05,1.32,3.13c0.38,1.07,0.8,2.12,1.14,3.2l0.94,3.26
				c0.52,2.2,1.06,4.41,1.39,6.65c0.41,2.23,0.63,4.49,0.86,6.74c0.77,9.03,0.33,18.12-0.76,27.1c-0.56,4.49-1.29,8.96-2.18,13.39
				c-0.89,4.44-1.92,8.83-3.2,13.21l-0.04,0.1l-2.22,5.77c-0.35,0.97-0.61,1.98-0.92,2.97l-0.89,2.98c-0.64,1.97-1.07,4.01-1.6,6.02
				c-0.5,2.02-1.03,4.02-1.46,6.06c-0.94,4.05-1.79,8.13-2.59,12.21c-0.79,4.08-1.54,8.19-2.22,12.28l-0.01-0.35
				c0.43,2.24,0.83,4.5,1.06,6.81c0.21,2.3,0.32,4.65-0.25,7.1c-0.17,0.61-0.39,1.23-0.73,1.83c-0.38,0.59-0.86,1.19-1.57,1.55
				c-0.68,0.38-1.47,0.52-2.16,0.47c-0.71-0.02-1.35-0.19-1.95-0.41c-1.2-0.44-2.24-1.05-3.22-1.73c-0.98-0.69-1.88-1.41-2.77-2.25
				l-0.05-0.05l-0.08-0.11c-0.76-1.03-1.77-1.87-2.94-2.51c-1.21-0.58-2.49-1.08-3.88-1.33c-2.74-0.59-5.62-0.69-8.49-0.58
				c-5.76,0.24-11.51,1.25-17.18,2.52c-5.67,1.3-11.3,2.87-16.84,4.66c-1.43,0.44-2.67,0.94-4.21,1.38
				c-1.46,0.41-2.94,0.78-4.53,0.88c-1.55,0.09-3.28,0.06-4.9-0.91c-0.78-0.48-1.48-1.23-1.83-2.1c-0.37-0.89-0.49-1.72-0.39-2.73
				l0.03-0.29l0.46-0.45c0.28-0.27,0.76-0.92,1.04-1.69c0.34-0.72,0.58-1.55,0.85-2.35c0.47-1.64,0.88-3.32,1.24-5.02
				c0.71-3.4,1.27-6.84,1.76-10.3c1-6.92,1.78-13.88,2.47-20.85c1.39-13.94,2.41-27.92,3.34-41.9l0.01-0.18l0.07-0.15l2.82-5.59
				c0.21-0.45,0.54-0.97,0.62-1.34l0.18-0.6v-0.58c0-0.2,0-0.38-0.08-0.57c-0.09-0.18-0.02-0.39-0.18-0.55
				c-0.24-0.35-0.49-0.71-0.87-1c-0.67-0.64-1.56-1.11-2.43-1.57c-0.91-0.42-1.85-0.79-2.82-1.11c-1.94-0.62-3.97-1.09-5.97-1.41
				l-1.14-0.18l0.61-0.91l6.02-8.96c2.07-2.93,4.19-5.82,6.28-8.74c4.19-5.82,8.48-11.56,12.81-17.27l0.05-0.06l0.06-0.04l7.76-5.26
				l0.08-0.05l0.12-0.01c1.63-0.18,3.29-0.18,4.9-0.51l2.42-0.45c0.81-0.16,1.58-0.44,2.38-0.65c0.79-0.22,1.59-0.44,2.34-0.77
				l2.3-0.9c1.47-0.74,2.98-1.41,4.37-2.3c0.71-0.42,1.43-0.83,2.09-1.32c0.67-0.48,1.37-0.92,2.02-1.44c1.31-1,2.56-2.08,3.77-3.21
				c2.38-2.29,4.57-4.81,6.37-7.59C148.17,63.66,150.26,64.53,152.13,65.81z M139.9,70.39c-1.19,1.16-2.43,2.26-3.73,3.3
				c-0.64,0.53-1.34,0.99-2,1.49c-0.66,0.51-1.38,0.94-2.08,1.37c-1.39,0.93-2.9,1.63-4.38,2.41l-2.31,0.96
				c-0.76,0.35-1.56,0.58-2.36,0.82c-0.8,0.23-1.59,0.53-2.4,0.71l-2.46,0.5c-1.63,0.36-3.31,0.39-4.98,0.6l0.19-0.06l-7.66,5.4
				l0.11-0.1l-6.3,8.7c-2.1,2.9-4.21,5.79-6.26,8.73c-2.05,2.93-4.14,5.85-6.17,8.79l-5.87,8.95l-0.53-1.09
				c2.13,0.31,4.18,0.77,6.23,1.4c1.02,0.32,2.03,0.7,3.02,1.15c0.98,0.49,1.97,1,2.83,1.79c0.46,0.35,0.83,0.85,1.18,1.36
				c0.21,0.23,0.26,0.58,0.39,0.87c0.12,0.3,0.22,0.61,0.19,0.95c0,0.33,0.01,0.66-0.01,0.98l-0.29,0.89
				c-0.19,0.65-0.45,1.01-0.67,1.51l-2.78,5.62l0.09-0.34c-0.74,14.02-1.79,28.02-3.11,42c-0.67,6.99-1.43,13.97-2.41,20.94
				c-0.49,3.49-1.05,6.96-1.76,10.43c-0.35,1.74-0.77,3.47-1.26,5.2c-0.29,0.87-0.53,1.73-0.93,2.6c-0.15,0.43-0.39,0.87-0.67,1.31
				c-0.19,0.42-0.7,0.91-1.18,1.32l0.49-0.74c-0.1,1.04,0.33,2.23,1.26,2.72c0.93,0.57,2.28,0.68,3.62,0.58
				c1.34-0.08,2.73-0.43,4.08-0.82c1.28-0.36,2.76-0.94,4.14-1.37c5.6-1.83,11.28-3.44,17.04-4.72c5.76-1.27,11.61-2.28,17.58-2.51
				c2.98-0.09,6.01,0.01,9.01,0.67c1.5,0.29,2.98,0.84,4.4,1.54c1.4,0.77,2.69,1.83,3.66,3.18l-0.13-0.15
				c1.54,1.43,3.37,2.83,5.23,3.53c0.93,0.35,1.86,0.43,2.46,0.08c0.63-0.31,1.08-1.15,1.33-2.12c0.47-1.97,0.42-4.22,0.22-6.41
				c-0.21-2.2-0.59-4.41-1-6.61l-0.04-0.18l0.03-0.17c0.7-4.13,1.47-8.24,2.27-12.34c0.82-4.1,1.69-8.19,2.65-12.26
				c0.44-2.05,0.98-4.07,1.51-6.09c0.55-2.02,1.01-4.06,1.68-6.06l0.94-3.01c0.32-1,0.59-2.01,0.96-3l2.34-5.89l-0.04,0.1
				c1.29-4.26,2.37-8.64,3.3-13.02c0.93-4.39,1.7-8.82,2.3-13.26c1.2-8.89,1.68-17.9,1.08-26.85c-0.19-2.23-0.36-4.47-0.73-6.68
				c-0.28-2.22-0.77-4.41-1.25-6.6l-0.87-3.25c-0.32-1.07-0.71-2.12-1.07-3.18c-0.32-1.08-0.82-2.08-1.25-3.12l-0.66-1.54
				l-0.79-1.48c-0.99-2.01-2.25-3.88-3.53-5.71l-2.1-2.62l-2.36-2.4c-0.76-0.83-1.71-1.45-2.56-2.19c-0.84-0.75-1.78-1.37-2.74-1.96
				c-1.84-1.31-3.91-2.22-5.91-3.25C144.39,65.48,142.25,68.05,139.9,70.39z"/>
		</g>
		<g>
			<path fill="#262C62" d="M121.73,128.37c0,0-5.18,6.88-3.28,15.7c0,0-31.97-11.29-41.88-20.93c0,0-3.58-1.29-3.85-5.32
				c-0.28-4.04,0-1.29,0-1.29s1.65-16.52-4.68-19c0,0-3.85-0.55-4.68-2.48c-0.83-1.93,0-1.1,0-1.1s-6.06-2.75-7.71,2.75
				c-1.65,5.51-2.02,2.48-2.66,2.75c-0.64,0.28-3.67,2.76-3.4,4.41s-1.1,0.82-1.38,2.75c-0.28,1.93,0,4.13,0,6.06
				c0,1.93-0.12,7.16-0.12,7.16s5.08,6.33,11.69,8.81c0,0,16.52,11.02,18.18,14.05c0,0,21.15,22.58,32.88,24.23
				c0,0,14.48,6.89,18.89-3.58c0,0,15.69-16.52,15.15-23.41C144.86,139.94,144.31,125.89,121.73,128.37z"/>
			<path fill="#6DCFF6" d="M110.76,167.19c-11.7-1.69-32.12-23.39-32.99-24.31l-0.02-0.06c-1.6-2.94-17.87-13.84-17.98-13.92
				c-6.61-2.48-11.32-8.83-11.37-8.9l0.48-0.08v-0.1c0-0.05-0.42-5.25-0.42-7.15c0-0.63-0.41-1.29-0.44-1.96
				c-0.06-1.39-0.21-2.82-0.02-4.14c0.15-1.07,0.6-1.41,0.95-1.66c0.33-0.23,0.48-0.35,0.37-1.01c-0.31-1.86,2.94-4.44,3.55-4.71
				c0.3-0.13,0.59,0.11,0.79,0.33c0.09,0.1,0.22,0.24,0.29,0.24c0.08,0,0.52-0.15,1.41-3.15c0.91-3.01,3.08-3.64,4.74-3.64
				c1.18,0,2.26,0.31,2.86,0.52c0.13-0.03,0.28,0.02,0.39,0.1l0.05,0.01l-0.01,0.02c0.06,0.04,0.1,0.08,0.14,0.11l1.07,1.07
				l-1.28-0.59c0.05,0.16,0.13,0.36,0.27,0.67c0.75,1.76,4.43,2.21,4.53,2.23c6.46,2.52,4.92,19.14,4.85,19.14H72.9
				c0.02,0,0.05,0.85,0.08,1.38c0.26,3.8,3.54,5.16,3.67,5.21l0.1,0.07c9.12,8.86,37.37,19.28,41.33,20.71
				c-1.62-8.61,3.38-15.37,3.43-15.44l0.07-0.09l0.12-0.01c1.78-0.2,3.5-0.29,5.1-0.29c17.66,0,18.33,12,18.34,12.11
				c0.55,6.83-14.17,22.5-15.19,23.58c-1.67,3.93-4.91,5.92-9.6,5.92C115.73,169.42,111.23,167.41,110.76,167.19z M121.88,128.64
				c-0.6,0.85-4.9,7.35-3.16,15.38l0.11,0.5l-0.47-0.13c-0.32-0.11-32.05-11.33-41.94-20.89c-0.48-0.2-3.71-1.54-3.98-5.42
				c-0.16-2.29-0.15-2.08-0.04-2.2l0.08,0.38h0.05c0.23-4,0.52-16.01-4.53-18c-0.16-0.02-4.02-1.08-4.9-3.13
				c-0.26-0.6-0.36-0.93-0.38-1.15c-0.58-0.2-1.55-0.46-2.6-0.46c-2.15,0-3.57,1.09-4.21,3.25c-0.88,2.94-1.42,3.54-1.95,3.54
				c-0.31,0-0.52-0.23-0.7-0.41c-0.06-0.07-0.17-0.18-0.18-0.2c-0.59,0.25-3.48,2.65-3.23,4.11c0.17,1.01-0.25,1.3-0.61,1.56
				c-0.32,0.22-0.64,0.45-0.76,1.28c-0.18,1.27-0.12,2.68-0.06,4.04c0.03,0.68,0.06,1.34,0.06,1.98c0,1.76-0.1,6.32-0.12,7.06
				c0.6,0.72,5.44,6.38,11.56,8.68c0.67,0.45,16.49,11.01,18.25,14.11c0.81,0.86,21.37,22.53,32.7,24.12l0.08,0.03
				c0.05,0.02,4.67,2.19,9.41,2.19c4.47,0,7.54-1.9,9.11-5.63l0.06-0.08c0.16-0.16,15.6-16.51,15.07-23.21
				c0-0.03-0.14-2.91-2.38-5.77c-2.98-3.81-8.3-5.82-15.41-5.82C125.25,128.35,123.6,128.45,121.88,128.64z"/>
		</g>
		<path fill="#262C62" d="M229.31,320.6c0,0,0.56-2.79-5.2-4.46c0,0,10.95,1.09,9.66,5.2C233.38,322.59,229.31,320.6,229.31,320.6z"
			/>
		<path fill="#262C62" d="M202,293.91c0,0,18.37-1.87,20.89,11.57C222.89,305.49,228.96,291.76,202,293.91z"/>
		<path fill="#262C62" d="M220.35,313.39c0,0,3.5,6.32,0,6.94C216.85,320.97,229.05,315.48,220.35,313.39z"/>
		<path fill="#262C62" d="M144.58,139.95c2.42-3.87,4.65-7.85,6.65-11.94c2.04-4.07,3.85-8.25,5.31-12.54
			c1.44-4.29,2.62-8.68,3.02-13.15c0.09-1.12,0.15-2.23,0.13-3.35c-0.03-1.11-0.06-2.23-0.24-3.32c-0.12-1.1-0.38-2.18-0.67-3.24
			c-0.18-0.52-0.32-1.05-0.52-1.56l-0.64-1.52l0.14,0.19c-0.65-0.61-1.51-1.2-2.37-1.64c-0.88-0.44-1.79-0.82-2.76-1.04
			c-0.95-0.26-1.94-0.36-2.93-0.39c-0.99-0.01-1.98,0.06-2.96,0.27c-0.49,0.07-0.98,0.2-1.45,0.35c-0.48,0.15-0.97,0.26-1.43,0.48
			l-1.39,0.58l-1.34,0.72c-0.9,0.46-1.75,1.03-2.59,1.61c-0.84,0.58-1.66,1.2-2.46,1.85c-0.8,0.64-1.58,1.32-2.32,2.02
			c-0.76,0.7-1.48,1.43-2.17,2.19c-0.71,0.75-1.35,1.55-2,2.35c-0.6,0.84-1.25,1.63-1.78,2.52l-0.84,1.3l-0.73,1.36
			c-0.52,0.89-0.89,1.86-1.3,2.81c-0.43,0.94-0.65,1.96-0.99,2.94c-0.27,1-0.44,2.02-0.66,3.04c0.16-1.03,0.25-2.07,0.46-3.09
			c0.28-1,0.46-2.04,0.84-3.02c0.36-0.98,0.69-1.98,1.17-2.92l0.68-1.42l0.78-1.37c0.49-0.93,1.15-1.76,1.73-2.64
			c0.64-0.83,1.27-1.68,1.97-2.46c0.69-0.8,1.4-1.57,2.15-2.31c0.74-0.75,1.51-1.46,2.31-2.15c0.8-0.69,1.62-1.35,2.46-1.98
			c0.85-0.63,1.72-1.25,2.67-1.74l1.4-0.77l1.48-0.64c0.48-0.24,1.01-0.36,1.52-0.53c0.51-0.17,1.03-0.32,1.57-0.4
			c1.06-0.24,2.15-0.33,3.24-0.33c1.09,0.01,2.19,0.12,3.25,0.39c1.07,0.24,2.1,0.64,3.08,1.13c0.99,0.5,1.88,1.07,2.76,1.88
			l0.09,0.08l0.05,0.11l0.71,1.63c0.22,0.55,0.37,1.12,0.55,1.69c0.3,1.14,0.56,2.29,0.68,3.46c0.17,1.16,0.2,2.33,0.21,3.5
			c0,1.17-0.07,2.33-0.17,3.49c-0.13,1.15-0.27,2.31-0.49,3.44c-0.19,1.14-0.46,2.26-0.72,3.39c-0.3,1.12-0.59,2.23-0.94,3.33
			c-0.32,1.11-0.73,2.18-1.12,3.26c-1.62,4.31-3.57,8.46-5.75,12.49C149.67,132.35,147.29,136.27,144.58,139.95z"/>
		<path fill-rule="evenodd" clip-rule="evenodd" fill="#262C62" d="M146.15,62.67c0,0-9.64,14.12-20.23,16.81
			C125.91,79.48,140.05,80.84,146.15,62.67z"/>
		<path fill-rule="evenodd" clip-rule="evenodd" fill="#2A3577" d="M132.04,55.65c-2.73-2.34,2.1,2.12,0,5.27
			C132.04,60.92,136.37,59.37,132.04,55.65z"/>
		<path fill-rule="evenodd" clip-rule="evenodd" fill="#2A3577" d="M134.54,56.15c0,0,3.21,5.45-13.95,16.11
			C120.59,72.25,132.95,61.6,134.54,56.15z"/>
		<path fill-rule="evenodd" clip-rule="evenodd" fill="#2A3577" d="M110.52,76.06c0,0,1.97-2.57,4.75-6.53
			C115.27,69.53,113.64,75.29,110.52,76.06z"/>
		<path fill="#262C62" d="M249.64,322.59c0,0,6.18-10.73-8.19-16.8c0,0,14.4,1.71,16.86,15.91L249.64,322.59z"/>
		<path fill="#262C62" d="M271.24,317.75c0,0-26.25-23.46-29.45-22.45C241.79,295.3,271.3,310.5,271.24,317.75z"/>
		<path fill="#262C62" d="M237.27,295.26c0,0-26.51-13.84-30.68-7.61C206.6,287.66,214.76,275.94,237.27,295.26z"/>
		<g>
			<path fill="#262C62" d="M89.51,19.65c0,0,1.29,1.26,9.96-1.19c0,0,31.55-10.08,33.83,2.24c0,0,3.82,19.73,1.22,24.46
				c0,0,1.36,7.32,6.07,5.07c0,0,11.02-36.62-4.92-42.41c0,0-1.51-7.79-15.08-6.49c0,0-16.82-4.99-34.33,6.7
				C86.26,8.03,85.75,16.23,89.51,19.65z"/>
			<path fill="#6DCFF6" d="M89.51,19.65c0.67,0.34,1.46,0.33,2.19,0.29c0.75-0.01,1.49-0.14,2.23-0.24
				c1.47-0.25,2.93-0.58,4.37-0.98c1.45-0.35,2.86-0.86,4.32-1.23c1.44-0.39,2.89-0.76,4.35-1.1c2.92-0.67,5.87-1.22,8.84-1.59
				c2.97-0.37,5.99-0.57,9-0.26c1.5,0.15,3,0.45,4.42,1.04c1.41,0.58,2.75,1.52,3.59,2.89c0.17,0.35,0.36,0.71,0.51,1.07l0.32,1.13
				l0.42,2.21c0.27,1.48,0.52,2.96,0.75,4.44c0.45,2.97,0.83,5.95,1.04,8.96c0.11,1.5,0.15,3.02,0.11,4.54
				c-0.12,1.53-0.11,3.07-0.89,4.65l0.07-0.42c0.15,0.69,0.38,1.42,0.66,2.09c0.15,0.33,0.3,0.66,0.48,0.97
				c0.19,0.3,0.38,0.6,0.61,0.85c0.11,0.13,0.22,0.26,0.35,0.36c0.12,0.1,0.24,0.23,0.38,0.29c0.14,0.07,0.26,0.19,0.41,0.22
				c0.14,0.04,0.28,0.1,0.43,0.13l0.45,0.04c0.15,0,0.31-0.05,0.46-0.06c0.31-0.01,0.62-0.21,0.93-0.3l-0.35,0.41
				c1.03-3.65,1.84-7.4,2.46-11.15c0.61-3.76,1.06-7.54,1.17-11.33c0.04-1.89-0.01-3.79-0.18-5.66c-0.1-0.93-0.22-1.87-0.4-2.78
				c-0.19-0.92-0.38-1.83-0.68-2.71c-0.26-0.89-0.62-1.75-1.03-2.57c-0.41-0.82-0.91-1.59-1.47-2.3c-0.58-0.7-1.23-1.32-1.95-1.87
				c-0.38-0.24-0.75-0.5-1.14-0.73l-1.24-0.57l-0.3-0.14l-0.07-0.29c-0.06-0.26-0.18-0.61-0.32-0.92c-0.15-0.3-0.3-0.62-0.5-0.9
				c-0.18-0.3-0.4-0.56-0.62-0.83c-0.21-0.28-0.49-0.5-0.73-0.75c-0.26-0.23-0.55-0.43-0.82-0.65l-0.9-0.56
				c-0.31-0.18-0.64-0.31-0.96-0.46c-0.32-0.17-0.66-0.26-1-0.38c-0.67-0.26-1.38-0.38-2.09-0.55c-0.35-0.09-0.72-0.1-1.07-0.15
				c-0.36-0.04-0.72-0.1-1.08-0.12c-0.73-0.02-1.46-0.06-2.19-0.06l-2.19,0.1l-0.08,0l-0.06-0.02c-1.4-0.39-2.88-0.64-4.35-0.84
				c-0.74-0.07-1.48-0.17-2.22-0.2c-0.74-0.03-1.49-0.11-2.23-0.09c-0.75,0.01-1.49-0.04-2.23,0.02c-0.75,0.05-1.49,0.06-2.23,0.13
				l-2.22,0.24l-2.21,0.37c-0.74,0.1-1.46,0.3-2.19,0.48c-0.72,0.19-1.46,0.32-2.17,0.57l-2.13,0.69c-0.71,0.24-1.39,0.55-2.08,0.83
				c-0.69,0.29-1.39,0.54-2.05,0.9l-2,1.01c-0.68,0.31-1.3,0.74-1.95,1.12l-1.92,1.16l0.02-0.04c-0.08,2.06,0.05,4.13,0.48,6.15
				c0.23,1,0.51,2.01,0.95,2.94c0.09,0.24,0.24,0.46,0.36,0.69c0.12,0.23,0.25,0.45,0.41,0.66s0.28,0.44,0.47,0.62L89.51,19.65z
				 M89.51,19.65l-0.54-0.56c-0.19-0.18-0.31-0.41-0.47-0.61c-0.16-0.2-0.3-0.42-0.42-0.65c-0.12-0.23-0.27-0.44-0.36-0.68
				c-0.45-0.93-0.9-1.93-1.14-2.94c-0.45-2.02-0.7-4.1-0.7-6.17V8l0.18-0.01l1.99-1.18c0.64-0.38,1.3-0.82,1.98-1.14l2.02-1.03
				c0.66-0.37,1.38-0.62,2.06-0.92c0.7-0.28,1.38-0.61,2.09-0.85l2.14-0.72c0.7-0.27,1.44-0.42,2.17-0.62
				c0.73-0.19,1.45-0.41,2.19-0.53l2.22-0.43l2.24-0.3c0.75-0.09,1.5-0.12,2.25-0.18c0.75-0.08,1.51-0.05,2.26-0.07
				c0.75-0.03,1.51,0.03,2.26,0.04c0.75,0.02,1.51,0.1,2.26,0.16c1.51,0.17,2.99,0.38,4.49,0.76l-0.14-0.01l2.25-0.16
				c0.75-0.02,1.5,0.01,2.26,0.01c0.38,0.02,0.75,0.07,1.13,0.1c0.38,0.05,0.76,0.05,1.13,0.14c0.75,0.15,1.5,0.27,2.23,0.53
				c0.37,0.12,0.74,0.21,1.09,0.38c0.35,0.16,0.71,0.3,1.05,0.48l1,0.59c0.31,0.24,0.63,0.46,0.93,0.71
				c0.28,0.28,0.59,0.52,0.84,0.83c0.26,0.3,0.52,0.6,0.73,0.93c0.24,0.32,0.42,0.67,0.6,1.03c0.18,0.37,0.32,0.72,0.43,1.17
				l-0.37-0.43l1.39,0.6c0.45,0.24,0.87,0.52,1.3,0.78c0.42,0.28,0.79,0.64,1.18,0.95c0.38,0.34,0.69,0.74,1.04,1.11
				c0.63,0.79,1.19,1.63,1.64,2.52c0.45,0.89,0.84,1.81,1.13,2.75c0.33,0.93,0.54,1.9,0.75,2.86c0.2,0.96,0.33,1.93,0.45,2.9
				c0.2,1.94,0.27,3.89,0.24,5.83c-0.08,3.88-0.48,7.74-1.16,11.55c-0.67,3.81-1.52,7.56-2.6,11.29l-0.1,0.33l-0.26,0.08
				c-0.43,0.13-0.81,0.36-1.28,0.41c-0.23,0.03-0.46,0.08-0.69,0.08l-0.71-0.07c-0.23-0.05-0.46-0.14-0.68-0.21
				c-0.23-0.07-0.41-0.22-0.62-0.33c-0.21-0.11-0.37-0.27-0.54-0.42c-0.18-0.14-0.33-0.31-0.46-0.48c-0.3-0.33-0.52-0.69-0.74-1.05
				c-0.21-0.36-0.39-0.74-0.55-1.12c-0.31-0.77-0.55-1.52-0.72-2.36l-0.04-0.21l0.11-0.21c0.59-1.13,0.71-2.67,0.83-4.1
				c0.07-1.46,0.07-2.95,0-4.43c-0.13-2.97-0.45-5.93-0.83-8.89c-0.2-1.48-0.41-2.96-0.64-4.43c-0.28-1.48-0.35-2.99-1.07-4.2
				c-0.71-1.23-1.91-2.13-3.24-2.71c-1.33-0.59-2.79-0.92-4.26-1.1c-2.94-0.37-5.95-0.24-8.91,0.06c-2.97,0.32-5.92,0.86-8.83,1.49
				c-1.46,0.33-2.91,0.68-4.36,1.06c-1.45,0.36-2.87,0.85-4.33,1.19c-1.45,0.39-2.91,0.71-4.39,0.95c-0.74,0.09-1.48,0.21-2.23,0.22
				C90.97,19.99,90.17,19.99,89.51,19.65z"/>
		</g>
		<g>
			<path fill="#4FC4E8" d="M95.01,20.53c0,0,15.9-4.87,14.7,0.09c0,0-7.75,7.5-0.14,9.83c7.61,2.33,3.69,3.31,6.99,6.96
				c0,0,5.02,6.42,10.47-1.84c0,0,8.86-2.19,4.86,11.03v3.3c0,0,8.83-2.2,5.52-14.32c0,0-4.12-12.67-4.12-14.87
				c0,0-0.94-8.81-9.07-6.61c0,0-21.42-3.86-30.78,5.51"/>
			<path fill="#4FC4E8" d="M105.62,15.61c0,0.02-0.08-0.39-0.27-0.96c-0.18-0.56-0.48-1.28-0.87-1.96
				c-0.18-0.34-0.46-0.64-0.67-0.93c-0.26-0.26-0.55-0.47-0.76-0.65c-0.54-0.24-0.87-0.34-0.87-0.34s0.29,0.25,0.64,0.6
				c0.12,0.24,0.28,0.48,0.4,0.76c0.07,0.32,0.2,0.61,0.23,0.95c0.1,0.66,0.11,1.33,0.07,1.83c-0.03,0.49-0.09,0.79-0.09,0.81
				L105.62,15.61z"/>
			<path fill="#4FC4E8" d="M111.76,15.33c-0.02,0.04,0.19-0.5,0.31-1.26c0.08-0.37,0.1-0.82,0.13-1.29c0.01-0.47-0.04-0.99-0.1-1.48
				c-0.16-0.49-0.2-0.99-0.45-1.39c-0.25-0.4-0.38-0.8-0.66-1.05c-0.5-0.49-0.84-0.82-0.84-0.82s0.21,0.4,0.54,1
				c0.18,0.28,0.18,0.7,0.29,1.07c0.11,0.38,0,0.83,0.02,1.23c-0.08,0.42-0.16,0.82-0.28,1.19c-0.15,0.37-0.26,0.7-0.42,0.97
				c-0.27,0.55-0.51,0.82-0.52,0.86L111.76,15.33z"/>
			<path fill="#4FC4E8" d="M120.13,16.54c0,0,0.17-0.16,0.46-0.44c0.28-0.28,0.66-0.7,1.07-1.23c0.41-0.54,0.86-1.2,1.2-2.01
				c0.35-0.78,0.59-1.78,0.37-2.75c-0.05-0.5-0.34-0.91-0.53-1.33c-0.31-0.33-0.57-0.71-0.91-0.95c-0.66-0.52-1.33-0.84-1.92-1.08
				c-0.58-0.26-1.1-0.36-1.45-0.48c-0.35-0.11-0.55-0.17-0.55-0.17s0.19,0.09,0.51,0.25c0.32,0.18,0.81,0.36,1.32,0.7
				c0.52,0.33,1.1,0.74,1.6,1.28c0.26,0.25,0.41,0.6,0.61,0.89c0.08,0.35,0.26,0.66,0.22,1.02c0.04,0.68-0.24,1.36-0.62,1.93
				c-0.36,0.58-0.83,1.07-1.24,1.46c-0.42,0.39-0.8,0.69-1.07,0.88c-0.27,0.18-0.42,0.29-0.42,0.29L120.13,16.54z"/>
			<path fill="#4FC4E8" d="M128.67,16.41c0,0,0.37-0.5,0.76-1.25c0.41-0.75,0.86-1.82,1.07-2.95c0.24-1.13,0.07-2.32-0.3-3.07
				c-0.36-0.76-0.8-1.1-0.77-1.12c-0.03,0.01,0.31,0.46,0.44,1.22c0.15,0.75,0.02,1.76-0.42,2.64c-0.42,0.89-1.04,1.67-1.54,2.21
				c-0.52,0.55-0.87,0.82-0.87,0.82L128.67,16.41z"/>
			<path fill="#4FC4E8" d="M132.56,17.93c0,0,1.71-1.05,3.02-2.54c0.65-0.74,1.18-1.61,1.34-2.34c0.07-0.36,0.1-0.67,0.06-0.88
				c-0.02-0.21-0.04-0.33-0.04-0.33s0,0.12-0.01,0.33c0.01,0.21-0.06,0.5-0.18,0.83c-0.25,0.66-0.85,1.39-1.57,2
				c-0.71,0.61-1.51,1.1-2.12,1.44c-0.62,0.34-1.03,0.52-1.03,0.52L132.56,17.93z"/>
			<path fill="#4FC4E8" d="M132.56,24.54c0,0,1.71-1.05,3.02-2.54c0.65-0.74,1.18-1.61,1.34-2.34c0.07-0.36,0.1-0.67,0.06-0.88
				c-0.02-0.21-0.04-0.33-0.04-0.33s0,0.12-0.01,0.33c0.01,0.21-0.06,0.5-0.18,0.83c-0.25,0.66-0.85,1.39-1.57,2
				c-0.71,0.61-1.51,1.1-2.12,1.44c-0.62,0.34-1.03,0.52-1.03,0.52L132.56,24.54z"/>
			<path fill="#4FC4E8" d="M132.56,31.15c0,0,1.71-1.05,3.02-2.54c0.65-0.74,1.18-1.61,1.34-2.34c0.07-0.36,0.1-0.67,0.06-0.88
				c-0.02-0.21-0.04-0.33-0.04-0.33s0,0.12-0.01,0.33c0.01,0.21-0.06,0.5-0.18,0.83c-0.25,0.66-0.85,1.39-1.57,1.99
				c-0.71,0.61-1.51,1.1-2.12,1.44c-0.62,0.34-1.03,0.52-1.03,0.52L132.56,31.15z"/>
			<path fill="#4FC4E8" d="M132.56,35.56c0,0,1.71-1.05,3.02-2.54c0.65-0.74,1.18-1.61,1.34-2.33c0.07-0.36,0.1-0.67,0.06-0.88
				c-0.02-0.21-0.04-0.33-0.04-0.33s0,0.12-0.01,0.33c0.01,0.21-0.06,0.5-0.18,0.83c-0.25,0.66-0.85,1.39-1.57,1.99
				c-0.71,0.61-1.51,1.1-2.12,1.44c-0.62,0.34-1.03,0.52-1.03,0.52L132.56,35.56z"/>
		</g>
		<path fill="#262C62" d="M93.38,30.72c0,0,0.89,0,2.21,0.15c1.31,0.18,3.07,0.38,4.63,0.96c0.78,0.29,1.5,0.69,2.04,1.08
			c0.33,0.15,0.53,0.37,0.82,0.5c0.26,0.16,0.43,0.37,0.68,0.52c0.19,0.21,0.37,0.39,0.52,0.56c0.21,0.17,0.25,0.38,0.39,0.53
			c0.21,0.33,0.37,0.54,0.37,0.54l0.22-0.01c0,0,0.09-0.23,0.17-0.67c0.03-0.22,0.13-0.51,0.06-0.82c-0.06-0.31-0.1-0.7-0.25-1.08
			c-0.33-0.74-0.95-1.56-1.81-2.04c-0.43-0.23-0.89-0.44-1.37-0.53c-0.47-0.15-0.95-0.21-1.42-0.29c-1.88-0.3-3.72-0.21-5.07-0.02
			c-1.35,0.18-2.22,0.4-2.22,0.4L93.38,30.72z"/>
		<path fill="#262C62" d="M91.93,57.75c0,0,9.51-1.07,11.16,1.13c1.65,2.2,0,0.73,0,0.73s0.29,5.81-6.19,4.56
			c0,0,0.41-2.68-0.46-3.25C95.57,60.35,91.93,57.75,91.93,57.75z"/>
		<path fill="#262C62" d="M89.25,52.24c0,0-0.48-3.09,5.21-1.62"/>
		<path fill="#262C62" d="M93.39,35.62c0,0,1.88-0.76,3.76-0.8c0.95,0.04,1.75,0.22,2.39,0.37c0.31,0.1,0.59,0.19,0.79,0.29
			c0.2,0.09,0.34,0.13,0.34,0.13l0.08-0.07c-0.01,0.02-0.12-0.56-0.8-1.11c-0.34-0.24-0.79-0.48-1.31-0.58
			c-0.52-0.05-1.07-0.01-1.58,0.1c-2.09,0.36-3.72,1.58-3.72,1.58L93.39,35.62z"/>
		<path fill="#262C62" d="M94.19,35.98c0,0,0.18,0.35,0.72,0.75c0.29,0.17,0.61,0.42,1.05,0.55c0.43,0.15,0.9,0.29,1.41,0.33
			c0.5,0.08,1,0.04,1.46,0.01c0.47-0.01,0.88-0.11,1.23-0.21c0.69-0.21,1.11-0.37,1.11-0.37s-0.5,0.01-1.2,0.07
			c-0.34,0.06-0.75,0.06-1.17,0.04c-0.43,0.01-0.88,0.02-1.31-0.07c-0.91-0.04-1.71-0.36-2.33-0.58
			C94.55,36.23,94.19,35.98,94.19,35.98z"/>
		<path fill="#262C62" d="M90.47,31.71c0,0,0.03-0.25-0.08-0.55c-0.12-0.28-0.3-0.67-0.85-0.86c-0.24-0.1-0.74-0.06-0.95,0.21
			c-0.23,0.24-0.22,0.5-0.23,0.66c0.03,0.34,0.19,0.53,0.19,0.53s0.2-0.17,0.39-0.33c0.07-0.09,0.22-0.14,0.25-0.11
			c0.03,0.04-0.06,0.05,0.02,0.08c0.13,0.03,0.48,0.17,0.74,0.24C90.22,31.68,90.47,31.71,90.47,31.71z"/>
	</g>
</g>
<g id="Text_3" display="none">
</g>
<g id="_x32__dotted" display="none">
</g>
<g id="_x32__BG_1_">
</g>
<g id="_x32__BG">
</g>
<g id="Text_2" display="none">
</g>
<g id="_x31__dotted">
</g>
<g id="_x31__BG">
</g>
<g id="Layer_7">
</g>
<g id="TEAMS">
</g>
<g id="FIFA">
</g>
<g id="LOGO">
</g>
<g id="Layer_31">
</g>
<g id="Layer_6">
</g>
</svg>
